<svg width="20" height="20" viewBox="0 0 20 20" fill="none" xmlns="http://www.w3.org/2000/svg">
<path fill-rule="evenodd" clip-rule="evenodd" d="M18.3332 9.99996C18.3332 14.6023 14.6022 18.3333 9.99984 18.3333C5.39746 18.3333 1.6665 14.6023 1.6665 9.99996C1.6665 5.39759 5.39746 1.66663 9.99984 1.66663C14.6022 1.66663 18.3332 5.39759 18.3332 9.99996ZM10.9257 6.29621C10.9257 6.80758 10.5111 7.22213 9.99974 7.22213C9.48837 7.22213 9.07382 6.80758 9.07382 6.29621C9.07382 5.78483 9.48837 5.37028 9.99974 5.37028C10.5111 5.37028 10.9257 5.78483 10.9257 6.29621ZM10.9998 14.6296V9.07405H8.99984V14.6296H10.9998Z" fill="#73B1B1"/>
</svg>