<svg width="142" height="30" viewBox="0 0 142 30" fill="none" xmlns="http://www.w3.org/2000/svg">
    <path fill-rule="evenodd" clip-rule="evenodd"
        d="M26.9393 2.47604H2.47604V26.9393H26.9393V2.47604ZM0 0V29.4153H29.4153V0H0Z" fill="white" />
    <path
        d="M7.23032 7.72521V9.90413H20.3038V12.083H7.23032V14.262H22.4827V7.72521H7.23032ZM7.23032 16.4409V22.9776H22.4827V20.7987H9.40923V18.6198H22.4827V16.4409H7.23032Z"
        fill="white" />
    <path
        d="M41.1532 7.82431L42.7002 11.4413H55.12V7.82431H41.1532ZM46.4044 13.5113L37.5362 19.4597V23.0767H55.12L53.573 19.4597H44.0511L52.9193 13.5113H46.4044Z"
        fill="white" />
    <path
        d="M62.8785 16.8668V11.4413H73.2283V19.4597H62.8785L64.4255 23.0767H75.8212C76.3878 23.0767 76.8453 22.6191 76.8453 22.0526V8.8484C76.8453 8.28189 76.3878 7.82431 75.8212 7.82431H60.2856C59.7191 7.82431 59.2615 8.28189 59.2615 8.8484V16.8668H62.8785Z"
        fill="white" />
    <path
        d="M98.7834 7.82431L90.0024 15.5813L84.8166 11.0273V15.8427L90.0024 20.4184L95.1664 15.8427V23.0767H98.7834V7.82431ZM81.1996 23.0767H84.8166V18.6099L81.1996 15.4069V23.0767Z"
        fill="white" />
    <path
        d="M106.755 7.82431V11.4413H119.174L120.722 7.82431H106.755ZM103.138 13.2498V23.0767H120.722L119.174 19.4597H106.755V16.8668H117.627V13.2498H103.138Z"
        fill="white" />
    <path
        d="M133.829 7.82431L131.389 13.5113V23.0767H135.027V14.2521L136.226 11.4413H140.453L142 7.82431H133.829ZM124.416 7.82431V11.4413H129.144L130.691 7.82431H124.416Z"
        fill="white" />
</svg>