<svg width="34" height="34" viewBox="0 0 34 34" fill="none" xmlns="http://www.w3.org/2000/svg">
    <g clip-path="url(#clip0_201_7)">
        <path
            d="M6 6.00124V9.12302H24.431V12.2448H6.00122V15.3678H27.5034V6H6V6.00124ZM6 18.4896V27.8574H27.5034V24.7344H9.07244V21.6126H27.5022V18.4896H6ZM53.8247 6.14258L56.0056 11.3249H73.5157V6.14258H53.8247ZM61.2284 14.2917L48.7264 22.8165V27.9988H73.5145L71.3337 22.8165H57.9108L70.4128 14.2917H61.2284ZM84.454 19.1008V11.3261H99.0454V22.8165H84.454L86.6349 27.9988H102.701C103.499 27.9988 104.144 27.3442 104.144 26.5321V7.61048C104.144 6.79842 103.499 6.14258 102.701 6.14258H80.7986C79.9997 6.14258 79.3544 6.79842 79.3544 7.60924V19.1008H84.454ZM135.073 6.14258L122.693 17.2585L115.382 10.7323V17.6329L122.693 24.1901L129.974 17.6329V27.9988H135.073V6.14258ZM110.283 28H115.382V21.5977L110.284 17.0068V27.9975L110.283 28ZM146.31 6.14258V11.3249H163.82L166.001 6.14258H146.31ZM141.212 13.916V28H166.001L163.82 22.8165H146.31V19.1008H161.64V13.9173L141.212 13.916ZM184.481 6.14258L181.04 14.2917V27.9988H186.17V15.3529L187.86 11.3261H193.819L196 6.14258H184.481ZM171.211 6.14258V11.3249H177.876L180.057 6.14258H171.211Z"
            fill="black" />
    </g>
    <defs>
        <clipPath id="clip0_201_7">
            <rect width="34" height="34" fill="white" />
        </clipPath>
    </defs>
</svg>