<svg xmlns="http://www.w3.org/2000/svg" version="1.1" xmlns:xlink="http://www.w3.org/1999/xlink"
    xmlns:svgjs="http://svgjs.dev/svgjs" viewBox="0 0 800 800">
    <g stroke="#278fd9" fill="none" stroke-linecap="round">
        <circle r="363" cx="400" cy="400" stroke-width="11" stroke-dasharray="22 21" stroke-dashoffset="25"
            transform="rotate(252, 400, 400)" opacity="0.05"></circle>
        <circle r="346.5" cx="400" cy="400" stroke-width="11" stroke-dasharray="32 23" stroke-dashoffset="25"
            transform="rotate(228, 400, 400)" opacity="0.10"></circle>
        <circle r="330" cx="400" cy="400" stroke-width="10" stroke-dasharray="27 36" stroke-dashoffset="25"
            transform="rotate(167, 400, 400)" opacity="0.14"></circle>
        <circle r="313.5" cx="400" cy="400" stroke-width="10" stroke-dasharray="48 23" stroke-dashoffset="25"
            transform="rotate(230, 400, 400)" opacity="0.19"></circle>
        <circle r="297" cx="400" cy="400" stroke-width="10" stroke-dasharray="53 44" stroke-dashoffset="25"
            transform="rotate(195, 400, 400)" opacity="0.23"></circle>
        <circle r="280.5" cx="400" cy="400" stroke-width="10" stroke-dasharray="34 43" stroke-dashoffset="25"
            transform="rotate(211, 400, 400)" opacity="0.28"></circle>
        <circle r="264" cx="400" cy="400" stroke-width="9" stroke-dasharray="37 48" stroke-dashoffset="25"
            transform="rotate(235, 400, 400)" opacity="0.32"></circle>
        <circle r="247.5" cx="400" cy="400" stroke-width="9" stroke-dasharray="31 55" stroke-dashoffset="25"
            transform="rotate(191, 400, 400)" opacity="0.37"></circle>
        <circle r="231" cx="400" cy="400" stroke-width="9" stroke-dasharray="22 25" stroke-dashoffset="25"
            transform="rotate(100, 400, 400)" opacity="0.41"></circle>
        <circle r="214.5" cx="400" cy="400" stroke-width="8" stroke-dasharray="14 50" stroke-dashoffset="25"
            transform="rotate(157, 400, 400)" opacity="0.46"></circle>
        <circle r="198" cx="400" cy="400" stroke-width="8" stroke-dasharray="50 36" stroke-dashoffset="25"
            transform="rotate(302, 400, 400)" opacity="0.50"></circle>
        <circle r="181.5" cx="400" cy="400" stroke-width="8" stroke-dasharray="12 31" stroke-dashoffset="25"
            transform="rotate(311, 400, 400)" opacity="0.55"></circle>
        <circle r="165" cx="400" cy="400" stroke-width="8" stroke-dasharray="49 16" stroke-dashoffset="25"
            transform="rotate(185, 400, 400)" opacity="0.59"></circle>
        <circle r="148.5" cx="400" cy="400" stroke-width="7" stroke-dasharray="25 28" stroke-dashoffset="25"
            transform="rotate(116, 400, 400)" opacity="0.64"></circle>
        <circle r="132" cx="400" cy="400" stroke-width="7" stroke-dasharray="13 39" stroke-dashoffset="25"
            transform="rotate(34, 400, 400)" opacity="0.68"></circle>
        <circle r="115.5" cx="400" cy="400" stroke-width="7" stroke-dasharray="29 33" stroke-dashoffset="25"
            transform="rotate(23, 400, 400)" opacity="0.73"></circle>
        <circle r="99" cx="400" cy="400" stroke-width="6" stroke-dasharray="48 36" stroke-dashoffset="25"
            transform="rotate(279, 400, 400)" opacity="0.77"></circle>
        <circle r="82.5" cx="400" cy="400" stroke-width="6" stroke-dasharray="28 26" stroke-dashoffset="25"
            transform="rotate(359, 400, 400)" opacity="0.82"></circle>
        <circle r="66" cx="400" cy="400" stroke-width="6" stroke-dasharray="43 44" stroke-dashoffset="25"
            transform="rotate(187, 400, 400)" opacity="0.86"></circle>
        <circle r="49.5" cx="400" cy="400" stroke-width="6" stroke-dasharray="12 50" stroke-dashoffset="25"
            transform="rotate(325, 400, 400)" opacity="0.91"></circle>
        <circle r="33" cx="400" cy="400" stroke-width="5" stroke-dasharray="21 28" stroke-dashoffset="25"
            transform="rotate(7, 400, 400)" opacity="0.95"></circle>
        <circle r="16.5" cx="400" cy="400" stroke-width="5" stroke-dasharray="26 24" stroke-dashoffset="25"
            transform="rotate(83, 400, 400)" opacity="1.00"></circle>
    </g>
</svg>