<svg width="19" height="22" viewBox="0 0 19 22" fill="none" xmlns="http://www.w3.org/2000/svg">
<path d="M13.9267 0C13.9802 0 14.0337 0 14.0903 0C14.2216 1.55149 13.6025 2.71075 12.85 3.55026C12.1117 4.38396 11.1008 5.19255 9.46562 5.06986C9.35655 3.5406 9.97667 2.46731 10.7281 1.62974C11.425 0.849163 12.7026 0.154569 13.9267 0Z" fill="none"/>
<path d="M18.8761 16.1486C18.8761 16.164 18.8761 16.1775 18.8761 16.192C18.4165 17.5233 17.7611 18.6642 16.9612 19.723C16.231 20.6842 15.3361 21.9777 13.7384 21.9777C12.3577 21.9777 11.4407 21.1286 10.0257 21.1054C8.52894 21.0822 7.70582 21.8154 6.33731 22C6.18077 22 6.02422 22 5.87071 22C4.86579 21.8608 4.05478 21.0996 3.46395 20.4137C1.72176 18.3869 0.375472 15.7689 0.125 12.4186C0.125 12.0902 0.125 11.7627 0.125 11.4342C0.231047 9.03645 1.44907 7.08695 3.06805 6.14214C3.92248 5.63979 5.09707 5.21183 6.40498 5.40311C6.96551 5.48619 7.53816 5.66974 8.04012 5.85136C8.51581 6.02622 9.11068 6.33632 9.67425 6.3199C10.056 6.30927 10.4358 6.11896 10.8206 5.98468C11.9477 5.59536 13.0526 5.14904 14.509 5.35867C16.2592 5.61178 17.5015 6.35564 18.2691 7.50332C16.7885 8.40465 15.6179 9.76292 15.8179 12.0824C15.9956 14.1894 17.2763 15.4221 18.8761 16.1486Z" fill="none"/>
</svg>
