<svg width="24" height="16" viewBox="0 0 24 16" fill="none" xmlns="http://www.w3.org/2000/svg">
<path d="M20.3303 1.34C18.7767 0.714 17.1156 0.259052 15.3789 0C15.1656 0.332095 14.9164 0.77877 14.7446 1.1341C12.8985 0.894993 11.0693 0.894993 9.25716 1.1341C9.08539 0.77877 8.83055 0.332095 8.61536 0C6.87681 0.259052 5.21376 0.715671 3.66019 1.34331C0.526643 5.42136 -0.322811 9.39811 0.101917 13.3184C2.18025 14.655 4.19441 15.467 6.17457 15.9984C6.66349 15.4189 7.09953 14.8028 7.47518 14.1536C6.75975 13.9195 6.07453 13.6306 5.42707 13.2952C5.59884 13.1856 5.76686 13.071 5.92918 12.9531C9.87819 14.5438 14.1689 14.5438 18.0707 12.9531C18.235 13.071 18.403 13.1856 18.5728 13.2952C17.9235 13.6322 17.2364 13.9211 16.521 14.1553C16.8966 14.8028 17.3308 15.4205 17.8216 16C19.8036 15.4687 21.8197 14.6567 23.898 13.3184C24.3964 8.77378 23.0467 4.83355 20.3303 1.34ZM8.01318 10.9075C6.82772 10.9075 5.85555 9.95435 5.85555 8.7937C5.85555 7.63305 6.80696 6.67831 8.01318 6.67831C9.21942 6.67831 10.1916 7.63138 10.1708 8.7937C10.1727 9.95435 9.21942 10.9075 8.01318 10.9075ZM15.9867 10.9075C14.8013 10.9075 13.8291 9.95435 13.8291 8.7937C13.8291 7.63305 14.7805 6.67831 15.9867 6.67831C17.193 6.67831 18.1651 7.63138 18.1444 8.7937C18.1444 9.95435 17.193 10.9075 15.9867 10.9075Z" fill="#14EC8A"/>
</svg>
