<svg width="24" height="18" viewBox="0 0 24 18" fill="none" xmlns="http://www.w3.org/2000/svg">
<path d="M20.3303 1.42627C18.7767 0.75997 17.1156 0.27573 15.3789 0C15.1656 0.353476 14.9164 0.82891 14.7446 1.20712C12.8985 0.952616 11.0693 0.952616 9.25714 1.20712C9.08538 0.82891 8.83054 0.353476 8.61535 0C6.87679 0.27573 5.21374 0.761749 3.66018 1.4298C0.526628 5.7704 -0.322826 10.0032 0.101901 14.1759C2.18024 15.5986 4.19439 16.4628 6.17456 17.0284C6.66347 16.4116 7.09952 15.7559 7.47516 15.0649C6.75974 14.8157 6.07451 14.5082 5.42706 14.1512C5.59882 14.0345 5.76684 13.9125 5.92916 13.7871C9.87818 15.4802 14.1689 15.4802 18.0707 13.7871C18.235 13.9125 18.4029 14.0345 18.5728 14.1512C17.9235 14.5099 17.2364 14.8174 16.5209 15.0666C16.8966 15.7559 17.3308 16.4134 17.8215 17.0301C19.8036 16.4646 21.8196 15.6004 23.898 14.1759C24.3963 9.33867 23.0466 5.14476 20.3303 1.42627ZM8.01316 11.6097C6.82771 11.6097 5.85554 10.5952 5.85554 9.35987C5.85554 8.1245 6.80695 7.10828 8.01316 7.10828C9.21941 7.10828 10.1915 8.12272 10.1708 9.35987C10.1727 10.5952 9.21941 11.6097 8.01316 11.6097ZM15.9867 11.6097C14.8013 11.6097 13.8291 10.5952 13.8291 9.35987C13.8291 8.1245 14.7805 7.10828 15.9867 7.10828C17.1929 7.10828 18.1651 8.12272 18.1443 9.35987C18.1443 10.5952 17.1929 11.6097 15.9867 11.6097Z" fill="none"/>
</svg>
