<svg width="14" height="10" viewBox="0 0 14 10" fill="none" xmlns="http://www.w3.org/2000/svg">
<path d="M11.8593 0.781665C10.9531 0.4165 9.98409 0.151113 8.97102 0C8.84661 0.193722 8.70125 0.454282 8.60104 0.661557C7.52412 0.522079 6.45712 0.522079 5.40001 0.661557C5.29981 0.454282 5.15116 0.193722 5.02563 0C4.01147 0.151113 3.04136 0.417475 2.13511 0.783598C0.307208 3.16246 -0.188307 5.48223 0.0594514 7.76906C1.27181 8.54878 2.44674 9.02243 3.60184 9.33237C3.88704 8.99433 4.14139 8.63498 4.36052 8.25627C3.94319 8.1197 3.54347 7.95117 3.16579 7.75551C3.26599 7.69158 3.364 7.62474 3.45869 7.55597C5.76228 8.48389 8.26519 8.48389 10.5413 7.55597C10.6371 7.62474 10.7351 7.69158 10.8342 7.75551C10.4554 7.95212 10.0546 8.12066 9.63723 8.25724C9.85635 8.63498 10.1096 8.99531 10.3959 9.33333C11.5521 9.02339 12.7281 8.54975 13.9405 7.76906C14.2312 5.11804 13.4439 2.81957 11.8593 0.781665ZM4.67435 6.36268C3.98284 6.36268 3.41574 5.8067 3.41574 5.12966C3.41574 4.45262 3.97073 3.89568 4.67435 3.89568C5.378 3.89568 5.94508 4.45164 5.93297 5.12966C5.93406 5.8067 5.378 6.36268 4.67435 6.36268ZM9.3256 6.36268C8.63408 6.36268 8.06699 5.8067 8.06699 5.12966C8.06699 4.45262 8.62195 3.89568 9.3256 3.89568C10.0292 3.89568 10.5963 4.45164 10.5842 5.12966C10.5842 5.8067 10.0292 6.36268 9.3256 6.36268Z" fill="#14EC8A"/>
</svg>
