<svg width="14" height="12" viewBox="0 0 14 12" fill="none" xmlns="http://www.w3.org/2000/svg">
    <path
        d="M11.8593 1.8375C10.9531 1.44625 9.98409 1.16191 8.97102 1C8.84661 1.20756 8.70125 1.48673 8.60104 1.70881C7.52412 1.55937 6.45712 1.55937 5.40001 1.70881C5.29981 1.48673 5.15116 1.20756 5.02563 1C4.01147 1.16191 3.04136 1.44729 2.13511 1.83957C0.307208 4.38835 -0.188307 6.87382 0.0594516 9.324C1.27181 10.1594 2.44674 10.6669 3.60184 10.999C3.88704 10.6368 4.14139 10.2518 4.36052 9.84601C3.94319 9.69968 3.54347 9.51911 3.16579 9.30948C3.26599 9.24098 3.364 9.16937 3.45869 9.09568C5.76228 10.0899 8.26519 10.0899 10.5413 9.09568C10.6371 9.16937 10.7351 9.24098 10.8342 9.30948C10.4554 9.52013 10.0546 9.70071 9.63723 9.84705C9.85635 10.2518 10.1096 10.6378 10.3959 11C11.5521 10.6679 12.7281 10.1604 13.9405 9.324C14.2312 6.48362 13.4439 4.02097 11.8593 1.8375ZM4.67435 7.81716C3.98284 7.81716 3.41574 7.22147 3.41574 6.49607C3.41574 5.77067 3.97073 5.17394 4.67435 5.17394C5.378 5.17394 5.94508 5.76962 5.93297 6.49607C5.93406 7.22147 5.378 7.81716 4.67435 7.81716ZM9.3256 7.81716C8.63408 7.81716 8.06699 7.22147 8.06699 6.49607C8.06699 5.77067 8.62195 5.17394 9.3256 5.17394C10.0292 5.17394 10.5963 5.76962 10.5842 6.49607C10.5842 7.22147 10.0292 7.81716 9.3256 7.81716Z"
        fill="#14EC8A" />
</svg>