<svg width="14" height="11" viewBox="0 0 14 11" fill="none" xmlns="http://www.w3.org/2000/svg">
<path d="M6.30104 8.40936C6.3549 8.40944 6.40821 8.42012 6.45793 8.4408C6.50766 8.46148 6.55282 8.49175 6.59085 8.52989C6.62888 8.56802 6.65902 8.61327 6.67956 8.66306C6.70009 8.71284 6.71063 8.76618 6.71055 8.82004C6.71047 8.87389 6.69979 8.9272 6.67911 8.97693C6.65843 9.02665 6.62816 9.07182 6.59002 9.10984C6.55189 9.14787 6.50664 9.17801 6.45686 9.19855C6.40707 9.21909 6.35373 9.22962 6.29988 9.22954C6.19111 9.22939 6.08687 9.18603 6.01007 9.10902C5.93327 9.032 5.89021 8.92763 5.89037 8.81887C5.89052 8.71011 5.93388 8.60586 6.0109 8.52906C6.08791 8.45226 6.19228 8.40921 6.30104 8.40936ZM12.7318 5.87357C12.678 5.87353 12.6246 5.86289 12.5749 5.84224C12.5252 5.8216 12.48 5.79136 12.4419 5.75325C12.4039 5.71514 12.3737 5.66992 12.3531 5.62015C12.3325 5.57038 12.322 5.51704 12.322 5.46319C12.3221 5.40934 12.3327 5.35602 12.3533 5.30628C12.374 5.25654 12.4042 5.21135 12.4423 5.1733C12.4804 5.13524 12.5257 5.10507 12.5754 5.0845C12.6252 5.06392 12.6785 5.05335 12.7324 5.05339C12.8412 5.05347 12.9454 5.09675 13.0223 5.17371C13.0991 5.25067 13.1423 5.35501 13.1422 5.46377C13.1421 5.57254 13.0988 5.67681 13.0219 5.75366C12.9449 5.83052 12.8406 5.87365 12.7318 5.87357ZM12.7318 4.19588C12.3956 4.19619 12.0732 4.3299 11.8354 4.56766C11.5976 4.80543 11.4639 5.12781 11.4636 5.46406C11.4636 5.59998 11.4864 5.73532 11.5307 5.86715L7.34173 8.09727C7.22557 7.92862 7.07015 7.79074 6.88885 7.69552C6.70756 7.6003 6.50583 7.55059 6.30104 7.55068C5.81745 7.55068 5.37703 7.82777 5.16353 8.26003L1.40038 6.27549C1.00254 6.06666 0.705037 5.41215 0.736537 4.81597C0.752871 4.50505 0.860206 4.26355 1.02413 4.17021C1.12796 4.11188 1.2528 4.11654 1.3858 4.18596L1.4103 4.19938C2.40781 4.72439 5.67103 6.4435 5.8087 6.50708C6.02046 6.60567 6.13829 6.64533 6.49996 6.47383L13.2457 2.96561C13.3449 2.92827 13.4604 2.83319 13.4604 2.6891C13.4604 2.4896 13.2539 2.41085 13.2533 2.41085C12.8695 2.2271 12.2797 1.95117 11.7045 1.68167C10.4749 1.10591 9.08125 0.453734 8.46933 0.132895C7.94082 -0.143609 7.51556 0.0897278 7.43973 0.136395L7.29273 0.209313C4.53818 1.57142 0.851456 3.39728 0.641453 3.52503C0.266363 3.7537 0.0336095 4.20929 0.00327571 4.77455C-0.0433917 5.67115 0.413366 6.60625 1.06729 6.94867L5.04686 9.00087C5.09069 9.30233 5.24153 9.57795 5.4718 9.77738C5.70208 9.9768 5.99642 10.0867 6.30104 10.0871C6.63374 10.0865 6.95293 9.95539 7.18998 9.72195C7.42702 9.4885 7.56299 9.17135 7.56865 8.8387L11.9519 6.46275C12.1736 6.63658 12.4495 6.73167 12.7318 6.73167C13.0681 6.73136 13.3905 6.59765 13.6282 6.35988C13.866 6.12212 13.9997 5.79973 14 5.46348C13.9997 5.12723 13.866 4.80484 13.6282 4.56708C13.3905 4.32931 13.0681 4.1956 12.7318 4.19529" fill="#14EC8A"/>
</svg>
