<svg width="14" height="12" viewBox="0 0 14 12" fill="none" xmlns="http://www.w3.org/2000/svg">
    <g clip-path="url(#clip0_59_981)">
        <path
            d="M6.30104 10.0041C6.3549 10.0042 6.40821 10.0169 6.45793 10.0415C6.50766 10.0661 6.55282 10.1021 6.59085 10.1475C6.62888 10.1928 6.65902 10.2467 6.67956 10.3059C6.70009 10.3651 6.71063 10.4286 6.71055 10.4927C6.71047 10.5567 6.69979 10.6201 6.67911 10.6793C6.65843 10.7384 6.62816 10.7922 6.59002 10.8374C6.55189 10.8827 6.50664 10.9185 6.45686 10.9429C6.40707 10.9674 6.35373 10.9799 6.29988 10.9798C6.19111 10.9796 6.08687 10.9281 6.01007 10.8364C5.93327 10.7448 5.89021 10.6206 5.89037 10.4913C5.89052 10.3619 5.93388 10.2379 6.0109 10.1465C6.08791 10.0551 6.19228 10.0039 6.30104 10.0041ZM12.7318 6.98742C12.678 6.98738 12.6246 6.97472 12.5749 6.95015C12.5252 6.9256 12.48 6.88962 12.4419 6.84429C12.4039 6.79895 12.3737 6.74515 12.3531 6.68595C12.3325 6.62674 12.322 6.56328 12.322 6.49922C12.3221 6.43516 12.3327 6.37173 12.3533 6.31255C12.374 6.25338 12.4042 6.19962 12.4423 6.15436C12.4804 6.10908 12.5257 6.07319 12.5754 6.04872C12.6252 6.02423 12.6785 6.01166 12.7324 6.01171C12.8412 6.0118 12.9454 6.06329 13.0223 6.15484C13.0991 6.2464 13.1423 6.37052 13.1422 6.49991C13.1421 6.62931 13.0988 6.75335 13.0219 6.84477C12.9449 6.93621 12.8406 6.98752 12.7318 6.98742ZM12.7318 4.99158C12.3956 4.99195 12.0732 5.15101 11.8354 5.43386C11.5976 5.71672 11.4639 6.10024 11.4636 6.50025C11.4636 6.66195 11.4864 6.82296 11.5307 6.97979L7.34173 9.63282C7.22557 9.43219 7.07015 9.26816 6.88885 9.15488C6.70756 9.04161 6.50583 8.98247 6.30104 8.98258C5.81745 8.98258 5.37703 9.31221 5.16353 9.82645L1.40038 7.46556C1.00254 7.21713 0.705037 6.4385 0.736537 5.72926C0.752871 5.35938 0.860206 5.07208 1.02413 4.96104C1.12796 4.89165 1.2528 4.89719 1.3858 4.97978L1.4103 4.99574C2.40781 5.62031 5.67103 7.66543 5.8087 7.74107C6.02046 7.85836 6.13829 7.90554 6.49996 7.70152L13.2457 3.528C13.3449 3.48358 13.4604 3.37047 13.4604 3.19906C13.4604 2.96172 13.2539 2.86804 13.2533 2.86804C12.8695 2.64944 12.2797 2.32119 11.7045 2.00058C10.4749 1.31563 9.08125 0.539779 8.46933 0.158097C7.94082 -0.170843 7.51556 0.106744 7.43973 0.162261L7.29273 0.249007C4.53818 1.86942 0.851456 4.04153 0.641453 4.19351C0.266363 4.46555 0.0336095 5.00753 0.0032757 5.67999C-0.0433917 6.74662 0.413366 7.85905 1.06729 8.2664L5.04686 10.7078C5.09069 11.0664 5.24153 11.3943 5.4718 11.6315C5.70208 11.8688 5.99642 11.9995 6.30104 12C6.63374 11.9993 6.95293 11.8433 7.18998 11.5656C7.42702 11.2879 7.56299 10.9106 7.56865 10.5149L11.9519 7.68833C12.1736 7.89513 12.4495 8.00825 12.7318 8.00825C13.0681 8.00788 13.3905 7.84882 13.6282 7.56596C13.866 7.28311 13.9997 6.89958 14 6.49956C13.9997 6.09955 13.866 5.71602 13.6282 5.43317C13.3905 5.15031 13.0681 4.99195 12.7318 4.99158Z"
            fill="#14EC8A" />
    </g>
    <defs>
        <clipPath id="clip0_59_981">
            <rect width="14" height="12" fill="white" />
        </clipPath>
    </defs>
</svg>