<svg width="23" height="16" viewBox="0 0 23 16" fill="none" xmlns="http://www.w3.org/2000/svg">
<path d="M9.99466 13.3389C10.0801 13.339 10.1646 13.3559 10.2435 13.3887C10.3224 13.4215 10.394 13.4695 10.4544 13.53C10.5147 13.5905 10.5625 13.6623 10.5951 13.7413C10.6276 13.8202 10.6443 13.9048 10.6442 13.9903C10.6441 14.0757 10.6272 14.1602 10.5943 14.2391C10.5615 14.318 10.5135 14.3896 10.453 14.45C10.3926 14.5103 10.3208 14.5581 10.2418 14.5907C10.1628 14.6232 10.0782 14.6399 9.99281 14.6398C9.82029 14.6396 9.65494 14.5708 9.53312 14.4486C9.41131 14.3265 9.34301 14.1609 9.34326 13.9884C9.3435 13.8159 9.41227 13.6505 9.53443 13.5287C9.65659 13.4069 9.82214 13.3386 9.99466 13.3389ZM20.1951 9.31661C20.1097 9.31655 20.0251 9.29966 19.9462 9.26692C19.8673 9.23417 19.7956 9.1862 19.7353 9.12576C19.6749 9.06531 19.627 8.99357 19.5944 8.91463C19.5618 8.83568 19.545 8.75109 19.5451 8.66566C19.5451 8.58024 19.562 8.49567 19.5948 8.41677C19.6275 8.33787 19.6755 8.2662 19.7359 8.20584C19.7964 8.14548 19.8681 8.09762 19.9471 8.06498C20.026 8.03235 20.1106 8.01558 20.196 8.01565C20.3685 8.01577 20.5339 8.08442 20.6558 8.20649C20.7777 8.32857 20.8462 8.49407 20.846 8.66659C20.8459 8.83911 20.7773 9.00451 20.6552 9.12641C20.5331 9.24831 20.3676 9.31673 20.1951 9.31661ZM20.1951 6.65546C19.6617 6.65595 19.1504 6.86805 18.7732 7.24519C18.3961 7.62232 18.184 8.1337 18.1835 8.66705C18.1835 8.88264 18.2196 9.09731 18.2899 9.30643L11.6454 12.8438C11.4611 12.5763 11.2146 12.3576 10.927 12.2066C10.6395 12.0555 10.3195 11.9767 9.99466 11.9768C9.22759 11.9768 8.529 12.4163 8.19034 13.102L2.22127 9.95413C1.59022 9.62288 1.11832 8.5847 1.16829 7.63905C1.1942 7.14587 1.36445 6.7628 1.62446 6.61475C1.78916 6.52222 1.98717 6.52962 2.19814 6.63973L2.237 6.66102C3.81925 7.49378 8.99535 10.2206 9.21371 10.3215C9.5496 10.4778 9.7365 10.5408 10.3102 10.2687L21.0103 4.70402C21.1676 4.6448 21.3508 4.49398 21.3508 4.26543C21.3508 3.94898 21.0232 3.82407 21.0223 3.82407C20.4135 3.5326 19.478 3.09494 18.5657 2.66745C16.6151 1.75419 14.4046 0.719708 13.434 0.210797C12.5957 -0.227792 11.9211 0.142325 11.8008 0.216349L11.5677 0.332011C7.19843 2.49257 1.35057 5.38874 1.01747 5.59138C0.422503 5.95409 0.0533111 6.67675 0.0051959 7.57335C-0.0688276 8.99553 0.655677 10.4788 1.69293 11.0219L8.00528 14.2771C8.07482 14.7553 8.31407 15.1925 8.67933 15.5088C9.04459 15.8251 9.51147 15.9995 9.99466 16C10.5224 15.9991 11.0287 15.7912 11.4047 15.4209C11.7807 15.0506 11.9964 14.5475 12.0053 14.0199L18.958 10.2512C19.3096 10.5269 19.7473 10.6777 20.1951 10.6777C20.7284 10.6772 21.2398 10.4651 21.617 10.088C21.9941 9.71085 22.2062 9.19948 22.2067 8.66613C22.2062 8.13277 21.9941 7.6214 21.617 7.24426C21.2398 6.86712 20.7284 6.65503 20.1951 6.65454" fill="#14EC8A"/>
</svg>
