<svg width="24" height="18" viewBox="0 0 24 18" fill="none" xmlns="http://www.w3.org/2000/svg">
<path d="M10.8018 14.416C10.8941 14.4162 10.9855 14.4345 11.0707 14.4699C11.156 14.5054 11.2334 14.5573 11.2986 14.6227C11.3638 14.688 11.4155 14.7656 11.4507 14.851C11.4859 14.9363 11.5039 15.0277 11.5038 15.1201C11.5037 15.2124 11.4854 15.3038 11.4499 15.389C11.4145 15.4743 11.3626 15.5517 11.2972 15.6169C11.2318 15.6821 11.1542 15.7337 11.0689 15.7689C10.9836 15.8041 10.8921 15.8222 10.7998 15.8221C10.6133 15.8218 10.4346 15.7475 10.303 15.6155C10.1713 15.4834 10.0975 15.3045 10.0978 15.1181C10.098 14.9316 10.1724 14.7529 10.3044 14.6212C10.4364 14.4896 10.6153 14.4158 10.8018 14.416ZM21.826 10.069C21.7336 10.0689 21.6422 10.0507 21.557 10.0153C21.4717 9.97988 21.3942 9.92804 21.329 9.86272C21.2638 9.79739 21.212 9.71985 21.1768 9.63453C21.1415 9.54922 21.1234 9.45779 21.1235 9.36547C21.1235 9.27315 21.1418 9.18174 21.1772 9.09647C21.2125 9.01121 21.2644 8.93374 21.3297 8.86851C21.395 8.80328 21.4726 8.75155 21.5579 8.71628C21.6432 8.68101 21.7346 8.66289 21.827 8.66296C22.0134 8.66309 22.1922 8.73728 22.3239 8.86922C22.4557 9.00115 22.5296 9.18002 22.5295 9.36647C22.5293 9.55292 22.4552 9.73168 22.3232 9.86342C22.1913 9.99517 22.0124 10.0691 21.826 10.069ZM21.826 7.19293C21.2495 7.19346 20.6969 7.42268 20.2893 7.83028C19.8817 8.23787 19.6525 8.79054 19.6519 9.36697C19.6519 9.59997 19.6909 9.83197 19.7669 10.058L12.5858 13.881C12.3867 13.5919 12.1203 13.3556 11.8095 13.1923C11.4987 13.0291 11.1528 12.9439 10.8018 12.944C9.97278 12.944 9.21776 13.419 8.85176 14.16L2.40065 10.758C1.71864 10.4 1.20863 9.27796 1.26264 8.25595C1.29064 7.72294 1.47464 7.30893 1.75564 7.14893C1.93365 7.04893 2.14765 7.05693 2.37565 7.17593L2.41765 7.19893C4.12768 8.09895 9.72177 11.046 9.95778 11.155C10.3208 11.324 10.5228 11.392 11.1428 11.098L22.707 5.0839C22.877 5.0199 23.075 4.85689 23.075 4.60989C23.075 4.26788 22.721 4.13288 22.72 4.13288C22.062 3.81788 21.051 3.34487 20.0649 2.88286C17.9569 1.89585 15.5679 0.777829 14.5188 0.22782C13.6128 -0.246187 12.8838 0.153819 12.7538 0.23382L12.5018 0.358822C7.77974 2.69386 1.45964 5.82391 1.09963 6.04291C0.456623 6.43492 0.0576163 7.21593 0.0056155 8.18495C-0.0743858 9.72197 0.708627 11.325 1.82964 11.912L8.65176 15.4301C8.72691 15.9468 8.98548 16.4193 9.38024 16.7612C9.77499 17.1031 10.2796 17.2915 10.8018 17.2921C11.3721 17.2911 11.9193 17.0664 12.3257 16.6662C12.732 16.266 12.9651 15.7223 12.9748 15.1521L20.4889 11.079C20.869 11.377 21.342 11.54 21.826 11.54C22.4024 11.5395 22.9551 11.3103 23.3627 10.9027C23.7703 10.4951 23.9995 9.94239 24 9.36597C23.9995 8.78954 23.7703 8.23687 23.3627 7.82928C22.9551 7.42168 22.4024 7.19246 21.826 7.19193" fill="none"/>
</svg>
