<svg width="16" height="16" viewBox="0 0 16 16" fill="none" xmlns="http://www.w3.org/2000/svg">
<path d="M7.30046 8.46669L6.33379 7.51669C6.21157 7.39447 6.05868 7.33336 5.87512 7.33336C5.69157 7.33336 5.53335 7.40003 5.40046 7.53336C5.27823 7.65558 5.21712 7.81114 5.21712 8.00003C5.21712 8.18892 5.27823 8.34447 5.40046 8.46669L6.83379 9.90003C6.96712 10.0334 7.12268 10.1 7.30046 10.1C7.47823 10.1 7.63379 10.0334 7.76712 9.90003L10.6005 7.06669C10.7338 6.93336 10.7976 6.7778 10.7918 6.60003C10.786 6.42225 10.7222 6.26669 10.6005 6.13336C10.4671 6.00003 10.3087 5.93069 10.1251 5.92536C9.94157 5.92003 9.78335 5.9838 9.65046 6.11669L7.30046 8.46669ZM5.43379 14.5L4.46712 12.8667L2.63379 12.4667C2.46712 12.4334 2.33379 12.3471 2.23379 12.208C2.13379 12.0689 2.0949 11.9162 2.11712 11.75L2.30046 9.86669L1.05046 8.43336C0.939345 8.31114 0.883789 8.16669 0.883789 8.00003C0.883789 7.83336 0.939345 7.68892 1.05046 7.56669L2.30046 6.13336L2.11712 4.25003C2.0949 4.08336 2.13379 3.93047 2.23379 3.79136C2.33379 3.65225 2.46712 3.56625 2.63379 3.53336L4.46712 3.13336L5.43379 1.50003C5.52268 1.35558 5.6449 1.25825 5.80046 1.20803C5.95601 1.1578 6.11157 1.16625 6.26712 1.23336L8.00046 1.96669L9.73379 1.23336C9.88935 1.16669 10.0449 1.15825 10.2005 1.20803C10.356 1.2578 10.4782 1.35514 10.5671 1.50003L11.5338 3.13336L13.3671 3.53336C13.5338 3.56669 13.6671 3.65292 13.7671 3.79203C13.8671 3.93114 13.906 4.0838 13.8838 4.25003L13.7005 6.13336L14.9505 7.56669C15.0616 7.68892 15.1171 7.83336 15.1171 8.00003C15.1171 8.16669 15.0616 8.31114 14.9505 8.43336L13.7005 9.86669L13.8838 11.75C13.906 11.9167 13.8671 12.0696 13.7671 12.2087C13.6671 12.3478 13.5338 12.4338 13.3671 12.4667L11.5338 12.8667L10.5671 14.5C10.4782 14.6445 10.356 14.7418 10.2005 14.792C10.0449 14.8422 9.88935 14.8338 9.73379 14.7667L8.00046 14.0334L6.26712 14.7667C6.11157 14.8334 5.95601 14.8418 5.80046 14.792C5.6449 14.7422 5.52268 14.6449 5.43379 14.5Z"/>
</svg>
