<svg width="20" height="20" viewBox="0 0 20 20" fill="none" xmlns="http://www.w3.org/2000/svg">
<path d="M3.3335 16.6667H2.5835V17.4167H3.3335V16.6667ZM8.03049 13.0303C8.32339 12.7374 8.32339 12.2626 8.03049 11.9697C7.7376 11.6768 7.26273 11.6768 6.96983 11.9697L8.03049 13.0303ZM2.5835 11.6667V16.6667H4.0835V11.6667H2.5835ZM3.3335 17.4167H8.3335V15.9167H3.3335V17.4167ZM3.86383 17.197L8.03049 13.0303L6.96983 11.9697L2.80317 16.1363L3.86383 17.197Z" fill="#73B1B1"/>
<path d="M16.6665 3.33333H17.4165V2.58333H16.6665V3.33333ZM11.9695 6.96966C11.6766 7.26256 11.6766 7.73743 11.9695 8.03033C12.2624 8.32322 12.7373 8.32322 13.0302 8.03032L11.9695 6.96966ZM17.4165 8.33333V3.33333H15.9165V8.33333H17.4165ZM16.6665 2.58333H11.6665V4.08333H16.6665V2.58333ZM16.1362 2.803L11.9695 6.96966L13.0302 8.03032L17.1968 3.86366L16.1362 2.803Z" fill="#73B1B1"/>
<path d="M3.3335 3.33333H2.5835V2.58333H3.3335V3.33333ZM8.03049 6.96966C8.32339 7.26256 8.32339 7.73743 8.03049 8.03032C7.7376 8.32322 7.26273 8.32322 6.96983 8.03032L8.03049 6.96966ZM2.5835 8.33333V3.33333H4.0835V8.33333H2.5835ZM3.3335 2.58333H8.3335V4.08333H3.3335V2.58333ZM3.86383 2.803L8.03049 6.96966L6.96983 8.03032L2.80317 3.86366L3.86383 2.803Z" fill="#73B1B1"/>
<path d="M16.6665 16.6667H17.4165V17.4167H16.6665V16.6667ZM11.9695 13.0303C11.6766 12.7374 11.6766 12.2626 11.9695 11.9697C12.2624 11.6768 12.7373 11.6768 13.0302 11.9697L11.9695 13.0303ZM17.4165 11.6667V16.6667H15.9165V11.6667H17.4165ZM16.6665 17.4167H11.6665V15.9167H16.6665V17.4167ZM16.1362 17.197L11.9695 13.0303L13.0302 11.9697L17.1968 16.1363L16.1362 17.197Z" fill="#73B1B1"/>
</svg>
