<svg width="14" height="14" viewBox="0 0 14 14" fill="none" xmlns="http://www.w3.org/2000/svg">
<path d="M0.777778 14C0.557407 14 0.372556 13.9253 0.223222 13.776C0.0744075 13.6272 0 13.4426 0 13.2222V1.55556C0 1.12778 0.152444 0.761444 0.457333 0.456555C0.761703 0.152185 1.12778 0 1.55556 0H6.22222C6.65 0 7.01633 0.152185 7.32122 0.456555C7.62559 0.761444 7.77778 1.12778 7.77778 1.55556V7H8.55555C8.98333 7 9.34967 7.15219 9.65455 7.45656C9.95892 7.76144 10.1111 8.12778 10.1111 8.55556V12.0556C10.1111 12.2759 10.1858 12.4605 10.3351 12.6093C10.4839 12.7587 10.6685 12.8333 10.8889 12.8333C11.1093 12.8333 11.2938 12.7587 11.4427 12.6093C11.592 12.4605 11.6667 12.2759 11.6667 12.0556V6.45556C11.55 6.52037 11.4269 6.56237 11.2972 6.58156C11.1676 6.60126 11.0315 6.61111 10.8889 6.61111C10.3444 6.61111 9.88426 6.42315 9.50833 6.04722C9.13241 5.6713 8.94444 5.21111 8.94444 4.66667C8.94444 4.25185 9.058 3.87904 9.28511 3.54822C9.5117 3.21793 9.81296 2.98148 10.1889 2.83889L8.96389 1.61389C8.84722 1.49722 8.78889 1.36111 8.78889 1.20556C8.78889 1.05 8.84722 0.913889 8.96389 0.797222C9.08055 0.680556 9.21667 0.622222 9.37222 0.622222C9.52778 0.622222 9.66389 0.674074 9.78055 0.777778L12.25 3.18889C12.4444 3.38333 12.5901 3.61019 12.6871 3.86944C12.7846 4.1287 12.8333 4.39444 12.8333 4.66667V12.0556C12.8333 12.6 12.6454 13.0602 12.2694 13.4361C11.8935 13.812 11.4333 14 10.8889 14C10.3444 14 9.88426 13.812 9.50833 13.4361C9.13241 13.0602 8.94444 12.6 8.94444 12.0556V8.16667H7.77778V13.2222C7.77778 13.4426 7.70337 13.6272 7.55455 13.776C7.40522 13.9253 7.22037 14 7 14H0.777778ZM1.55556 5.44444H6.22222V1.55556H1.55556V5.44444ZM10.8889 5.44444C11.1093 5.44444 11.2938 5.36978 11.4427 5.22044C11.592 5.07163 11.6667 4.88704 11.6667 4.66667C11.6667 4.4463 11.592 4.26144 11.4427 4.11211C11.2938 3.9633 11.1093 3.88889 10.8889 3.88889C10.6685 3.88889 10.4839 3.9633 10.3351 4.11211C10.1858 4.26144 10.1111 4.4463 10.1111 4.66667C10.1111 4.88704 10.1858 5.07163 10.3351 5.22044C10.4839 5.36978 10.6685 5.44444 10.8889 5.44444Z" fill="#486060"/>
</svg>
