<svg width="14" height="14" viewBox="0 0 14 14" fill="none" xmlns="http://www.w3.org/2000/svg">
<path d="M11.5325 6.56258H9.17583C8.00333 6.56258 7.4375 5.99092 7.4375 4.82425V2.46758C7.4375 1.29508 8.00917 0.729248 9.17583 0.729248H11.5325C12.705 0.729248 13.2708 1.30091 13.2708 2.46758V4.82425C13.2708 5.99092 12.6992 6.56258 11.5325 6.56258ZM9.17583 1.60425C8.4875 1.60425 8.3125 1.77925 8.3125 2.46758V4.82425C8.3125 5.51258 8.4875 5.68758 9.17583 5.68758H11.5325C12.2208 5.68758 12.3958 5.51258 12.3958 4.82425V2.46758C12.3958 1.77925 12.2208 1.60425 11.5325 1.60425H9.17583Z" fill="#0D7E71"/>
<path d="M4.824 6.56258H2.46734C1.29484 6.56258 0.729004 6.04342 0.729004 4.97008V2.32175C0.729004 1.24841 1.30067 0.729248 2.46734 0.729248H4.824C5.9965 0.729248 6.56234 1.24841 6.56234 2.32175V4.96425C6.56234 6.04342 5.99067 6.56258 4.824 6.56258ZM2.46734 1.60425C1.68567 1.60425 1.604 1.82591 1.604 2.32175V4.96425C1.604 5.46592 1.68567 5.68175 2.46734 5.68175H4.824C5.60567 5.68175 5.68734 5.46008 5.68734 4.96425V2.32175C5.68734 1.82008 5.60567 1.60425 4.824 1.60425H2.46734Z" fill="#0D7E71"/>
<path d="M4.824 13.2708H2.46734C1.29484 13.2708 0.729004 12.6992 0.729004 11.5325V9.17583C0.729004 8.00333 1.30067 7.4375 2.46734 7.4375H4.824C5.9965 7.4375 6.56234 8.00917 6.56234 9.17583V11.5325C6.56234 12.6992 5.99067 13.2708 4.824 13.2708ZM2.46734 8.3125C1.779 8.3125 1.604 8.4875 1.604 9.17583V11.5325C1.604 12.2208 1.779 12.3958 2.46734 12.3958H4.824C5.51234 12.3958 5.68734 12.2208 5.68734 11.5325V9.17583C5.68734 8.4875 5.51234 8.3125 4.824 8.3125H2.46734Z" fill="#0D7E71"/>
<path d="M11.9585 10.6458H8.4585C8.21933 10.6458 8.021 10.4474 8.021 10.2083C8.021 9.96909 8.21933 9.77075 8.4585 9.77075H11.9585C12.1977 9.77075 12.396 9.96909 12.396 10.2083C12.396 10.4474 12.1977 10.6458 11.9585 10.6458Z" fill="#0D7E71"/>
<path d="M10.2085 12.3958C9.96933 12.3958 9.771 12.1974 9.771 11.9583V8.45825C9.771 8.21909 9.96933 8.02075 10.2085 8.02075C10.4477 8.02075 10.646 8.21909 10.646 8.45825V11.9583C10.646 12.1974 10.4477 12.3958 10.2085 12.3958Z" fill="#0D7E71"/>
</svg>
