<svg width="16" height="16" viewBox="0 0 16 16" fill="none" xmlns="http://www.w3.org/2000/svg">
<path d="M13.18 7.49992H10.4867C9.14667 7.49992 8.5 6.84659 8.5 5.51325V2.81992C8.5 1.47992 9.15333 0.833252 10.4867 0.833252H13.18C14.52 0.833252 15.1667 1.48659 15.1667 2.81992V5.51325C15.1667 6.84659 14.5133 7.49992 13.18 7.49992ZM10.4867 1.83325C9.7 1.83325 9.5 2.03325 9.5 2.81992V5.51325C9.5 6.29992 9.7 6.49992 10.4867 6.49992H13.18C13.9667 6.49992 14.1667 6.29992 14.1667 5.51325V2.81992C14.1667 2.03325 13.9667 1.83325 13.18 1.83325H10.4867Z"/>
<path d="M5.5135 7.49992H2.82016C1.48016 7.49992 0.833496 6.90659 0.833496 5.67992V2.65325C0.833496 1.42659 1.48683 0.833252 2.82016 0.833252H5.5135C6.8535 0.833252 7.50016 1.42659 7.50016 2.65325V5.67325C7.50016 6.90659 6.84683 7.49992 5.5135 7.49992ZM2.82016 1.83325C1.92683 1.83325 1.8335 2.08659 1.8335 2.65325V5.67325C1.8335 6.24658 1.92683 6.49325 2.82016 6.49325H5.5135C6.40683 6.49325 6.50016 6.23992 6.50016 5.67325V2.65325C6.50016 2.07992 6.40683 1.83325 5.5135 1.83325H2.82016Z"/>
<path d="M5.5135 15.1667H2.82016C1.48016 15.1667 0.833496 14.5133 0.833496 13.18V10.4867C0.833496 9.14667 1.48683 8.5 2.82016 8.5H5.5135C6.8535 8.5 7.50016 9.15333 7.50016 10.4867V13.18C7.50016 14.5133 6.84683 15.1667 5.5135 15.1667ZM2.82016 9.5C2.0335 9.5 1.8335 9.7 1.8335 10.4867V13.18C1.8335 13.9667 2.0335 14.1667 2.82016 14.1667H5.5135C6.30016 14.1667 6.50016 13.9667 6.50016 13.18V10.4867C6.50016 9.7 6.30016 9.5 5.5135 9.5H2.82016Z"/>
<path d="M13.6665 12.1667H9.6665C9.39317 12.1667 9.1665 11.9401 9.1665 11.6667C9.1665 11.3934 9.39317 11.1667 9.6665 11.1667H13.6665C13.9398 11.1667 14.1665 11.3934 14.1665 11.6667C14.1665 11.9401 13.9398 12.1667 13.6665 12.1667Z"/>
<path d="M11.6665 14.1667C11.3932 14.1667 11.1665 13.9401 11.1665 13.6667V9.66675C11.1665 9.39341 11.3932 9.16675 11.6665 9.16675C11.9398 9.16675 12.1665 9.39341 12.1665 9.66675V13.6667C12.1665 13.9401 11.9398 14.1667 11.6665 14.1667Z"/>
</svg>
