<svg width="16" height="16" viewBox="0 0 16 16" fill="none" xmlns="http://www.w3.org/2000/svg">
<path d="M6.25 9.75H9.75C10.575 9.75 10.9874 9.75 11.2437 10.0063C11.5 10.2626 11.5 10.675 11.5 11.5V13.25C11.5 14.075 11.5 14.4874 11.2437 14.7437C10.9874 15 10.575 15 9.75 15H6.25M6.25 9.75V15M6.25 9.75H1M6.25 9.75V6.25C6.25 5.42504 6.25 5.01256 5.99372 4.75628C5.73744 4.5 5.32496 4.5 4.5 4.5H2.75C1.92504 4.5 1.51256 4.5 1.25628 4.75628C1 5.01256 1 5.42504 1 6.25V9.75M6.25 15H2.75C1.92504 15 1.51256 15 1.25628 14.7437C1 14.4874 1 14.075 1 13.25V9.75M11.5 1H13.25C14.075 1 14.4874 1 14.7437 1.25628C15 1.51256 15 1.92504 15 2.75V4.5C15 5.32496 15 5.73744 14.7437 5.99372C14.4874 6.25 14.075 6.25 13.25 6.25H11.5C10.675 6.25 10.2626 6.25 10.0063 5.99372C9.75 5.73744 9.75 5.32496 9.75 4.5V2.75C9.75 1.92504 9.75 1.51256 10.0063 1.25628C10.2626 1 10.675 1 11.5 1Z" stroke="#1C1F2C" stroke-width="1.5" stroke-linecap="round"/>
</svg>
