<svg width="17" height="16" viewBox="0 0 17 16" fill="none" xmlns="http://www.w3.org/2000/svg">
<path d="M8.22233 13.3336C6.98465 13.3336 5.79767 12.8419 4.9225 11.9667C4.04733 11.0916 3.55566 9.90458 3.55566 8.6669C3.55566 7.42922 4.04733 6.24224 4.9225 5.36707C5.79767 4.4919 6.98465 4.00023 8.22233 4.00023C9.46001 4.00023 10.647 4.4919 11.5222 5.36707C12.3973 6.24224 12.889 7.42922 12.889 8.6669C12.889 9.90458 12.3973 11.0916 11.5222 11.9667C10.647 12.8419 9.46001 13.3336 8.22233 13.3336ZM8.22233 2.6669C6.63103 2.6669 5.10491 3.29904 3.97969 4.42426C2.85447 5.54948 2.22233 7.0756 2.22233 8.6669C2.22233 10.2582 2.85447 11.7843 3.97969 12.9095C5.10491 14.0348 6.63103 14.6669 8.22233 14.6669C9.81363 14.6669 11.3398 14.0348 12.465 12.9095C13.5902 11.7843 14.2223 10.2582 14.2223 8.6669C14.2223 7.0756 13.5902 5.54948 12.465 4.42426C11.3398 3.29904 9.81363 2.6669 8.22233 2.6669ZM8.55566 5.33357H7.55566V9.33357L10.7223 11.2336L11.2223 10.4136L8.55566 8.83357V5.33357ZM5.47566 2.26023L4.62233 1.24023L1.55566 3.8069L2.41566 4.8269L5.47566 2.26023ZM14.889 3.81357L11.8223 1.24023L10.9623 2.26023L14.029 4.83357L14.889 3.81357Z" fill="#486060"/>
</svg>
