<svg width="29" height="15" viewBox="0 0 29 15" fill="none" xmlns="http://www.w3.org/2000/svg">
<circle cx="4.41177" cy="12.3529" r="2.64706" fill="none"/>
<ellipse cx="23.8235" cy="12.3529" rx="2.64706" ry="2.64706" fill="none"/>
<path d="M22.735 7.87765C23.3731 7.61158 23.6811 6.87381 23.3416 6.27151C22.374 4.55481 20.9417 3.1344 19.1983 2.18089C17.0871 1.02625 14.6455 0.62517 12.2759 1.04374C9.90625 1.4623 7.74985 2.67555 6.16196 4.48359C4.85069 5.97667 3.9917 7.80181 3.67077 9.7461C3.55817 10.4283 4.10022 11.0159 4.7909 11.0472C5.48158 11.0786 6.05715 10.5403 6.19465 9.86275C6.47374 8.48748 7.10774 7.20095 8.04321 6.13577C9.25562 4.75527 10.9021 3.82892 12.7114 3.50933C14.5207 3.18974 16.3849 3.49597 17.9969 4.37758C19.2407 5.05783 20.2771 6.0493 21.0104 7.24574C21.3717 7.83522 22.0968 8.14372 22.735 7.87765Z" fill="none"/>
</svg>
