<svg width="20" height="16" viewBox="0 0 20 18" fill="none" xmlns="http://www.w3.org/2000/svg">
<ellipse cx="2.97266" cy="9.375" rx="1.99219" ry="1.875" fill="#C9E0E0"/>
<ellipse cx="18.9102" cy="9.375" rx="1.99219" ry="1.875" fill="#C9E0E0"/>
<path d="M18.1954 6.52843C18.7517 6.31012 19.0188 5.66776 18.7064 5.15826C17.8881 3.82333 16.6926 2.71842 15.2431 1.9723C13.4556 1.05219 11.3884 0.73258 9.38202 1.06613C7.37569 1.39967 5.54992 2.36647 4.20549 3.80726C3.11109 4.98009 2.38878 6.41005 2.10814 7.93462C2.00177 8.5125 2.4634 9.01284 3.05045 9.03792V9.03792C3.63296 9.0628 4.11702 8.60857 4.24506 8.03976C4.48718 6.96419 5.01928 5.9587 5.7983 5.12384C6.82482 4.02375 8.21886 3.28556 9.75076 3.03089C11.2827 2.77622 12.861 3.02025 14.2259 3.72279C15.2806 4.26568 16.1591 5.05735 16.7802 6.01272C17.0867 6.48415 17.672 6.73384 18.1954 6.52843V6.52843Z" fill="#C9E0E0"/>
</svg>
