<svg width="18" height="18" viewBox="0 0 14 14" fill="none" xmlns="http://www.w3.org/2000/svg">
    <ellipse cx="2.24001" cy="9.63633" rx="1.24001" ry="1.25254" fill="#C9E0E0" />
    <ellipse cx="12.1604" cy="9.63633" rx="1.24001" ry="1.25254" fill="#C9E0E0" />
    <g clip-path="url(#clip0_52_30203)">
        <path
            d="M11.7458 7.72198C12.0804 7.58106 12.242 7.1941 12.0656 6.87677C11.5556 5.95936 10.7991 5.20031 9.87765 4.69127C8.76503 4.07661 7.47834 3.86311 6.22953 4.08592C4.98072 4.30874 3.8443 4.95458 3.00747 5.91706C2.31486 6.71367 1.86168 7.68787 1.69346 8.72552C1.63519 9.08496 1.92056 9.39437 2.28432 9.41105V9.41105C2.64855 9.42774 2.95221 9.14392 3.02353 8.78636C3.17001 8.05207 3.50459 7.36509 3.9989 6.79656C4.63784 6.06168 5.50554 5.56855 6.45904 5.39843C7.41255 5.2283 8.39499 5.39132 9.24451 5.86063C9.89986 6.22267 10.4459 6.75033 10.8324 7.38706C11.0227 7.70058 11.4079 7.86433 11.7458 7.72198V7.72198Z"
            fill="#C9E0E0" />
    </g>
    <defs>
        <clipPath id="clip0_52_30203">
            <rect width="10.9412" height="5.89429" fill="white" transform="translate(1.72949 4)" />
        </clipPath>
    </defs>
</svg>