<svg width="32" height="17" viewBox="0 0 32 17" fill="none" xmlns="http://www.w3.org/2000/svg">
<path fill-rule="evenodd" clip-rule="evenodd" d="M5.21662 4.54999C8.07655 1.69007 11.9555 0.0833737 16 0.083374C20.0446 0.0833743 23.9234 1.69007 26.7834 4.55C29.6433 7.40993 31.25 11.2888 31.25 15.3334V16.3334H21.3253V15.3334C21.3253 13.921 20.7643 12.5665 19.7656 11.5678C18.7669 10.5691 17.4124 10.008 16 10.008C14.5876 10.008 13.2331 10.5691 12.2344 11.5678C11.2357 12.5665 10.6747 13.921 10.6747 15.3334V16.3334L0.75 16.3334L0.75 15.3334C0.750001 11.2888 2.35669 7.40992 5.21662 4.54999ZM16 2.08337C12.4859 2.08337 9.11569 3.47935 6.63084 5.96421C4.38276 8.21229 3.02593 11.185 2.78776 14.3334L8.74322 14.3334C8.96002 12.76 9.68434 11.2895 10.8202 10.1536C12.194 8.77982 14.0572 8.00805 16 8.00805C17.9428 8.00805 19.806 8.77982 21.1798 10.1536C22.3157 11.2895 23.04 12.76 23.2568 14.3334H29.2122C28.9741 11.185 27.6172 8.21229 25.3692 5.96421C22.8843 3.47935 19.5141 2.08337 16 2.08337Z" fill="none"/>
<path fill-rule="evenodd" clip-rule="evenodd" d="M15 9.00004V1.08337L17 1.08337V9.00004H15Z" fill="none"/>
<path fill-rule="evenodd" clip-rule="evenodd" d="M20.6192 9.29953L25.3692 4.54953L26.7834 5.96374L22.0334 10.7137L20.6192 9.29953Z" fill="none"/>
<path fill-rule="evenodd" clip-rule="evenodd" d="M10.5431 11.2903L5.21659 5.96374L6.6308 4.54953L11.9573 9.87605L10.5431 11.2903Z" fill="none"/>
</svg>