<svg width="20" height="18" viewBox="0 0 20 18" fill="none" xmlns="http://www.w3.org/2000/svg">
<circle cx="2.5625" cy="9.375" r="1.875" fill="#C9E0E0"/>
<circle cx="17.5625" cy="9.375" r="1.875" fill="#C9E0E0"/>
<path d="M16.9294 6.5119C17.438 6.29988 17.6833 5.71197 17.4128 5.232C16.6418 3.86402 15.5004 2.73212 14.1111 1.9723C12.4288 1.05219 10.4832 0.73258 8.59485 1.06613C6.70653 1.39967 4.98816 2.36647 3.72281 3.80726C2.67789 4.99705 1.99338 6.45146 1.73764 8.00082C1.64791 8.54442 2.07985 9.01269 2.63024 9.03767C3.18063 9.06265 3.63928 8.63373 3.74886 8.09378C3.97126 6.99786 4.47647 5.97266 5.22193 5.12384C6.18807 4.02375 7.50011 3.28556 8.9419 3.03089C10.3837 2.77622 11.8692 3.02025 13.1538 3.72279C14.1449 4.26485 14.9708 5.05494 15.5552 6.00835C15.8431 6.47809 16.4209 6.72393 16.9294 6.5119Z" fill="#C9E0E0"/>
</svg>
