<svg width="18" height="18" viewBox="0 0 14 14" fill="none" xmlns="http://www.w3.org/2000/svg">
    <path fill-rule="evenodd" clip-rule="evenodd"
        d="M10.6 4.22727H3.4C3.08174 4.22727 2.77652 4.35657 2.55147 4.58673C2.32643 4.81689 2.2 5.12905 2.2 5.45455H11.8C11.8 5.12905 11.6736 4.81689 11.4485 4.58673C11.2235 4.35657 10.9183 4.22727 10.6 4.22727ZM2.2 9.54545V6.68182H11.8V9.54545C11.8 9.87095 11.6736 10.1831 11.4485 10.4133C11.2235 10.6434 10.9183 10.7727 10.6 10.7727H3.4C3.08174 10.7727 2.77652 10.6434 2.55147 10.4133C2.32643 10.1831 2.2 9.87095 2.2 9.54545ZM3.4 3C2.76348 3 2.15303 3.2586 1.70294 3.71892C1.25286 4.17924 1 4.80356 1 5.45455V9.54545C1 10.1964 1.25286 10.8208 1.70294 11.2811C2.15303 11.7414 2.76348 12 3.4 12H10.6C11.2365 12 11.847 11.7414 12.2971 11.2811C12.7471 10.8208 13 10.1964 13 9.54545V5.45455C13 4.80356 12.7471 4.17924 12.2971 3.71892C11.847 3.2586 11.2365 3 10.6 3H3.4ZM4 8.31818C3.84087 8.31818 3.68826 8.38283 3.57574 8.49791C3.46321 8.61299 3.4 8.76907 3.4 8.93182C3.4 9.09456 3.46321 9.25065 3.57574 9.36572C3.68826 9.4808 3.84087 9.54545 4 9.54545H6C6.15913 9.54545 6.31174 9.4808 6.42426 9.36572C6.53679 9.25065 6.6 9.09456 6.6 8.93182C6.6 8.76907 6.53679 8.61299 6.42426 8.49791C6.31174 8.38283 6.15913 8.31818 6 8.31818H4Z"
        fill="#C9E0E0" />
</svg>