<svg width="187" height="193" viewBox="0 0 187 193" fill="none" xmlns="http://www.w3.org/2000/svg">
    <mask id="mask0_42_72" style="mask-type:luminance" maskUnits="userSpaceOnUse" x="0" y="0" width="187" height="193">
        <path d="M186.48 0H0.519775V193H186.48V0Z" fill="white" />
    </mask>
    <g mask="url(#mask0_42_72)">
        <path
            d="M93.0183 192C144.103 192 185.517 149.019 185.517 96C185.517 42.981 144.103 0 93.0183 0C41.9331 0 0.519775 42.981 0.519775 96C0.519775 149.019 41.9331 192 93.0183 192Z"
            fill="#4E3588" />
        <path fill-rule="evenodd" clip-rule="evenodd"
            d="M93.9819 193C145.067 193 186.48 150.019 186.48 97C186.48 84.589 184.211 72.728 180.08 61.84C167.297 54.915 152.759 51 137.341 51C86.2553 51 44.842 93.981 44.842 147C44.842 159.411 47.1111 171.272 51.2427 182.16C64.0258 189.085 78.5635 193 93.9819 193Z"
            fill="white" />
        <path fill-rule="evenodd" clip-rule="evenodd"
            d="M65.0712 145.005C105.513 145.005 138.298 110.979 138.298 69.005C138.298 62.804 137.583 56.776 136.232 51.006C87.2351 51.603 47.3982 91.738 44.9604 142.103C51.3506 143.993 58.0962 145.005 65.0712 145.005Z"
            fill="#4E3588" />
        <mask id="mask1_42_72" style="mask-type:luminance" maskUnits="userSpaceOnUse" x="44" y="51" width="95"
            height="95">
            <path fill-rule="evenodd" clip-rule="evenodd"
                d="M65.0712 145.005C105.513 145.005 138.298 110.979 138.298 69.005C138.298 62.804 137.583 56.776 136.232 51.006C87.2351 51.603 47.3982 91.738 44.9604 142.103C51.3506 143.993 58.0962 145.005 65.0712 145.005Z"
                fill="white" />
        </mask>
        <g mask="url(#mask1_42_72)">
            <path
                d="M136.232 51.005L140.914 49.825L140.009 45.959L136.176 46.006L136.232 51.005ZM44.9604 142.102L40.1485 141.852L39.9568 145.822L43.6394 146.911L44.9604 142.102ZM133.48 69.005C133.48 108.216 102.853 140.004 65.0701 140.004V150.004C108.174 150.004 143.116 113.739 143.116 69.005H133.48ZM131.551 52.185C132.812 57.572 133.48 63.204 133.48 69.005H143.116C143.116 62.403 142.355 55.979 140.914 49.825L131.551 52.185ZM49.7722 142.353C52.0818 94.616 89.8462 56.571 136.289 56.005L136.176 46.006C84.6239 46.634 42.7134 88.859 40.1485 141.852L49.7722 142.353ZM65.0701 140.004C58.5471 140.004 52.2456 139.058 46.2804 137.294L43.6394 146.911C50.4544 148.927 57.6452 150.004 65.0701 150.004V140.004Z"
                fill="white" />
        </g>
        <path
            d="M93.0181 189.5C142.774 189.5 183.108 147.639 183.108 96C183.108 44.361 142.774 2.5 93.0181 2.5C43.2626 2.5 2.92847 44.361 2.92847 96C2.92847 147.639 43.2626 189.5 93.0181 189.5Z"
            stroke="white" stroke-width="5" />
    </g>
</svg>