<svg width="105" height="17" viewBox="0 0 105 17" fill="none" xmlns="http://www.w3.org/2000/svg">
    <g clip-path="url(#clip0_13_310)">
        <path
            d="M4.15319 0.82431L5.70019 4.4413H18.12V0.82431H4.15319ZM9.40439 6.5113L0.536194 12.4597V16.0767H18.12L16.573 12.4597H7.05109L15.9193 6.5113H9.40439Z"
            fill="white" />
        <path
            d="M25.8785 9.8668V4.4413H36.2283V12.4597H25.8785L27.4255 16.0767H38.8212C39.3878 16.0767 39.8453 15.6191 39.8453 15.0526V1.8484C39.8453 1.28189 39.3878 0.82431 38.8212 0.82431H23.2856C22.7191 0.82431 22.2615 1.28189 22.2615 1.8484V9.8668H25.8785Z"
            fill="white" />
        <path
            d="M61.7834 0.82431L53.0024 8.5813L47.8166 4.0273V8.8427L53.0024 13.4184L58.1664 8.8427V16.0767H61.7834V0.82431ZM44.1996 16.0767H47.8166V11.6099L44.1996 8.4069V16.0767Z"
            fill="white" />
        <path
            d="M69.755 0.82431V4.4413H82.174L83.722 0.82431H69.755ZM66.138 6.2498V16.0767H83.722L82.174 12.4597H69.755V9.8668H80.627V6.2498H66.138Z"
            fill="white" />
        <path
            d="M96.829 0.82431L94.389 6.5113V16.0767H98.027V7.2521L99.226 4.4413H103.453L105 0.82431H96.829ZM87.416 0.82431V4.4413H92.144L93.691 0.82431H87.416Z"
            fill="white" />
    </g>
    <defs>
        <clipPath id="clip0_13_310">
            <rect width="105" height="17" fill="white" />
        </clipPath>
    </defs>
</svg>