<svg width="19" height="21" viewBox="0 0 19 21" fill="none" xmlns="http://www.w3.org/2000/svg">
<path fill-rule="evenodd" clip-rule="evenodd" d="M8.09251 2.65599C7.43612 3.08019 6.65597 3.73191 5.51497 4.68888L4.31319 5.69681C2.99873 6.79924 2.61233 7.15328 2.40522 7.5939C2.19811 8.03451 2.17485 8.55199 2.17485 10.246V15.2323C2.17485 16.3711 2.17716 17.1181 2.25316 17.6712C2.32494 18.1937 2.44408 18.3811 2.56037 18.4949C2.67667 18.6087 2.86822 18.7252 3.40218 18.7955C3.96741 18.8698 4.73087 18.8721 5.89465 18.8721H13.1053C14.2691 18.8721 15.0326 18.8698 15.5978 18.7955C16.1318 18.7252 16.3233 18.6087 16.4396 18.4949C16.5559 18.3811 16.6751 18.1937 16.7468 17.6712C16.8228 17.1181 16.8251 16.3711 16.8251 15.2323V10.246C16.8251 8.55199 16.8019 8.03451 16.5948 7.5939C16.3877 7.15328 16.0013 6.79924 14.6868 5.69681L13.485 4.68887C12.344 3.73191 11.5639 3.08019 10.9075 2.65599C10.2765 2.24825 9.87297 2.12786 9.5 2.12786C9.12703 2.12786 8.72345 2.24825 8.09251 2.65599ZM6.89403 0.88044C7.71617 0.349136 8.53926 0 9.5 0C10.4607 0 11.2838 0.349136 12.106 0.88044C12.8897 1.3869 13.7727 2.12751 14.8467 3.02833L16.1021 4.08122C16.157 4.12727 16.2112 4.17267 16.2647 4.21749C17.345 5.1222 18.1393 5.78738 18.5705 6.70476C19.0017 7.62214 19.0009 8.64511 18.9999 10.0365C18.9998 10.1054 18.9998 10.1752 18.9998 10.246L18.9998 15.3037C18.9998 16.3514 18.9999 17.243 18.9021 17.9547C18.7979 18.7131 18.565 19.4245 17.9773 19.9995C17.3896 20.5746 16.6627 20.8024 15.8876 20.9044C15.1603 21.0001 14.249 21 13.1784 21H5.82163C4.75095 21 3.83974 21.0001 3.11241 20.9044C2.33731 20.8024 1.61035 20.5746 1.02266 19.9995C0.434967 19.4245 0.202105 18.7131 0.0978963 17.9547C0.000107446 17.243 0.000149834 16.3514 0.000199608 15.3038L0.000201941 10.246C0.000201941 10.1752 0.000150093 10.1054 9.90231e-05 10.0365C-0.000933266 8.64511 -0.00169231 7.62214 0.429521 6.70476C0.860734 5.78738 1.65501 5.1222 2.7353 4.21749C2.78882 4.17267 2.84303 4.12727 2.89794 4.08122L4.09972 3.07328C4.11765 3.05825 4.13552 3.04326 4.15334 3.02832C5.22734 2.12751 6.11035 1.3869 6.89403 0.88044Z" fill="none"/>
<path fill-rule="evenodd" clip-rule="evenodd" d="M5.40816 13.9445C5.40816 12.7693 6.38179 11.8166 7.58282 11.8166H11.4171C12.6181 11.8166 13.5917 12.7693 13.5917 13.9445V19.9361C13.5917 20.5237 13.1049 21 12.5044 21C11.9039 21 11.4171 20.5237 11.4171 19.9361L11.4171 13.9445H7.58282V19.9361C7.58282 20.5237 7.096 21 6.49549 21C5.89498 21 5.40816 20.5237 5.40816 19.9361V13.9445Z" fill="none"/>
</svg>
