<svg width="18" height="21" viewBox="0 0 18 21" fill="none" xmlns="http://www.w3.org/2000/svg">
<path d="M1.10547 10.7869C1.10547 9.28625 1.10547 8.53591 1.40882 7.87635C1.71217 7.2168 2.28187 6.72849 3.42127 5.75186L4.52654 4.80449C6.58599 3.03924 7.61572 2.15662 8.84231 2.15662C10.0689 2.15662 11.0986 3.03924 13.1581 4.80449L14.2633 5.75186C15.4027 6.72849 15.9724 7.2168 16.2758 7.87635C16.5792 8.53591 16.5792 9.28625 16.5792 10.7869V15.4737C16.5792 17.5578 16.5792 18.5998 15.9317 19.2473C15.2843 19.8947 14.2422 19.8947 12.1581 19.8947H5.52652C3.44242 19.8947 2.40037 19.8947 1.75292 19.2473C1.10547 18.5998 1.10547 17.5578 1.10547 15.4737V10.7869Z" stroke="none" stroke-width="2"/>
<path d="M11.6054 19.8948V14.2632C11.6054 13.7109 11.1577 13.2632 10.6054 13.2632H7.0791C6.52682 13.2632 6.0791 13.7109 6.0791 14.2632V19.8948" stroke="none" stroke-width="2" stroke-linecap="round" stroke-linejoin="round"/>
</svg>
