<svg width="15" height="16" viewBox="0 0 15 16" fill="none" xmlns="http://www.w3.org/2000/svg">
    <path fill-rule="evenodd" clip-rule="evenodd"
        d="M6.16572 2.02361C5.66561 2.34681 5.07122 2.84336 4.20188 3.57248L3.28624 4.34043C2.28475 5.18037 1.99035 5.45012 1.83255 5.78583C1.67475 6.12153 1.65703 6.5158 1.65703 7.80646V11.6056C1.65703 12.4732 1.65879 13.0424 1.71669 13.4638C1.77139 13.8618 1.86215 14.0046 1.95076 14.0913C2.03937 14.178 2.18531 14.2669 2.59213 14.3204C3.02279 14.377 3.60447 14.3787 4.49116 14.3787H9.98502C10.8717 14.3787 11.4534 14.377 11.8841 14.3204C12.2909 14.2669 12.4368 14.178 12.5254 14.0913C12.614 14.0046 12.7048 13.8618 12.7595 13.4638C12.8174 13.0424 12.8192 12.4732 12.8192 11.6056V7.80646C12.8192 6.5158 12.8014 6.12153 12.6436 5.78583C12.4858 5.45012 12.1914 5.18037 11.19 4.34043L10.2743 3.57248C9.40497 2.84336 8.81058 2.34681 8.31047 2.02361C7.82975 1.71295 7.52226 1.62123 7.23809 1.62123C6.95393 1.62123 6.64644 1.71295 6.16572 2.02361ZM5.2526 0.670811C5.87898 0.266009 6.50611 0 7.23809 0C7.97008 0 8.59721 0.266009 9.22359 0.670811C9.82069 1.05668 10.4935 1.62096 11.3118 2.3073L12.2682 3.1095C12.3101 3.14459 12.3514 3.17918 12.3922 3.21333C13.2152 3.90263 13.8204 4.40943 14.1489 5.10839C14.4775 5.80734 14.4769 6.58675 14.4761 7.64683C14.4761 7.69934 14.476 7.75254 14.476 7.80646L14.476 11.66C14.4761 12.4582 14.4761 13.1375 14.4016 13.6798C14.3222 14.2576 14.1448 14.7996 13.697 15.2377C13.2493 15.6758 12.6954 15.8494 12.1048 15.9271C11.5507 16 10.8564 16 10.0407 16H4.43553C3.61977 16 2.92552 16 2.37136 15.9271C1.78081 15.8494 1.22693 15.6758 0.779169 15.2377C0.331404 14.7996 0.153985 14.2576 0.0745876 13.6798C8.18639e-05 13.1375 0.000114159 12.4582 0.000152082 11.66L0.00015386 7.80646C0.00015386 7.75254 0.000114357 7.69934 7.54462e-05 7.64683C-0.00071106 6.58675 -0.00128938 5.80734 0.327254 5.10839C0.655797 4.40943 1.26096 3.90263 2.08404 3.21333C2.12481 3.17918 2.16612 3.14459 2.20795 3.1095L3.1236 2.34155C3.13725 2.3301 3.15087 2.31868 3.16445 2.30729C3.98274 1.62096 4.6555 1.05668 5.2526 0.670811Z" />
    <path fill-rule="evenodd" clip-rule="evenodd"
        d="M4.12051 10.6244C4.12051 9.72898 4.86231 9.00313 5.77738 9.00313H8.69872C9.61379 9.00313 10.3556 9.72898 10.3556 10.6244V15.1894C10.3556 15.6371 9.98469 16 9.52716 16C9.06963 16 8.69872 15.6371 8.69872 15.1894L8.69872 10.6244H5.77738V15.1894C5.77738 15.6371 5.40648 16 4.94894 16C4.49141 16 4.12051 15.6371 4.12051 15.1894V10.6244Z" />
</svg>