<svg width="16" height="16" viewBox="0 0 18 18" fill="none" xmlns="http://www.w3.org/2000/svg">
    <path fill-rule="evenodd" clip-rule="evenodd"
        d="M7.81474 3.02361C7.262 3.34681 6.60503 3.84336 5.64418 4.57248L4.63216 5.34043C3.52525 6.18037 3.19986 6.45012 3.02545 6.78583C2.85104 7.12153 2.83146 7.5158 2.83146 8.80646V12.6056C2.83146 13.4732 2.8334 14.0424 2.8974 14.4638C2.95785 14.8618 3.05817 15.0046 3.1561 15.0913C3.25403 15.178 3.41535 15.2669 3.86499 15.3204C4.34097 15.377 4.98389 15.3787 5.96392 15.3787H12.0361C13.0161 15.3787 13.659 15.377 14.135 15.3204C14.5847 15.2669 14.746 15.178 14.8439 15.0913C14.9418 15.0046 15.0422 14.8618 15.1026 14.4638C15.1666 14.0424 15.1685 13.4732 15.1685 12.6056V8.80646C15.1685 7.5158 15.149 7.12153 14.9746 6.78583C14.8001 6.45012 14.4747 6.18037 13.3678 5.34043L12.3558 4.57248C11.395 3.84336 10.738 3.34681 10.1853 3.02361C9.65394 2.71295 9.31408 2.62123 9 2.62123C8.68592 2.62123 8.34606 2.71295 7.81474 3.02361ZM6.8055 1.67081C7.49783 1.26601 8.19096 1 9 1C9.80904 1 10.5022 1.26601 11.1945 1.67081C11.8544 2.05668 12.598 2.62096 13.5025 3.3073L14.5596 4.1095C14.6059 4.14459 14.6515 4.17918 14.6966 4.21333C15.6063 4.90263 16.2752 5.40943 16.6383 6.10839C17.0014 6.80734 17.0008 7.58675 16.9999 8.64683C16.9999 8.69934 16.9998 8.75254 16.9998 8.80646L16.9998 12.66C16.9999 13.4582 16.9999 14.1375 16.9176 14.6798C16.8298 15.2576 16.6337 15.7996 16.1388 16.2377C15.6439 16.6758 15.0317 16.8494 14.379 16.9271C13.7665 17 12.9992 17 12.0976 17H5.90242C5.0008 17 4.23347 17 3.62098 16.9271C2.96826 16.8494 2.35609 16.6758 1.86119 16.2377C1.36629 15.7996 1.17019 15.2576 1.08244 14.6798C1.00009 14.1375 1.00013 13.4582 1.00017 12.66L1.00017 8.80646C1.00017 8.75254 1.00013 8.69934 1.00008 8.64683C0.999214 7.58675 0.998575 6.80734 1.3617 6.10839C1.72483 5.40943 2.39369 4.90263 3.30341 4.21333C3.34848 4.17918 3.39413 4.14459 3.44037 4.1095L4.4524 3.34155C4.46749 3.3301 4.48254 3.31868 4.49755 3.30729C5.40197 2.62096 6.14556 2.05668 6.8055 1.67081Z"
        fill="#C9E0E0" />
    <path fill-rule="evenodd" clip-rule="evenodd"
        d="M5.55424 11.6244C5.55424 10.729 6.37414 10.0031 7.38553 10.0031H10.6144C11.6258 10.0031 12.4457 10.729 12.4457 11.6244V16.1894C12.4457 16.6371 12.0357 17 11.53 17C11.0243 17 10.6144 16.6371 10.6144 16.1894L10.6144 11.6244H7.38553V16.1894C7.38553 16.6371 6.97558 17 6.46989 17C5.96419 17 5.55424 16.6371 5.55424 16.1894V11.6244Z"
        fill="#C9E0E0" />
</svg>