<svg width="22" height="22" viewBox="0 0 22 22" fill="none" xmlns="http://www.w3.org/2000/svg">
    <path
        d="M6 1L1 3.78515V9.75332M6 1L11 3.78515V9.75332M6 1V6.96817M1 9.75332L6 12.5385L11 9.75332M1 9.75332L6 6.96817M11 9.75332L6 6.96817"
        stroke="#787878" stroke-width="1.5" />
    <path
        d="M11.3848 9.46191L6.38477 12.2471V18.2152M11.3848 9.46191L16.3848 12.2471V18.2152M11.3848 9.46191V15.4301M6.38477 18.2152L11.3848 21.0004L16.3848 18.2152M6.38477 18.2152L11.3848 15.4301M16.3848 18.2152L11.3848 15.4301"
        stroke="#787878" stroke-width="1.5" />
    <path
        d="M16 1L11 3.78515V9.75332M16 1L21 3.78515V9.75332M16 1V6.96817M11 9.75332L16 12.5385L21 9.75332M11 9.75332L16 6.96817M21 9.75332L16 6.96817"
        stroke="#787878" stroke-width="1.5" />
</svg>