<svg width="24" height="24" viewBox="0 0 24 24" fill="none" xmlns="http://www.w3.org/2000/svg">
    <path
        d="M3.81153 8.26367C5.60022 4.33101 10.0191 2.15182 14.3301 3.30695C17.9322 4.27213 20.4356 7.29097 20.9181 10.7662C20.9712 11.1491 20.9999 11.5375 21.0027 11.9293C21.0033 12.0087 20.9147 12.0553 20.8488 12.0109L18.1708 10.2065C18.0793 10.1449 18.1404 10.0023 18.2481 10.0259L20.0005 10.4102M20.1895 15.7367C18.4008 19.6693 13.9819 21.8485 9.67091 20.6934C6.06882 19.7282 3.56543 16.7094 3.08294 13.2341C3.02978 12.8513 3.00115 12.4629 2.99829 12.0711C2.9977 11.9916 3.08632 11.9451 3.15224 11.9895L5.83009 13.7938C5.92156 13.8554 5.86052 13.998 5.75278 13.9744L4.00051 13.5899"
        stroke="none" stroke-width="2" stroke-linecap="round" stroke-linejoin="round" />
</svg>