<svg width="22" height="16" viewBox="0 0 22 16" fill="none" xmlns="http://www.w3.org/2000/svg">
<path d="M19.1538 1.67046C18.9518 1.52003 18.6984 1.41428 18.4215 1.36483C18.1446 1.31538 17.8548 1.32414 17.5841 1.39016L1.96186 5.29839C1.67213 5.36724 1.4161 5.49895 1.22612 5.67687C1.03613 5.85479 0.920712 6.07095 0.894432 6.29805C0.868152 6.52514 0.932192 6.75298 1.07846 6.95279C1.22474 7.1526 1.44668 7.31542 1.71626 7.42068L8.19794 9.82328L11.4014 14.7006C11.5302 14.8915 11.7272 15.0518 11.9705 15.1635C12.2137 15.2752 12.4936 15.334 12.7789 15.3332H12.8857C13.1912 15.3164 13.4828 15.231 13.7228 15.0882C13.9627 14.9453 14.1399 14.7517 14.2311 14.5324L19.5169 2.84774C19.6112 2.64586 19.6272 2.42804 19.563 2.21961C19.4987 2.01119 19.3568 1.82075 19.1538 1.67046ZM2.62391 6.40358L16.26 2.99189L8.68914 8.67003L2.62391 6.40358ZM12.8536 14.0679L9.82103 9.51895L17.3919 3.84081L12.8536 14.0679Z" fill="#C9E0E0"/>
</svg>
