<svg width="20" height="15" viewBox="0 0 20 15" fill="none" xmlns="http://www.w3.org/2000/svg">
<path d="M17.957 1.56613C17.7677 1.42511 17.5301 1.32597 17.2705 1.27961C17.0109 1.23325 16.7393 1.24146 16.4855 1.30335L1.83961 4.96731C1.56799 5.03187 1.32796 5.15534 1.14985 5.32214C0.971741 5.48895 0.863534 5.69159 0.838896 5.90449C0.814259 6.11739 0.874297 6.33099 1.01143 6.51832C1.14856 6.70564 1.35663 6.85828 1.60936 6.95697L7.68594 9.2094L10.6892 13.7819C10.8099 13.9608 10.9946 14.1111 11.2227 14.2158C11.4507 14.3206 11.7132 14.3757 11.9806 14.375H12.0807C12.3671 14.3592 12.6405 14.2791 12.8655 14.1452C13.0904 14.0113 13.2565 13.8298 13.3421 13.6242L18.2974 2.66983C18.3859 2.48057 18.4009 2.27636 18.3406 2.08096C18.2804 1.88557 18.1473 1.70703 17.957 1.56613ZM2.46028 6.00344L15.2441 2.80498L8.14643 8.12823L2.46028 6.00344ZM12.0507 13.1887L9.20758 8.9241L16.3053 3.60084L12.0507 13.1887Z" fill="#C9E0E0"/>
</svg>
