<svg width="18" height="18" viewBox="0 0 14 14" fill="none" xmlns="http://www.w3.org/2000/svg">
    <path
        d="M12.7128 1.28904C12.5833 1.1601 12.4208 1.06945 12.2432 1.02707C12.0656 0.984681 11.8798 0.992193 11.7062 1.04878L1.6882 4.39869C1.5024 4.45771 1.33822 4.5706 1.21639 4.7231C1.09456 4.87561 1.02055 5.06089 1.00369 5.25554C0.986841 5.45019 1.02791 5.64548 1.12171 5.81675C1.21551 5.98801 1.35783 6.12757 1.53071 6.2178L5.68718 8.27717L7.74145 12.4577C7.82402 12.6213 7.95037 12.7587 8.10637 12.8545C8.26237 12.9503 8.44186 13.0006 8.62479 13H8.69327C8.88917 12.9855 9.07621 12.9123 9.23008 12.7899C9.38394 12.6675 9.49752 12.5015 9.55606 12.3135L12.9456 2.29813C13.0061 2.1251 13.0164 1.93839 12.9752 1.75974C12.9339 1.58109 12.843 1.41786 12.7128 1.28904ZM2.11275 5.346L10.8571 2.42169L6.00217 7.28867L2.11275 5.346ZM8.67272 11.9154L6.72801 8.01632L11.5829 3.14934L8.67272 11.9154Z"
        fill="#C9E0E0" />
</svg>