<svg width="28" height="21" viewBox="0 0 28 21" fill="none" xmlns="http://www.w3.org/2000/svg">
<path d="M25.1397 2.19259C24.8746 1.99515 24.542 1.85635 24.1786 1.79145C23.8151 1.72654 23.4348 1.73805 23.0795 1.82469L2.57531 6.95424C2.19504 7.04461 1.859 7.21748 1.60965 7.451C1.36029 7.68452 1.2088 7.96823 1.17431 8.26629C1.13982 8.56435 1.22387 8.86339 1.41585 9.12564C1.60783 9.3879 1.89913 9.6016 2.25296 9.73975L10.7602 12.8932L14.9647 19.2946C15.1337 19.5452 15.3923 19.7555 15.7116 19.9022C16.0309 20.0488 16.3983 20.126 16.7727 20.125H16.9128C17.3138 20.1028 17.6966 19.9908 18.0115 19.8033C18.3265 19.6159 18.5589 19.3617 18.6787 19.0739L25.6162 3.73776C25.7401 3.4728 25.7611 3.1869 25.6767 2.91335C25.5924 2.6398 25.4061 2.38984 25.1397 2.19259ZM3.44425 8.40481L21.3416 3.92697L11.4049 11.3795L3.44425 8.40481ZM16.8708 18.4642L12.8905 12.4937L22.8272 5.04117L16.8708 18.4642Z" fill="none"/>
</svg>
