<svg width="20" height="19" viewBox="0 0 20 19" fill="none" xmlns="http://www.w3.org/2000/svg">
<path d="M1.00001 3.5V3.5C1.00001 2.11929 2.1193 1 3.50001 1L17.2857 1C17.4852 1 17.585 1 17.6651 1.02806C17.8088 1.07831 17.9217 1.19124 17.9719 1.33486C18 1.41505 18 1.51479 18 1.71429V1.71429C18 2.91124 18 3.50972 17.8317 3.99084C17.5301 4.85258 16.8526 5.53011 15.9908 5.83165C15.5097 6 14.9112 6 13.7143 6L13 6M1.00001 3.5V3.5C1.00001 4.88071 2.11929 6 3.50001 6L17 6C17.9428 6 18.4142 6 18.7071 6.29289C19 6.58579 19 7.05719 19 8L19 10M1.00001 3.5L1.00001 14C1.00001 15.8856 1.00001 16.8284 1.58579 17.4142C2.17158 18 3.11439 18 5.00001 18L17 18C17.9428 18 18.4142 18 18.7071 17.7071C19 17.4142 19 16.9428 19 16L19 14M19 14H15C14.0572 14 13.5858 14 13.2929 13.7071C13 13.4142 13 12.9428 13 12V12C13 11.0572 13 10.5858 13.2929 10.2929C13.5858 10 14.0572 10 15 10H19M19 14L19 10" stroke="none" stroke-width="2"/>
</svg>
