<svg width="20" height="20" viewBox="0 0 14 14" fill="none" xmlns="http://www.w3.org/2000/svg">
    <path fill-rule="evenodd" clip-rule="evenodd"
        d="M7.0001 4.90698C6.41382 4.90698 5.85156 5.1275 5.437 5.52001C5.02245 5.91253 4.78955 6.4449 4.78955 7.00001C4.78955 7.55511 5.02245 8.08748 5.437 8.48C5.85156 8.87251 6.41382 9.09303 7.0001 9.09303C7.58637 9.09303 8.14863 8.87251 8.56319 8.48C8.97774 8.08748 9.21064 7.55511 9.21064 7.00001C9.21064 6.4449 8.97774 5.91253 8.56319 5.52001C8.14863 5.1275 7.58637 4.90698 7.0001 4.90698ZM5.67377 7.00001C5.67377 6.66694 5.81351 6.34752 6.06224 6.11201C6.31098 5.8765 6.64833 5.74419 7.0001 5.74419C7.35186 5.74419 7.68922 5.8765 7.93795 6.11201C8.18668 6.34752 8.32642 6.66694 8.32642 7.00001C8.32642 7.33307 8.18668 7.65249 7.93795 7.888C7.68922 8.12351 7.35186 8.25582 7.0001 8.25582C6.64833 8.25582 6.31098 8.12351 6.06224 7.888C5.81351 7.65249 5.67377 7.33307 5.67377 7.00001Z"
        fill="#C9E0E0" />
    <path fill-rule="evenodd" clip-rule="evenodd"
        d="M6.98526 1C6.72295 1 6.50425 1 6.32505 1.01116C6.14187 1.01838 5.96122 1.05422 5.79039 1.11721C5.59365 1.19428 5.41488 1.3073 5.26427 1.4498C5.11367 1.5923 4.99419 1.76149 4.91266 1.94772C4.82718 2.14307 4.80419 2.34958 4.79476 2.57395C4.79382 2.65601 4.77087 2.7365 4.72809 2.80786C4.6853 2.87923 4.62406 2.93913 4.55013 2.98195C4.47401 3.0213 4.38859 3.04169 4.30187 3.0412C4.21515 3.04072 4.12999 3.01937 4.05437 2.97916C3.84452 2.87423 3.6441 2.78995 3.42245 2.76205C3.21139 2.73576 2.99692 2.74909 2.7913 2.80129C2.58567 2.85348 2.39292 2.94351 2.22404 3.06623C2.08126 3.175 1.95838 3.30531 1.86034 3.45191C1.76012 3.59367 1.65048 3.77284 1.51962 3.98772L1.50488 4.01228C1.37343 4.22716 1.26437 4.40633 1.18538 4.55926C1.10286 4.71888 1.03801 4.87628 1.01443 5.05042C0.958198 5.45395 1.07355 5.8621 1.33511 6.18512C1.47128 6.35312 1.64871 6.47535 1.84914 6.59479C1.92386 6.63662 1.98611 6.69576 2.03004 6.76665C2.07397 6.83753 2.09813 6.91784 2.10025 7C2.09813 7.08217 2.07397 7.16247 2.03004 7.23336C1.98611 7.30424 1.92386 7.36338 1.84914 7.40521C1.64871 7.52465 1.47187 7.64688 1.33511 7.81488C1.20549 7.97478 1.11041 8.15729 1.05529 8.35198C1.00016 8.54667 0.986082 8.74974 1.01384 8.94958C1.03801 9.12372 1.10227 9.28112 1.18479 9.44074C1.26437 9.59367 1.37343 9.77284 1.50488 9.98772L1.51962 10.0123C1.65048 10.2272 1.76012 10.4063 1.86034 10.5481C1.96467 10.6949 2.07667 10.8272 2.22404 10.9332C2.39288 11.056 2.58561 11.1462 2.79123 11.1985C2.99686 11.2507 3.21135 11.2642 3.42245 11.238C3.6441 11.21 3.84452 11.1263 4.05437 11.0208C4.1299 10.9807 4.21496 10.9594 4.30158 10.9589C4.38819 10.9584 4.47351 10.9787 4.54954 11.018C4.62388 11.0605 4.6855 11.1203 4.72853 11.1918C4.77156 11.2632 4.79456 11.3438 4.79535 11.426C4.80419 11.6504 4.82718 11.8569 4.91325 12.0523C4.99465 12.2386 5.11401 12.4078 5.26451 12.5504C5.41501 12.693 5.59371 12.8062 5.79039 12.8833C5.96134 12.9503 6.13818 12.9766 6.32505 12.9883C6.50425 13 6.72295 13 6.98526 13H7.01474C7.27705 13 7.49575 13 7.67495 12.9888C7.86241 12.9766 8.03866 12.9503 8.20961 12.8828C8.40635 12.8057 8.58512 12.6927 8.73573 12.5502C8.88633 12.4077 9.00581 12.2385 9.08734 12.0523C9.17282 11.8569 9.19581 11.6504 9.20524 11.426C9.20608 11.3439 9.22898 11.2633 9.27177 11.1918C9.31457 11.1204 9.37585 11.0604 9.44987 11.0175C9.52603 10.9782 9.61149 10.9579 9.69821 10.9585C9.78492 10.9591 9.87006 10.9805 9.94562 11.0208C10.1555 11.1258 10.3559 11.21 10.5775 11.2374C11.0037 11.2906 11.4348 11.1814 11.776 10.9338C11.9233 10.8266 12.0353 10.6949 12.1397 10.5481C12.2399 10.4063 12.3495 10.2272 12.4804 10.0123L12.4951 9.98772C12.6266 9.77284 12.7356 9.59367 12.8146 9.44074C12.8971 9.28112 12.962 9.12316 12.9856 8.94958C13.0418 8.54605 12.9265 8.1379 12.6649 7.81488C12.5287 7.64688 12.3513 7.52465 12.1509 7.40521C12.0761 7.36338 12.0139 7.30424 11.97 7.23336C11.926 7.16247 11.9019 7.08217 11.8997 7C11.8997 6.84484 11.9893 6.69079 12.1509 6.59479C12.3513 6.47535 12.5281 6.35312 12.6649 6.18512C12.7945 6.02522 12.8896 5.84271 12.9447 5.64802C12.9998 5.45333 13.0139 5.25026 12.9862 5.05042C12.9581 4.87891 12.9003 4.71296 12.8152 4.55926C12.7146 4.37381 12.6078 4.1914 12.4951 4.01228L12.4804 3.98772C12.3727 3.80582 12.2591 3.62713 12.1397 3.45191C12.0416 3.30546 11.9187 3.17534 11.776 3.06679C11.6071 2.94397 11.4144 2.85384 11.2088 2.80155C11.0031 2.74926 10.7887 2.73584 10.5775 2.76205C10.3559 2.78995 10.1555 2.87367 9.94562 2.97916C9.87008 3.01927 9.78503 3.04056 9.69842 3.04105C9.61182 3.04154 9.5265 3.0212 9.45046 2.98195C9.37631 2.93927 9.31484 2.87942 9.27184 2.80805C9.22884 2.73667 9.20572 2.65612 9.20465 2.57395C9.19581 2.34958 9.17282 2.14307 9.08675 1.94772C9.00535 1.76144 8.88599 1.59217 8.73549 1.44957C8.58499 1.30698 8.40629 1.19385 8.20961 1.11665C8.03866 1.04967 7.86182 1.02344 7.67495 1.01172C7.49575 1 7.27705 1 7.01474 1H6.98526ZM6.12875 1.89023C6.17414 1.87237 6.24311 1.85619 6.38517 1.8467C6.53077 1.83721 6.71941 1.83721 7 1.83721C7.28059 1.83721 7.46922 1.83721 7.61483 1.8467C7.75689 1.85619 7.82586 1.87237 7.87125 1.89023C8.05222 1.96112 8.19546 2.09674 8.27033 2.26809C8.29391 2.32167 8.31336 2.40595 8.32102 2.60521C8.33871 3.04726 8.5798 3.47312 9.00776 3.70698C9.43573 3.9414 9.94562 3.92577 10.3588 3.71926C10.5451 3.62605 10.6318 3.59981 10.6931 3.59256C10.8868 3.56833 11.0827 3.61791 11.2378 3.73042C11.2767 3.75888 11.3262 3.80744 11.4058 3.91907C11.4877 4.03405 11.582 4.18865 11.7223 4.4186C11.8626 4.64856 11.9563 4.80372 12.0206 4.92763C12.0837 5.04874 12.1031 5.11349 12.109 5.15981C12.1346 5.3432 12.0822 5.5287 11.9634 5.67554C11.9257 5.72186 11.8585 5.77991 11.6805 5.88595C11.2843 6.12149 11.0155 6.53228 11.0155 7C11.0155 7.46772 11.2843 7.87851 11.6805 8.11405C11.8585 8.22009 11.9257 8.27814 11.9634 8.32447C12.0825 8.47126 12.1344 8.65656 12.109 8.84019C12.1031 8.88651 12.0831 8.95181 12.0206 9.07237C11.9563 9.19684 11.8626 9.35144 11.7223 9.5814C11.582 9.81135 11.4871 9.96595 11.4058 10.0809C11.3262 10.1926 11.2767 10.2411 11.2378 10.2696C11.0827 10.3821 10.8868 10.4317 10.6931 10.4074C10.6318 10.4002 10.5457 10.374 10.3588 10.2807C9.94621 10.0742 9.43573 10.0586 9.00776 10.2925C8.5798 10.5269 8.33871 10.9527 8.32102 11.3948C8.31336 11.594 8.29391 11.6783 8.27033 11.7319C8.23329 11.8166 8.17899 11.8936 8.11051 11.9584C8.04203 12.0233 7.96073 12.0747 7.87125 12.1098C7.82586 12.1276 7.75689 12.1438 7.61483 12.1533C7.46922 12.1628 7.28059 12.1628 7 12.1628C6.71941 12.1628 6.53077 12.1628 6.38517 12.1533C6.24311 12.1438 6.17414 12.1276 6.12875 12.1098C6.03927 12.0747 5.95797 12.0233 5.88949 11.9584C5.82101 11.8936 5.76671 11.8166 5.72967 11.7319C5.70609 11.6783 5.68664 11.594 5.67898 11.3948C5.66129 10.9527 5.4202 10.5269 4.99224 10.293C4.56427 10.0586 4.05438 10.0742 3.64115 10.2807C3.45488 10.374 3.36822 10.4002 3.30692 10.4074C3.11323 10.4317 2.91732 10.3821 2.76224 10.2696C2.72333 10.2411 2.67382 10.1926 2.59424 10.0809C2.48336 9.91752 2.3778 9.75093 2.27769 9.5814C2.13739 9.35144 2.04366 9.19628 1.97941 9.07237C1.91634 8.95126 1.89688 8.88651 1.89099 8.84019C1.8654 8.6568 1.91777 8.4713 2.03659 8.32447C2.07432 8.27814 2.14152 8.22009 2.31954 8.11405C2.71567 7.87851 2.98447 7.46772 2.98447 7C2.98447 6.53228 2.71567 6.12149 2.31954 5.88595C2.14152 5.77991 2.07432 5.72186 2.03659 5.67554C1.91777 5.5287 1.8654 5.3432 1.89099 5.15981C1.89688 5.11349 1.91693 5.04819 1.97941 4.92763C2.04366 4.80316 2.13739 4.64856 2.27769 4.4186C2.41798 4.18865 2.51289 4.03405 2.59424 3.91907C2.67382 3.80744 2.72333 3.75888 2.76224 3.73042C2.91732 3.61791 3.11323 3.56833 3.30692 3.59256C3.36822 3.59981 3.45429 3.62605 3.64115 3.71926C4.05379 3.92577 4.56427 3.9414 4.99224 3.70698C5.4202 3.47312 5.66129 3.04726 5.67898 2.60521C5.68664 2.40595 5.70609 2.32167 5.72967 2.26809C5.80454 2.09674 5.94778 1.96112 6.12875 1.89023Z"
        fill="#C9E0E0" />
</svg>