<svg width="20" height="20" viewBox="0 0 20 20" fill="none" xmlns="http://www.w3.org/2000/svg">
<path fill-rule="evenodd" clip-rule="evenodd" d="M13.6619 1.6844L13.7169 1.6994C14.6336 1.94523 15.3594 2.1394 15.9302 2.34607C16.5144 2.5569 16.9911 2.79773 17.3836 3.16523C17.9548 3.70067 18.3544 4.39349 18.5319 5.15607C18.6544 5.6794 18.6252 6.21273 18.5152 6.82357C18.4094 7.4219 18.2152 8.14773 17.9694 9.06357L17.5227 10.7294C17.2777 11.6452 17.0827 12.3711 16.8769 12.9427C16.6652 13.5261 16.4244 14.0027 16.0569 14.3952C15.5389 14.9483 14.8731 15.3411 14.1386 15.5269C13.9233 16.0203 13.6097 16.4647 13.2169 16.8327C12.8244 17.2002 12.3477 17.4411 11.7636 17.6527C11.1927 17.8594 10.4669 18.0536 9.55107 18.2994L9.49523 18.3144C8.57857 18.5594 7.85357 18.7536 7.25523 18.8611C6.6444 18.9702 6.11107 18.9994 5.5869 18.8777C4.82443 18.6997 4.13189 18.2994 3.5969 17.7277C3.23023 17.3361 2.98857 16.8594 2.7769 16.2752C2.57107 15.7044 2.3769 14.9786 2.13107 14.0619L1.6844 12.3969C1.4394 11.4802 1.2444 10.7552 1.13773 10.1569C1.02857 9.54607 0.999399 9.01273 1.12107 8.48857C1.29914 7.72609 1.69935 7.03356 2.27107 6.49857C2.66273 6.1319 3.1394 5.89023 3.72357 5.67857C4.2944 5.47273 5.02023 5.27857 5.93607 5.03273L5.9644 5.0244L6.59023 4.85773C6.9169 3.6919 7.20357 2.86773 7.76357 2.27023C8.29867 1.69882 8.99119 1.29891 9.75357 1.12107C10.2777 0.999399 10.8102 1.02857 11.4219 1.13773C12.0194 1.2444 12.7452 1.4394 13.6619 1.6844ZM6.21273 6.25273C5.3019 6.4969 4.6494 6.67357 4.14773 6.8544C3.6394 7.03773 3.3419 7.20773 3.12523 7.41107C2.73411 7.77716 2.46034 8.25103 2.33857 8.77273C2.2719 9.06273 2.27273 9.40607 2.36857 9.9369C2.4644 10.4761 2.64523 11.1511 2.8994 12.1011L3.33107 13.7111C3.58523 14.6611 3.7669 15.3361 3.95273 15.8502C4.13607 16.3586 4.30607 16.6569 4.5094 16.8736C4.87549 17.2647 5.34936 17.5385 5.87107 17.6602C6.16023 17.7269 6.5044 17.7252 7.03523 17.6302C7.5744 17.5344 8.2494 17.3536 9.1994 17.0994C10.1494 16.8444 10.8244 16.6636 11.3394 16.4769C11.8469 16.2936 12.1452 16.1236 12.3619 15.9211C12.4769 15.8127 12.5811 15.6961 12.6752 15.5719C12.5206 15.5498 12.3667 15.5234 12.2136 15.4927C11.6536 15.3811 10.9802 15.2011 10.1511 14.9786L10.1027 14.9661C9.1869 14.7202 8.46107 14.5261 7.89023 14.3194C7.30607 14.1086 6.8294 13.8677 6.4369 13.5002C5.86535 12.9649 5.46543 12.2721 5.28773 11.5094C5.16607 10.9861 5.19523 10.4527 5.3044 9.8419C5.41107 9.24357 5.60607 8.51773 5.85107 7.6019L6.21273 6.25273ZM11.2019 2.36857C10.6702 2.27273 10.3269 2.27107 10.0377 2.33857C9.51603 2.46034 9.04216 2.73411 8.67607 3.12523C8.31273 3.51273 8.08857 4.11273 7.70023 5.53607C7.6369 5.76773 7.57023 6.0169 7.49773 6.28773L7.06607 7.89773C6.8119 8.84773 6.63107 9.52273 6.53523 10.0619C6.4394 10.5927 6.43773 10.9369 6.50523 11.2261C6.62701 11.7478 6.90077 12.2216 7.2919 12.5877C7.50857 12.7911 7.8069 12.9602 8.3144 13.1444C8.8294 13.3302 9.5044 13.5111 10.4544 13.7661C11.3086 13.9952 11.9419 14.1644 12.4569 14.2661C12.9694 14.3686 13.3177 14.3936 13.6027 14.3586C13.6652 14.3502 13.7244 14.3402 13.7827 14.3269C14.3044 14.2051 14.7783 13.9314 15.1444 13.5402C15.3477 13.3236 15.5177 13.0252 15.7011 12.5177C15.8869 12.0027 16.0677 11.3277 16.3227 10.3777L16.7544 8.76773C17.0086 7.81773 17.1894 7.14273 17.2852 6.60357C17.3802 6.07273 17.3827 5.72857 17.3152 5.4394C17.1935 4.9177 16.9197 4.44383 16.5286 4.07773C16.3119 3.8744 16.0136 3.70523 15.5061 3.52107C14.9902 3.33523 14.3161 3.1544 13.3661 2.8994C12.4161 2.64523 11.7411 2.4644 11.2019 2.36857ZM9.21023 8.1719C9.2315 8.0926 9.26819 8.01828 9.31819 7.95316C9.36819 7.88805 9.43053 7.83343 9.50165 7.79241C9.57277 7.7514 9.65127 7.72479 9.73267 7.71413C9.81407 7.70346 9.89678 7.70893 9.97607 7.73023L14.0011 8.80857C14.1567 8.85537 14.288 8.96099 14.3671 9.103C14.4462 9.24502 14.4669 9.41226 14.4247 9.56925C14.3825 9.72624 14.2808 9.86062 14.1412 9.94388C14.0016 10.0271 13.8351 10.0527 13.6769 10.0152L9.6519 8.9369C9.49194 8.89393 9.35558 8.78923 9.27277 8.64579C9.18995 8.50235 9.16746 8.33191 9.21023 8.1719ZM8.56273 10.5869C8.584 10.5075 8.62071 10.4331 8.67077 10.3679C8.72083 10.3027 8.78325 10.2481 8.85446 10.2071C8.92567 10.166 9.00428 10.1395 9.08577 10.1288C9.16727 10.1182 9.25006 10.1238 9.3294 10.1452L11.7436 10.7919C11.9037 10.8348 12.0402 10.9395 12.1231 11.083C12.206 11.2266 12.2285 11.3972 12.1856 11.5573C12.1428 11.7174 12.038 11.854 11.8945 11.9369C11.751 12.0198 11.5804 12.0423 11.4202 11.9994L9.00523 11.3519C8.84527 11.3089 8.70891 11.2042 8.6261 11.0608C8.54329 10.9174 8.5208 10.7469 8.56357 10.5869" fill="#C9E0E0"/>
</svg>
