<svg width="23" height="20" viewBox="0 0 23 20" fill="none" xmlns="http://www.w3.org/2000/svg">
<path d="M21.8504 10.35H18.3208C17.7968 10.35 17.5348 10.35 17.3137 10.4683C17.0926 10.5866 16.9473 10.8046 16.6567 11.2406L15.5441 12.9094C15.2535 13.3453 15.1082 13.5633 14.8871 13.6817C14.666 13.8 14.404 13.8 13.88 13.8H9.12076C8.59679 13.8 8.33481 13.8 8.11372 13.6817C7.89262 13.5633 7.7473 13.3453 7.45666 12.9094L6.34412 11.2406C6.05348 10.8046 5.90816 10.5866 5.68706 10.4683C5.46597 10.35 5.20399 10.35 4.68002 10.35H1.15039" stroke="none" stroke-width="2"/>
<path d="M3.45039 6.90002L1.44328 8.90713C1.25575 9.09467 1.15039 9.34902 1.15039 9.61424V16.4C1.15039 17.5046 2.04582 18.4 3.15039 18.4H19.8504C20.955 18.4 21.8504 17.5046 21.8504 16.4V9.61424C21.8504 9.34902 21.745 9.09467 21.5575 8.90713L19.5504 6.90002" stroke="none" stroke-width="2" stroke-linecap="round"/>
<path d="M7.47461 4.60005L11.4996 8.05005M11.4996 8.05005L15.5246 4.60005M11.4996 8.05005L11.4996 4.7502e-05" stroke="none" stroke-width="2"/>
</svg>
