<svg width="25" height="21" viewBox="0 0 25 21" fill="none" xmlns="http://www.w3.org/2000/svg">
<path fill-rule="evenodd" clip-rule="evenodd" d="M5.56596 12.2974C5.45407 12.2872 5.29724 12.2861 4.98858 12.2861H1.10132V10.1211H4.98858C5.0007 10.1211 5.01284 10.1211 5.02498 10.1211C5.28182 10.1211 5.54366 10.121 5.77045 10.1418C6.03066 10.1657 6.32159 10.2217 6.61733 10.3773C6.91307 10.5329 7.12191 10.7397 7.28643 10.9393C7.42983 11.1132 7.57504 11.3274 7.71747 11.5375C7.7242 11.5474 7.73093 11.5573 7.73765 11.5672L8.9629 13.3736C9.13412 13.6261 9.22203 13.7537 9.29277 13.8395L9.29631 13.8438L9.30188 13.8443C9.41377 13.8546 9.5706 13.8557 9.87926 13.8557H15.1207C15.4294 13.8557 15.5862 13.8546 15.6981 13.8443L15.7037 13.8438L15.7072 13.8395C15.778 13.7537 15.8659 13.6261 16.0371 13.3736L17.2826 11.5374C17.425 11.3274 17.5702 11.1132 17.7136 10.9393C17.8781 10.7397 18.0869 10.5329 18.3827 10.3773C18.6784 10.2217 18.9693 10.1657 19.2296 10.1418C19.4563 10.121 19.7182 10.1211 19.975 10.1211L23.8987 10.1211V12.2861H20.0114C19.7028 12.2861 19.5459 12.2872 19.434 12.2974L19.4285 12.2979L19.4249 12.3022C19.3542 12.388 19.2663 12.5157 19.0951 12.7681L17.8496 14.6043C17.7072 14.8144 17.562 15.0286 17.4186 15.2025C17.2541 15.4021 17.0452 15.6089 16.7495 15.7644C16.4537 15.92 16.1628 15.9761 15.9026 15.9999C15.6758 16.0207 15.414 16.0207 15.1571 16.0206L9.87926 16.0206C9.86714 16.0206 9.85501 16.0206 9.84287 16.0206C9.58603 16.0207 9.32418 16.0207 9.09739 15.9999C8.83718 15.9761 8.54626 15.92 8.25052 15.7644C7.95478 15.6089 7.74594 15.4021 7.58141 15.2025C7.43801 15.0285 7.29281 14.8144 7.15038 14.6043C7.14365 14.5944 7.13692 14.5845 7.1302 14.5745L5.90494 12.7681C5.73372 12.5157 5.64581 12.388 5.57507 12.3022L5.57153 12.2979L5.56596 12.2974Z" fill="none"/>
<path fill-rule="evenodd" clip-rule="evenodd" d="M4.41311 6.70365C4.84321 7.12638 4.84321 7.81177 4.41311 8.2345L2.20264 10.4071V17.7526C2.20264 18.3504 2.69572 18.8351 3.30396 18.8351H21.696C22.3043 18.8351 22.7974 18.3504 22.7974 17.7526V10.4071L20.5869 8.2345C20.1568 7.81177 20.1568 7.12638 20.5869 6.70365C21.017 6.28092 21.7143 6.28092 22.1444 6.70365L24.3549 8.87629C24.7679 9.2823 25 9.83296 25 10.4071V17.7526C25 19.5461 23.5208 21 21.696 21H3.30396C1.47923 21 0 19.5461 0 17.7526V10.4071C0 9.83296 0.232065 9.2823 0.645139 8.87629L2.85561 6.70365C3.2857 6.28092 3.98302 6.28092 4.41311 6.70365Z" fill="none"/>
<path fill-rule="evenodd" clip-rule="evenodd" d="M7.35045 5.80126L8.78391 4.15751L11.3987 6.36038V0L13.6013 9.46328e-08L13.6013 6.36038L16.2161 4.15751L17.6496 5.80126L12.5 10.1396L7.35045 5.80126Z" fill="none"/>
</svg>
