<svg width="22" height="16" viewBox="0 0 22 16" fill="none" xmlns="http://www.w3.org/2000/svg">
<path d="M11.0716 15.66C9.63372 15.66 8.28209 15.0992 7.27556 14.0927L2.94747 9.75033C2.54485 9.34772 2.54485 8.70068 2.94747 8.31245C3.35008 7.90985 3.99714 7.90985 4.38537 8.31245L8.72784 12.6548C9.36052 13.2875 10.1945 13.6326 11.086 13.6326C11.9775 13.6326 12.8115 13.2875 13.4442 12.6548C13.9762 12.1228 14.2781 11.4039 14.2781 10.6562C14.2781 9.89411 13.9906 9.18955 13.4442 8.65754L11.1004 6.3138C10.6978 5.9112 10.6978 5.26415 11.1004 4.87593C11.503 4.47332 12.15 4.47332 12.5383 4.87593L14.8677 7.20529C15.7879 8.12553 16.2912 9.34772 16.2912 10.6418C16.2912 11.9359 15.7879 13.1581 14.8677 14.0783C13.8612 15.0992 12.5095 15.66 11.0716 15.66Z" />
<path d="M10.6107 11.4327C10.3518 11.4327 10.093 11.332 9.89171 11.1307L7.73485 8.97393C5.73617 6.97528 5.73617 3.72568 7.73485 1.74142C9.73354 -0.25723 12.9832 -0.25723 14.9675 1.74142L18.8642 5.63806C19.2668 6.04066 19.2668 6.68771 18.8642 7.07593C18.4616 7.47854 17.8146 7.47854 17.4263 7.07593L13.5296 3.17929C12.3218 1.97148 10.3806 1.97148 9.17276 3.17929C8.5976 3.75444 8.26688 4.53089 8.26688 5.36486C8.26688 6.18445 8.58322 6.9609 9.17276 7.55043L11.3296 9.70725C11.7322 10.1099 11.7322 10.7569 11.3296 11.1451C11.1283 11.332 10.8695 11.4327 10.6107 11.4327Z"/>
<path d="M16.4246 7.56065C16.2992 7.5224 16.2246 7.43976 16.2006 7.31272C16.1765 7.18599 16.215 7.08023 16.316 6.99546L18.9293 4.80193C19.0303 4.71715 19.1412 4.69751 19.262 4.743C19.3828 4.7888 19.4512 4.87675 19.4671 5.00683L19.8878 8.16137C19.9009 8.2795 19.8611 8.37743 19.7685 8.45514C19.676 8.53285 19.5726 8.55502 19.4586 8.52166L16.4246 7.56065Z" />
<path d="M4.90872 7.49072C5.03408 7.52894 5.10877 7.61156 5.13281 7.7386C5.15687 7.86533 5.11841 7.9711 5.01743 8.05589L2.40463 10.25C2.30365 10.3348 2.19275 10.3545 2.07192 10.309C1.95112 10.2632 1.88273 10.1753 1.86677 10.0452L1.44542 6.89075C1.43232 6.77262 1.47204 6.67469 1.56461 6.59696C1.65717 6.51923 1.76049 6.49703 1.87458 6.53036L4.90872 7.49072Z" />
</svg>
