<svg width="20" height="15" viewBox="0 0 20 15" fill="none" xmlns="http://www.w3.org/2000/svg">
<g clip-path="url(#clip0_20981_18966)">
<path d="M10.3795 14.6812C9.03143 14.6812 7.76428 14.1555 6.82065 13.2119L2.76307 9.14091C2.38562 8.76347 2.38562 8.15687 2.76307 7.79291C3.14052 7.41546 3.74713 7.41546 4.1111 7.79291L8.18217 11.8639C8.7753 12.457 9.55716 12.7805 10.3929 12.7805C11.2287 12.7805 12.0106 12.457 12.6037 11.8639C13.1025 11.3651 13.3856 10.6911 13.3856 9.99016C13.3856 9.27572 13.116 8.61519 12.6037 8.11643L10.4064 5.91918C10.029 5.54173 10.029 4.93513 10.4064 4.57117C10.7839 4.19373 11.3905 4.19373 11.7545 4.57117L13.9383 6.75494C14.801 7.61767 15.2728 8.76347 15.2728 9.97668C15.2728 11.1899 14.801 12.3357 13.9383 13.1984C12.9946 14.1555 11.7275 14.6812 10.3795 14.6812Z" fill="#C9E0E0"/>
<path d="M9.94759 10.7184C9.70494 10.7184 9.46229 10.6241 9.27357 10.4353L7.25152 8.41332C5.37775 6.53959 5.37775 3.49309 7.25152 1.63284C9.12529 -0.240894 12.1718 -0.240894 14.0321 1.63284L17.6853 5.28594C18.0628 5.66338 18.0628 6.26999 17.6853 6.63395C17.3079 7.01139 16.7012 7.01139 16.3373 6.63395L12.6841 2.98085C11.5517 1.84852 9.7319 1.84852 8.59955 2.98085C8.06034 3.52005 7.75029 4.24797 7.75029 5.02982C7.75029 5.79818 8.04686 6.52611 8.59955 7.07879L10.6216 9.1008C10.9991 9.47825 10.9991 10.0848 10.6216 10.4488C10.4329 10.6241 10.1902 10.7184 9.94759 10.7184Z" fill="#C9E0E0"/>
<path d="M15.398 7.08834C15.2805 7.05248 15.2105 6.975 15.188 6.8559C15.1655 6.73709 15.2015 6.63794 15.2962 6.55847L17.7462 4.50201C17.8409 4.42253 17.9449 4.40412 18.0582 4.44677C18.1714 4.4897 18.2355 4.57215 18.2504 4.6941L18.6448 7.65151C18.6571 7.76227 18.6198 7.85407 18.533 7.92692C18.4462 7.99977 18.3493 8.02056 18.2424 7.98929L15.398 7.08834Z" fill="#C9E0E0"/>
<path d="M4.60185 7.02243C4.71938 7.05826 4.78941 7.13572 4.81194 7.25482C4.8345 7.37363 4.79844 7.47278 4.70377 7.55228L2.25422 9.60927C2.15956 9.68876 2.05558 9.7072 1.9423 9.66458C1.82905 9.62166 1.76494 9.53923 1.74997 9.41728L1.35495 6.45996C1.34266 6.34921 1.37991 6.2574 1.46668 6.18453C1.55346 6.11165 1.65033 6.09084 1.75729 6.12209L4.60185 7.02243Z" fill="#C9E0E0"/>
</g>
<defs>
<clipPath id="clip0_20981_18966">
<rect width="20" height="15" fill="white"/>
</clipPath>
</defs>
</svg>
