<svg width="18" height="18" viewBox="0 0 14 14" fill="none" xmlns="http://www.w3.org/2000/svg">
    <path
        d="M7.22801 11.6899C6.41918 11.6899 5.65888 11.3738 5.0927 10.8065L2.65813 8.359C2.43166 8.13207 2.43166 7.76737 2.65813 7.54855C2.88461 7.32163 3.24858 7.32163 3.46696 7.54855L5.90962 9.99609C6.2655 10.3527 6.73462 10.5472 7.23609 10.5472C7.73757 10.5472 8.20669 10.3527 8.56257 9.99609C8.86184 9.69622 9.03169 9.291 9.03169 8.86957C9.03169 8.44004 8.86992 8.04292 8.56257 7.74306L7.24418 6.42204C7.01771 6.19512 7.01771 5.83042 7.24418 5.6116C7.47065 5.38468 7.83463 5.38468 8.05301 5.6116L9.36331 6.92451C9.88096 7.4432 10.164 8.13207 10.164 8.86147C10.164 9.59087 9.88096 10.2797 9.36331 10.7984C8.79713 11.3738 8.03683 11.6899 7.22801 11.6899Z"
        fill="#C9E0E0" />
    <path
        d="M6.96867 9.30726C6.82308 9.30726 6.67749 9.25053 6.56425 9.13707L5.35101 7.92141C4.22675 6.79489 4.22675 4.96329 5.35101 3.84489C6.47528 2.71837 8.30323 2.71837 9.41941 3.84489L11.6113 6.04118C11.8378 6.26811 11.8378 6.6328 11.6113 6.85162C11.3849 7.07855 11.0209 7.07855 10.8025 6.85162L8.61059 4.65533C7.93117 3.97456 6.83926 3.97456 6.15984 4.65533C5.83631 4.9795 5.65028 5.41714 5.65028 5.8872C5.65028 6.34915 5.82822 6.78679 6.15984 7.11907L7.37308 8.33473C7.59955 8.56165 7.59955 8.92635 7.37308 9.14517C7.25985 9.25053 7.11426 9.30726 6.96867 9.30726Z"
        fill="#C9E0E0" />
    <path
        d="M10.2388 7.12485C10.1683 7.10329 10.1263 7.05671 10.1128 6.9851C10.0993 6.91367 10.1209 6.85406 10.1777 6.80628L11.6477 5.56991C11.7045 5.52213 11.7669 5.51106 11.8349 5.5367C11.9028 5.56251 11.9413 5.61208 11.9503 5.6854L12.1869 7.46344C12.1942 7.53002 12.1719 7.58521 12.1198 7.62901C12.0677 7.67282 12.0096 7.68531 11.9454 7.66651L10.2388 7.12485Z"
        fill="#C9E0E0" />
    <path
        d="M3.76132 7.08551C3.83183 7.10705 3.87385 7.15362 3.88737 7.22523C3.9009 7.29665 3.87927 7.35627 3.82247 7.40406L2.35273 8.64075C2.29593 8.68855 2.23354 8.69963 2.16558 8.67401C2.09762 8.64821 2.05916 8.59865 2.05017 8.52533L1.81316 6.74734C1.80579 6.68076 1.82814 6.62556 1.8802 6.58175C1.93227 6.53794 1.99039 6.52543 2.05457 6.54422L3.76132 7.08551Z"
        fill="#C9E0E0" />
</svg>