<svg width="28" height="21" viewBox="0 0 28 21" fill="none" xmlns="http://www.w3.org/2000/svg">
<g clip-path="url(#clip0_14878_1358)">
<path d="M14.5314 20.5536C12.6442 20.5536 10.8701 19.8176 9.54908 18.4965L3.86846 12.7971C3.34003 12.2687 3.34003 11.4195 3.86846 10.9099C4.39689 10.3815 5.24615 10.3815 5.75571 10.9099L11.4552 16.6093C12.2856 17.4397 13.3802 17.8926 14.5503 17.8926C15.7204 17.8926 16.815 17.4397 17.6454 16.6093C18.3437 15.911 18.74 14.9674 18.74 13.9861C18.74 12.9859 18.3625 12.0611 17.6454 11.3629L14.5692 8.2867C14.0407 7.75828 14.0407 6.90904 14.5692 6.39949C15.0976 5.87107 15.9468 5.87107 16.4564 6.39949L19.5137 9.45677C20.7216 10.6646 21.3821 12.2687 21.3821 13.9672C21.3821 15.6657 20.7216 17.2698 19.5137 18.4776C18.1927 19.8176 16.4187 20.5536 14.5314 20.5536Z" fill="none"/>
<path d="M13.9269 15.0053C13.5872 15.0053 13.2475 14.8732 12.9833 14.609L10.1524 11.7782C7.5291 9.15498 7.5291 4.88988 10.1524 2.28553C12.7757 -0.337691 17.0408 -0.337691 19.6452 2.28553L24.7597 7.39988C25.2881 7.92829 25.2881 8.77754 24.7597 9.28709C24.2313 9.81551 23.382 9.81551 22.8724 9.28709L17.758 4.17274C16.1727 2.58749 13.6249 2.58749 12.0396 4.17274C11.2847 4.92763 10.8507 5.94672 10.8507 7.04131C10.8507 8.11702 11.2659 9.13611 12.0396 9.90987L14.8705 12.7407C15.3989 13.2691 15.3989 14.1183 14.8705 14.6279C14.6063 14.8732 14.2666 15.0053 13.9269 15.0053Z" fill="none"/>
<path d="M21.5571 9.92313C21.3926 9.87294 21.2946 9.76447 21.2631 9.59772C21.2315 9.43139 21.2821 9.29258 21.4146 9.18132L24.8446 6.30227C24.9772 6.19101 25.1227 6.16523 25.2813 6.22493C25.4399 6.28505 25.5296 6.40047 25.5505 6.57121L26.1026 10.7116C26.1198 10.8666 26.0676 10.9952 25.9461 11.0972C25.8246 11.1991 25.689 11.2283 25.5392 11.1845L21.5571 9.92313Z" fill="none"/>
<path d="M6.44274 9.83169C6.60728 9.88185 6.70532 9.9903 6.73686 10.157C6.76844 10.3234 6.71796 10.4622 6.58543 10.5735L3.15606 13.4533C3.02353 13.5646 2.87796 13.5904 2.71937 13.5307C2.56081 13.4706 2.47106 13.3552 2.4501 13.1845L1.89708 9.04423C1.87987 8.88918 1.93202 8.76065 2.05351 8.65863C2.175 8.55661 2.31061 8.52747 2.46036 8.57122L6.44274 9.83169Z" fill="none"/>
</g>
<defs>
<clipPath id="clip0_14878_1358">
<rect width="28" height="21" fill="white"/>
</clipPath>
</defs>
</svg>
