<svg width="22" height="16" viewBox="0 0 22 16" fill="none" xmlns="http://www.w3.org/2000/svg">
<path fill-rule="evenodd" clip-rule="evenodd" d="M7.05364 13.7494V11.8193H11.6034V13.3997H8.65943V15.05C8.65943 15.8412 7.73286 16.2845 7.1007 15.7956L0 10.3047L7.1007 4.81386C7.73287 4.32501 8.65943 4.76825 8.65943 5.55948V7.20981H13.4768V8.7902H7.05364V6.86012L2.59912 10.3047L7.05364 13.7494Z" fill="#C9E0E0"/>
<path fill-rule="evenodd" clip-rule="evenodd" d="M14.2797 2.25064V4.18072H9.72996V2.60033H12.6739V0.95C12.6739 0.158762 13.6005 -0.284457 14.2326 0.204384L21.3333 5.69526L14.2326 11.1861C13.6005 11.675 12.6739 11.2318 12.6739 10.4405V8.79019H7.85653V7.2098H14.2797V9.13988L18.7342 5.69526L14.2797 2.25064Z" fill="#C9E0E0"/>
</svg>
