<svg width="20" height="15" viewBox="0 0 20 15" fill="none" xmlns="http://www.w3.org/2000/svg">
<g clip-path="url(#clip0_20981_18957)">
<path fill-rule="evenodd" clip-rule="evenodd" d="M6.61279 12.89V11.0806H10.8782V12.5622H8.11822V14.1094C8.11822 14.8512 7.24956 15.2667 6.65691 14.8084L0 9.66069L6.65691 4.513C7.24956 4.0547 8.11822 4.47023 8.11822 5.21201V6.75919H12.6345V8.24081H6.61279V6.43136L2.43667 9.66069L6.61279 12.89Z" fill="#C9E0E0"/>
<path fill-rule="evenodd" clip-rule="evenodd" d="M13.3872 2.10997V3.91943H9.12183V2.43781H11.8818V0.890625C11.8818 0.148839 12.7504 -0.266679 13.3431 0.19161L20 5.33931L13.3431 10.487C12.7504 10.9453 11.8818 10.5298 11.8818 9.78799V8.24081H7.3655V6.75919H13.3872V8.56864L17.5633 5.33931L13.3872 2.10997Z" fill="#C9E0E0"/>
</g>
<defs>
<clipPath id="clip0_20981_18957">
<rect width="20" height="15" fill="white"/>
</clipPath>
</defs>
</svg>
