<svg width="28" height="21" viewBox="0 0 28 21" fill="none" xmlns="http://www.w3.org/2000/svg">
<path fill-rule="evenodd" clip-rule="evenodd" d="M9.2579 18.046V15.5128H15.2294V17.5871H11.3655V19.7531C11.3655 20.7916 10.1494 21.3734 9.31967 20.7317L0 13.525L9.31967 6.31819C10.1494 5.67658 11.3655 6.25832 11.3655 7.29681V9.46287H17.6883V11.5371H9.2579V9.0039L3.41134 13.525L9.2579 18.046Z" fill="none"/>
<path fill-rule="evenodd" clip-rule="evenodd" d="M18.7421 2.95396V5.4872H12.7706V3.41293H16.6345V1.24687C16.6345 0.208375 17.8506 -0.37335 18.6803 0.268254L28 7.47503L18.6803 14.6818C17.8506 15.3234 16.6345 14.7417 16.6345 13.7032V11.5371H10.3117V9.46287H18.7421V11.9961L24.5887 7.47503L18.7421 2.95396Z" fill="none"/>
</svg>
