<svg width="18" height="18" viewBox="0 0 14 14" fill="none" xmlns="http://www.w3.org/2000/svg">
    <path fill-rule="evenodd" clip-rule="evenodd"
        d="M4.96767 9.87468V8.90964H7.5269V9.69984H5.87093V10.525C5.87093 10.9206 5.34974 11.1422 4.99414 10.8978L1 8.15237L4.99414 5.40693C5.34974 5.16251 5.87093 5.38412 5.87093 5.77974V6.6049H8.5807V7.3951H4.96767V6.43006L2.462 8.15237L4.96767 9.87468Z"
        fill="#C9E0E0" />
    <path fill-rule="evenodd" clip-rule="evenodd"
        d="M9.03233 4.12532V5.09036H6.4731V4.30016H8.12907V3.475C8.12907 3.07938 8.65026 2.85777 9.00586 3.10219L13 5.84763L9.00586 8.59307C8.65026 8.83749 8.12907 8.61588 8.12907 8.22026V7.3951H5.4193V6.6049H9.03233V7.56994L11.538 5.84763L9.03233 4.12532Z"
        fill="#C9E0E0" />
</svg>