<svg width="24" height="25" viewBox="0 0 24 25" fill="none" xmlns="http://www.w3.org/2000/svg">
    <path
        d="M20.2957 17.7959L17.2957 20.7959C17.0844 21.0072 16.7977 21.126 16.4989 21.126C16.2 21.126 15.9133 21.0072 15.702 20.7959C15.4906 20.5846 15.3719 20.2979 15.3719 19.999C15.3719 19.7001 15.4906 19.4135 15.702 19.2021L16.781 18.125H4.49979C4.20142 18.125 3.91528 18.0064 3.7043 17.7955C3.49332 17.5845 3.37479 17.2983 3.37479 17C3.37479 16.7016 3.49332 16.4154 3.7043 16.2045C3.91528 15.9935 4.20142 15.875 4.49979 15.875H16.781L15.701 14.7959C15.4897 14.5846 15.371 14.2979 15.371 13.999C15.371 13.7001 15.4897 13.4135 15.701 13.2021C15.9124 12.9908 16.199 12.8721 16.4979 12.8721C16.7968 12.8721 17.0834 12.9908 17.2948 13.2021L20.2948 16.2021C20.3997 16.3066 20.483 16.4307 20.5399 16.5675C20.5967 16.7042 20.6261 16.8508 20.6261 16.9988C20.6262 17.1469 20.5971 17.2935 20.5404 17.4303C20.4837 17.5671 20.4005 17.6913 20.2957 17.7959ZM6.70198 11.7959C6.91332 12.0072 7.19997 12.126 7.49886 12.126C7.79774 12.126 8.08439 12.0072 8.29573 11.7959C8.50707 11.5846 8.62581 11.2979 8.62581 10.999C8.62581 10.7001 8.50707 10.4135 8.29573 10.2021L7.21854 9.12496H19.4998C19.7982 9.12496 20.0843 9.00643 20.2953 8.79545C20.5063 8.58448 20.6248 8.29833 20.6248 7.99996C20.6248 7.70159 20.5063 7.41544 20.2953 7.20446C20.0843 6.99349 19.7982 6.87496 19.4998 6.87496H7.21854L8.29573 5.7959C8.50707 5.58455 8.62581 5.29791 8.62581 4.99902C8.62581 4.70014 8.50707 4.41349 8.29573 4.20215C8.08439 3.9908 7.79774 3.87207 7.49886 3.87207C7.19997 3.87207 6.91332 3.9908 6.70198 4.20215L3.70198 7.20215C3.5971 7.30666 3.51388 7.43086 3.4571 7.5676C3.40032 7.70435 3.37109 7.85096 3.37109 7.99902C3.37109 8.14709 3.40032 8.2937 3.4571 8.43044C3.51388 8.56719 3.5971 8.69138 3.70198 8.7959L6.70198 11.7959Z"
        fill="none" />
</svg>