<svg width="36" height="36" viewBox="0 0 36 36" fill="none" xmlns="http://www.w3.org/2000/svg">
<circle cx="18" cy="18" r="18" fill="#12FF80"/>
<path d="M11.3386 6.34779C10.9386 6.6608 10.9038 6.8173 10.8343 8.34755C10.7647 10.6082 10.6082 10.7647 8.34762 10.8342C6.01746 10.9212 6.00008 10.9559 6.00008 14.4338C6.00008 17.9464 5.94791 17.8942 8.59107 17.9638C10.4517 18.0334 10.5213 18.016 10.956 17.5812C11.3733 17.1639 11.3907 17.0769 11.3907 14.7816V13.1124C11.3907 12.6558 11.5721 12.2178 11.895 11.895C12.2179 11.5721 12.6558 11.3907 13.1125 11.3907H18.0334C24.9717 11.3907 24.4848 11.5646 24.5718 8.90401C24.6413 7.16508 24.6239 7.07814 24.1718 6.55646C23.8683 6.20322 23.4257 6 22.96 6H17.7378C12.0515 6 11.7733 6.01739 11.3386 6.34779Z" fill="black"/>
<path d="M16.0858 15.4424C15.4424 15.7728 15.2163 16.3815 15.2163 17.8769C15.2163 19.5811 15.5119 20.3114 16.2597 20.5897C17.0596 20.8679 19.1115 20.8331 19.8245 20.5201C20.6417 20.1897 20.8156 19.6333 20.7461 17.6857C20.6939 16.1554 20.6591 16.0337 20.207 15.6337C19.7723 15.2512 19.5636 15.2164 18.1203 15.2164C17.1813 15.2164 16.3466 15.3207 16.0858 15.4424Z" fill="black"/>
<path d="M25.076 18.3464C24.6412 18.6941 24.6238 18.7463 24.5717 21.2156C24.5021 24.8325 25.1455 24.5021 17.8942 24.6065L12.6081 24.6851C12.2556 24.6904 11.9239 24.8529 11.7036 25.1282C11.408 25.5107 11.3732 25.7542 11.4254 27.4409C11.5124 30.1884 10.9559 29.9971 18.3115 29.9971H23.6734C24.0584 29.9971 24.4268 29.8401 24.6934 29.5624C25.0933 29.1798 25.1281 29.006 25.1281 27.6148C25.1455 25.4412 25.4585 25.1282 27.7365 25.1282C29.0059 25.1282 29.1798 25.076 29.5624 24.6934C29.9797 24.2761 29.9971 24.2065 29.9971 21.5634C29.9971 18.9202 29.9797 18.8506 29.5624 18.4333C29.1798 18.0333 29.0233 17.9986 27.3366 17.9986C25.7889 17.9986 25.4585 18.0507 25.076 18.3464Z" fill="black"/>
</svg>
