<svg width="25" height="23" viewBox="0 0 25 23" fill="none" xmlns="http://www.w3.org/2000/svg">
<path d="M19.0633 22.127L4.50293 5.37246C4.27463 5.10611 4.3 4.70659 4.56635 4.47829L8.39035 1.15528C8.6567 0.926979 9.05622 0.952345 9.28452 1.21869L23.8449 17.9733C24.0732 18.2396 24.0478 18.6392 23.7815 18.8674L19.9511 22.1968C19.6911 22.4188 19.2916 22.3934 19.0633 22.127Z" fill="#494C56" stroke="#1C1F2C" stroke-miterlimit="10"/>
<path d="M9.66583 5.23288C9.66583 5.82533 9.18556 6.3056 8.59311 6.3056C8.00066 6.3056 7.52039 5.82533 7.52039 5.23288C7.52039 4.64043 8.00066 4.16016 8.59311 4.16016C9.18556 4.16016 9.66583 4.64043 9.66583 5.23288Z" fill="#97FFD0" stroke="#3FDFAE"/>
<path d="M8.59322 3.67917C9.44934 3.67917 10.1469 4.37675 10.1469 5.23287C10.1469 6.08899 9.44934 6.78657 8.59322 6.78657C7.7371 6.78657 7.03952 6.08899 7.03952 5.23287C7.03952 4.37675 7.7371 3.67917 8.59322 3.67917ZM8.59322 3.64746C7.71807 3.64746 7.00781 4.35772 7.00781 5.23287C7.00781 6.10801 7.71807 6.81828 8.59322 6.81828C9.46836 6.81828 10.1786 6.10801 10.1786 5.23287C10.1786 4.35772 9.46836 3.64746 8.59322 3.64746Z" fill="#8B9BC7"/>
<g style="mix-blend-mode:screen">
<path d="M15.3532 16.5593L8.74526 8.96205C8.70087 8.91131 8.70721 8.82887 8.75795 8.78448L12.1127 5.86733C12.1634 5.82294 12.2458 5.82928 12.2902 5.88002L18.8982 13.4836C18.9426 13.5344 18.9363 13.6168 18.8855 13.6612L15.5308 16.5783C15.4737 16.6227 15.3976 16.6164 15.3532 16.5593Z" fill="#3FDFAE"/>
</g>
<path d="M0.25 20.9953V15.217H19.6273C21.2205 15.217 22.5164 16.513 22.5164 18.1061C22.5164 19.6993 21.2205 20.9953 19.6273 20.9953H0.25Z" fill="#3FDFAE" stroke="#1C1F2C" stroke-width="0.5"/>
<path d="M19.3104 19.7239C20.1685 19.7239 20.8641 19.0282 20.8641 18.1702C20.8641 17.3121 20.1685 16.6165 19.3104 16.6165C18.4523 16.6165 17.7567 17.3121 17.7567 18.1702C17.7567 19.0282 18.4523 19.7239 19.3104 19.7239Z" fill="#1C1F2C"/>
<mask id="path-7-inside-1_11335_23913" fill="white">
<path d="M19.3104 16.6476C20.1475 16.6476 20.8324 17.3325 20.8324 18.1696C20.8324 19.0067 20.1475 19.6916 19.3104 19.6916C18.4733 19.6916 17.7884 19.0067 17.7884 18.1696C17.7884 17.3325 18.4733 16.6476 19.3104 16.6476ZM19.3104 16.5842C18.4352 16.5842 17.725 17.2945 17.725 18.1696C17.725 19.0448 18.4352 19.755 19.3104 19.755C20.1855 19.755 20.8958 19.0448 20.8958 18.1696C20.8958 17.2945 20.1855 16.5842 19.3104 16.5842Z"/>
</mask>
<path d="M19.3104 16.6476C20.1475 16.6476 20.8324 17.3325 20.8324 18.1696C20.8324 19.0067 20.1475 19.6916 19.3104 19.6916C18.4733 19.6916 17.7884 19.0067 17.7884 18.1696C17.7884 17.3325 18.4733 16.6476 19.3104 16.6476ZM19.3104 16.5842C18.4352 16.5842 17.725 17.2945 17.725 18.1696C17.725 19.0448 18.4352 19.755 19.3104 19.755C20.1855 19.755 20.8958 19.0448 20.8958 18.1696C20.8958 17.2945 20.1855 16.5842 19.3104 16.5842Z" fill="black"/>
<path d="M19.3104 17.6476C19.5952 17.6476 19.8324 17.8848 19.8324 18.1696H21.8324C21.8324 16.7803 20.6998 15.6476 19.3104 15.6476V17.6476ZM19.8324 18.1696C19.8324 18.4544 19.5952 18.6916 19.3104 18.6916V20.6916C20.6998 20.6916 21.8324 19.559 21.8324 18.1696H19.8324ZM19.3104 18.6916C19.0256 18.6916 18.7884 18.4544 18.7884 18.1696H16.7884C16.7884 19.559 17.921 20.6916 19.3104 20.6916V18.6916ZM18.7884 18.1696C18.7884 17.8848 19.0256 17.6476 19.3104 17.6476V15.6476C17.921 15.6476 16.7884 16.7803 16.7884 18.1696H18.7884ZM19.3104 15.5842C17.883 15.5842 16.725 16.7422 16.725 18.1696H18.725C18.725 17.8468 18.9875 17.5842 19.3104 17.5842V15.5842ZM16.725 18.1696C16.725 19.5971 17.883 20.755 19.3104 20.755V18.755C18.9875 18.755 18.725 18.4925 18.725 18.1696H16.725ZM19.3104 20.755C20.7378 20.755 21.8958 19.5971 21.8958 18.1696H19.8958C19.8958 18.4925 19.6332 18.755 19.3104 18.755V20.755ZM21.8958 18.1696C21.8958 16.7422 20.7378 15.5842 19.3104 15.5842V17.5842C19.6332 17.5842 19.8958 17.8468 19.8958 18.1696H21.8958Z" fill="#C3CEEB" mask="url(#path-7-inside-1_11335_23913)"/>
<path d="M16.1882 11.6687L13.8585 8.98815C13.754 8.86786 13.5717 8.8551 13.4514 8.95964C13.3312 9.06418 13.3184 9.24644 13.4229 9.36672L15.7526 12.0472C15.8571 12.1675 16.0394 12.1803 16.1597 12.0758C16.28 11.9712 16.2927 11.789 16.1882 11.6687Z" fill="#1C1F2C"/>
<path d="M15.0308 13.4945L11.8816 9.87096C11.777 9.75068 11.5948 9.73791 11.4745 9.84245C11.3542 9.94699 11.3415 10.1292 11.446 10.2495L14.5952 13.873C14.6997 13.9933 14.882 14.0061 15.0023 13.9015C15.1226 13.797 15.1353 13.6147 15.0308 13.4945Z" fill="#1C1F2C"/>
<path d="M16.393 13.4703L11.8917 8.29113C11.7872 8.17084 11.6049 8.15808 11.4846 8.26262C11.3644 8.36716 11.3516 8.54941 11.4561 8.6697L15.9574 13.8489C16.0619 13.9692 16.2442 13.9819 16.3644 13.8774C16.4847 13.7728 16.4975 13.5906 16.393 13.4703Z" fill="#1C1F2C"/>
</svg>
