<svg width="53" height="50" viewBox="0 0 53 50" fill="none" xmlns="http://www.w3.org/2000/svg">
<path d="M49.2157 1.6665L29.5889 16.3635L33.1574 7.72711L49.2157 1.6665Z" fill="#E17726" stroke="#E17726" stroke-width="0.25" stroke-linecap="round" stroke-linejoin="round"/>
<path d="M4.16321 1.6665L23.4927 16.515L20.0728 7.72711L4.16321 1.6665Z" fill="#E27625" stroke="#E27625" stroke-width="0.25" stroke-linecap="round" stroke-linejoin="round"/>
<path d="M42.2274 35.9092L37.0233 43.9395L48.1749 47.1213L51.2974 36.0607L42.2274 35.9092Z" fill="#E27625" stroke="#E27625" stroke-width="0.25" stroke-linecap="round" stroke-linejoin="round"/>
<path d="M2.08167 36.0607L5.20411 47.1213L16.3557 43.9395L11.1516 35.9092L2.08167 36.0607Z" fill="#E27625" stroke="#E27625" stroke-width="0.25" stroke-linecap="round" stroke-linejoin="round"/>
<path d="M15.7609 22.1211L12.6384 26.818L23.6413 27.2726L23.344 15.1514L15.7609 22.1211Z" fill="#E27625" stroke="#E27625" stroke-width="0.25" stroke-linecap="round" stroke-linejoin="round"/>
<path d="M37.618 22.1211L29.8862 15.1514L29.5889 27.4241L40.5918 26.9695L37.618 22.1211Z" fill="#E27625" stroke="#E27625" stroke-width="0.25" stroke-linecap="round" stroke-linejoin="round"/>
<path d="M16.3557 43.9393L23.0467 40.606L17.2478 36.0605L16.3557 43.9393Z" fill="#E27625" stroke="#E27625" stroke-width="0.25" stroke-linecap="round" stroke-linejoin="round"/>
<path d="M30.3324 40.606L37.0234 43.9393L36.1312 36.0605L30.3324 40.606Z" fill="#E27625" stroke="#E27625" stroke-width="0.25" stroke-linecap="round" stroke-linejoin="round"/>
<path d="M37.0234 43.9393L30.3324 40.606L30.9271 44.9999V46.8181L37.0234 43.9393Z" fill="#D5BFB2" stroke="#D5BFB2" stroke-width="0.25" stroke-linecap="round" stroke-linejoin="round"/>
<path d="M16.3557 43.9396L22.6006 46.9699V45.1518L23.1954 40.7578L16.3557 43.9396Z" fill="#D5BFB2" stroke="#D5BFB2" stroke-width="0.25" stroke-linecap="round" stroke-linejoin="round"/>
<path d="M22.6006 33.1816L17.0991 31.515L20.965 29.6968L22.6006 33.1816Z" fill="#233447" stroke="#233447" stroke-width="0.25" stroke-linecap="round" stroke-linejoin="round"/>
<path d="M30.6298 33.1816L32.2653 29.6968L36.1312 31.515L30.6298 33.1816Z" fill="#233447" stroke="#233447" stroke-width="0.25" stroke-linecap="round" stroke-linejoin="round"/>
<path d="M16.3557 43.9395L17.2478 35.9092L11.1516 36.0607L16.3557 43.9395Z" fill="#CC6228" stroke="#CC6228" stroke-width="0.25" stroke-linecap="round" stroke-linejoin="round"/>
<path d="M35.9825 35.9092L36.8747 43.9395L42.0788 36.0607L35.9825 35.9092Z" fill="#CC6228" stroke="#CC6228" stroke-width="0.25" stroke-linecap="round" stroke-linejoin="round"/>
<path d="M40.7406 26.9697L29.7377 27.4243L30.7785 33.1818L32.4141 29.697L36.2799 31.5152L40.7406 26.9697Z" fill="#CC6228" stroke="#CC6228" stroke-width="0.25" stroke-linecap="round" stroke-linejoin="round"/>
<path d="M17.0991 31.5152L20.965 29.697L22.6005 33.1818L23.6413 27.4243L12.6384 26.9697L17.0991 31.5152Z" fill="#CC6228" stroke="#CC6228" stroke-width="0.25" stroke-linecap="round" stroke-linejoin="round"/>
<path d="M12.6384 26.9697L17.2478 36.2122L17.0991 31.6667L12.6384 26.9697Z" fill="#E27525" stroke="#E27525" stroke-width="0.25" stroke-linecap="round" stroke-linejoin="round"/>
<path d="M36.2799 31.5153L36.1312 36.0608L40.7406 26.8184L36.2799 31.5153Z" fill="#E27525" stroke="#E27525" stroke-width="0.25" stroke-linecap="round" stroke-linejoin="round"/>
<path d="M23.6414 27.4243L22.6006 33.1819L23.9388 40.0001L24.2362 31.0607L23.6414 27.4243Z" fill="#E27525" stroke="#E27525" stroke-width="0.25" stroke-linecap="round" stroke-linejoin="round"/>
<path d="M29.5889 27.4243L28.9941 31.0607L29.2915 40.0001L30.6297 33.1819L29.5889 27.4243Z" fill="#E27525" stroke="#E27525" stroke-width="0.25" stroke-linecap="round" stroke-linejoin="round"/>
<path d="M30.6297 33.1818L29.2915 40L30.1836 40.606L35.9825 36.0606L36.1312 31.5151L30.6297 33.1818Z" fill="#F5841F" stroke="#F5841F" stroke-width="0.25" stroke-linecap="round" stroke-linejoin="round"/>
<path d="M17.0991 31.5151L17.2478 36.0606L23.0466 40.606L23.9388 40L22.6006 33.1818L17.0991 31.5151Z" fill="#F5841F" stroke="#F5841F" stroke-width="0.25" stroke-linecap="round" stroke-linejoin="round"/>
<path d="M30.7785 46.9698V45.1516L30.3324 44.697H22.898L22.4519 45.1516V46.9698L16.3557 43.9395L18.586 45.7576L22.898 48.7879H30.4811L34.9417 45.7576L37.0233 43.9395L30.7785 46.9698Z" fill="#C0AC9D" stroke="#C0AC9D" stroke-width="0.25" stroke-linecap="round" stroke-linejoin="round"/>
<path d="M30.3324 40.6061L29.4402 40H23.9388L23.0467 40.6061L22.4519 45L22.898 44.5455H30.3324L30.7784 45L30.3324 40.6061Z" fill="#161616" stroke="#161616" stroke-width="0.25" stroke-linecap="round" stroke-linejoin="round"/>
<path d="M49.9592 17.4241L51.5948 9.24226L49.0671 1.6665L30.3324 15.9089L37.6181 22.121L47.8776 25.1514L50.1079 22.4241L49.0671 21.818L50.7027 20.3029L49.5132 19.3938L51.1487 18.1817L49.9592 17.4241Z" fill="#763E1A" stroke="#763E1A" stroke-width="0.25" stroke-linecap="round" stroke-linejoin="round"/>
<path d="M1.63562 9.24226L3.27119 17.4241L2.23037 18.1817L3.86594 19.3938L2.67644 20.3029L4.31201 21.818L3.27119 22.5756L5.50151 25.3029L15.761 22.2726L23.0467 16.0604L4.16332 1.6665L1.63562 9.24226Z" fill="#763E1A" stroke="#763E1A" stroke-width="0.25" stroke-linecap="round" stroke-linejoin="round"/>
<path d="M47.8776 25.1514L37.6181 22.1211L40.7406 26.8181L36.1312 36.0605L42.2274 35.909H51.2974L47.8776 25.1514Z" fill="#F5841F" stroke="#F5841F" stroke-width="0.25" stroke-linecap="round" stroke-linejoin="round"/>
<path d="M15.761 22.1211L5.50149 25.1514L2.08167 35.909H11.1516L17.2478 36.0605L12.6385 26.8181L15.761 22.1211Z" fill="#F5841F" stroke="#F5841F" stroke-width="0.25" stroke-linecap="round" stroke-linejoin="round"/>
<path d="M29.5889 27.424L30.1837 15.9089L33.1574 7.72705H19.9242L22.898 15.9089L23.4927 27.424L23.7901 31.0604V39.9998H29.2915V31.0604L29.5889 27.424Z" fill="#F5841F" stroke="#F5841F" stroke-width="0.25" stroke-linecap="round" stroke-linejoin="round"/>
</svg>
