<svg width="24" height="24" viewBox="0 0 24 24" fill="none" xmlns="http://www.w3.org/2000/svg">
    <path
        d="M14.5001 20.9582H9.50008C4.97508 20.9582 3.04175 19.0248 3.04175 14.4998V9.49984C3.04175 4.97484 4.97508 3.0415 9.50008 3.0415H14.5001C19.0251 3.0415 20.9584 4.97484 20.9584 9.49984V14.4998C20.9584 19.0248 19.0251 20.9582 14.5001 20.9582ZM9.50008 4.2915C5.65841 4.2915 4.29175 5.65817 4.29175 9.49984V14.4998C4.29175 18.3415 5.65841 19.7082 9.50008 19.7082H14.5001C18.3417 19.7082 19.7084 18.3415 19.7084 14.4998V9.49984C19.7084 5.65817 18.3417 4.2915 14.5001 4.2915H9.50008Z"
        fill="#1C1F2C" />
    <path
        d="M10.8167 14.9832C10.65 14.9832 10.4917 14.9165 10.375 14.7998L8.0167 12.4415C7.77503 12.1998 7.77503 11.7998 8.0167 11.5582C8.25837 11.3165 8.65837 11.3165 8.90003 11.5582L10.8167 13.4748L15.1 9.1915C15.3417 8.94984 15.7417 8.94984 15.9834 9.1915C16.225 9.43317 16.225 9.83317 15.9834 10.0748L11.2584 14.7998C11.1417 14.9165 10.9834 14.9832 10.8167 14.9832Z"
        fill="#1C1F2C" />
</svg>