<svg width="24" height="24" viewBox="0 0 24 24" fill="none" xmlns="http://www.w3.org/2000/svg">
    <path
        d="M14.3571 10H3.64286C3.29143 10 3 9.77333 3 9.5C3 9.22667 3.29143 9 3.64286 9H14.3571C14.7086 9 15 9.22667 15 9.5C15 9.77333 14.7086 10 14.3571 10Z"
        fill="#1C1F2C" />
    <path
        d="M9.14286 16H6.85714C6.38857 16 6 15.7733 6 15.5C6 15.2267 6.38857 15 6.85714 15H9.14286C9.61143 15 10 15.2267 10 15.5C10 15.7733 9.61143 16 9.14286 16Z"
        fill="#1C1F2C" />
    <path
        d="M17.4202 20H7.58863C4.0698 20 3 18.9622 3 15.5546V8.44541C3 5.03784 4.0698 4 7.58863 4H14.7147C15.0772 4 15.3778 4.29405 15.3778 4.64865C15.3778 5.00324 15.0772 5.2973 14.7147 5.2973H7.58863C4.81247 5.2973 4.32619 5.76432 4.32619 8.44541V15.5459C4.32619 18.227 4.81247 18.6941 7.58863 18.6941H17.4113C20.1875 18.6941 20.6738 18.227 20.6738 15.5459V13.747C20.6738 13.3924 20.9744 13.0984 21.3368 13.0984C21.6993 13.0984 21.9999 13.3924 21.9999 13.747V15.5459C22.0088 18.9622 20.939 20 17.4202 20Z"
        fill="#1C1F2C" />
    <path
        d="M18.25 15.25H12.75C12.34 15.25 12 14.91 12 14.5C12 14.09 12.34 13.75 12.75 13.75H18.25C18.66 13.75 19 14.09 19 14.5C19 14.91 18.66 15.25 18.25 15.25Z"
        fill="#1C1F2C" />
    <path
        d="M15.5 18C15.09 18 14.75 17.66 14.75 17.25V11.75C14.75 11.34 15.09 11 15.5 11C15.91 11 16.25 11.34 16.25 11.75V17.25C16.25 17.66 15.91 18 15.5 18Z"
        fill="#1C1F2C" />
    <path
        d="M19.6433 11C19.5575 11 19.4803 10.9813 19.3946 10.944C19.1544 10.832 19 10.58 19 10.3V4.7C19 4.31733 19.2916 4 19.6433 4C19.995 4 20.2866 4.31733 20.2866 4.7V8.61067L20.9042 7.93867C21.153 7.668 21.5647 7.668 21.8134 7.93867C22.0622 8.20933 22.0622 8.65733 21.8134 8.928L20.0979 10.7947C19.9778 10.9253 19.8149 11 19.6433 11Z"
        fill="#1C1F2C" />
    <path
        d="M19.3584 11C19.1953 11 19.0322 10.94 18.9034 10.8113L17.1867 9.09578C16.9378 8.84703 16.9378 8.43531 17.1867 8.18656C17.4356 7.93781 17.8476 7.93781 18.0966 8.18656L19.8133 9.90207C20.0622 10.1508 20.0622 10.5625 19.8133 10.8113C19.6845 10.94 19.5215 11 19.3584 11Z"
        fill="#1C1F2C" />
</svg>