<svg width="22" height="12" viewBox="0 0 22 12" fill="none" xmlns="http://www.w3.org/2000/svg">
<path d="M18.6091 9.8458C18.6091 10.8575 19.3681 11.6776 20.3045 11.6776C21.2409 11.6776 22 10.8575 22 9.8458C22 8.83414 21.2409 8.01402 20.3045 8.01402C19.3681 8.01402 18.6091 8.83414 18.6091 9.8458Z" fill="#1C1F2C"/>
<path d="M3.31845 6.66187C2.92206 6.48331 2.73189 5.98942 2.92889 5.57713C3.79844 3.75729 5.15361 2.2525 6.82705 1.26369C8.72867 0.140072 10.9278 -0.250228 13.0622 0.157091C15.1966 0.564411 17.1389 1.74505 18.5691 3.50452C19.8278 5.05287 20.6238 6.96819 20.8637 8.99974C20.918 9.46 20.5827 9.85362 20.1537 9.87466C19.7247 9.89569 19.365 9.53589 19.3039 9.07662C19.0844 7.42688 18.4259 5.8746 17.4006 4.61329C16.2036 3.14075 14.578 2.15264 12.7917 1.81174C11.0054 1.47084 9.16483 1.7975 7.57332 2.73789C6.21011 3.54338 5.09925 4.758 4.3699 6.22667C4.16686 6.63553 3.71484 6.84043 3.31845 6.66187Z" fill="#1C1F2C"/>
<path d="M1.36947 11.9644L4.51242 10.1686C5.18269 9.78567 5.14529 8.73511 4.44979 8.40889L1.26572 6.9154C0.570213 6.58918 -0.165733 7.277 0.0329609 8.06755L0.964661 11.7745C1.01211 11.9633 1.20939 12.0559 1.36947 11.9644Z" fill="#1C1F2C"/>
</svg>
