<svg width="20" height="20" viewBox="0 0 20 20" fill="none" xmlns="http://www.w3.org/2000/svg">
    <path
        d="M12.5001 18.9584H7.50008C2.97508 18.9584 1.04175 17.025 1.04175 12.5V7.50002C1.04175 2.97502 2.97508 1.04169 7.50008 1.04169H12.5001C17.0251 1.04169 18.9584 2.97502 18.9584 7.50002V12.5C18.9584 17.025 17.0251 18.9584 12.5001 18.9584ZM7.50008 2.29169C3.65841 2.29169 2.29175 3.65835 2.29175 7.50002V12.5C2.29175 16.3417 3.65841 17.7084 7.50008 17.7084H12.5001C16.3417 17.7084 17.7084 16.3417 17.7084 12.5V7.50002C17.7084 3.65835 16.3417 2.29169 12.5001 2.29169H7.50008Z"
        fill="#1C1F2C" />
    <path
        d="M12.9167 8.75C11.8834 8.75 11.0417 7.90833 11.0417 6.875C11.0417 5.84167 11.8834 5 12.9167 5C13.9501 5 14.7917 5.84167 14.7917 6.875C14.7917 7.90833 13.9501 8.75 12.9167 8.75ZM12.9167 6.25C12.5751 6.25 12.2917 6.53333 12.2917 6.875C12.2917 7.21667 12.5751 7.5 12.9167 7.5C13.2584 7.5 13.5417 7.21667 13.5417 6.875C13.5417 6.53333 13.2584 6.25 12.9167 6.25Z"
        fill="#1C1F2C" />
    <path
        d="M7.08325 8.75C6.04992 8.75 5.20825 7.90833 5.20825 6.875C5.20825 5.84167 6.04992 5 7.08325 5C8.11659 5 8.95825 5.84167 8.95825 6.875C8.95825 7.90833 8.11659 8.75 7.08325 8.75ZM7.08325 6.25C6.74159 6.25 6.45825 6.53333 6.45825 6.875C6.45825 7.21667 6.74159 7.5 7.08325 7.5C7.42492 7.5 7.70825 7.21667 7.70825 6.875C7.70825 6.53333 7.42492 6.25 7.08325 6.25Z"
        fill="#1C1F2C" />
    <path
        d="M10 16.2083C7.58333 16.2083 5.625 14.2416 5.625 11.8333C5.625 11.075 6.24167 10.4583 7 10.4583H13C13.7583 10.4583 14.375 11.075 14.375 11.8333C14.375 14.2416 12.4167 16.2083 10 16.2083ZM7 11.7083C6.93333 11.7083 6.875 11.7666 6.875 11.8333C6.875 13.5583 8.275 14.9583 10 14.9583C11.725 14.9583 13.125 13.5583 13.125 11.8333C13.125 11.7666 13.0667 11.7083 13 11.7083H7Z"
        fill="#1C1F2C" />
</svg>