<svg width="24" height="24" viewBox="0 0 24 24" fill="none" xmlns="http://www.w3.org/2000/svg">
<path d="M21 13H18.0704C17.5464 13 17.2844 13 17.0633 13.1183C16.8422 13.2367 16.6969 13.4546 16.4063 13.8906L15.5937 15.1094C15.3031 15.5454 15.1578 15.7633 14.9367 15.8817C14.7156 16 14.4536 16 13.9296 16H10.0704C9.5464 16 9.28442 16 9.06333 15.8817C8.84223 15.7633 8.69691 15.5454 8.40627 15.1094L7.59373 13.8906C7.30309 13.4546 7.15777 13.2367 6.93667 13.1183C6.71558 13 6.4536 13 5.92963 13H3" stroke="#1C1F2C" stroke-width="1.2"/>
<path d="M5 10L3.29289 11.7071C3.10536 11.8946 3 12.149 3 12.4142V18C3 19.1046 3.89543 20 5 20H19C20.1046 20 21 19.1046 21 18V12.4142C21 12.149 20.8946 11.8946 20.7071 11.7071L19 10" stroke="#1C1F2C" stroke-width="1.2" stroke-linecap="round"/>
<path d="M8.5 8L12 11M12 11L15.5 8M12 11L12 4" stroke="#1C1F2C" stroke-width="1.2"/>
</svg>
