<svg width="22" height="16" viewBox="0 0 22 16" fill="none" xmlns="http://www.w3.org/2000/svg">
<path fill-rule="evenodd" clip-rule="evenodd" d="M7.27407 13.7494V11.8193H11.966V13.3997H8.93004V15.05C8.93004 15.8412 7.97452 16.2845 7.3226 15.7956L0 10.3047L7.3226 4.81386C7.97452 4.32501 8.93004 4.76825 8.93004 5.55948V7.20981H13.8979V8.7902H7.27407V6.86012L2.68034 10.3047L7.27407 13.7494Z" fill="#1C1F2C"/>
<path fill-rule="evenodd" clip-rule="evenodd" d="M14.7259 2.25064V4.18072H10.034V2.60033H13.07V0.95C13.07 0.158762 14.0255 -0.284457 14.6774 0.204384L22 5.69526L14.6774 11.1861C14.0255 11.675 13.07 11.2318 13.07 10.4405V8.79019H8.10205V7.2098H14.7259V9.13988L19.3197 5.69526L14.7259 2.25064Z" fill="#1C1F2C"/>
</svg>
