<svg width="24" height="24" viewBox="0 0 24 24" fill="#000" xmlns="http://www.w3.org/2000/svg">
<path fill-rule="evenodd" clip-rule="evenodd" d="M21.6341 6.32011C20.6719 4.69159 19.3085 3.32822 17.68 2.36603C16.7255 2.40003 15.8602 2.78438 15.2089 3.39438C17.6987 4.32313 19.677 6.30144 20.6057 8.79119C21.2157 8.13986 21.6001 7.2746 21.6341 6.32011ZM10.717 2.90707C6.25345 3.53126 2.81836 7.36444 2.81836 11.9999C2.81836 17.0709 6.9292 21.1818 12.0002 21.1818C16.6357 21.1818 20.4688 17.7467 21.093 13.2832C21.8655 12.9264 22.5698 12.4472 23.1813 11.8707C23.1818 11.9137 23.182 11.9568 23.182 11.9999C23.182 18.1755 18.1757 23.1818 12.0002 23.1818C5.82463 23.1818 0.818359 18.1755 0.818359 11.9999C0.818359 5.82439 5.82463 0.818115 12.0002 0.818115C12.0433 0.818115 12.0864 0.81836 12.1295 0.818847C11.5529 1.43027 11.0737 2.13463 10.717 2.90707Z" fill="white"/>
<circle cx="17.8182" cy="6.18171" r="5.81818" fill="white"/>
</svg>
