<svg xmlns="http://www.w3.org/2000/svg" version="1.1" xmlns:xlink="http://www.w3.org/1999/xlink" xmlns:svgjs="http://svgjs.dev/svgjs" width="329" height="329"><svg width="329" height="329" viewBox="0 0 329 329" fill="none" xmlns="http://www.w3.org/2000/svg">
<rect width="329" height="329" fill="#4E3588"></rect>
<g clip-path="url(#clip0_10456_235082)">
<path d="M164 260C217.019 260 260 217.019 260 164C260 110.981 217.019 68 164 68C110.981 68 68 110.981 68 164C68 217.019 110.981 260 164 260Z" fill="#4E3588"></path>
<path fill-rule="evenodd" clip-rule="evenodd" d="M165 261C218.019 261 261 218.019 261 165C261 152.589 258.645 140.728 254.357 129.84C241.09 122.915 226.002 119 210 119C156.981 119 114 161.981 114 215C114 227.411 116.355 239.272 120.643 250.16C133.91 257.085 148.998 261 165 261Z" fill="white"></path>
<path fill-rule="evenodd" clip-rule="evenodd" d="M134.995 213.005C176.968 213.005 210.994 178.979 210.994 137.005C210.994 130.804 210.252 124.776 208.85 119.006C157.998 119.603 116.653 159.738 114.123 210.103C120.755 211.993 127.756 213.005 134.995 213.005Z" fill="#4E3588"></path>
<mask id="SvgjsMask1007" style="mask-type:luminance" maskUnits="userSpaceOnUse" x="114" y="119" width="97" height="95">
<path fill-rule="evenodd" clip-rule="evenodd" d="M134.995 213.005C176.968 213.005 210.994 178.979 210.994 137.005C210.994 130.804 210.252 124.776 208.85 119.006C157.998 119.603 116.653 159.738 114.123 210.103C120.755 211.993 127.756 213.005 134.995 213.005Z" fill="white"></path>
</mask>
<g mask="url(#mask0_10456_235082)">
<path d="M208.85 119.005L213.709 117.825L212.77 113.959L208.792 114.006L208.85 119.005ZM114.123 210.102L109.129 209.852L108.93 213.822L112.752 214.911L114.123 210.102ZM205.994 137.005C205.994 176.216 174.207 208.004 134.994 208.004V218.004C179.73 218.004 215.994 181.739 215.994 137.005H205.994ZM203.992 120.185C205.3 125.572 205.994 131.204 205.994 137.005H215.994C215.994 130.403 215.204 123.979 213.709 117.825L203.992 120.185ZM119.117 210.353C121.514 162.616 160.708 124.571 208.909 124.005L208.792 114.006C155.288 114.634 111.791 156.859 109.129 209.852L119.117 210.353ZM134.994 208.004C128.224 208.004 121.684 207.058 115.493 205.294L112.752 214.911C119.825 216.927 127.288 218.004 134.994 218.004V208.004Z" fill="white"></path>
</g>
<path d="M164 257.5C215.639 257.5 257.5 215.639 257.5 164C257.5 112.361 215.639 70.5 164 70.5C112.361 70.5 70.5 112.361 70.5 164C70.5 215.639 112.361 257.5 164 257.5Z" stroke="white" stroke-width="5"></path>
</g>
<defs>
<clipPath id="SvgjsClipPath1006">
<rect width="193" height="193" fill="white" transform="translate(68 68)"></rect>
</clipPath>
</defs>
</svg><style>@media (prefers-color-scheme: light) { :root { filter: none; } }
@media (prefers-color-scheme: dark) { :root { filter: none; } }
</style></svg>