<svg width="1140" height="180" viewBox="0 0 1140 180" fill="none" xmlns="http://www.w3.org/2000/svg">
<g clip-path="url(#clip0_22714_4194)">
<rect width="1140" height="180" fill="#141414"/>
<g opacity="0.5">
<g opacity="0.5">
<path d="M293.385 367.256L293.366 367.25L293.346 367.243C226.107 343.29 177.442 278.554 177.442 202.168C177.442 105.078 254.918 26.7376 350.984 26.7376C447.049 26.7376 524.525 105.078 524.525 202.168C524.525 278.553 475.859 343.299 407.965 365.962L407.957 365.965L407.95 365.967C397.947 369.127 390.821 375.307 390.821 384.967C390.821 394.675 397.975 401.346 407.648 401.346L517.795 401.346C531.255 401.346 542.899 390.202 542.899 375.956L542.899 27.7376C542.899 14.1032 531.86 2.34771 517.795 2.3477L183.536 2.34766C170.091 2.34766 158.432 14.1191 158.432 27.7376L158.432 376.599C158.432 390.234 169.47 401.989 183.536 401.989L293.682 401.989C298.768 401.989 302.118 399.896 304.237 396.793C306.392 393.638 307.326 389.355 307.326 384.967C307.326 376.473 301.325 369.726 293.385 367.256Z" stroke="#B8D700" stroke-width="2"/>
<path d="M227.182 -99.9327L227.202 -99.9266L227.221 -99.9198C288.227 -78.1024 332.378 -19.1417 332.378 50.4268C332.378 138.85 262.089 210.206 174.926 210.206C87.763 210.206 17.4743 138.85 17.4744 50.4268C17.4744 -19.1401 61.6255 -78.1116 123.228 -98.7546L123.235 -98.7571L123.243 -98.7596C132.294 -101.63 138.71 -107.231 138.71 -115.969C138.71 -124.757 132.265 -130.789 123.545 -130.789L23.6702 -130.789C11.5197 -130.789 1.00037 -120.688 1.00037 -107.767L1.00034 209.206C1.00034 221.574 10.9738 232.228 23.6702 232.228L326.759 232.228C338.894 232.228 349.429 221.558 349.429 209.206L349.429 -108.353C349.429 -120.72 339.456 -131.375 326.759 -131.375L226.884 -131.375C222.305 -131.375 219.296 -129.485 217.391 -126.685C215.451 -123.833 214.606 -119.954 214.606 -115.969C214.606 -108.282 220.016 -102.171 227.182 -99.9327Z" stroke="#B8D700" stroke-width="2"/>
</g>
<g opacity="0.5">
<path d="M837.321 336.631L837.302 336.625L837.282 336.618C770.043 312.665 721.378 247.929 721.378 171.543C721.378 74.453 798.855 -3.88743 894.92 -3.88741C990.985 -3.8874 1068.46 74.453 1068.46 171.543C1068.46 247.928 1019.8 312.674 951.901 335.337L951.893 335.34L951.886 335.342C941.883 338.502 934.757 344.682 934.757 354.342C934.757 364.05 941.911 370.721 951.585 370.721L1061.73 370.721C1075.19 370.721 1086.84 359.577 1086.84 345.331L1086.84 -2.88739C1086.84 -16.5218 1075.8 -28.2773 1061.73 -28.2773L727.472 -28.2773C714.027 -28.2773 702.368 -16.5059 702.368 -2.88744L702.368 345.974C702.368 359.609 713.406 371.364 727.472 371.364L837.618 371.364C842.704 371.364 846.054 369.271 848.173 366.168C850.328 363.013 851.262 358.73 851.262 354.342C851.262 345.848 845.261 339.101 837.321 336.631Z" stroke="#B8D700" stroke-width="2"/>
<path d="M1122.43 198.137L1122.45 198.143L1122.47 198.15C1181.18 219.095 1223.67 275.699 1223.67 342.489C1223.67 427.381 1156.03 495.885 1072.15 495.885C988.267 495.885 920.623 427.381 920.623 342.489C920.623 275.701 963.113 219.085 1022.4 199.268L1022.4 199.265L1022.41 199.263C1031.11 196.509 1037.26 191.143 1037.26 182.783C1037.26 174.375 1031.08 168.6 1022.71 168.6L926.622 168.6C914.95 168.6 904.849 178.279 904.849 190.656L904.849 494.885C904.849 506.732 914.426 516.941 926.622 516.941L1218.23 516.941C1229.88 516.941 1240 506.716 1240 494.885L1240 190.094C1240 178.247 1230.42 168.038 1218.23 168.038L1122.14 168.038C1117.74 168.038 1114.86 169.846 1113.03 172.522C1111.17 175.25 1110.36 178.965 1110.36 182.783C1110.36 190.14 1115.55 195.992 1122.43 198.137Z" stroke="#B8D700" stroke-width="2"/>
<path d="M771.118 -130.558L771.138 -130.552L771.157 -130.545C832.163 -108.728 876.314 -49.7672 876.314 19.8014C876.314 108.225 806.025 179.581 718.862 179.581C631.699 179.581 561.41 108.225 561.41 19.8013C561.41 -49.7656 605.561 -108.737 667.164 -129.38L667.171 -129.383L667.179 -129.385C676.23 -132.256 682.646 -137.856 682.646 -146.595C682.646 -155.383 676.201 -161.414 667.481 -161.414L567.606 -161.414C555.456 -161.414 544.936 -151.314 544.936 -138.392L544.936 178.581C544.936 190.948 554.91 201.603 567.606 201.603L870.695 201.603C882.83 201.603 893.365 190.932 893.365 178.581L893.365 -138.978C893.365 -151.346 883.392 -162 870.695 -162L770.82 -162C766.241 -162 763.232 -160.11 761.328 -157.311C759.387 -154.459 758.542 -150.579 758.542 -146.595C758.542 -138.907 763.952 -132.796 771.118 -130.558Z" stroke="#B8D700" stroke-width="2"/>
</g>
</g>
<path d="M423.292 103.577C419.64 100.089 417.861 95.659 417.861 90.3805C417.861 85.1963 419.64 80.7661 423.292 77.2785C426.944 73.7909 431.533 72 436.87 72C441.739 72 445.953 73.5081 449.417 76.4302C452.976 79.3522 455.036 83.1226 455.785 87.5527H449.23C448.575 84.725 447.17 82.3685 444.923 80.5776C442.675 78.7866 439.96 77.9383 436.87 77.9383C433.312 77.9383 430.315 79.1637 427.881 81.5202C425.446 83.8766 424.229 86.8929 424.229 90.3805C424.229 93.8681 425.446 96.8844 427.881 99.2408C430.315 101.597 433.312 102.823 436.87 102.823C439.96 102.823 442.582 101.88 444.923 100.089C447.17 98.2983 448.668 96.036 449.23 93.2083H455.785C455.129 97.7327 452.976 101.409 449.417 104.331C445.859 107.253 441.739 108.761 436.87 108.761C431.533 108.855 426.944 107.159 423.292 103.577Z" fill="white"/>
<path d="M461.59 108.29V72.6599H467.864V108.29H461.59Z" fill="white"/>
<path d="M499.046 72.6599V78.4097H489.214V108.29H483.034V78.4097H473.202V72.6599H499.046Z" fill="white"/>
<path d="M525.639 108.29L522.736 100.749H506.256L503.26 108.29H496.518L510.844 72.6599H518.242L532.568 108.29H525.639ZM508.41 94.9993H520.489L514.402 79.3523L508.41 94.9993Z" fill="white"/>
<path d="M551.389 72.6599C556.727 72.6599 561.034 74.3566 564.592 77.7499C568.151 81.1432 569.836 85.3849 569.836 90.4749C569.836 95.5648 568.057 99.8065 564.592 103.2C561.034 106.593 556.633 108.29 551.389 108.29H537.344V72.6599H551.389ZM551.296 102.446C554.76 102.446 557.663 101.315 560.004 98.9582C562.345 96.6959 563.469 93.7739 563.469 90.3806C563.469 86.9873 562.345 84.0652 560.004 81.803C557.663 79.5408 554.76 78.4097 551.296 78.4097H543.524V102.446H551.296Z" fill="white"/>
<path d="M582.103 102.446H596.617V108.196H575.829V72.6599H596.336V78.4097H582.103V87.4586H594.557V93.2084H582.103V102.446Z" fill="white"/>
<path d="M608.883 102.446H621.806V108.196H602.703V72.6599H608.977V102.446H608.883Z" fill="white"/>
<path d="M630.233 108.667C629.016 108.667 627.986 108.29 627.237 107.536C626.487 106.782 626.019 105.839 626.019 104.614C626.019 103.483 626.394 102.446 627.237 101.692C628.079 100.938 629.016 100.466 630.233 100.466C631.45 100.466 632.48 100.843 633.229 101.692C634.072 102.446 634.447 103.483 634.447 104.614C634.447 105.839 634.072 106.782 633.229 107.536C632.48 108.29 631.45 108.667 630.233 108.667Z" fill="white"/>
<path d="M656.171 108.855C650.74 108.855 646.152 107.064 642.5 103.577C638.848 100.089 637.069 95.659 637.069 90.3805C637.069 85.1963 638.848 80.7661 642.5 77.2785C646.152 73.7909 650.74 72 656.171 72C661.602 72 666.19 73.7909 669.748 77.2785C673.4 80.7661 675.179 85.1963 675.179 90.3805C675.179 95.659 673.4 99.9949 669.748 103.577C666.19 107.159 661.602 108.855 656.171 108.855ZM665.254 99.3351C667.688 96.9786 668.906 93.9623 668.906 90.4748C668.906 86.9872 667.688 83.9709 665.254 81.6144C662.819 79.2579 659.823 78.0326 656.171 78.0326C652.613 78.0326 649.616 79.2579 647.182 81.6144C644.747 83.9709 643.53 86.9872 643.53 90.4748C643.53 93.9623 644.747 96.9786 647.182 99.3351C649.616 101.692 652.613 102.917 656.171 102.917C659.823 102.917 662.819 101.692 665.254 99.3351Z" fill="white"/>
<path d="M705.799 72.6599H712.073V108.29H705.705L687.54 83.1227V108.29H681.266V72.6599H687.633L705.799 97.8271V72.6599Z" fill="white"/>
<path d="M726.212 102.446H740.726V108.196H719.938V72.6599H740.352V78.4097H726.119V87.4586H738.572V93.2084H726.119V102.446H726.212Z" fill="white"/>
<path d="M374.548 65.0395C385.344 65.0395 394.494 72.0395 397.88 81.7105C398.246 82.9079 399.252 83.8289 400.533 83.8289C401.814 83.8289 403.095 83.2763 403.095 81.7105V65.7763C403.095 63.6579 401.357 62 399.344 62H349.751C347.738 62 346 63.75 346 65.7763V114.132C346 116.25 347.738 117.908 349.751 117.908H399.252C401.357 117.908 403.004 116.158 403.004 114.132V98.1974C403.004 96.7237 401.997 95.6184 400.533 95.6184C399.069 95.6184 398.154 96.7237 397.697 98.1974C394.494 107.961 385.344 114.961 374.548 114.961C360.823 114.961 349.751 103.816 349.751 90C349.751 76.1842 360.823 65.0395 374.548 65.0395Z" fill="white"/>
</g>
<defs>
<clipPath id="clip0_22714_4194">
<rect width="1140" height="180" fill="white"/>
</clipPath>
</defs>
</svg>
