<svg width="898" height="790" viewBox="0 0 898 790" fill="none" xmlns="http://www.w3.org/2000/svg">
    <g opacity="0.5">
        <path
            d="M163.533 405.587C145.842 405.587 130.241 390.377 110.592 371.185C86.3084 347.489 56.0845 318.048 7.77841 302.055C2.42557 300.293 -0.185586 297.812 0.0102499 294.613C0.793592 283.451 40.0912 268.502 74.8847 262.105C208.64 237.495 321.898 199.241 396.903 173.848C454.544 154.33 489.403 142.58 501.218 146.888C503.568 147.737 504.221 149.238 504.352 150.283C505.396 158.899 477.718 177.961 432.089 208.446C416.095 219.086 399.515 230.118 386.002 239.975C370.009 251.529 344.942 272.68 318.373 295.07C257.077 346.706 187.686 405.195 163.99 405.456C163.729 405.587 163.663 405.587 163.533 405.587ZM494.886 148.063C479.546 148.063 445.601 159.552 397.426 175.806C322.421 201.2 209.032 239.518 75.1458 264.128C38.1329 270.917 2.49085 285.866 1.90334 294.809C1.77278 296.963 3.92697 298.791 8.30063 300.227C57.0636 316.351 87.4834 345.987 111.898 369.814C131.285 388.68 146.56 403.628 163.468 403.628C163.598 403.628 163.663 403.628 163.794 403.628C186.772 403.367 258.97 342.528 316.937 293.699C344.681 270.33 368.638 250.093 384.696 238.539C398.274 228.682 414.855 217.65 430.848 206.944C464.793 184.358 503.242 158.703 502.263 150.674C502.198 150.152 501.936 149.434 500.37 148.846C499.064 148.324 497.171 148.063 494.886 148.063Z"
            fill="url(#paint0_linear_62_17372)" />
        <path
            d="M170.778 393.379C154.263 393.379 139.967 379.279 121.885 361.393C100.082 339.851 72.8606 313.021 29.6463 298.334C24.8156 296.702 22.4656 294.417 22.6614 291.545C23.3795 281.296 59.4133 267.588 91.2692 261.647C213.34 239.061 317.067 203.876 385.74 180.637C436.984 163.273 470.798 151.849 482.026 155.635C483.985 156.223 485.16 157.332 485.421 158.834C486.726 167.45 454.805 189.123 417.792 214.19C403.953 223.59 389.657 233.251 377.776 241.868C363.742 252.051 342.983 269.35 318.895 289.391C263.213 335.673 194.017 393.249 171.039 393.314C170.974 393.379 170.909 393.379 170.778 393.379ZM476.412 156.81C462.182 156.81 430.913 167.385 386.328 182.464C317.655 205.704 213.797 240.889 91.5956 263.54C57.716 269.807 25.0767 283.516 24.5545 291.675C24.4239 293.568 26.317 295.2 30.2337 296.571C73.905 311.389 101.257 338.349 123.19 360.022C141.077 377.647 155.177 391.551 170.974 391.421C193.234 391.356 262.168 333.976 317.59 287.889C341.677 267.849 362.501 250.55 376.601 240.301C388.482 231.684 402.778 221.958 416.682 212.558C448.538 191.016 484.637 166.537 483.462 159.095C483.397 158.834 483.266 157.92 481.373 157.398C480.133 157.006 478.436 156.81 476.412 156.81Z"
            fill="url(#paint1_linear_62_17372)" />
        <path
            d="M178.286 381.107C178.221 381.107 178.155 381.107 178.09 381.107C162.75 381.107 149.694 368.051 133.244 351.536C113.856 332.083 89.7029 307.93 51.5803 294.613C47.2719 293.112 45.183 291.023 45.3788 288.412C46.0969 279.077 78.8014 266.543 107.785 261.06C218.236 240.432 312.433 208.446 374.709 187.295C421.448 171.433 452.325 160.988 462.9 164.187C465.054 164.709 466.229 165.688 466.556 167.255C468.122 175.349 438.094 196.043 403.431 219.935C391.812 227.964 379.735 236.254 369.682 243.631C357.671 252.443 340.111 266.805 319.81 283.451C266.673 326.991 200.611 381.107 178.286 381.107ZM178.221 379.279C178.286 379.279 178.286 379.279 178.351 379.279C200.024 379.279 268.566 323.14 318.635 282.08C339.001 265.434 356.561 251.007 368.573 242.195C378.691 234.818 390.702 226.462 402.387 218.433C418.119 207.597 434.439 196.369 446.254 187.1C462.247 174.631 465.119 169.605 464.728 167.581C464.663 167.32 464.532 166.472 462.443 166.015H462.378C452.455 162.946 421.775 173.326 375.296 189.123C312.89 210.273 218.628 242.26 108.111 262.953C77.3653 268.698 47.7941 281.166 47.2066 288.608C47.076 290.305 48.7733 291.741 52.1678 292.916C90.7474 306.363 115.031 330.712 134.549 350.296C150.738 366.485 163.533 379.345 178.09 379.345C178.155 379.279 178.155 379.279 178.221 379.279Z"
            fill="url(#paint2_linear_62_17372)" />
        <path
            d="M185.596 368.9C185.531 368.9 185.466 368.9 185.335 368.9C171.17 368.9 159.42 356.889 144.536 341.744C127.629 324.445 106.544 302.968 73.448 290.957C69.6618 289.586 67.834 287.693 68.0298 285.343C68.6826 276.922 98.1885 265.564 124.169 260.603C222.936 241.933 307.602 213.145 363.611 194.149C405.846 179.788 433.785 170.257 443.707 172.934C445.992 173.325 447.298 174.305 447.624 175.806C449.256 182.856 425.364 200.285 388.743 226.07C379.343 232.664 369.682 239.518 361.391 245.589C351.469 252.9 337.304 264.324 320.853 277.575C273.07 316.089 207.465 368.9 185.596 368.9ZM439.53 174.174C427.649 174.174 401.538 183.052 364.198 195.716C308.124 214.777 223.393 243.565 124.561 262.235C96.9482 267.457 70.3799 278.75 69.8576 285.343C69.7271 286.779 71.1632 288.085 74.1007 289.129C107.589 301.271 128.804 322.944 145.842 340.373C160.399 355.257 171.953 367.007 185.335 367.007C185.401 367.007 185.466 367.007 185.596 367.007C206.812 367.007 272.09 314.392 319.809 275.943C336.259 262.692 350.425 251.268 360.347 243.957C368.637 237.886 378.298 231.032 387.699 224.438C414.267 205.769 447.363 182.464 445.862 176.067C445.666 175.349 444.817 174.827 443.316 174.566H443.251C442.271 174.305 441.031 174.174 439.53 174.174Z"
            fill="url(#paint3_linear_62_17372)" />
        <path
            d="M192.907 356.693C192.777 356.693 192.646 356.693 192.516 356.693C179.591 356.628 169.146 345.661 155.895 331.887C141.403 316.742 123.386 297.877 95.3814 287.237C92.1174 285.996 90.616 284.364 90.7466 282.21C91.1383 277.706 99.8856 273.071 107.131 270.003C116.662 265.956 128.869 262.3 140.685 260.015C227.766 243.304 302.902 217.715 352.579 200.808C390.375 187.948 415.376 179.396 424.646 181.551C427.127 181.812 428.563 182.726 428.954 184.162C430.717 190.82 408.326 207.532 373.925 232.337C366.548 237.625 359.629 242.651 353.297 247.351C345.659 253.031 335.019 261.386 322.812 271.113C277.051 307.212 214.515 356.693 192.907 356.693ZM421.252 182.922C410.35 182.922 385.871 191.277 353.166 202.44C303.424 219.412 228.288 245.001 141.076 261.713C116.597 266.413 93.0314 276.466 92.5744 282.341C92.4439 283.581 93.6188 284.691 96.0994 285.605C124.496 296.441 142.643 315.437 157.265 330.712C170.191 344.225 180.439 354.93 192.646 354.996C192.777 354.996 192.907 354.996 193.038 354.996C213.992 354.996 278.814 303.752 321.832 269.742C334.105 260.015 344.68 251.66 352.383 245.981C358.715 241.28 365.634 236.254 373.011 230.966C386.654 221.175 400.689 210.991 411.199 202.505C425.429 190.951 427.845 186.381 427.388 184.684C427.127 183.77 425.691 183.444 424.516 183.313H424.385C423.406 182.987 422.427 182.922 421.252 182.922Z"
            fill="url(#paint4_linear_62_17372)" />
        <path
            d="M200.285 344.421C200.089 344.421 199.893 344.421 199.697 344.421C187.947 344.225 178.808 334.368 167.254 321.9C155.242 308.91 140.228 292.721 117.316 283.386C114.574 282.341 113.334 280.84 113.464 279.012C114.052 272.354 136.573 263.476 157.135 259.429C232.532 244.741 295.526 223.199 341.417 207.467C374.774 196.043 396.838 188.536 405.389 190.103C408.066 190.233 409.698 191.017 410.155 192.518C412.113 198.85 389.984 215.823 358.454 239.127C353.754 242.652 349.25 245.916 345.072 249.049C339.98 252.901 333.387 257.992 325.75 263.933C286.909 294.157 221.957 344.421 200.285 344.421ZM402.844 191.604C393.117 191.604 371.314 199.046 342.069 209.099C298.659 223.917 233.054 246.373 157.527 261.126C136.246 265.304 115.618 274.116 115.161 279.208C115.096 280.252 116.01 281.101 117.968 281.884C141.273 291.35 156.417 307.669 168.559 320.79C179.852 332.997 188.73 342.593 199.762 342.724C199.958 342.724 200.154 342.724 200.35 342.724C221.435 342.724 286.06 292.655 324.836 262.627C332.473 256.687 339.067 251.595 344.224 247.744C348.401 244.61 352.906 241.281 357.606 237.821C370.27 228.487 383.325 218.825 393.313 210.47C406.956 199.046 409.241 194.738 408.719 193.04C408.458 192.126 406.76 191.865 405.455 191.8H405.324C404.541 191.669 403.758 191.604 402.844 191.604Z"
            fill="url(#paint5_linear_62_17372)" />
        <path
            d="M207.661 332.213C207.4 332.213 207.073 332.213 206.812 332.213C196.237 331.952 188.077 322.683 178.612 311.977C168.559 300.553 157.135 287.693 139.184 279.73C136.442 278.554 136.05 276.988 136.116 275.943C136.703 270.199 155.96 262.496 173.585 258.906C237.297 246.176 291.087 227.703 330.319 214.19C359.237 204.268 378.364 197.674 386.328 198.719C389.331 198.654 391.093 199.372 391.616 200.873C393.77 207.075 371.51 224.634 342.134 246.894C340.372 248.265 338.609 249.571 336.977 250.811C335.28 252.117 333.452 253.488 331.429 255.054C298.528 280.252 230.443 332.213 207.661 332.213ZM384.5 200.286C375.949 200.286 356.757 206.879 330.907 215.757C291.609 229.269 237.819 247.743 173.977 260.538C155.83 264.258 138.27 271.766 137.813 276.139C137.748 276.923 138.4 277.641 139.902 278.293C158.18 286.388 170.191 300.031 179.852 310.998C189.448 321.834 197.02 330.451 206.877 330.647C207.139 330.647 207.4 330.647 207.661 330.647C229.855 330.647 300.16 276.988 330.384 253.879C332.408 252.313 334.301 250.876 335.933 249.636C337.63 248.396 339.327 247.025 341.09 245.719C352.318 237.168 365.112 227.507 374.839 219.151C389.07 206.944 390.441 202.897 389.984 201.591C389.722 200.808 388.352 200.416 386.197 200.481H386.132H386.067C385.675 200.286 385.088 200.286 384.5 200.286Z"
            fill="url(#paint6_linear_62_17372)" />
        <path
            d="M215.168 320.006C214.776 320.006 214.385 320.006 213.993 319.941C204.528 319.614 197.804 311.389 189.97 301.859C182.529 292.785 174.043 282.471 161.117 275.943C159.028 274.964 158.767 273.658 158.833 272.745C159.42 267.783 175.544 261.386 190.101 258.318C242.128 247.547 286.648 232.141 319.222 220.913C343.767 212.427 359.956 206.813 367.267 207.336C370.661 207.009 372.62 207.662 373.272 209.294C375.231 214.19 362.371 226.789 328.883 252.639C314.783 263.54 292.066 280.121 270.655 293.829C243.434 311.194 224.829 320.006 215.168 320.006ZM366.157 208.902C358.715 208.902 342.2 214.647 319.679 222.415C287.105 233.708 242.52 249.114 190.427 259.885C175.413 263.083 160.856 269.415 160.399 272.94C160.399 273.136 160.269 273.789 161.77 274.507C175.022 281.231 183.638 291.675 191.145 300.88C198.718 310.084 205.246 318.048 213.993 318.374H214.058C214.385 318.374 214.776 318.439 215.103 318.439C235.731 318.439 297.484 274.899 327.839 251.464C337.108 244.283 348.858 235.014 357.932 226.919C371.118 215.104 372.228 211.187 371.706 209.947C371.379 209.098 369.813 208.772 367.267 209.033H367.202H367.136C366.875 208.902 366.549 208.902 366.157 208.902Z"
            fill="url(#paint7_linear_62_17372)" />
        <path
            d="M222.74 307.8C222.218 307.8 221.631 307.8 221.174 307.734C212.753 307.278 207.531 300.032 201.46 291.611C196.629 284.887 191.08 277.249 183.051 272.158C181.615 271.309 181.484 270.33 181.55 269.612C182.268 265.173 196.629 260.016 206.617 257.796C246.894 249.049 282.209 236.711 307.994 227.703C327.382 220.914 341.482 216.018 348.14 216.018C348.14 216.018 348.14 216.018 348.206 216.018C352.122 215.431 354.407 215.953 355.125 217.65C355.843 219.347 355.582 222.938 344.615 233.774C336.521 241.738 326.272 250.159 320.854 254.467C301.597 269.547 243.891 307.8 222.74 307.8ZM348.01 217.52C341.613 217.52 327.643 222.416 308.386 229.139C282.601 238.148 247.22 250.485 206.878 259.298C193.692 262.235 183.378 267.327 182.986 269.873C182.986 270.004 182.921 270.395 183.769 270.917C192.125 276.205 197.739 283.908 202.635 290.762C208.445 298.857 213.536 305.841 221.239 306.233H221.304C221.761 306.298 222.218 306.298 222.74 306.298C242.585 306.298 299.182 269.612 319.744 253.292C341.613 235.993 355.19 221.893 353.624 218.303C353.232 217.324 351.339 217.063 348.271 217.585H348.206H348.14C348.075 217.52 348.075 217.52 348.01 217.52Z"
            fill="url(#paint8_linear_62_17372)" />
        <path
            d="M230.574 295.592C229.791 295.592 229.007 295.527 228.289 295.461C220.586 294.809 216.931 288.02 213.08 280.774C210.729 276.335 208.249 271.765 204.789 268.371C204.202 267.849 203.94 267.196 204.136 266.478C204.985 262.953 216.148 258.971 223.002 257.274C251.463 250.55 277.444 241.346 296.375 234.622C311.781 229.139 322.878 225.222 328.949 224.7C333.584 223.72 336.26 224.177 337.174 226.005C339.916 231.75 322.29 248.33 312.564 256.294C304.012 263.279 286.909 273.789 271.047 281.753C260.341 287.041 241.606 295.592 230.574 295.592ZM333.061 225.614C332.017 225.614 330.711 225.809 329.21 226.136H329.145C323.335 226.593 311.65 230.771 296.897 235.993C277.901 242.716 251.92 251.986 223.393 258.71C213.471 261.125 206.029 264.976 205.572 266.804C205.572 266.935 205.507 267.065 205.768 267.326C209.424 270.917 211.97 275.617 214.385 280.121C218.237 287.302 221.566 293.503 228.42 294.091H228.485C229.138 294.156 229.921 294.221 230.639 294.221C249.635 294.221 296.962 267.196 311.65 255.185C324.771 244.479 337.696 230.509 335.868 226.658C335.542 225.94 334.563 225.614 333.061 225.614Z"
            fill="url(#paint9_linear_62_17372)" />
        <path
            d="M239.125 283.516C237.754 283.516 236.579 283.451 235.469 283.255C227.31 282.211 226.983 273.92 226.722 267.262C226.657 266.217 226.657 265.173 226.592 264.259C226.004 260.734 238.995 256.883 239.517 256.687C255.771 252.117 271.373 246.438 283.906 241.803C295.265 237.625 304.208 234.361 309.887 233.252C315.436 231.685 318.765 232.011 319.94 234.231C322.551 239.127 312.237 251.269 304.469 257.992C292.784 268.045 256.685 283.516 239.125 283.516ZM315.501 233.774C314.13 233.774 312.302 234.1 310.148 234.688C304.534 235.798 295.591 239.062 284.363 243.174C271.83 247.744 256.163 253.488 239.843 258.058C231.814 260.408 227.701 263.215 227.897 263.998V264.128C227.962 265.108 228.028 266.152 228.028 267.197C228.289 273.659 228.55 280.97 235.6 281.884C242.454 283.059 255.249 280.318 270.655 274.377C284.559 268.959 297.419 262.17 303.424 257.013C312.106 249.506 320.462 238.474 318.569 235.014C318.243 234.166 317.133 233.774 315.501 233.774Z"
            fill="url(#paint10_linear_62_17372)" />
        <path
            d="M251.464 271.766C248.135 271.766 245.067 271.505 242.521 270.983C240.432 270.526 239.322 269.677 239.192 268.372C239.126 267.327 238.93 264.129 257.535 255.251C267.131 250.681 279.795 245.524 290.631 241.869C297.55 239.519 301.924 239.78 303.556 242.587C304.992 245.002 303.882 248.462 302.707 250.942C301.206 254.01 298.856 257.274 296.18 259.82C289.456 266.283 267.131 271.766 251.464 271.766ZM290.892 242.587L291.088 243.239C262.431 252.966 240.367 264.716 240.562 268.372C240.628 269.09 241.999 269.547 242.782 269.677C256.751 272.745 287.171 266.479 295.266 258.841C300.227 254.141 304.339 246.569 302.381 243.305C301.076 241.151 297.094 241.151 291.023 243.174L290.892 242.587Z"
            fill="url(#paint11_linear_62_17372)" />
    </g>
    <g opacity="0.5">
        <path
            d="M493.934 789.661C492.432 789.661 490.931 789.661 489.495 789.596C437.664 787.376 396.604 746.903 367.489 669.287C326.821 560.99 285.173 526.589 257.56 503.872C234.844 485.137 222.375 474.823 231.123 437.353C238.956 403.8 254.753 376.056 282.301 347.53C308.673 320.243 345.752 292.108 392.687 256.466C434.922 224.349 487.536 184.464 550.073 131.719C595.507 93.4658 643.095 54.5598 683.698 29.5581C724.171 4.62175 753.612 -4.19084 776.459 1.81478C795.716 6.84122 810.012 22.5081 820.196 49.7292C831.685 80.4101 846.438 104.041 859.428 124.865C878.946 156.068 895.788 183.093 897.812 223.827C899.966 268.216 883.646 325.27 846.372 403.343C820.522 457.589 792.452 508.702 762.946 555.246C732.853 602.768 702.042 644.416 671.361 679.014C606.8 751.473 545.634 789.661 493.934 789.661ZM761.837 1.94532C741.731 1.94532 716.729 11.476 684.678 31.2554C644.205 56.1917 596.617 95.0324 551.314 133.22C488.777 185.965 436.162 225.916 393.862 257.968C346.992 293.544 309.979 321.679 283.737 348.835C256.385 377.101 240.784 404.518 233.016 437.744C224.53 474.039 236.019 483.505 258.801 502.305C286.544 525.218 328.518 559.815 369.317 668.569C398.17 745.402 438.643 785.418 489.56 787.637C490.996 787.702 492.498 787.702 493.934 787.702C545.047 787.702 605.756 749.776 669.794 677.643C700.41 643.176 731.156 601.593 761.249 554.136C790.69 507.592 818.694 456.61 844.544 402.429C881.688 324.682 897.942 267.955 895.788 223.892C893.83 183.681 877.119 156.851 857.731 125.844C844.675 104.889 829.857 81.1934 818.303 50.3167C808.38 23.7483 794.541 8.47317 775.937 3.64257C771.498 2.53283 766.798 1.94532 761.837 1.94532Z"
            fill="url(#paint12_linear_62_17372)" />
        <path
            d="M512.343 756.629C511.495 756.629 510.646 756.629 509.732 756.629C485.644 756.042 463.515 746.968 444.127 729.669C423.63 711.391 405.809 683.713 391.317 647.353C351.889 550.676 310.829 516.274 283.673 493.492C259.585 473.321 246.333 462.223 254.428 425.733C261.609 394.203 276.427 368.288 302.473 341.719C327.344 316.326 362.398 290.215 406.788 257.184C445.563 228.331 493.739 192.428 550.662 145.558C621.358 86.807 652.627 65.7873 673.907 52.9274C711.377 30.3411 738.794 22.3771 760.271 27.8605C778.418 32.4953 791.996 46.8565 801.853 71.7276C813.865 99.4057 828.03 120.23 841.738 140.401C861.844 169.972 879.273 195.496 882.864 233.749C886.781 275.527 873.137 328.598 839.976 400.862C794.281 500.411 737.75 590.235 680.827 653.685C620.314 721.118 562.151 756.629 512.343 756.629ZM746.497 28.1869C703.805 28.1869 641.464 72.6415 551.902 147.059C494.979 193.994 446.738 229.897 407.963 258.75C363.639 291.716 328.65 317.827 303.844 343.09C278.059 369.397 263.436 394.987 256.321 426.19C248.488 461.44 261.413 472.276 284.913 491.99C312.199 514.903 353.521 549.436 393.145 646.57C407.571 682.669 425.196 710.086 445.498 728.168C464.559 745.14 486.167 754.018 509.863 754.606C559.67 755.846 618.225 720.53 679.326 652.445C736.118 589.125 792.584 499.498 838.213 400.078C871.244 328.141 884.822 275.396 880.971 233.945C877.446 196.214 860.212 170.82 840.237 141.51C827.116 122.253 812.233 100.385 800.156 72.511C790.56 48.2274 777.439 34.2578 759.944 29.8188C755.571 28.7744 751.132 28.1869 746.497 28.1869Z"
            fill="url(#paint13_linear_62_17372)" />
        <path
            d="M530.685 723.534C530.554 723.534 530.489 723.534 530.359 723.534C507.054 723.469 485.708 715.57 466.843 700.034C446.867 683.584 429.503 658.517 415.207 625.355C377.15 540.232 336.873 506.091 310.239 483.505C285.368 462.42 270.354 449.691 277.796 414.244C284.324 384.739 298.098 360.651 322.642 336.041C346.077 312.541 379.174 288.518 421.017 258.033C456.202 232.444 500.069 200.588 551.248 159.463C642.376 84.9798 703.085 43.8543 744.08 54.0378C761.118 58.2809 774.043 71.3366 783.508 93.9229C795.911 118.598 810.077 137.594 823.785 155.937C844.609 183.877 862.626 208.03 867.783 243.802C873.462 282.904 862.561 332.124 833.447 398.643C794.214 488.336 743.362 569.999 690.291 628.554C633.956 690.699 578.73 723.534 530.685 723.534ZM731.09 54.4947C713.661 54.4947 692.249 62.1976 665.159 78.1255C630.104 98.6883 588.587 131.589 552.553 161.029C501.31 202.155 457.442 234.011 422.192 259.665C380.414 290.02 347.383 314.042 324.079 337.477C299.795 361.826 286.152 385.652 279.754 414.767C272.574 449.038 286.413 460.788 311.545 482.134C338.309 504.851 378.782 539.188 417.035 624.702C431.201 657.537 448.369 682.408 468.083 698.663C486.622 713.873 507.576 721.641 530.424 721.706C530.554 721.706 530.62 721.706 530.75 721.706C554.838 721.706 580.949 713.22 608.366 696.574C634.674 680.581 661.764 657.276 688.92 627.313C741.861 568.954 792.582 487.487 831.749 397.925C860.668 331.798 871.569 282.904 865.89 244.129C860.798 208.878 842.912 184.921 822.219 157.178C808.51 138.769 794.279 119.708 781.811 94.8368V94.7716C772.542 72.7727 760.074 60.1087 743.689 55.9961C739.707 54.9517 735.529 54.4947 731.09 54.4947Z"
            fill="url(#paint14_linear_62_17372)" />
        <path
            d="M548.963 690.503C527.421 690.503 507.446 683.779 489.69 670.593C470.107 656.036 453.069 633.45 439.099 603.487C402.609 529.983 364.878 497.671 337.33 474.105C310.566 451.192 294.377 437.353 301.166 402.756C306.976 375.339 319.901 352.948 342.879 330.297C364.878 308.689 395.95 286.69 435.379 258.882C467.039 236.557 506.402 208.748 551.966 173.367C598.053 136.485 628.668 114.486 654.388 99.8634C685.852 81.9771 709.222 75.7104 727.957 80.2146C743.885 84.066 756.157 95.7509 765.296 116.052C778.025 137.66 791.995 154.697 805.508 171.213C848.004 222.979 881.557 263.843 827.115 396.293C794.28 476.194 749.172 549.632 700.148 603.095C675.342 630.186 650.21 651.401 625.47 666.285C599.554 681.821 574.683 689.981 551.509 690.568C550.66 690.503 549.812 690.503 548.963 690.503ZM715.946 80.8021C699.756 80.8021 679.781 87.6563 655.367 101.561C629.713 116.118 599.162 138.051 553.141 174.934C507.577 210.38 468.148 238.189 436.488 260.514C397.191 288.257 366.118 310.191 344.25 331.733C321.533 354.123 308.804 376.122 303.059 403.213C296.466 436.635 312.329 450.213 338.571 472.669C366.249 496.365 404.176 528.808 440.862 602.704C454.766 632.405 471.608 654.731 490.865 669.092C508.295 682.082 527.813 688.61 548.963 688.61C549.747 688.61 550.595 688.61 551.378 688.61C574.226 688.088 598.836 679.993 624.425 664.653C648.97 649.9 673.971 628.75 698.647 601.855C747.54 548.588 792.517 475.345 825.287 395.64C850.158 335.192 858.253 290.215 850.746 254.051C843.957 221.216 825.418 198.63 803.941 172.518C790.363 155.938 776.263 138.835 763.468 117.097L763.403 117.032C754.525 97.3176 742.71 85.9591 727.369 82.2382C723.91 81.1938 720.058 80.8021 715.946 80.8021Z"
            fill="url(#paint15_linear_62_17372)" />
        <path
            d="M567.176 657.471C547.592 657.471 529.38 651.988 512.995 641.217C493.738 628.553 476.896 608.447 463.057 581.553C428.394 519.603 391.903 488.27 365.27 465.292C337.069 441.008 318.465 425.015 324.601 391.201C329.758 365.742 341.704 345.179 363.246 324.486C383.809 304.772 412.988 284.862 449.936 259.73C479.442 239.624 512.864 216.907 552.684 187.205C624.49 131.196 676.126 98.1002 711.833 106.26C726.717 109.654 738.271 120.099 747.083 138.051C759.878 156.459 773.521 171.473 786.773 186.03C809.359 210.836 828.812 232.182 837.494 263.124C847.025 297.069 841.737 338.651 820.783 393.877C794.215 463.986 754.982 529.134 710.266 577.31C687.941 601.332 665.028 620.459 642.181 634.036C618.354 648.202 595.18 655.97 573.377 657.276C571.223 657.406 569.2 657.471 567.176 657.471ZM700.279 107.043C665.877 107.043 617.963 138.703 553.729 188.837C513.843 218.604 480.421 241.321 450.915 261.427C414.033 286.494 384.918 306.339 364.486 325.987C343.205 346.42 331.455 366.656 326.429 391.658C320.489 424.362 337.787 439.246 366.445 463.921C393.209 486.964 429.83 518.428 464.689 580.704C478.397 607.338 494.978 627.182 513.974 639.651C531.73 651.335 551.64 656.623 573.116 655.383C594.658 654.142 617.506 646.439 641.006 632.47C663.723 618.957 686.505 600.026 708.7 576.069C753.22 528.09 792.321 463.137 818.825 393.29C863.997 274.026 829.204 235.838 785.141 187.466C771.889 172.844 758.115 157.765 745.256 139.226L745.19 139.095C736.639 121.6 725.476 111.548 711.18 108.284C707.786 107.435 704.13 107.043 700.279 107.043Z"
            fill="url(#paint16_linear_62_17372)" />
        <path
            d="M585.194 624.441C545.374 624.441 511.56 602.246 486.884 559.685C454.571 509.42 421.214 480.763 394.385 457.72C363.051 430.825 342.358 413.069 347.841 379.712C352.345 356.277 363.312 337.477 383.483 318.742C402.675 300.921 429.961 283.165 464.494 260.709C490.083 244.063 519.132 225.198 553.207 201.11C588.653 174.346 613.786 157.569 634.74 146.733C659.807 133.742 679.652 129.042 695.384 132.437C709.223 135.44 720.124 144.513 728.676 160.246C741.209 175.39 754.265 188.185 766.864 200.588C789.581 222.913 811.057 243.998 821.698 272.525C833.448 303.989 831.098 341.85 814.256 391.658C793.889 451.91 760.662 508.637 720.647 551.329C680.5 594.152 636.307 619.937 596.226 623.984C592.505 624.245 588.849 624.441 585.194 624.441ZM685.005 133.286C653.279 133.286 609.412 161.159 554.382 202.677C520.242 226.83 491.193 245.695 465.603 262.341C431.136 284.732 403.915 302.422 384.854 320.178C365.009 338.586 354.238 357.06 349.8 380.038C344.512 412.286 364.879 429.78 395.69 456.218C422.585 479.327 456.073 508.049 488.582 558.64C515.085 604.4 552.293 626.334 596.095 621.96C635.719 617.978 679.521 592.454 719.276 549.958C759.096 507.462 792.192 450.996 812.493 391.005C848.788 283.622 812.036 247.588 765.558 202.024C752.894 189.556 739.773 176.696 727.174 161.486L727.044 161.355C718.753 146.145 708.309 137.333 695.057 134.461C691.859 133.612 688.464 133.286 685.005 133.286Z"
            fill="url(#paint17_linear_62_17372)" />
        <path
            d="M602.95 591.41C588.327 591.41 574.488 588.538 561.563 582.728C542.045 574.046 524.942 558.902 510.842 537.751C481.597 499.237 450.72 473.06 425.914 452.041C391.382 422.731 366.446 401.581 371.276 368.223C375.062 346.747 385.181 329.774 403.981 312.998C421.867 297.07 447.326 281.533 479.638 261.819C501.246 248.633 525.79 233.619 553.991 215.015C607.062 176.696 648.71 152.478 679.13 158.549C691.924 161.095 702.238 168.863 710.529 182.31C722.213 193.93 734.094 204.244 745.648 214.231C769.867 235.186 792.779 255.03 805.704 281.272C820 310.386 820.719 344.723 808.055 389.178C793.693 439.507 766.733 487.552 732.005 524.435C697.799 560.795 658.502 584.034 621.358 589.909C615.091 590.888 608.955 591.41 602.95 591.41ZM669.207 159.528C640.419 159.528 602.362 182.441 554.97 216.581C526.704 235.251 502.16 250.265 480.487 263.451C448.305 283.1 422.846 298.636 405.156 314.434C386.682 330.884 376.825 347.53 373.104 368.484C370.95 383.564 374.671 396.489 385.246 410.393C394.972 423.253 409.856 435.852 427.089 450.474C451.96 471.559 482.968 497.866 512.343 536.576C535.582 571.435 566.589 589.452 602.754 589.452C608.694 589.452 614.7 588.995 620.901 588.016C657.588 582.271 696.494 559.228 730.373 523.129C764.84 486.443 791.735 438.659 805.966 388.655C818.499 344.658 817.781 310.778 803.746 282.121C791.017 256.205 768.3 236.491 744.212 215.667C732.658 205.68 720.647 195.301 708.897 183.55L708.766 183.355C700.737 170.364 690.88 162.857 678.607 160.377C675.67 159.789 672.471 159.528 669.207 159.528Z"
            fill="url(#paint18_linear_62_17372)" />
        <path
            d="M620.444 558.379C586.826 558.379 557.059 543.822 534.733 515.883C510.189 489.51 484.665 468.491 462.144 450.017C441.581 433.11 423.825 418.553 411.553 403.735C398.04 387.48 392.622 372.531 394.58 356.669C401.108 315.543 434.531 296.874 495.109 262.994C512.604 253.202 532.383 242.105 554.578 228.854C619.008 185.378 664.507 166.056 692.12 204.374C701.781 212.142 711.507 219.388 720.908 226.373C747.411 246.152 772.478 264.887 788.21 289.171C805.77 316.196 810.013 347.203 801.592 386.827C792.975 427.496 773.13 465.423 744.277 496.626C716.86 526.262 683.372 546.956 650.08 554.854C639.897 557.204 630.04 558.379 620.444 558.379ZM653.605 185.835C628.277 185.835 595.703 203.46 555.688 230.485C533.428 243.802 513.583 254.9 496.088 264.691C465.995 281.533 442.234 294.785 425.783 308.624C408.615 323.05 399.607 337.934 396.604 356.93C392.557 390.157 422.324 414.571 463.514 448.45C486.101 466.989 511.69 488.009 536.3 514.577L536.365 514.643C564.566 549.958 604.842 563.536 649.689 552.896C682.589 545.128 715.75 524.63 742.906 495.255C771.498 464.313 791.147 426.713 799.764 386.37C808.054 347.334 803.876 316.718 786.643 290.215C771.107 266.258 746.17 247.654 719.798 227.94C710.332 220.89 700.606 213.578 690.879 205.81L690.749 205.745L690.684 205.614C680.761 191.906 668.424 185.835 653.605 185.835Z"
            fill="url(#paint19_linear_62_17372)" />
        <path
            d="M637.22 525.413C630.953 525.413 624.752 524.956 618.681 524.042C595.442 520.452 575.271 510.399 558.69 494.014C543.154 481.154 527.226 469.078 511.885 457.328C459.532 417.443 414.359 383.041 417.95 345.179C422.976 307.905 454.506 292.5 511.755 264.43C524.68 258.098 539.368 250.917 555.296 242.692C607.127 211.097 647.142 196.214 673.841 226.438C678.607 229.375 683.372 232.378 687.942 235.185C750.021 273.569 803.615 306.73 795.194 384.346C791.93 414.113 779.266 442.575 758.442 466.728C739.12 489.118 713.335 506.874 685.853 516.666C669.598 522.476 653.083 525.413 637.22 525.413ZM637.481 212.011C615.221 212.011 588 225.067 556.21 244.389L556.144 244.455C540.216 252.68 525.529 259.86 512.538 266.192C455.942 293.936 424.739 309.211 419.843 345.375C416.318 382.127 461.164 416.268 512.995 455.761C528.401 467.511 544.329 479.653 559.93 492.513L559.996 492.578C576.315 508.637 596.16 518.559 618.942 522.084C639.897 525.283 662.744 522.802 685.069 514.838C712.225 505.177 737.749 487.617 756.81 465.488C777.373 441.661 789.907 413.526 793.105 384.151C801.396 307.71 748.259 274.874 686.767 236.817C682.132 233.945 677.301 230.942 672.536 227.939L672.405 227.874L672.34 227.743C662.679 216.777 650.994 212.011 637.481 212.011Z"
            fill="url(#paint20_linear_62_17372)" />
        <path
            d="M652.69 492.513C625.992 492.513 601.839 485.463 582.647 472.147C542.762 449.299 509.208 426.19 485.643 405.301C454.897 378.08 439.948 353.927 441.253 333.626C444.713 299.746 475.264 287.931 530.685 266.389C538.714 263.255 547.005 260.057 555.882 256.532C578.73 244.977 596.355 238.645 611.434 236.752C629.06 234.533 643.421 238.384 655.302 248.437C710.593 274.026 732.657 290.281 746.953 302.749C773.456 325.923 787.099 351.773 788.666 381.866C789.645 400.471 784.553 418.161 773.586 434.35C763.599 449.103 748.78 462.159 730.829 472.212C708.242 484.745 681.478 491.991 655.563 492.448C654.714 492.513 653.735 492.513 652.69 492.513ZM620.835 238.188C617.897 238.188 614.894 238.384 611.761 238.776C596.877 240.669 579.448 246.87 556.796 258.36L556.731 258.425C547.788 262.015 539.498 265.214 531.468 268.347C476.765 289.563 446.606 301.313 443.277 333.887C442.037 353.536 456.724 377.101 487.014 403.931C510.449 424.689 543.936 447.732 583.756 470.58L583.822 470.645C603.34 484.288 628.211 491.208 655.693 490.686C681.282 490.163 707.72 483.113 730.045 470.645C747.736 460.788 762.293 447.928 772.15 433.436C782.921 417.574 787.882 400.275 786.903 382.127C785.336 352.622 771.889 327.163 745.843 304.381C720.515 282.251 685.526 264.626 654.584 250.33L654.453 250.265L654.322 250.2C644.857 242.105 633.825 238.188 620.835 238.188Z"
            fill="url(#paint21_linear_62_17372)" />
        <path
            d="M664.181 459.873C643.749 459.873 623.643 456.805 606.801 450.278C575.01 440.355 538.977 419.205 510.319 393.746C480.813 367.504 464.167 341.393 464.69 322.201C466.452 290.411 500.462 282.904 556.798 270.435C590.547 259.403 616.005 259.469 637.025 270.631C714.053 294.719 766.994 334.343 782.335 379.385C788.21 396.553 783.706 412.873 769.475 426.647C747.476 447.666 704.98 459.873 664.181 459.873ZM601.448 264.169C588.458 264.169 573.901 266.845 557.32 272.263H557.255C501.833 284.535 468.345 291.912 466.648 322.201C466.191 340.806 482.576 366.329 511.625 392.245C540.021 417.573 575.859 438.527 607.454 448.384C657.522 467.707 735.595 456.348 768.169 425.08C781.878 411.959 786.121 396.292 780.572 379.907C765.428 335.453 712.878 296.22 636.437 272.394L636.241 272.328C625.862 266.845 614.439 264.169 601.448 264.169Z"
            fill="url(#paint22_linear_62_17372)" />
        <path
            d="M649.427 428.801C643.095 428.801 636.894 428.671 630.888 428.41C601.121 427.039 566.132 410.197 534.863 382.193C507.185 357.452 488.385 328.73 487.993 310.713C487.863 303.336 490.343 297.396 495.435 293.022C513.909 277.16 565.479 283.492 618.55 292.631C692.315 305.425 744.734 345.376 775.741 376.579C783.117 384.02 785.402 391.005 782.53 397.468C776.263 411.503 746.692 419.206 722.996 423.122C700.997 426.778 674.168 428.801 649.427 428.801ZM536.561 285.189C518.674 285.189 504.509 287.735 496.675 294.458C491.975 298.506 489.821 303.728 489.952 310.582C490.343 328.077 508.883 356.212 536.169 380.626C567.176 408.369 601.709 425.015 631.019 426.386C685.722 428.867 770.453 419.728 780.702 396.619C783.183 391.005 781.029 384.739 774.305 377.95C743.493 346.877 691.466 307.188 618.224 294.524C588.653 289.432 559.539 285.189 536.561 285.189Z"
            fill="url(#paint23_linear_62_17372)" />
    </g>
    <defs>
        <linearGradient id="paint0_linear_62_17372" x1="504.38" y1="405.587" x2="504.38" y2="146"
            gradientUnits="userSpaceOnUse">
            <stop stop-color="#00E3AE" />
            <stop offset="1" stop-color="#9BE15D" />
        </linearGradient>
        <linearGradient id="paint1_linear_62_17372" x1="485.459" y1="393.379" x2="485.459" y2="154.909"
            gradientUnits="userSpaceOnUse">
            <stop stop-color="#00E3AE" />
            <stop offset="1" stop-color="#9BE15D" />
        </linearGradient>
        <linearGradient id="paint2_linear_62_17372" x1="466.614" y1="381.107" x2="466.614" y2="163.61"
            gradientUnits="userSpaceOnUse">
            <stop stop-color="#00E3AE" />
            <stop offset="1" stop-color="#9BE15D" />
        </linearGradient>
        <linearGradient id="paint3_linear_62_17372" x1="447.703" y1="368.9" x2="447.703" y2="172.483"
            gradientUnits="userSpaceOnUse">
            <stop stop-color="#00E3AE" />
            <stop offset="1" stop-color="#9BE15D" />
        </linearGradient>
        <linearGradient id="paint4_linear_62_17372" x1="429.051" y1="356.693" x2="429.051" y2="181.219"
            gradientUnits="userSpaceOnUse">
            <stop stop-color="#00E3AE" />
            <stop offset="1" stop-color="#9BE15D" />
        </linearGradient>
        <linearGradient id="paint5_linear_62_17372" x1="410.275" y1="344.421" x2="410.275" y2="189.896"
            gradientUnits="userSpaceOnUse">
            <stop stop-color="#00E3AE" />
            <stop offset="1" stop-color="#9BE15D" />
        </linearGradient>
        <linearGradient id="paint6_linear_62_17372" x1="391.76" y1="332.213" x2="391.76" y2="198.61"
            gradientUnits="userSpaceOnUse">
            <stop stop-color="#00E3AE" />
            <stop offset="1" stop-color="#9BE15D" />
        </linearGradient>
        <linearGradient id="paint7_linear_62_17372" x1="373.465" y1="320.006" x2="373.465" y2="207.254"
            gradientUnits="userSpaceOnUse">
            <stop stop-color="#00E3AE" />
            <stop offset="1" stop-color="#9BE15D" />
        </linearGradient>
        <linearGradient id="paint8_linear_62_17372" x1="355.362" y1="307.8" x2="355.362" y2="215.786"
            gradientUnits="userSpaceOnUse">
            <stop stop-color="#00E3AE" />
            <stop offset="1" stop-color="#9BE15D" />
        </linearGradient>
        <linearGradient id="paint9_linear_62_17372" x1="337.46" y1="295.592" x2="337.46" y2="224.196"
            gradientUnits="userSpaceOnUse">
            <stop stop-color="#00E3AE" />
            <stop offset="1" stop-color="#9BE15D" />
        </linearGradient>
        <linearGradient id="paint10_linear_62_17372" x1="320.353" y1="283.516" x2="320.353" y2="232.279"
            gradientUnits="userSpaceOnUse">
            <stop stop-color="#00E3AE" />
            <stop offset="1" stop-color="#9BE15D" />
        </linearGradient>
        <linearGradient id="paint11_linear_62_17372" x1="304.236" y1="271.766" x2="304.236" y2="240.276"
            gradientUnits="userSpaceOnUse">
            <stop stop-color="#00E3AE" />
            <stop offset="1" stop-color="#9BE15D" />
        </linearGradient>
        <linearGradient id="paint12_linear_62_17372" x1="564.79" y1="-123.146" x2="178.557" y2="852.6"
            gradientUnits="userSpaceOnUse">
            <stop stop-color="#00BF57" />
            <stop offset="1" stop-color="#005F91" />
        </linearGradient>
        <linearGradient id="paint13_linear_62_17372" x1="569.323" y1="-87.7171" x2="233.36" y2="833.78"
            gradientUnits="userSpaceOnUse">
            <stop stop-color="#00BF57" />
            <stop offset="1" stop-color="#005F91" />
        </linearGradient>
        <linearGradient id="paint14_linear_62_17372" x1="574.007" y1="-52.1423" x2="258.694" y2="788.692"
            gradientUnits="userSpaceOnUse">
            <stop stop-color="#00BF57" />
            <stop offset="1" stop-color="#005F91" />
        </linearGradient>
        <linearGradient id="paint15_linear_62_17372" x1="578.87" y1="-16.5933" x2="311.828" y2="766.732"
            gradientUnits="userSpaceOnUse">
            <stop stop-color="#00BF57" />
            <stop offset="1" stop-color="#005F91" />
        </linearGradient>
        <linearGradient id="paint16_linear_62_17372" x1="584.011" y1="18.879" x2="324.423" y2="711.114"
            gradientUnits="userSpaceOnUse">
            <stop stop-color="#00BF57" />
            <stop offset="1" stop-color="#005F91" />
        </linearGradient>
        <linearGradient id="paint17_linear_62_17372" x1="589.163" y1="54.4776" x2="377.745" y2="688.73"
            gradientUnits="userSpaceOnUse">
            <stop stop-color="#00BF57" />
            <stop offset="1" stop-color="#005F91" />
        </linearGradient>
        <linearGradient id="paint18_linear_62_17372" x1="594.938" y1="89.97" x2="428.282" y2="661.363"
            gradientUnits="userSpaceOnUse">
            <stop stop-color="#00BF57" />
            <stop offset="1" stop-color="#005F91" />
        </linearGradient>
        <linearGradient id="paint19_linear_62_17372" x1="600.984" y1="125.404" x2="438.098" y2="605.487"
            gradientUnits="userSpaceOnUse">
            <stop stop-color="#00BF57" />
            <stop offset="1" stop-color="#005F91" />
        </linearGradient>
        <linearGradient id="paint20_linear_62_17372" x1="607.832" y1="160.771" x2="501.748" y2="585.108"
            gradientUnits="userSpaceOnUse">
            <stop stop-color="#00BF57" />
            <stop offset="1" stop-color="#005F91" />
        </linearGradient>
        <linearGradient id="paint21_linear_62_17372" x1="615.827" y1="196.164" x2="517.334" y2="533.855"
            gradientUnits="userSpaceOnUse">
            <stop stop-color="#00BF57" />
            <stop offset="1" stop-color="#005F91" />
        </linearGradient>
        <linearGradient id="paint22_linear_62_17372" x1="625.542" y1="231.385" x2="569.133" y2="502.146"
            gradientUnits="userSpaceOnUse">
            <stop stop-color="#00BF57" />
            <stop offset="1" stop-color="#005F91" />
        </linearGradient>
        <linearGradient id="paint23_linear_62_17372" x1="636.581" y1="260.635" x2="596.595" y2="460.565"
            gradientUnits="userSpaceOnUse">
            <stop stop-color="#00BF57" />
            <stop offset="1" stop-color="#005F91" />
        </linearGradient>
    </defs>
</svg>