<svg width="14" height="15" viewBox="0 0 14 15" fill="none" xmlns="http://www.w3.org/2000/svg">
<path d="M13.4166 3.125C13.4166 2.64175 13.0248 2.25 12.5416 2.25H10.3389C9.97033 1.20429 8.98369 0.503555 7.87493 0.5H6.12493C5.01617 0.503555 4.02952 1.20429 3.66093 2.25H1.45825C0.975006 2.25 0.583252 2.64175 0.583252 3.125C0.583252 3.60825 0.975006 4 1.45825 4H1.74993V11.2917C1.74993 13.0636 3.18635 14.5 4.95825 14.5H9.04158C10.8135 14.5 12.2499 13.0636 12.2499 11.2917V4H12.5416C13.0248 4 13.4166 3.60825 13.4166 3.125ZM10.4999 11.2917C10.4999 12.0971 9.84701 12.75 9.0416 12.75H4.95825C4.15284 12.75 3.49993 12.0971 3.49993 11.2917V4H10.4999V11.2917Z" fill="#E4455D"/>
<path d="M5.5415 11C6.02475 11 6.4165 10.6082 6.4165 10.125V6.625C6.4165 6.14175 6.02475 5.75 5.5415 5.75C5.05826 5.75 4.6665 6.14175 4.6665 6.625V10.125C4.6665 10.6082 5.05826 11 5.5415 11Z" fill="#E4455D"/>
<path d="M8.45825 11C8.9415 11 9.33325 10.6082 9.33325 10.125V6.625C9.33325 6.14175 8.9415 5.75 8.45825 5.75C7.97501 5.75 7.58325 6.14175 7.58325 6.625V10.125C7.58325 10.6082 7.97501 11 8.45825 11Z" fill="#E4455D"/>
</svg>
