<svg width="20" height="20" viewBox="0 0 20 20" fill="none" xmlns="http://www.w3.org/2000/svg">
<path fill-rule="evenodd" clip-rule="evenodd" d="M9.9999 19.5999C15.3018 19.5999 19.5999 15.3018 19.5999 9.9999C19.5999 4.69797 15.3018 0.399902 9.9999 0.399902C4.69797 0.399902 0.399902 4.69797 0.399902 9.9999C0.399902 15.3018 4.69797 19.5999 9.9999 19.5999ZM15.0347 7.44009C15.3882 7.01581 15.3309 6.38525 14.9066 6.03168C14.4824 5.67812 13.8518 5.73544 13.4982 6.15972L9.56696 10.8773C9.22024 11.2933 9.02532 11.5237 8.86971 11.6652L8.86376 11.6706L8.85735 11.6658C8.68956 11.5389 8.47459 11.3271 8.09163 10.9442L6.44024 9.2928C6.04972 8.90227 5.41655 8.90227 5.02603 9.2928C4.6355 9.68332 4.6355 10.3165 5.02603 10.707L6.67741 12.3584L6.71824 12.3992C7.04473 12.7259 7.35883 13.0401 7.65107 13.261C7.97843 13.5086 8.40715 13.7414 8.95656 13.7164C9.50597 13.6915 9.91186 13.4209 10.2155 13.1447C10.4865 12.8982 10.7709 12.5568 11.0664 12.202L11.1034 12.1576L15.0347 7.44009Z" fill="#3FDFAE"/>
</svg>
