<svg width="24" height="22" viewBox="0 0 24 22" fill="none" xmlns="http://www.w3.org/2000/svg">
<path d="M23.8841 20.2137L12.7419 0.929035C12.5759 0.642445 12.2893 0.500488 12 0.500488C11.7107 0.500488 11.4215 0.642445 11.2581 0.929035L0.115851 20.2137C-0.213595 20.7868 0.198882 21.4993 0.857773 21.4993H23.1422C23.8011 21.4993 24.2136 20.7868 23.8841 20.2137ZM11.1429 8.42861C11.1429 8.31076 11.2393 8.21434 11.3572 8.21434H12.6428C12.7607 8.21434 12.8571 8.31076 12.8571 8.42861V13.3569C12.8571 13.4748 12.7607 13.5712 12.6428 13.5712H11.3572C11.2393 13.5712 11.1429 13.4748 11.1429 13.3569V8.42861ZM12 17.8566C11.6636 17.8498 11.3432 17.7113 11.1077 17.471C10.8722 17.2306 10.7403 16.9075 10.7403 16.571C10.7403 16.2345 10.8722 15.9114 11.1077 15.6711C11.3432 15.4307 11.6636 15.2922 12 15.2854C12.3364 15.2922 12.6568 15.4307 12.8923 15.6711C13.1278 15.9114 13.2597 16.2345 13.2597 16.571C13.2597 16.9075 13.1278 17.2306 12.8923 17.471C12.6568 17.7113 12.3364 17.8498 12 17.8566Z" fill="#FF6B00"/>
</svg>
