<svg width="12" height="12" viewBox="0 0 12 12" fill="none" xmlns="http://www.w3.org/2000/svg">
    <path
        d="M2.4694 11.2831L0.469402 9.28309C0.328506 9.14219 0.249351 8.9511 0.249351 8.75184C0.249351 8.55258 0.328506 8.36149 0.469402 8.22059C0.610298 8.07969 0.801394 8.00054 1.00065 8.00054C1.19991 8.00054 1.39101 8.07969 1.5319 8.22059L2.25003 8.93996L2.25003 0.752466C2.25003 0.553554 2.32905 0.362788 2.4697 0.222136C2.61035 0.0814836 2.80111 0.00246605 3.00003 0.00246606C3.19894 0.00246607 3.3897 0.0814836 3.53036 0.222136C3.67101 0.362788 3.75003 0.553554 3.75003 0.752466L3.75003 8.93996L4.4694 8.21996C4.6103 8.07907 4.80139 7.99991 5.00065 7.99991C5.19991 7.99991 5.39101 8.07907 5.5319 8.21996C5.6728 8.36086 5.75195 8.55196 5.75195 8.75121C5.75195 8.95047 5.6728 9.14157 5.5319 9.28246L3.5319 11.2825C3.46227 11.3524 3.3795 11.408 3.28836 11.4459C3.19722 11.4838 3.09949 11.5033 3.00078 11.5034C2.90207 11.5034 2.80432 11.484 2.71313 11.4462C2.62195 11.4084 2.53912 11.353 2.4694 11.2831ZM6.4694 2.22059C6.32851 2.36149 6.24935 2.55258 6.24935 2.75184C6.24935 2.9511 6.32851 3.14219 6.4694 3.28309C6.6103 3.42399 6.80139 3.50314 7.00065 3.50314C7.19991 3.50314 7.39101 3.42399 7.5319 3.28309L8.25003 2.56497L8.25003 10.7525C8.25003 10.9514 8.32904 11.1421 8.4697 11.2828C8.61035 11.4234 8.80111 11.5025 9.00003 11.5025C9.19894 11.5025 9.3897 11.4234 9.53036 11.2828C9.67101 11.1421 9.75003 10.9514 9.75003 10.7525L9.75003 2.56497L10.4694 3.28309C10.6103 3.42399 10.8014 3.50314 11.0007 3.50314C11.1999 3.50314 11.391 3.42399 11.5319 3.28309C11.6728 3.14219 11.752 2.9511 11.752 2.75184C11.752 2.55258 11.6728 2.36149 11.5319 2.22059L9.5319 0.220591C9.46222 0.150671 9.37943 0.0951936 9.28827 0.0573396C9.1971 0.0194855 9.09936 -1.15948e-07 9.00065 -1.20263e-07C8.90194 -1.24578e-07 8.8042 0.0194855 8.71304 0.0573395C8.62187 0.0951936 8.53908 0.150671 8.4694 0.220591L6.4694 2.22059Z"
        fill="#422C74" />
</svg>