<svg width="20" height="20" viewBox="0 0 20 20" fill="none" xmlns="http://www.w3.org/2000/svg">
    <path
        d="M10.0004 6.2499C9.25871 6.2499 8.53369 6.46984 7.917 6.88189C7.30032 7.29395 6.81967 7.87962 6.53584 8.56484C6.25202 9.25006 6.17775 10.0041 6.32245 10.7315C6.46714 11.4589 6.8243 12.1271 7.34874 12.6516C7.87319 13.176 8.54137 13.5332 9.2688 13.6778C9.99623 13.8225 10.7502 13.7483 11.4355 13.4645C12.1207 13.1806 12.7063 12.7 13.1184 12.0833C13.5305 11.4666 13.7504 10.7416 13.7504 9.9999C13.7494 9.00566 13.3539 8.05243 12.6509 7.3494C11.9479 6.64636 10.9946 6.25094 10.0004 6.2499ZM10.0004 12.4999C9.50594 12.4999 9.02259 12.3533 8.61147 12.0786C8.20034 11.8039 7.87991 11.4134 7.69069 10.9566C7.50147 10.4998 7.45197 9.99713 7.54843 9.51218C7.64489 9.02723 7.88299 8.58177 8.23263 8.23214C8.58226 7.88251 9.02771 7.6444 9.51267 7.54794C9.99762 7.45148 10.5003 7.50099 10.9571 7.69021C11.4139 7.87942 11.8044 8.19986 12.0791 8.61098C12.3538 9.0221 12.5004 9.50545 12.5004 9.9999C12.5004 10.6629 12.237 11.2988 11.7682 11.7677C11.2993 12.2365 10.6634 12.4999 10.0004 12.4999ZM18.5895 8.37569C18.572 8.28767 18.5359 8.20444 18.4835 8.13165C18.431 8.05885 18.3635 7.9982 18.2855 7.95381L15.9551 6.62568L15.9457 3.99912C15.9454 3.90866 15.9255 3.81935 15.8873 3.73734C15.8492 3.65533 15.7936 3.58258 15.7246 3.52412C14.8792 2.80904 13.9057 2.26105 12.8559 1.90928C12.7732 1.88129 12.6856 1.87094 12.5986 1.87888C12.5117 1.88682 12.4274 1.91287 12.3512 1.95537L10.0004 3.26943L7.64727 1.95303C7.57098 1.91029 7.48658 1.88404 7.39951 1.87596C7.31244 1.86789 7.22464 1.87817 7.1418 1.90615C6.0927 2.2605 5.12031 2.81058 4.27617 3.52725C4.20724 3.58562 4.15178 3.65824 4.11361 3.74011C4.07545 3.82197 4.05548 3.91114 4.05508 4.00147L4.04336 6.63037L1.71289 7.9585C1.63493 8.00288 1.56743 8.06354 1.51499 8.13633C1.46255 8.20913 1.4264 8.29236 1.40899 8.38037C1.1957 9.45216 1.1957 10.5555 1.40899 11.6272C1.4264 11.7153 1.46255 11.7985 1.51499 11.8713C1.56743 11.9441 1.63493 12.0047 1.71289 12.0491L4.04336 13.3772L4.05274 16.0038C4.05302 16.0943 4.07294 16.1836 4.11111 16.2656C4.14928 16.3476 4.2048 16.4204 4.27383 16.4788C5.1192 17.1939 6.0927 17.7419 7.14258 18.0937C7.22526 18.1216 7.31288 18.132 7.39981 18.1241C7.48673 18.1161 7.57103 18.0901 7.64727 18.0476L10.0004 16.7304L12.3535 18.0468C12.4466 18.0987 12.5516 18.1256 12.6582 18.1249C12.7265 18.1249 12.7943 18.1138 12.859 18.0921C13.908 17.7382 14.8804 17.1887 15.7246 16.4726C15.7935 16.4142 15.849 16.3416 15.8872 16.2597C15.9253 16.1778 15.9453 16.0887 15.9457 15.9983L15.9574 13.3694L18.2879 12.0413C18.3659 11.9969 18.4334 11.9363 18.4858 11.8635C18.5382 11.7907 18.5744 11.7074 18.5918 11.6194C18.8039 10.5485 18.8031 9.4463 18.5895 8.37569ZM17.4176 11.103L15.1855 12.3726C15.0878 12.4282 15.0068 12.5091 14.9512 12.6069C14.9059 12.6851 14.8582 12.7679 14.8098 12.846C14.7478 12.9445 14.7147 13.0585 14.7145 13.1749L14.7027 15.6944C14.1028 16.1656 13.4344 16.5423 12.7207 16.8116L10.4691 15.5569C10.3757 15.5052 10.2705 15.4783 10.1637 15.4788H10.1488C10.0543 15.4788 9.95899 15.4788 9.86446 15.4788C9.75265 15.476 9.64211 15.503 9.54414 15.5569L7.29102 16.8147C6.57579 16.5475 5.90557 16.1726 5.30352 15.703L5.29492 13.1874C5.29454 13.0708 5.26152 12.9566 5.19961 12.8577C5.15117 12.7796 5.10352 12.7015 5.05899 12.6187C5.00377 12.5193 4.92281 12.4368 4.82461 12.3796L2.59024 11.1069C2.47461 10.3755 2.47461 9.63052 2.59024 8.89912L4.81836 7.62725C4.91616 7.57164 4.99713 7.49067 5.05274 7.39287C5.09805 7.31475 5.14571 7.23194 5.19414 7.15381C5.25615 7.05529 5.28917 6.94131 5.28945 6.8249L5.30117 4.30537C5.90112 3.83424 6.5695 3.4575 7.28321 3.18818L9.53164 4.44287C9.6295 4.49711 9.74012 4.52409 9.85196 4.521C9.94649 4.521 10.0418 4.521 10.1363 4.521C10.2481 4.52379 10.3587 4.49683 10.4566 4.44287L12.7098 3.18506C13.425 3.45231 14.0952 3.8272 14.6973 4.29678L14.7059 6.8124C14.7062 6.92904 14.7393 7.04324 14.8012 7.14209C14.8496 7.22022 14.8973 7.29834 14.9418 7.38115C14.997 7.48046 15.078 7.56305 15.1762 7.62022L17.4105 8.89287C17.5277 9.62483 17.529 10.3707 17.4145 11.103H17.4176Z"
        fill="black" />
</svg>