<svg width="165" height="151" viewBox="0 0 165 151" fill="none" xmlns="http://www.w3.org/2000/svg">
    <path
        d="M79.3806 117.508C110.387 117.508 135.525 92.3044 135.525 61.1051C135.525 29.9059 110.277 4.70215 79.3806 4.70215C48.3739 4.70215 23.2363 29.9059 23.2363 61.1051C23.2363 92.3044 48.3739 117.508 79.3806 117.508Z"
        fill="#EAEEF9" />
    <path
        d="M131.87 24.1318C134.379 24.1318 136.411 22.0936 136.411 19.5795C136.411 17.0654 134.379 15.0273 131.87 15.0273C129.363 15.0273 127.33 17.0654 127.33 19.5795C127.33 22.0936 129.363 24.1318 131.87 24.1318Z"
        fill="#E7EBF6" />
    <path
        d="M138.515 6.36706C140.228 6.36706 141.615 4.97519 141.615 3.25824C141.615 1.54128 140.228 0.149414 138.515 0.149414C136.803 0.149414 135.414 1.54128 135.414 3.25824C135.414 4.97519 136.803 6.36706 138.515 6.36706Z"
        fill="#E7EBF6" />
    <path
        d="M26.2266 24.0214C27.9391 24.0214 29.3273 22.6295 29.3273 20.9125C29.3273 19.1956 27.9391 17.8037 26.2266 17.8037C24.5142 17.8037 23.126 19.1956 23.126 20.9125C23.126 22.6295 24.5142 24.0214 26.2266 24.0214Z"
        fill="#E7EBF6" />
    <path
        d="M12.2896 83.9767C15.4699 83.9767 18.048 81.3918 18.048 78.2032C18.048 75.0146 15.4699 72.4297 12.2896 72.4297C9.10937 72.4297 6.53125 75.0146 6.53125 78.2032C6.53125 81.3918 9.10937 83.9767 12.2896 83.9767Z"
        fill="#E7EBF6" />
    <g filter="url(#filter0_d_657_63628)">
        <path
            d="M95.659 31.1266L112.602 92.1928C113.155 94.3023 111.937 96.4119 109.833 96.967L50.1455 112.845C48.0415 113.4 45.9375 112.178 45.3838 110.069L24.565 31.2376C24.0113 29.1281 25.2294 27.0185 27.3335 26.4634L70.5214 15.0273L95.659 31.1266Z"
            fill="url(#paint0_linear_657_63628)" />
    </g>
    <path
        d="M94.7739 69.7644L62.5491 78.3137L59.0054 79.2019L48.2638 82.0887C47.8209 82.1997 47.4887 82.7549 47.7101 83.31C47.8209 83.8652 48.3746 84.1983 48.8175 84.0872L59.5591 81.2005L63.1028 80.3122L95.3276 71.763C95.7705 71.6519 96.1028 71.0968 95.8813 70.5416C95.7705 69.9865 95.2169 69.6534 94.7739 69.7644Z"
        fill="#D5DDEA" />
    <path
        d="M92.6696 62.2145L80.7099 65.3233L76.6126 66.4336L46.381 74.5388C45.9381 74.6498 45.6059 75.205 45.8273 75.7601C45.9381 76.3153 46.4918 76.6483 46.9347 76.5373L77.277 68.4322L81.3743 67.3219L93.334 64.213C93.777 64.102 94.1092 63.5469 93.8877 62.9917C93.6663 62.5476 93.1126 62.1035 92.6696 62.2145Z"
        fill="#D5DDEA" />
    <path
        d="M90.8973 54.5537L87.7967 55.3309L84.696 56.1082L44.2765 66.878C43.8336 66.989 43.5014 67.5442 43.7228 68.0993C43.8336 68.6545 44.3873 68.9876 44.8302 68.8765L85.2497 58.1067L88.6826 57.2184L91.451 56.4412C91.894 56.3302 92.2262 55.7751 92.0047 55.2199C91.894 54.7758 91.451 54.4427 90.8973 54.5537Z"
        fill="#D5DDEA" />
    <path
        d="M72.1824 93.8587L69.9676 94.4138C69.5247 94.5248 68.971 94.1918 68.8603 93.6366C68.7495 93.0815 68.971 92.5263 69.4139 92.4153L71.6287 91.8601C72.0717 91.7491 72.6253 92.0822 72.7361 92.6373C72.8468 93.3035 72.6253 93.7476 72.1824 93.8587Z"
        fill="#CED7E2" />
    <path
        d="M65.4281 95.635L52.6932 98.9659C52.2503 99.0769 51.6966 98.7439 51.5858 98.1887C51.4751 97.6336 51.6966 97.0784 52.1395 96.9674L64.8744 93.6365C65.3174 93.5255 65.8711 93.8586 65.9818 94.4137C66.2033 94.9689 65.9818 95.524 65.4281 95.635Z"
        fill="#D5DDEA" />
    <path
        d="M89.3477 46.8932L79.2705 49.5579L76.8343 50.2241L42.3947 59.3285C41.9517 59.4396 41.6195 59.9947 41.841 60.5499C41.9517 61.105 42.5054 61.4381 42.9484 61.3271L77.2772 52.3337L79.7135 51.6675L89.6799 49.0028C90.2336 48.8918 90.4551 48.3366 90.3444 47.6704C90.3444 47.2263 89.7907 46.7822 89.3477 46.8932Z"
        fill="#D5DDEA" />
    <path
        d="M65.5388 30.1274L36.9683 37.6774C36.3039 37.8994 35.6394 37.4553 35.418 36.7891C35.1965 36.123 35.6394 35.4568 36.3039 35.2347L64.8743 27.6847C65.5388 27.4627 66.2032 27.9068 66.4247 28.573C66.6462 29.2391 66.2032 29.9053 65.5388 30.1274Z"
        fill="#D5DDEA" />
    <path
        d="M49.8142 41.6742L38.8511 44.561C38.1867 44.7831 37.5223 44.3389 37.3008 43.6728C37.0793 43.0066 37.5223 42.3404 38.1867 42.1184L49.039 39.2316C49.7035 39.0095 50.3679 39.4537 50.5894 40.1198C50.8108 40.786 50.3679 41.4522 49.8142 41.6742Z"
        fill="#D5DDEA" />
    <path d="M70.5215 15.0273L74.9511 31.9038C75.6156 34.2354 78.1625 35.6788 80.488 35.0126L95.6592 31.1266"
        fill="#D5DDEA" />
    <g filter="url(#filter1_d_657_63628)">
        <path
            d="M140.397 48.3368L130.209 110.957C129.877 113.067 127.773 114.511 125.669 114.066L64.9847 103.407C62.8806 103.074 61.441 100.965 61.7733 98.8552L75.837 18.5809C76.1692 16.4714 78.2733 15.028 80.3773 15.4721L124.451 23.2441L140.397 48.3368Z"
            fill="url(#paint1_linear_657_63628)" />
    </g>
    <path
        d="M123.454 83.0885L90.6762 77.3149L87.1326 76.6488L76.1695 74.7613C75.7265 74.6502 75.1728 75.0944 75.1728 75.6495C75.0621 76.2047 75.3943 76.7598 75.8373 76.8708L86.8003 78.7583L90.344 79.4245L123.122 85.198C123.565 85.3091 124.119 84.8649 124.119 84.3098C124.23 83.7546 124.008 83.1995 123.454 83.0885Z"
        fill="#CED7E2" />
    <path
        d="M124.783 75.4273L112.602 73.3178L108.505 72.5406L77.6089 67.1001C77.166 66.9891 76.6123 67.4332 76.6123 67.9884C76.5015 68.5435 76.8338 69.0987 77.2767 69.2097L108.173 74.6501L112.27 75.4273L124.451 77.5369C124.894 77.6479 125.448 77.2038 125.448 76.6487C125.558 76.0935 125.226 75.5384 124.783 75.4273Z"
        fill="#CED7E2" />
    <path
        d="M126.334 67.6559L123.122 67.1007L119.911 66.5456L78.7164 59.3287C78.2734 59.2176 77.7197 59.6617 77.7197 60.2169C77.609 60.772 77.9412 61.3272 78.3841 61.4382L119.579 68.6551L123.122 69.3213L125.891 69.7654C126.334 69.8764 126.887 69.4323 126.887 68.8772C127.109 68.322 126.887 67.7669 126.334 67.6559Z"
        fill="#D5DDEA" />
    <path
        d="M92.8909 95.5242L90.6761 95.1911C90.2332 95.0801 89.901 94.525 90.0117 93.9698C90.1224 93.4147 90.5654 92.9706 91.0083 93.0816L93.2231 93.4147C93.6661 93.5257 93.9983 94.0808 93.8875 94.636C93.7768 95.3022 93.3338 95.5242 92.8909 95.5242Z"
        fill="#CED7E2" />
    <path
        d="M86.1355 94.3024L73.1791 92.0818C72.7361 91.9707 72.4039 91.4156 72.5146 90.8604C72.6254 90.3053 73.0684 89.8612 73.5114 89.9722L86.4676 92.1928C86.9106 92.3038 87.2429 92.859 87.1322 93.4141C87.0214 94.0803 86.5785 94.4134 86.1355 94.3024Z"
        fill="#E3EAF2" />
    <path
        d="M128.105 60.1058L117.807 58.3293L115.26 57.8852L80.1559 51.6675C79.713 51.5565 79.1592 52.0006 79.1592 52.5558C79.0484 53.1109 79.3806 53.666 79.8236 53.7771L114.927 59.9947L117.474 60.4388L127.662 62.2153C128.216 62.3263 128.659 61.8822 128.77 61.3271C128.88 60.7719 128.548 60.2168 128.105 60.1058Z"
        fill="#D5DDEA" />
    <path
        d="M113.598 34.902L84.4745 29.7946C83.8101 29.6836 83.3672 29.0174 83.4779 28.3512C83.5886 27.6851 84.2531 27.2409 84.9175 27.352L114.041 32.4593C114.706 32.5703 115.149 33.2365 115.038 33.9027C114.927 34.4578 114.263 35.013 113.598 34.902Z"
        fill="#D5DDEA" />
    <path
        d="M94.4413 38.6769L83.2568 36.6784C82.5923 36.5674 82.1494 35.9012 82.2601 35.235C82.3709 34.5688 83.0353 34.1247 83.6997 34.2358L94.7735 36.2343C95.438 36.3453 95.8809 37.0115 95.7702 37.6777C95.6594 38.3438 94.995 38.788 94.4413 38.6769Z"
        fill="#D5DDEA" />
    <path d="M124.34 23.2441L121.35 40.4537C120.907 42.8963 122.679 45.228 125.115 45.6721L140.397 48.3368"
        fill="#D5DDEA" />
    <path
        d="M98.6497 105.073C112.288 105.073 123.344 93.9875 123.344 80.3133C123.344 66.6389 112.288 55.5537 98.6497 55.5537C85.0113 55.5537 73.9551 66.6389 73.9551 80.3133C73.9551 93.9875 85.0113 105.073 98.6497 105.073Z"
        fill="white" />
    <path
        d="M96.3238 84.3102C96.2131 83.8661 96.2131 83.422 96.2131 82.8668C96.2131 80.9793 96.9882 79.3139 98.9815 77.8705L100.643 76.6492C101.639 75.872 102.082 74.9838 102.082 73.8735C102.082 72.319 100.975 70.7646 98.6493 70.7646C96.2131 70.7646 95.1057 72.7632 95.1057 74.6507C95.1057 75.0948 95.1057 75.4279 95.2164 75.761L90.7869 75.6499C90.6762 75.2058 90.5654 74.6507 90.5654 74.0955C90.5654 70.3205 93.3339 66.7676 98.5386 66.7676C103.854 66.7676 106.733 70.2095 106.733 73.6514C106.733 76.4271 105.294 78.3146 103.3 79.758L101.861 80.7573C100.643 81.6455 99.9782 82.7558 99.9782 84.0882V84.3102H96.3238ZM98.2064 86.5308C99.7567 86.5308 100.975 87.7521 100.975 89.3065C100.975 90.861 99.7567 92.0823 98.2064 92.0823C96.656 92.0823 95.4379 90.861 95.4379 89.3065C95.5486 87.8632 96.656 86.5308 98.2064 86.5308Z"
        fill="#989FB0" />
    <path
        d="M135.613 118.755C134.654 118.755 133.697 118.371 132.929 117.506L116.922 101.456L116.346 101.841C111.17 105.685 105.132 107.703 98.997 107.703C91.6163 107.703 84.2355 104.724 78.7717 99.5342C73.0205 94.0561 69.8574 86.656 69.8574 78.583C69.8574 62.5333 82.8935 49.4629 98.9011 49.4629C109.829 49.4629 119.414 55.2293 124.589 65.0321C129.67 74.7387 128.999 86.0793 122.769 95.2093L122.386 95.786L138.489 111.932C140.118 113.565 139.735 115.2 139.447 116.065C138.681 117.602 137.147 118.755 135.613 118.755ZM98.9011 57.4397C87.2069 57.4397 77.8133 66.9542 77.8133 78.583C77.8133 91.8456 88.6447 99.8224 99.1887 99.8224C105.611 99.8224 111.458 96.9393 115.58 91.7495C120.66 85.4066 121.523 76.8531 117.976 69.453C114.334 62.0527 107.049 57.4397 98.9011 57.4397Z"
        fill="#989FB0" />
    <defs>
        <filter id="filter0_d_657_63628" x="2.43164" y="4.02734" width="132.304" height="141.951"
            filterUnits="userSpaceOnUse" color-interpolation-filters="sRGB">
            <feFlood flood-opacity="0" result="BackgroundImageFix" />
            <feColorMatrix in="SourceAlpha" type="matrix" values="0 0 0 0 0 0 0 0 0 0 0 0 0 0 0 0 0 0 127 0"
                result="hardAlpha" />
            <feOffset dy="11" />
            <feGaussianBlur stdDeviation="11" />
            <feColorMatrix type="matrix" values="0 0 0 0 0.397708 0 0 0 0 0.47749 0 0 0 0 0.575 0 0 0 0.27 0" />
            <feBlend mode="normal" in2="BackgroundImageFix" result="effect1_dropShadow_657_63628" />
            <feBlend mode="normal" in="SourceGraphic" in2="effect1_dropShadow_657_63628" result="shape" />
        </filter>
        <filter id="filter1_d_657_63628" x="39.7256" y="4.3916" width="122.672" height="142.755"
            filterUnits="userSpaceOnUse" color-interpolation-filters="sRGB">
            <feFlood flood-opacity="0" result="BackgroundImageFix" />
            <feColorMatrix in="SourceAlpha" type="matrix" values="0 0 0 0 0 0 0 0 0 0 0 0 0 0 0 0 0 0 127 0"
                result="hardAlpha" />
            <feOffset dy="11" />
            <feGaussianBlur stdDeviation="11" />
            <feColorMatrix type="matrix" values="0 0 0 0 0.397708 0 0 0 0 0.47749 0 0 0 0 0.575 0 0 0 0.27 0" />
            <feBlend mode="normal" in2="BackgroundImageFix" result="effect1_dropShadow_657_63628" />
            <feBlend mode="normal" in="SourceGraphic" in2="effect1_dropShadow_657_63628" result="shape" />
        </filter>
        <linearGradient id="paint0_linear_657_63628" x1="68.5547" y1="12.7616" x2="68.5547" y2="114.034"
            gradientUnits="userSpaceOnUse">
            <stop stop-color="#FDFEFF" />
            <stop offset="0.9964" stop-color="#ECF0F5" />
        </linearGradient>
        <linearGradient id="paint1_linear_657_63628" x1="101.036" y1="13.1073" x2="101.036" y2="115.211"
            gradientUnits="userSpaceOnUse">
            <stop stop-color="#FDFEFF" />
            <stop offset="0.9964" stop-color="#ECF0F5" />
        </linearGradient>
    </defs>
</svg>