<svg width="721" height="140" viewBox="0 0 721 140" fill="none" xmlns="http://www.w3.org/2000/svg">
<g opacity="0.5">
<path d="M163.533 135.587C145.842 135.587 130.241 120.377 110.592 101.185C86.3084 77.4888 56.0845 48.0483 7.77841 32.055C2.42557 30.2925 -0.185586 27.8119 0.0102499 24.6133C0.793592 13.4507 40.0912 -1.49812 74.8847 -7.89541C208.64 -32.5054 321.898 -70.7586 396.903 -96.1519C454.544 -115.67 489.403 -127.42 501.218 -123.112C503.568 -122.263 504.221 -120.762 504.352 -119.717C505.396 -111.101 477.718 -92.0394 432.089 -61.5543C416.095 -50.9139 399.515 -39.8819 386.002 -30.0248C370.009 -18.4705 344.942 2.6797 318.373 25.0702C257.077 76.7055 187.686 135.195 163.99 135.456C163.729 135.587 163.663 135.587 163.533 135.587ZM494.886 -121.937C479.546 -121.937 445.601 -110.448 397.426 -94.1936C322.421 -68.8002 209.032 -30.4818 75.1458 -5.8718C38.1329 0.917168 2.49085 15.8659 1.90334 24.8091C1.77278 26.9633 3.92697 28.7911 8.30063 30.2272C57.0636 46.351 87.4834 75.9874 111.898 99.8141C131.285 118.68 146.56 133.628 163.468 133.628C163.598 133.628 163.663 133.628 163.794 133.628C186.772 133.367 258.97 72.5277 316.937 23.6994C344.681 0.329659 368.638 -19.9067 384.696 -31.461C398.274 -41.318 414.855 -52.3501 430.848 -63.0557C464.793 -85.6421 503.242 -111.297 502.263 -119.326C502.198 -119.848 501.936 -120.566 500.37 -121.154C499.064 -121.676 497.171 -121.937 494.886 -121.937Z" fill="url(#paint0_linear_826_26798)"/>
<path d="M170.778 123.38C154.263 123.38 139.967 109.28 121.884 91.3933C100.081 69.8514 72.8604 43.0219 29.646 28.3343C24.8154 26.7023 22.4654 24.4175 22.6612 21.5453C23.3793 11.2966 59.413 -2.41191 91.2689 -8.35226C213.34 -30.9386 317.067 -66.1237 385.74 -89.3629C436.984 -106.727 470.798 -118.151 482.026 -114.365C483.984 -113.777 485.159 -112.667 485.42 -111.166C486.726 -102.549 454.805 -80.8767 417.792 -55.8097C403.953 -46.4096 389.657 -36.7484 377.776 -28.1316C363.741 -17.9482 342.983 -0.649391 318.895 19.3911C263.212 65.6736 194.017 123.249 171.039 123.314C170.974 123.38 170.909 123.38 170.778 123.38ZM476.412 -113.189C462.181 -113.189 430.913 -102.614 386.328 -87.535C317.655 -64.2959 213.797 -29.1108 91.5953 -6.45916C57.7158 -0.192429 25.0765 13.516 24.5543 21.6758C24.4237 23.5689 26.3168 25.2009 30.2335 26.5717C73.9048 41.39 101.256 68.35 123.19 90.0224C141.076 107.648 155.177 121.552 170.974 121.421C193.234 121.356 262.168 63.9763 317.589 17.8897C341.677 -2.15079 362.501 -19.4496 376.601 -29.6983C388.482 -38.3151 402.778 -48.0416 416.682 -57.4417C448.538 -78.9836 484.637 -103.463 483.462 -110.905C483.397 -111.166 483.266 -112.08 481.373 -112.602C480.133 -112.994 478.436 -113.189 476.412 -113.189Z" fill="url(#paint1_linear_826_26798)"/>
<path d="M178.286 111.107C178.221 111.107 178.155 111.107 178.09 111.107C162.75 111.107 149.694 98.0515 133.244 81.536C113.856 62.0831 89.7029 37.93 51.5803 24.6132C47.2719 23.1118 45.183 21.0229 45.3788 18.4117C46.0969 9.07692 78.8014 -3.45657 107.785 -8.93996C218.236 -29.568 312.433 -61.5544 374.709 -82.7046C421.448 -98.5673 452.325 -109.012 462.9 -105.813C465.054 -105.291 466.229 -104.312 466.556 -102.745C468.122 -94.6506 438.094 -73.9573 403.431 -50.0654C391.812 -42.0361 379.735 -33.7458 369.682 -26.3693C357.671 -17.5567 340.111 -3.19542 319.81 13.4506C266.673 56.9913 200.611 111.107 178.286 111.107ZM178.221 109.279C178.286 109.279 178.286 109.279 178.351 109.279C200.024 109.279 268.566 53.1399 318.635 12.0797C339.001 -4.56629 356.561 -18.9928 368.573 -27.8054C378.691 -35.1819 390.702 -43.5375 402.387 -51.5668C418.119 -62.403 434.439 -73.6309 446.254 -82.9005C462.247 -95.3687 465.12 -100.395 464.728 -102.419C464.663 -102.68 464.532 -103.528 462.443 -103.985H462.378C452.455 -107.054 421.775 -96.6742 375.296 -80.8768C312.89 -59.7266 218.628 -27.7401 108.111 -7.04687C77.3653 -1.30236 47.7941 11.1658 47.2066 18.6076C47.076 20.3048 48.7733 21.741 52.1678 22.916C90.7474 36.3633 115.031 60.7122 134.549 80.2957C150.738 96.4848 163.533 109.345 178.09 109.345C178.155 109.279 178.155 109.279 178.221 109.279Z" fill="url(#paint2_linear_826_26798)"/>
<path d="M185.596 98.9002C185.531 98.9002 185.466 98.9002 185.335 98.9002C171.17 98.9002 159.42 86.889 144.536 71.7444C127.629 54.4456 106.544 32.969 73.448 20.9577C69.6618 19.5869 67.834 17.6938 68.0298 15.3438C68.6826 6.92284 98.1885 -4.43559 124.169 -9.39676C222.936 -28.0664 307.602 -56.8542 363.611 -75.8503C405.846 -90.2115 433.785 -99.7422 443.707 -97.0658C445.992 -96.6741 447.298 -95.6949 447.624 -94.1935C449.256 -87.1434 425.364 -69.7141 388.743 -43.9291C379.343 -37.336 369.682 -30.4817 361.391 -24.4108C351.469 -17.0996 337.304 -5.67588 320.853 7.57565C273.07 46.09 207.465 98.9002 185.596 98.9002ZM439.53 -95.8255C427.649 -95.8255 401.538 -86.9476 364.198 -74.2836C308.124 -55.2223 223.393 -26.4344 124.561 -7.76479C96.9482 -2.54252 70.3799 8.75064 69.8576 15.3438C69.7271 16.7799 71.1632 18.0855 74.1007 19.1299C107.589 31.2717 128.804 52.9442 145.842 70.3735C160.399 85.257 171.953 97.0072 185.335 97.0072C185.401 97.0072 185.466 97.0072 185.596 97.0072C206.812 97.0072 272.09 44.3927 319.809 5.94369C336.259 -7.30785 350.425 -18.7316 360.347 -26.0428C368.637 -32.1137 378.298 -38.9679 387.699 -45.5611C414.267 -64.2307 447.363 -87.5351 445.862 -93.9324C445.666 -94.6505 444.817 -95.1727 443.316 -95.4338H443.251C442.271 -95.6949 441.031 -95.8255 439.53 -95.8255Z" fill="url(#paint3_linear_826_26798)"/>
<path d="M192.907 86.6928C192.777 86.6928 192.646 86.6928 192.516 86.6928C179.591 86.6276 169.146 75.6608 155.895 61.887C141.403 46.7424 123.386 27.877 95.3814 17.2366C92.1174 15.9963 90.616 14.3643 90.7466 12.2101C91.1383 7.70589 99.8856 3.07111 107.131 0.00302124C116.662 -4.04424 128.869 -7.69984 140.685 -9.98458C227.766 -26.6959 302.902 -52.285 352.579 -69.1922C390.375 -82.052 415.376 -90.6035 424.646 -88.4493C427.127 -88.1882 428.563 -87.2743 428.954 -85.8382C430.717 -79.1798 408.326 -62.4685 373.925 -37.6627C366.548 -32.3751 359.629 -27.3487 353.297 -22.6486C345.659 -16.9694 335.019 -8.61372 322.812 1.11277C277.051 37.2118 214.515 86.6928 192.907 86.6928ZM421.252 -87.0785C410.35 -87.0785 385.871 -78.7228 353.166 -67.5602C303.424 -50.5878 228.288 -24.9986 141.076 -8.28735C116.597 -3.5873 93.0314 6.46561 92.5744 12.3407C92.4439 13.581 93.6188 14.6907 96.0994 15.6046C124.496 26.4408 142.643 45.4368 157.265 60.712C170.191 74.2247 180.439 84.9303 192.646 84.9956C192.777 84.9956 192.907 84.9956 193.038 84.9956C213.992 84.9956 278.814 33.752 321.832 -0.258064C334.105 -9.98456 344.68 -18.3402 352.383 -24.0195C358.715 -28.7195 365.634 -33.7459 373.011 -39.0335C386.654 -48.8253 400.689 -59.0087 411.199 -67.4949C425.429 -79.0492 427.845 -83.6187 427.388 -85.3159C427.127 -86.2298 425.691 -86.5562 424.516 -86.6868H424.385C423.406 -87.0132 422.427 -87.0785 421.252 -87.0785Z" fill="url(#paint4_linear_826_26798)"/>
<path d="M200.285 74.4206C200.089 74.4206 199.893 74.4206 199.697 74.4206C187.947 74.2248 178.808 64.3678 167.254 51.8996C155.243 38.9091 140.229 22.7201 117.316 13.3853C114.574 12.3408 113.334 10.8394 113.464 9.0116C114.052 2.35319 136.573 -6.52468 157.136 -10.5719C232.532 -25.2596 295.526 -46.8015 341.417 -62.5336C374.774 -73.9573 396.838 -81.4644 405.39 -79.8977C408.066 -79.7671 409.698 -78.9838 410.155 -77.4824C412.113 -71.1504 389.984 -54.178 358.454 -30.8735C353.754 -27.3485 349.25 -24.0846 345.072 -20.9512C339.981 -17.0998 333.388 -12.0081 325.75 -6.06772C286.909 24.1562 221.957 74.4206 200.285 74.4206ZM402.844 -78.3963C393.117 -78.3963 371.314 -70.9545 342.07 -60.9016C298.659 -46.0834 233.055 -23.6276 157.527 -8.87469C136.247 -4.69686 115.619 4.11574 115.162 9.20747C115.096 10.2519 116.01 11.1005 117.969 11.8839C141.273 21.3492 156.418 37.6688 168.559 50.7898C179.853 62.9969 188.73 72.5928 199.763 72.7234C199.958 72.7234 200.154 72.7234 200.35 72.7234C221.435 72.7234 286.061 22.6548 324.836 -7.37328C332.474 -13.3136 339.067 -18.4053 344.224 -22.2568C348.402 -25.3901 352.906 -28.7193 357.606 -32.1791C370.27 -41.5139 383.326 -51.1751 393.313 -59.5308C406.956 -70.9545 409.241 -75.2629 408.719 -76.9601C408.458 -77.874 406.761 -78.1352 405.455 -78.2004H405.324C404.541 -78.331 403.758 -78.3963 402.844 -78.3963Z" fill="url(#paint5_linear_826_26798)"/>
<path d="M207.661 62.2139C207.4 62.2139 207.074 62.2139 206.812 62.2139C196.237 61.9528 188.077 52.6832 178.612 41.9775C168.559 30.5538 157.135 17.694 139.184 9.72999C136.442 8.55498 136.051 6.9883 136.116 5.94385C136.703 0.199341 155.96 -7.50355 173.586 -11.0939C237.297 -23.8232 291.087 -42.297 330.319 -55.8096C359.238 -65.732 378.364 -72.3251 386.328 -71.2806C389.331 -71.3459 391.094 -70.6278 391.616 -69.1264C393.77 -62.925 371.51 -45.365 342.135 -23.1051C340.372 -21.7342 338.61 -20.4287 336.978 -19.1884C335.28 -17.8828 333.453 -16.512 331.429 -14.9453C298.529 10.2522 230.443 62.2139 207.661 62.2139ZM384.5 -69.7139C375.949 -69.7139 356.757 -63.1208 330.907 -54.2429C291.609 -40.7303 237.82 -22.2565 173.977 -9.4619C155.83 -5.74103 138.27 1.76601 137.813 6.13967C137.748 6.92301 138.401 7.64107 139.902 8.29385C158.18 16.3884 170.191 30.0316 179.852 40.9984C189.448 51.8346 197.021 60.4514 206.878 60.6472C207.139 60.6472 207.4 60.6472 207.661 60.6472C229.856 60.6472 300.161 6.98827 330.385 -16.1203C332.408 -17.687 334.301 -19.1231 335.933 -20.3634C337.63 -21.6037 339.328 -22.9745 341.09 -24.2801C352.318 -32.8316 365.113 -42.4928 374.839 -50.8485C389.07 -63.0555 390.441 -67.1028 389.984 -68.4084C389.723 -69.1917 388.352 -69.5834 386.198 -69.5181H386.132H386.067C385.675 -69.7139 385.088 -69.7139 384.5 -69.7139Z" fill="url(#paint6_linear_826_26798)"/>
<path d="M215.168 50.0067C214.776 50.0067 214.385 50.0067 213.993 49.9414C204.528 49.615 197.804 41.3899 189.971 31.8592C182.529 22.7855 174.043 12.4715 161.118 5.9437C159.029 4.96452 158.768 3.65894 158.833 2.74504C159.42 -2.21613 175.544 -8.6134 190.101 -11.6815C242.128 -22.4524 286.648 -37.8582 319.222 -49.0861C343.767 -57.5723 359.956 -63.1862 367.267 -62.664C370.662 -62.9904 372.62 -62.3376 373.273 -60.7057C375.231 -55.8098 362.371 -43.211 328.883 -17.3607C314.783 -6.45922 292.066 10.1215 270.655 23.83C243.434 41.1941 224.829 50.0067 215.168 50.0067ZM366.157 -61.0973C358.716 -61.0973 342.2 -55.3528 319.679 -47.5847C287.105 -36.2915 242.52 -20.8858 190.428 -10.1148C175.414 -6.91618 160.856 -0.584171 160.399 2.94086C160.399 3.1367 160.269 3.78951 161.77 4.50757C175.022 11.2313 183.639 21.6758 191.146 30.8801C198.718 40.0843 205.246 48.0483 213.993 48.3747H214.058C214.385 48.3747 214.777 48.44 215.103 48.44C235.731 48.44 297.484 4.89925 327.839 -18.5357C337.108 -25.7164 348.859 -34.9859 357.932 -43.0805C371.119 -54.8959 372.228 -58.8126 371.706 -60.0529C371.38 -60.9015 369.813 -61.2279 367.267 -60.9668H367.202H367.137C366.875 -61.0973 366.549 -61.0973 366.157 -61.0973Z" fill="url(#paint7_linear_826_26798)"/>
<path d="M222.74 37.7998C222.218 37.7998 221.631 37.7997 221.174 37.7345C212.753 37.2775 207.531 30.0316 201.46 21.6107C196.629 14.887 191.08 7.24942 183.051 2.15769C181.615 1.30907 181.484 0.329918 181.55 -0.388145C182.268 -4.82708 196.629 -9.98411 206.617 -12.2036C246.894 -20.9509 282.209 -33.2885 307.994 -42.2969C327.382 -49.0859 341.482 -53.9818 348.14 -53.9818C348.14 -53.9818 348.14 -53.9818 348.206 -53.9818C352.122 -54.5693 354.407 -54.0471 355.125 -52.3498C355.843 -50.6526 355.582 -47.0623 344.615 -36.2261C336.521 -28.2621 326.272 -19.8411 320.854 -15.5328C301.597 -0.453434 243.891 37.7998 222.74 37.7998ZM348.01 -52.4804C341.613 -52.4804 327.643 -47.5845 308.386 -40.8608C282.601 -31.8524 247.22 -19.5147 206.878 -10.7021C193.692 -7.76461 183.378 -2.67292 182.986 -0.127056C182.986 0.00350189 182.921 0.395199 183.769 0.917423C192.125 6.20498 197.739 13.9078 202.635 20.7621C208.445 28.8566 213.536 35.8414 221.239 36.2331H221.304C221.761 36.2983 222.218 36.2984 222.74 36.2984C242.585 36.2984 299.182 -0.388145 319.744 -16.7078C341.613 -34.0066 355.19 -48.1067 353.624 -51.697C353.232 -52.6762 351.339 -52.9373 348.271 -52.4151H348.206H348.14C348.075 -52.4804 348.075 -52.4804 348.01 -52.4804Z" fill="url(#paint8_linear_826_26798)"/>
<path d="M230.574 25.5925C229.791 25.5925 229.008 25.5273 228.29 25.462C220.587 24.8092 216.931 18.0202 213.08 10.7743C210.73 6.33539 208.249 1.76589 204.789 -1.62859C204.202 -2.15081 203.941 -2.80358 204.137 -3.52164C204.985 -7.04668 216.148 -11.0287 223.002 -12.7259C251.463 -19.4496 277.444 -28.6539 296.375 -35.3776C311.781 -40.8609 322.878 -44.7777 328.949 -45.2999C333.584 -46.2791 336.26 -45.8221 337.174 -43.9943C339.916 -38.2498 322.291 -21.6691 312.564 -13.7051C304.013 -6.72031 286.91 3.78953 271.047 11.7535C260.341 17.0411 241.606 25.5925 230.574 25.5925ZM333.062 -44.386C332.017 -44.386 330.712 -44.1901 329.21 -43.8638H329.145C323.335 -43.4068 311.65 -39.229 296.897 -34.0067C277.901 -27.283 251.92 -18.0135 223.394 -11.2898C213.471 -8.87449 206.03 -5.02304 205.573 -3.19525C205.573 -3.06469 205.507 -2.93414 205.769 -2.67303C209.424 0.91729 211.97 5.61732 214.385 10.1215C218.237 17.3022 221.566 23.5036 228.42 24.0911H228.485C229.138 24.1564 229.922 24.2217 230.64 24.2217C249.636 24.2217 296.963 -2.80361 311.65 -14.8149C324.771 -25.5205 337.696 -39.4901 335.869 -43.3415C335.542 -44.0596 334.563 -44.386 333.062 -44.386Z" fill="url(#paint9_linear_826_26798)"/>
<path d="M239.125 13.5162C237.754 13.5162 236.579 13.4509 235.469 13.255C227.31 12.2106 226.983 3.9202 226.722 -2.7382C226.657 -3.78266 226.657 -4.8271 226.592 -5.741C226.004 -9.26604 238.995 -13.1175 239.517 -13.3133C255.771 -17.8828 271.373 -23.562 283.906 -28.1968C295.265 -32.3746 304.208 -35.6385 309.887 -36.7483C315.436 -38.315 318.765 -37.9886 319.94 -35.7691C322.551 -30.8732 312.237 -18.7314 304.469 -12.0077C292.784 -1.95483 256.685 13.5162 239.125 13.5162ZM315.501 -36.2261C314.13 -36.2261 312.302 -35.8997 310.148 -35.3121C304.534 -34.2024 295.591 -30.9385 284.363 -26.8259C271.83 -22.2564 256.163 -16.5119 239.843 -11.9425C231.814 -9.59243 227.701 -6.78547 227.897 -6.00213V-5.87156C227.962 -4.89239 228.028 -3.84792 228.028 -2.80347C228.289 3.6591 228.55 10.9703 235.6 11.8842C242.454 13.0592 255.249 10.3175 270.655 4.37716C284.559 -1.04095 297.419 -7.8299 303.424 -12.9869C312.106 -20.4939 320.462 -31.526 318.569 -34.9858C318.243 -35.8344 317.133 -36.2261 315.501 -36.2261Z" fill="url(#paint10_linear_826_26798)"/>
<path d="M251.464 1.76569C248.135 1.76569 245.067 1.50457 242.521 0.98234C240.432 0.525391 239.322 -0.323231 239.192 -1.6288C239.127 -2.67326 238.931 -5.87189 257.535 -14.7498C267.131 -19.3193 279.795 -24.4763 290.631 -28.1318C297.551 -30.4819 301.924 -30.2208 303.556 -27.4138C304.993 -24.9985 303.883 -21.5387 302.708 -19.0582C301.206 -15.9901 298.856 -12.7261 296.18 -10.1803C289.456 -3.7177 267.131 1.76569 251.464 1.76569ZM290.892 -27.4138L291.088 -26.761C262.431 -17.0345 240.367 -5.2844 240.563 -1.6288C240.628 -0.910736 241.999 -0.453787 242.782 -0.323231C256.752 2.74486 287.172 -3.52186 295.266 -11.1594C300.227 -15.8595 304.34 -23.4318 302.381 -26.6957C301.076 -28.8499 297.094 -28.8499 291.023 -26.8263L290.892 -27.4138Z" fill="url(#paint11_linear_826_26798)"/>
</g>
<g opacity="0.5">
<path d="M493.934 519.661C492.432 519.661 490.931 519.661 489.495 519.596C437.664 517.376 396.604 476.903 367.489 399.287C326.821 290.99 285.173 256.589 257.56 233.872C234.844 215.137 222.375 204.823 231.123 167.353C238.956 133.8 254.753 106.056 282.301 77.5296C308.673 50.2432 345.752 22.1082 392.687 -13.5339C434.922 -45.6509 487.536 -85.536 550.073 -138.281C595.507 -176.534 643.095 -215.44 683.698 -240.442C724.171 -265.378 753.612 -274.191 776.459 -268.185C795.716 -263.159 810.012 -247.492 820.196 -220.271C831.685 -189.59 846.438 -165.959 859.428 -145.135C878.946 -113.932 895.788 -86.9069 897.812 -46.1731C899.966 -1.78375 883.646 55.2696 846.372 133.343C820.522 187.589 792.452 238.702 762.946 285.246C732.853 332.768 702.042 374.416 671.361 409.014C606.8 481.473 545.634 519.661 493.934 519.661ZM761.837 -268.055C741.731 -268.055 716.729 -258.524 684.678 -238.745C644.205 -213.808 596.617 -174.968 551.314 -136.78C488.777 -84.0346 436.162 -44.0842 393.862 -12.0325C346.992 23.5443 309.979 51.6793 283.737 78.8351C256.385 107.101 240.784 134.518 233.016 167.744C224.53 204.039 236.019 213.505 258.801 232.305C286.544 255.218 328.518 289.815 369.317 398.569C398.17 475.402 438.643 515.418 489.56 517.637C490.996 517.702 492.498 517.702 493.934 517.702C545.047 517.702 605.756 479.776 669.794 407.643C700.41 373.176 731.156 331.594 761.249 284.136C790.69 237.592 818.694 186.61 844.544 132.429C881.688 54.6821 897.942 -2.04483 895.788 -46.1078C893.83 -86.3194 877.119 -113.149 857.731 -144.156C844.675 -165.111 829.857 -188.807 818.303 -219.683C808.38 -246.252 794.541 -261.527 775.937 -266.357C771.498 -267.467 766.798 -268.055 761.837 -268.055Z" fill="url(#paint12_linear_826_26798)"/>
<path d="M512.343 486.63C511.494 486.63 510.646 486.63 509.732 486.63C485.644 486.042 463.515 476.969 444.127 459.67C423.63 441.392 405.808 413.714 391.317 377.354C351.888 280.676 310.828 246.275 283.672 223.492C259.585 203.321 246.333 192.224 254.428 155.733C261.608 124.204 276.427 98.2883 302.473 71.7199C327.344 46.3266 362.398 20.2152 406.788 -12.8157C445.563 -41.6688 493.739 -77.572 550.661 -124.442C621.358 -183.193 652.626 -204.212 673.907 -217.072C711.377 -239.658 738.794 -247.622 760.271 -242.139C778.418 -237.504 791.996 -223.143 801.853 -198.272C813.864 -170.594 828.03 -149.77 841.738 -129.599C861.844 -100.028 879.273 -74.5039 882.864 -36.2507C886.78 5.52753 873.137 58.5989 839.976 130.862C794.281 230.412 737.75 320.235 680.827 383.686C620.314 451.118 562.15 486.63 512.343 486.63ZM746.497 -241.813C703.805 -241.813 641.464 -197.358 551.902 -122.941C494.979 -76.0053 446.738 -40.1021 407.963 -11.2491C363.639 21.7166 328.649 47.828 303.843 73.0908C278.058 99.398 263.436 124.987 256.321 156.19C248.487 191.441 261.412 202.277 284.913 221.991C312.199 244.904 353.52 279.436 393.144 376.57C407.571 412.669 425.196 440.086 445.498 458.169C464.559 475.141 486.166 484.019 509.862 484.606C559.67 485.847 618.225 450.531 679.325 382.445C736.118 319.125 792.583 229.498 838.213 130.079C871.244 58.142 884.822 5.39696 880.971 -36.0549C877.445 -73.7858 860.212 -99.1791 840.237 -128.489C827.116 -147.746 812.232 -169.615 800.156 -197.489C790.56 -221.772 777.439 -235.742 759.944 -240.181C755.571 -241.225 751.132 -241.813 746.497 -241.813Z" fill="url(#paint13_linear_826_26798)"/>
<path d="M530.685 453.534C530.554 453.534 530.489 453.534 530.359 453.534C507.054 453.469 485.708 445.57 466.843 430.034C446.867 413.584 429.503 388.517 415.207 355.355C377.15 270.232 336.873 236.091 310.239 213.505C285.368 192.42 270.354 179.691 277.796 144.244C284.324 114.739 298.098 90.6508 322.642 66.0408C346.077 42.5406 379.174 18.5181 421.017 -11.9669C456.202 -37.5561 500.069 -69.412 551.248 -110.537C642.376 -185.02 703.085 -226.146 744.08 -215.962C761.118 -211.719 774.043 -198.663 783.508 -176.077C795.911 -151.402 810.077 -132.406 823.785 -114.063C844.609 -86.1233 862.626 -61.9703 867.783 -26.1976C873.462 12.9042 862.561 62.1241 833.447 128.643C794.214 218.336 743.362 299.999 690.291 358.554C633.956 420.699 578.73 453.534 530.685 453.534ZM731.09 -215.505C713.661 -215.505 692.249 -207.802 665.159 -191.874C630.104 -171.312 588.587 -138.411 552.553 -108.971C501.31 -67.8454 457.442 -35.9894 422.192 -10.335C380.414 20.0195 347.383 44.042 324.079 67.477C299.795 91.8259 286.152 115.652 279.754 144.767C272.574 179.038 286.413 190.788 311.545 212.134C338.309 234.851 378.782 269.188 417.035 354.702C431.201 387.537 448.369 412.408 468.083 428.663C486.622 443.873 507.576 451.641 530.424 451.706C530.554 451.706 530.62 451.706 530.75 451.706C554.838 451.706 580.949 443.22 608.366 426.574C634.674 410.581 661.764 387.276 688.92 357.313C741.861 298.955 792.582 217.487 831.749 127.925C860.668 61.7977 871.569 12.9042 865.89 -25.8713C860.798 -61.1216 842.912 -85.0789 822.219 -112.822C808.51 -131.231 794.279 -150.292 781.811 -175.163V-175.228C772.542 -197.227 760.074 -209.891 743.689 -214.004C739.707 -215.048 735.529 -215.505 731.09 -215.505Z" fill="url(#paint14_linear_826_26798)"/>
<path d="M548.963 420.503C527.421 420.503 507.446 413.779 489.69 400.593C470.107 386.036 453.069 363.449 439.099 333.487C402.609 259.983 364.878 227.67 337.33 204.105C310.566 181.192 294.377 167.353 301.166 132.755C306.976 105.338 319.901 82.9477 342.879 60.296C364.878 38.6888 395.95 16.69 435.379 -11.1187C467.039 -33.4439 506.402 -61.2525 551.966 -96.6335C598.053 -133.516 628.668 -155.515 654.388 -170.137C685.852 -188.023 709.222 -194.29 727.957 -189.786C743.885 -185.934 756.157 -174.25 765.296 -153.948C778.025 -132.341 791.995 -115.303 805.508 -98.7877C848.004 -47.0218 881.557 -6.1575 827.115 126.293C794.28 206.193 749.172 279.632 700.148 333.095C675.342 360.185 650.21 381.401 625.47 396.284C599.554 411.821 574.683 419.981 551.509 420.568C550.66 420.503 549.812 420.503 548.963 420.503ZM715.946 -189.198C699.756 -189.198 679.781 -182.344 655.367 -168.44C629.713 -153.883 599.162 -131.949 553.141 -95.0668C507.577 -59.6206 468.148 -31.812 436.488 -9.48671C397.191 18.2567 366.118 40.1902 344.25 61.7321C321.533 84.1226 308.804 106.121 303.059 133.212C296.466 166.635 312.329 180.213 338.571 202.668C366.249 226.364 404.176 258.808 440.862 332.703C454.766 362.405 471.608 384.73 490.865 399.091C508.295 412.082 527.813 418.61 548.963 418.61C549.747 418.61 550.595 418.61 551.378 418.61C574.226 418.087 598.836 409.993 624.425 394.652C648.97 379.899 673.971 358.749 698.647 331.855C747.54 278.587 792.517 205.345 825.287 125.64C850.158 65.1919 858.253 20.215 850.746 -15.9493C843.957 -48.7844 825.418 -71.3707 803.941 -97.4821C790.363 -114.063 776.263 -131.166 763.468 -152.904L763.403 -152.969C754.525 -172.683 742.71 -184.041 727.369 -187.762C723.91 -188.807 720.058 -189.198 715.946 -189.198Z" fill="url(#paint15_linear_826_26798)"/>
<path d="M567.176 387.472C547.592 387.472 529.379 381.989 512.995 371.218C493.737 358.554 476.896 338.448 463.057 311.553C428.394 249.604 391.903 218.27 365.269 195.292C337.069 171.009 318.465 155.015 324.601 121.201C329.758 95.7425 341.704 75.1797 363.246 54.4865C383.808 34.7724 412.988 14.8624 449.935 -10.2698C479.441 -30.3756 512.864 -53.0925 552.684 -82.7942C624.49 -138.803 676.125 -171.899 711.833 -163.739C726.716 -160.345 738.271 -149.9 747.083 -131.949C759.878 -113.54 773.521 -98.5263 786.772 -83.9692C809.359 -59.1634 828.812 -37.8173 837.494 -6.87532C847.025 27.0695 841.737 68.6519 820.783 123.878C794.214 193.987 754.982 259.135 710.266 307.31C687.941 331.333 665.028 350.459 642.181 364.037C618.354 378.202 595.18 385.971 573.377 387.276C571.223 387.407 569.199 387.472 567.176 387.472ZM700.278 -162.956C665.877 -162.956 617.962 -131.296 553.728 -81.1622C513.843 -51.3952 480.421 -28.6783 450.915 -8.57254C414.032 16.4944 384.918 36.3391 364.486 55.9879C343.205 76.42 331.455 96.6564 326.429 121.658C320.488 154.363 337.787 169.246 366.444 193.921C393.209 216.965 429.83 248.429 464.688 310.704C478.397 337.338 494.978 357.183 513.974 369.651C531.729 381.336 551.639 386.623 573.116 385.383C594.658 384.143 617.505 376.44 641.006 362.47C663.723 348.958 686.505 330.027 708.699 306.07C753.219 258.09 792.321 193.138 818.824 123.29C863.997 4.02621 829.203 -34.1617 785.141 -82.5331C771.889 -97.1555 758.115 -112.235 745.255 -130.774L745.19 -130.904C736.639 -148.399 725.476 -158.452 711.18 -161.716C707.786 -162.564 704.13 -162.956 700.278 -162.956Z" fill="url(#paint16_linear_826_26798)"/>
<path d="M585.194 354.441C545.374 354.441 511.56 332.246 486.884 289.685C454.571 239.42 421.214 210.763 394.385 187.72C363.051 160.825 342.358 143.069 347.841 109.712C352.345 86.2768 363.312 67.4766 383.483 48.7417C402.675 30.9207 429.961 13.1649 464.494 -9.29088C490.083 -25.9369 519.132 -44.8024 553.207 -68.8901C588.653 -95.6543 613.786 -112.431 634.74 -123.267C659.807 -136.258 679.652 -140.958 695.384 -137.563C709.223 -134.56 720.124 -125.487 728.676 -109.754C741.209 -94.6098 754.265 -81.8153 766.864 -69.4123C789.581 -47.0871 811.057 -26.0022 821.698 2.52454C833.448 33.9888 831.098 71.8503 814.256 121.658C793.889 181.91 760.662 238.637 720.647 281.329C680.5 324.152 636.307 349.937 596.226 353.984C592.505 354.245 588.849 354.441 585.194 354.441ZM685.005 -136.714C653.279 -136.714 609.412 -108.841 554.382 -67.3234C520.242 -43.1704 491.193 -24.3049 465.603 -7.65892C431.136 14.7316 403.915 32.4221 384.854 50.1778C365.009 68.5864 354.238 87.0601 349.8 110.038C344.512 142.286 364.879 159.78 395.69 186.218C422.585 209.327 456.073 238.049 488.582 288.64C515.085 334.4 552.293 356.334 596.095 351.96C635.719 347.978 679.521 322.454 719.276 279.958C759.096 237.462 792.192 180.996 812.493 121.005C848.788 13.6219 812.036 -22.4118 765.558 -67.9762C752.894 -80.4444 739.773 -93.3043 727.174 -108.514L727.044 -108.645C718.753 -123.855 708.309 -132.667 695.057 -135.539C691.859 -136.388 688.464 -136.714 685.005 -136.714Z" fill="url(#paint17_linear_826_26798)"/>
<path d="M602.949 321.41C588.327 321.41 574.488 318.538 561.563 312.728C542.044 304.046 524.942 288.901 510.841 267.751C481.597 229.237 450.72 203.06 425.914 182.04C391.382 152.73 366.445 131.58 371.276 98.2227C375.062 76.7461 385.18 59.7737 403.981 42.9971C421.867 27.0692 447.325 11.5329 479.638 -8.1812C501.245 -21.3675 525.79 -36.3815 553.99 -54.9859C607.062 -93.3043 648.71 -117.523 679.129 -111.452C691.924 -108.906 702.238 -101.138 710.528 -87.6904C722.213 -76.0708 734.094 -65.7568 745.648 -55.7692C769.866 -34.8148 792.779 -14.9702 805.704 11.2718C820 40.386 820.718 74.7225 808.054 119.177C793.693 169.507 766.733 217.552 732.005 254.434C697.799 290.794 658.501 314.033 621.358 319.908C615.091 320.888 608.955 321.41 602.949 321.41ZM669.207 -110.473C640.419 -110.473 602.362 -87.5598 554.97 -53.4192C526.704 -34.7495 502.159 -19.7355 480.487 -6.54923C448.305 13.0996 422.846 28.6358 405.155 44.4332C386.682 60.8834 376.825 77.5295 373.104 98.4839C370.95 113.563 374.67 126.488 385.246 140.393C394.972 153.252 409.856 165.851 427.089 180.474C451.96 201.559 482.967 227.866 512.343 266.576C535.582 301.435 566.589 319.452 602.753 319.452C608.694 319.452 614.699 318.995 620.901 318.015C657.587 312.271 696.493 289.228 730.373 253.129C764.84 216.442 791.735 168.658 805.965 118.655C818.499 74.6572 817.781 40.7776 803.746 12.1204C791.017 -13.7952 768.3 -33.5093 744.212 -54.3331C732.658 -64.3207 720.646 -74.7 708.896 -86.4501L708.766 -86.6459C700.736 -99.6364 690.879 -107.143 678.607 -109.624C675.67 -110.211 672.471 -110.473 669.207 -110.473Z" fill="url(#paint18_linear_826_26798)"/>
<path d="M620.444 288.379C586.826 288.379 557.059 273.822 534.734 245.883C510.189 219.51 484.665 198.491 462.144 180.017C441.581 163.11 423.825 148.553 411.553 133.735C398.04 117.48 392.622 102.531 394.581 86.6687C401.109 45.5433 434.531 26.8737 495.11 -7.00586C512.604 -16.7976 532.384 -27.895 554.578 -41.1465C619.008 -84.622 664.507 -103.944 692.12 -65.6259C701.781 -57.8578 711.508 -50.6119 720.908 -43.6271C747.411 -23.8477 772.478 -5.11276 788.21 19.1708C805.77 46.1961 810.013 77.2034 801.592 116.827C792.975 157.496 773.13 195.423 744.277 226.626C716.86 256.262 683.373 276.956 650.081 284.854C639.897 287.204 630.04 288.379 620.444 288.379ZM653.606 -84.165C628.278 -84.165 595.704 -66.5398 555.688 -39.5145C533.428 -26.1977 513.583 -15.1004 496.089 -5.30859C465.995 11.5332 442.234 24.7848 425.784 38.6238C408.615 53.0504 399.607 67.9338 396.604 86.9299C392.557 120.157 422.324 144.571 463.515 178.45C486.101 196.989 511.69 218.009 536.3 244.577L536.365 244.643C564.566 279.958 604.843 293.536 649.689 282.896C682.589 275.128 715.751 254.63 742.907 225.255C771.499 194.313 791.147 156.713 799.764 116.37C808.054 77.3339 803.877 46.7183 786.643 20.2153C771.107 -3.74193 746.171 -22.3463 719.798 -42.0604C710.333 -49.1105 700.606 -56.4217 690.88 -64.1898L690.749 -64.2551L690.684 -64.3856C680.761 -78.0941 668.424 -84.165 653.606 -84.165Z" fill="url(#paint19_linear_826_26798)"/>
<path d="M637.22 255.413C630.953 255.413 624.752 254.956 618.681 254.042C595.442 250.452 575.271 240.399 558.69 224.014C543.154 211.154 527.226 199.078 511.885 187.328C459.532 147.443 414.359 113.041 417.949 75.1794C422.976 37.9053 454.505 22.4996 511.755 -5.57014C524.68 -11.9021 539.367 -19.0828 555.295 -27.3079C607.126 -58.9026 647.142 -73.7862 673.841 -43.5622C678.606 -40.6247 683.372 -37.6219 687.941 -34.8149C750.021 3.56886 803.615 36.7303 795.194 114.346C791.93 144.113 779.266 172.575 758.442 196.728C739.12 219.118 713.335 236.874 685.852 246.666C669.598 252.476 653.083 255.413 637.22 255.413ZM637.481 -57.9887C615.221 -57.9887 588 -44.9331 556.209 -25.6106L556.144 -25.5453C540.216 -17.3202 525.528 -10.1396 512.538 -3.80761C455.942 23.9357 424.738 39.2109 419.843 75.3752C416.317 112.127 461.164 146.268 512.995 185.761C528.401 197.511 544.329 209.653 559.93 222.513L559.995 222.578C576.315 238.637 596.16 248.559 618.942 252.084C639.896 255.283 662.744 252.802 685.069 244.838C712.225 235.177 737.749 217.617 756.81 195.488C777.373 171.661 789.906 143.526 793.105 114.151C801.395 37.7095 748.259 4.87443 686.766 -33.1829C682.132 -36.0552 677.301 -39.058 672.536 -42.0608L672.405 -42.1261L672.34 -42.2566C662.679 -53.2234 650.994 -57.9887 637.481 -57.9887Z" fill="url(#paint20_linear_826_26798)"/>
<path d="M652.69 222.513C625.992 222.513 601.839 215.463 582.647 202.146C542.762 179.299 509.208 156.19 485.643 135.301C454.897 108.08 439.948 83.9267 441.253 63.6251C444.713 29.7456 475.264 17.9302 530.685 -3.61174C538.714 -6.74511 547.005 -9.94374 555.882 -13.4688C578.73 -25.0231 596.355 -31.3551 611.434 -33.2482C629.06 -35.4677 643.421 -31.6162 655.302 -21.5633C710.592 4.02584 732.657 20.2802 746.953 32.7484C773.456 55.9222 787.099 81.7725 788.666 111.866C789.645 130.47 784.553 148.161 773.586 164.35C763.599 179.103 748.78 192.158 730.829 202.211C708.242 214.745 681.478 221.991 655.563 222.448C654.714 222.513 653.735 222.513 652.69 222.513ZM620.835 -31.8121C617.897 -31.8121 614.894 -31.6162 611.761 -31.2245C596.877 -29.3315 579.448 -23.13 556.796 -11.641L556.731 -11.5757C547.788 -7.98541 539.498 -4.78675 531.468 -1.65339C476.765 19.5621 446.606 31.3123 443.277 63.8862C442.037 83.535 456.724 107.101 487.014 133.93C510.449 154.689 543.936 177.732 583.756 200.579L583.822 200.645C603.34 214.288 628.211 221.207 655.693 220.685C681.282 220.163 707.72 213.113 730.046 200.645C747.736 190.788 762.293 177.928 772.15 163.436C782.921 147.573 787.882 130.274 786.903 112.127C785.336 82.6211 771.889 57.1625 745.843 34.3803C720.515 12.2509 685.526 -5.37425 654.584 -19.6702L654.453 -19.7355L654.322 -19.8008C644.857 -27.8953 633.825 -31.8121 620.835 -31.8121Z" fill="url(#paint21_linear_826_26798)"/>
<path d="M664.181 189.874C643.749 189.874 623.643 186.806 606.801 180.278C575.01 170.356 538.977 149.205 510.319 123.747C480.813 97.5049 464.167 71.3935 464.69 52.2017C466.452 20.411 500.462 12.904 556.798 0.43583C590.547 -10.5962 616.005 -10.531 637.025 0.631658C714.053 24.7194 766.994 64.3434 782.335 109.386C788.21 126.554 783.706 142.873 769.475 156.647C747.476 177.667 704.98 189.874 664.181 189.874ZM601.448 -5.83093C588.458 -5.83093 573.901 -3.15449 557.32 2.26362H557.255C501.833 14.536 468.345 21.9124 466.648 52.2017C466.191 70.806 482.576 96.3299 511.625 122.245C540.021 147.574 575.859 168.528 607.454 178.385C657.522 197.707 735.595 186.349 768.169 155.081C781.878 141.96 786.121 126.293 780.572 109.908C765.428 65.4532 712.878 26.2208 636.437 2.39419L636.241 2.32888C625.862 -3.15451 614.439 -5.83093 601.448 -5.83093Z" fill="url(#paint22_linear_826_26798)"/>
<path d="M649.427 158.801C643.095 158.801 636.894 158.671 630.888 158.41C601.121 157.039 566.132 140.197 534.864 112.193C507.186 87.4521 488.385 58.7296 487.994 40.7127C487.863 33.3363 490.344 27.3959 495.435 23.0222C513.909 7.15956 565.479 13.4916 618.551 22.6306C692.315 35.4252 744.734 75.3756 775.741 106.579C783.118 114.02 785.402 121.005 782.53 127.468C776.263 141.503 746.692 149.206 722.996 153.122C700.997 156.778 674.168 158.801 649.427 158.801ZM536.561 15.1888C518.675 15.1888 504.509 17.7347 496.676 24.4584C491.976 28.5056 489.821 33.7279 489.952 40.5822C490.344 58.0768 508.883 86.2118 536.169 110.626C567.176 138.369 601.709 155.015 631.019 156.386C685.722 158.867 770.454 149.728 780.702 126.619C783.183 121.005 781.029 114.739 774.305 107.95C743.494 76.877 691.467 37.1877 618.224 24.5236C588.653 19.4319 559.539 15.1888 536.561 15.1888Z" fill="url(#paint23_linear_826_26798)"/>
</g>
<defs>
<linearGradient id="paint0_linear_826_26798" x1="504.38" y1="135.587" x2="504.38" y2="-124" gradientUnits="userSpaceOnUse">
<stop stop-color="#00E3AE"/>
<stop offset="1" stop-color="#9BE15D"/>
</linearGradient>
<linearGradient id="paint1_linear_826_26798" x1="485.459" y1="123.38" x2="485.459" y2="-115.09" gradientUnits="userSpaceOnUse">
<stop stop-color="#00E3AE"/>
<stop offset="1" stop-color="#9BE15D"/>
</linearGradient>
<linearGradient id="paint2_linear_826_26798" x1="466.614" y1="111.107" x2="466.614" y2="-106.39" gradientUnits="userSpaceOnUse">
<stop stop-color="#00E3AE"/>
<stop offset="1" stop-color="#9BE15D"/>
</linearGradient>
<linearGradient id="paint3_linear_826_26798" x1="447.703" y1="98.9002" x2="447.703" y2="-97.5161" gradientUnits="userSpaceOnUse">
<stop stop-color="#00E3AE"/>
<stop offset="1" stop-color="#9BE15D"/>
</linearGradient>
<linearGradient id="paint4_linear_826_26798" x1="429.051" y1="86.6928" x2="429.051" y2="-88.7812" gradientUnits="userSpaceOnUse">
<stop stop-color="#00E3AE"/>
<stop offset="1" stop-color="#9BE15D"/>
</linearGradient>
<linearGradient id="paint5_linear_826_26798" x1="410.276" y1="74.4206" x2="410.276" y2="-80.104" gradientUnits="userSpaceOnUse">
<stop stop-color="#00E3AE"/>
<stop offset="1" stop-color="#9BE15D"/>
</linearGradient>
<linearGradient id="paint6_linear_826_26798" x1="391.76" y1="62.2139" x2="391.76" y2="-71.3892" gradientUnits="userSpaceOnUse">
<stop stop-color="#00E3AE"/>
<stop offset="1" stop-color="#9BE15D"/>
</linearGradient>
<linearGradient id="paint7_linear_826_26798" x1="373.465" y1="50.0067" x2="373.465" y2="-62.7456" gradientUnits="userSpaceOnUse">
<stop stop-color="#00E3AE"/>
<stop offset="1" stop-color="#9BE15D"/>
</linearGradient>
<linearGradient id="paint8_linear_826_26798" x1="355.362" y1="37.7998" x2="355.362" y2="-54.2139" gradientUnits="userSpaceOnUse">
<stop stop-color="#00E3AE"/>
<stop offset="1" stop-color="#9BE15D"/>
</linearGradient>
<linearGradient id="paint9_linear_826_26798" x1="337.46" y1="25.5925" x2="337.46" y2="-45.8032" gradientUnits="userSpaceOnUse">
<stop stop-color="#00E3AE"/>
<stop offset="1" stop-color="#9BE15D"/>
</linearGradient>
<linearGradient id="paint10_linear_826_26798" x1="320.353" y1="13.5162" x2="320.353" y2="-37.7207" gradientUnits="userSpaceOnUse">
<stop stop-color="#00E3AE"/>
<stop offset="1" stop-color="#9BE15D"/>
</linearGradient>
<linearGradient id="paint11_linear_826_26798" x1="304.236" y1="1.76569" x2="304.236" y2="-29.7241" gradientUnits="userSpaceOnUse">
<stop stop-color="#00E3AE"/>
<stop offset="1" stop-color="#9BE15D"/>
</linearGradient>
<linearGradient id="paint12_linear_826_26798" x1="564.79" y1="-393.146" x2="193.733" y2="596.338" gradientUnits="userSpaceOnUse">
<stop stop-color="#00BF57"/>
<stop offset="1" stop-color="#005F91"/>
</linearGradient>
<linearGradient id="paint13_linear_826_26798" x1="569.322" y1="-357.717" x2="226.095" y2="557.557" gradientUnits="userSpaceOnUse">
<stop stop-color="#00BF57"/>
<stop offset="1" stop-color="#005F91"/>
</linearGradient>
<linearGradient id="paint14_linear_826_26798" x1="574.007" y1="-322.142" x2="265.982" y2="524.926" gradientUnits="userSpaceOnUse">
<stop stop-color="#00BF57"/>
<stop offset="1" stop-color="#005F91"/>
</linearGradient>
<linearGradient id="paint15_linear_826_26798" x1="578.87" y1="-286.594" x2="298.053" y2="485.654" gradientUnits="userSpaceOnUse">
<stop stop-color="#00BF57"/>
<stop offset="1" stop-color="#005F91"/>
</linearGradient>
<linearGradient id="paint16_linear_826_26798" x1="584.011" y1="-251.121" x2="317.289" y2="434.735" gradientUnits="userSpaceOnUse">
<stop stop-color="#00BF57"/>
<stop offset="1" stop-color="#005F91"/>
</linearGradient>
<linearGradient id="paint17_linear_826_26798" x1="589.163" y1="-215.522" x2="377.745" y2="418.73" gradientUnits="userSpaceOnUse">
<stop stop-color="#00BF57"/>
<stop offset="1" stop-color="#005F91"/>
</linearGradient>
<linearGradient id="paint18_linear_826_26798" x1="594.938" y1="-180.03" x2="435.053" y2="395.558" gradientUnits="userSpaceOnUse">
<stop stop-color="#00BF57"/>
<stop offset="1" stop-color="#005F91"/>
</linearGradient>
<linearGradient id="paint19_linear_826_26798" x1="600.984" y1="-144.596" x2="445.021" y2="340.621" gradientUnits="userSpaceOnUse">
<stop stop-color="#00BF57"/>
<stop offset="1" stop-color="#005F91"/>
</linearGradient>
<linearGradient id="paint20_linear_826_26798" x1="607.832" y1="-109.229" x2="488.737" y2="307.602" gradientUnits="userSpaceOnUse">
<stop stop-color="#00BF57"/>
<stop offset="1" stop-color="#005F91"/>
</linearGradient>
<linearGradient id="paint21_linear_826_26798" x1="615.827" y1="-73.8363" x2="529.611" y2="271.028" gradientUnits="userSpaceOnUse">
<stop stop-color="#00BF57"/>
<stop offset="1" stop-color="#005F91"/>
</linearGradient>
<linearGradient id="paint22_linear_826_26798" x1="625.542" y1="-38.6149" x2="569.133" y2="232.146" gradientUnits="userSpaceOnUse">
<stop stop-color="#00BF57"/>
<stop offset="1" stop-color="#005F91"/>
</linearGradient>
<linearGradient id="paint23_linear_826_26798" x1="636.581" y1="-9.36501" x2="600.683" y2="192.168" gradientUnits="userSpaceOnUse">
<stop stop-color="#00BF57"/>
<stop offset="1" stop-color="#005F91"/>
</linearGradient>
</defs>
</svg>
