<svg width="22" height="17" viewBox="0 0 22 17" fill="none" xmlns="http://www.w3.org/2000/svg">
<path fill-rule="evenodd" clip-rule="evenodd" d="M5.42759 2.68391e-06C5.45164 3.99521e-06 5.47578 5.30651e-06 5.5 5.30651e-06L16.5724 2.68391e-06C17.5475 -5.21285e-05 18.3877 -9.92082e-05 19.0606 0.0903598C19.7816 0.187305 20.4728 0.405924 21.0334 0.966552C21.5941 1.52718 21.8127 2.21837 21.9096 2.93943C22.0001 3.61227 22.0001 4.45247 22 5.42762V11.0724C22.0001 12.0475 22.0001 12.8877 21.9096 13.5606C21.8127 14.2816 21.5941 14.9728 21.0334 15.5335C20.4728 16.0941 19.7816 16.3127 19.0606 16.4096C18.3877 16.5001 17.5475 16.5001 16.5724 16.5H5.42759C4.45245 16.5001 3.61226 16.5001 2.93943 16.4096C2.21837 16.3127 1.52718 16.0941 0.966552 15.5335C0.405924 14.9728 0.187305 14.2816 0.0903598 13.5606C-9.92082e-05 12.8877 -5.21285e-05 12.0475 2.68392e-06 11.0724L5.30652e-06 5.5C5.30652e-06 5.47578 3.99522e-06 5.45164 2.68392e-06 5.42759C-5.21285e-05 4.45245 -9.92082e-05 3.61226 0.0903598 2.93943C0.187305 2.21837 0.405924 1.52718 0.966552 0.966552C1.52718 0.405924 2.21837 0.187305 2.93943 0.0903598C3.61226 -9.92082e-05 4.45245 -5.21285e-05 5.42759 2.68391e-06ZM3.23258 2.27074C2.75546 2.33489 2.60592 2.43845 2.52219 2.52219C2.43845 2.60592 2.33489 2.75547 2.27074 3.23258C2.20234 3.74133 2.2 4.43182 2.2 5.5V11C2.2 12.0682 2.20234 12.7587 2.27074 13.2674C2.33489 13.7445 2.43845 13.8941 2.52219 13.9778C2.60592 14.0616 2.75547 14.1651 3.23258 14.2293C3.74133 14.2977 4.43182 14.3 5.5 14.3H16.5C17.5682 14.3 18.2587 14.2977 18.7674 14.2293C19.2445 14.1651 19.3941 14.0616 19.4778 13.9778C19.5616 13.8941 19.6651 13.7445 19.7293 13.2674C19.7977 12.7587 19.8 12.0682 19.8 11V5.5C19.8 4.43182 19.7977 3.74133 19.7293 3.23258C19.6651 2.75546 19.5616 2.60592 19.4778 2.52219C19.3941 2.43845 19.2445 2.33489 18.7674 2.27074C18.2587 2.20234 17.5682 2.2 16.5 2.2H5.5C4.43182 2.2 3.74133 2.20234 3.23258 2.27074Z" fill="none"/>
<path fill-rule="evenodd" clip-rule="evenodd" d="M4.4 11C4.4 10.3925 4.89249 9.9 5.5 9.9H5.511C6.11852 9.9 6.611 10.3925 6.611 11C6.611 11.6075 6.11852 12.1 5.511 12.1H5.5C4.89249 12.1 4.4 11.6075 4.4 11Z" fill="none"/>
<path fill-rule="evenodd" clip-rule="evenodd" d="M1.1 6.6C1.1 5.99249 1.59249 5.5 2.2 5.5H20.9C21.5075 5.5 22 5.99249 22 6.6C22 7.20751 21.5075 7.7 20.9 7.7H2.2C1.59249 7.7 1.1 7.20751 1.1 6.6Z" fill="none"/>
</svg>
