<svg width="20" height="20" viewBox="0 0 20 20" fill="none" xmlns="http://www.w3.org/2000/svg">
<path fill-rule="evenodd" clip-rule="evenodd" d="M11.9997 2.41467L15.5853 6.00037H12.9996C12.5 6.00037 12.2258 5.99824 12.0356 5.97267C12.0332 5.97234 12.0307 5.97201 12.0284 5.97167C12.028 5.9693 12.0277 5.96687 12.0274 5.96439C12.0018 5.7742 11.9997 5.50005 11.9997 5.00039V2.41467ZM15.9995 8.00031V15.0001C15.9995 15.9712 15.9974 16.5989 15.9352 17.0614C15.8769 17.4951 15.7828 17.631 15.7067 17.7072C15.6305 17.7833 15.4946 17.8774 15.0609 17.9357C14.5984 17.9979 13.9707 18 12.9996 18H6.99984C6.02879 18 5.4011 17.9979 4.93861 17.9357C4.50489 17.8774 4.36894 17.7833 4.29282 17.7072C4.2167 17.631 4.12256 17.4951 4.06424 17.0614C4.00206 16.5989 3.99994 15.9712 3.99994 15.0001V5.00039C3.99994 4.02934 4.00206 3.40165 4.06424 2.93915C4.12256 2.50542 4.2167 2.36948 4.29282 2.29336C4.36894 2.21724 4.50489 2.12309 4.93861 2.06478C5.4011 2.0026 6.02879 2.00047 6.99984 2.00047H9.99974V5.00039C9.99974 5.01855 9.99974 5.03669 9.99973 5.0548C9.99965 5.47886 9.99957 5.89098 10.0453 6.23088C10.0968 6.61407 10.2223 7.05134 10.5855 7.41454C10.9487 7.77775 11.386 7.90327 11.7692 7.95479C12.1091 8.00048 12.5212 8.0004 12.9452 8.00032C12.9633 8.00032 12.9815 8.00031 12.9996 8.00031H15.9995ZM11.2561 0.00027315C11.5725 -0.00112359 11.975 -0.00290036 12.3508 0.152763C12.7266 0.308426 13.01 0.594325 13.2328 0.819051C13.2532 0.839658 13.2731 0.859751 13.2925 0.879182L17.1208 4.70751C17.1403 4.72694 17.1603 4.74685 17.181 4.76728C17.4057 4.99003 17.6916 5.27342 17.8472 5.64922C18.0029 6.02503 18.0011 6.42758 17.9997 6.74399C17.9996 6.773 17.9995 6.80129 17.9995 6.82877L17.9995 15.066C17.9995 15.9524 17.9996 16.7162 17.9173 17.3279C17.8292 17.9834 17.6305 18.6117 17.1208 19.1213C16.6112 19.631 15.9828 19.8297 15.3274 19.9179C14.7157 20.0001 13.9519 20 13.0654 20H6.93403C6.04757 20 5.28377 20.0001 4.67212 19.9179C4.01663 19.8297 3.3883 19.631 2.87866 19.1213C2.36901 18.6117 2.17027 17.9834 2.08214 17.3279C1.99991 16.7162 1.99995 15.9524 2 15.066L2 5.00039C2 4.97838 2 4.95643 2 4.93456C1.99995 4.0481 1.99991 3.28431 2.08214 2.67266C2.17027 2.01716 2.36901 1.38883 2.87866 0.879182C3.3883 0.369534 4.01663 0.170794 4.67213 0.0826644C5.28377 0.000431101 6.04755 0.000473893 6.93401 0.000523722C6.95588 0.000524914 6.97782 0.000526106 6.99984 0.000526106H11.1713C11.1988 0.000526106 11.227 0.000401178 11.2561 0.00027315Z" fill="#486060"/>
</svg>
