<svg width="20" height="20" viewBox="0 0 20 20" fill="none" xmlns="http://www.w3.org/2000/svg">
    <path
        d="M18.125 15.519V18.7495C18.125 18.9153 18.0592 19.0742 17.9419 19.1915C17.8247 19.3087 17.6658 19.3745 17.5 19.3745C17.3342 19.3745 17.1753 19.3087 17.0581 19.1915C16.9408 19.0742 16.875 18.9153 16.875 18.7495V15.519C16.8721 14.7168 16.7041 13.9238 16.3816 13.1893C16.059 12.4548 15.5887 11.7945 15 11.2495V15.8081C14.9999 15.9426 14.9564 16.0735 14.876 16.1813C14.7955 16.2891 14.6825 16.3681 14.5536 16.4065C14.4247 16.445 14.2868 16.4408 14.1605 16.3946C14.0342 16.3485 13.9261 16.2628 13.8523 16.1503L13.018 14.8761C13.0117 14.8667 13.0055 14.8565 13 14.8464C12.8774 14.63 12.6739 14.4711 12.4342 14.4047C12.1945 14.3384 11.9383 14.3699 11.7219 14.4925C11.5055 14.615 11.3466 14.8186 11.2802 15.0583C11.2138 15.2979 11.2454 15.5542 11.368 15.7706L13.0969 18.4105C13.1876 18.5492 13.2196 18.7183 13.1856 18.8805C13.1517 19.0428 13.0547 19.1849 12.916 19.2757C12.7773 19.3664 12.6082 19.3984 12.4459 19.3645C12.2837 19.3305 12.1415 19.2335 12.0508 19.0948L10.3117 16.4386L10.293 16.4089C10.2633 16.3573 10.2359 16.305 10.2109 16.2526H4.375C4.20924 16.2526 4.05027 16.1868 3.93306 16.0696C3.81585 15.9524 3.75 15.7934 3.75 15.6276V7.49952C3.75 7.16799 3.8817 6.85005 4.11612 6.61563C4.35054 6.38121 4.66848 6.24952 5 6.24952H8.75V9.99952C8.75 10.1653 8.81585 10.3242 8.93306 10.4415C9.05027 10.5587 9.20924 10.6245 9.375 10.6245C9.54076 10.6245 9.69973 10.5587 9.81694 10.4415C9.93415 10.3242 10 10.1653 10 9.99952V6.24952H13.75C14.0815 6.24952 14.3995 6.38121 14.6339 6.61563C14.8683 6.85005 15 7.16799 15 7.49952V9.65733C15.9593 10.3056 16.7455 11.1786 17.2902 12.2002C17.8349 13.2219 18.1215 14.3613 18.125 15.519ZM10 2.75811L11.4328 4.1917C11.5501 4.30898 11.7091 4.37486 11.875 4.37486C12.0409 4.37486 12.1999 4.30898 12.3172 4.1917C12.4345 4.07443 12.5003 3.91537 12.5003 3.74952C12.5003 3.58366 12.4345 3.4246 12.3172 3.30733L9.81719 0.807328C9.75914 0.749217 9.69021 0.703118 9.61434 0.671665C9.53846 0.640213 9.45713 0.624023 9.375 0.624023C9.29287 0.624023 9.21154 0.640213 9.13566 0.671665C9.05979 0.703118 8.99086 0.749217 8.93281 0.807328L6.43281 3.30733C6.31554 3.4246 6.24965 3.58366 6.24965 3.74952C6.24965 3.83164 6.26583 3.91296 6.29725 3.98883C6.32868 4.0647 6.37474 4.13363 6.43281 4.1917C6.49088 4.24977 6.55982 4.29583 6.63569 4.32726C6.71156 4.35869 6.79288 4.37486 6.875 4.37486C7.04085 4.37486 7.19991 4.30898 7.31719 4.1917L8.75 2.75811V6.24952H10V2.75811Z"
        fill="white" />
</svg>