<svg width="12" height="12" viewBox="0 0 12 12" fill="none" xmlns="http://www.w3.org/2000/svg">
<path fill-rule="evenodd" clip-rule="evenodd" d="M5.12209 1.58647C5.99501 1.41284 6.89981 1.50195 7.72208 1.84254C8.54434 2.18314 9.24715 2.75992 9.74161 3.49994C10.2361 4.23996 10.5 5.10999 10.5 6C10.5 6.89002 10.2361 7.76005 9.74161 8.50007C9.24715 9.24009 8.54434 9.81687 7.72208 10.1575C6.89981 10.4981 5.99501 10.5872 5.12209 10.4135C4.24918 10.2399 3.44736 9.81132 2.81802 9.18198L2.11091 9.88909C2.8801 10.6583 3.86011 11.1821 4.927 11.3943C5.9939 11.6065 7.09977 11.4976 8.10476 11.0813C9.10975 10.6651 9.96873 9.96011 10.5731 9.05564C11.1774 8.15117 11.5 7.0878 11.5 6C11.5 4.91221 11.1774 3.84884 10.5731 2.94437C9.96874 2.0399 9.10975 1.33495 8.10476 0.918665C7.09977 0.502383 5.9939 0.393465 4.927 0.605683C3.86011 0.817902 2.8801 1.34173 2.11091 2.11091L2.81802 2.81802C3.44736 2.18869 4.24918 1.7601 5.12209 1.58647Z" fill="#486060"/>
<path fill-rule="evenodd" clip-rule="evenodd" d="M5.8905 3.18774L5.10963 3.81244L6.45976 5.50009H1.50007C1.22393 5.50009 1.00007 5.72395 1.00007 6.00009C1.00007 6.27623 1.22393 6.50009 1.50007 6.50009H6.45976L5.10963 8.18774L5.8905 8.81244L8.14038 6.00009L5.8905 3.18774Z" fill="#486060"/>
</svg>
