<svg width="26" height="24" viewBox="0 0 26 24" fill="none" xmlns="http://www.w3.org/2000/svg">
<g clip-path="url(#clip0_951_9087)">
<path fill-rule="evenodd" clip-rule="evenodd" d="M18.2093 16.2521C18.377 15.732 18.4676 15.1774 18.4676 14.6016C18.4676 11.6336 16.0615 9.22754 13.0935 9.22754C12.5177 9.22754 11.9631 9.3181 11.443 9.48575L12.2635 10.3062C12.5322 10.2546 12.8097 10.2275 13.0935 10.2275C15.5092 10.2275 17.4676 12.1859 17.4676 14.6016C17.4676 14.8854 17.4405 15.1629 17.3889 15.4316L18.2093 16.2521ZM9.63632 11.9217C9.06163 12.662 8.71948 13.5918 8.71948 14.6016C8.71948 17.0173 10.6778 18.9756 13.0935 18.9756C14.1033 18.9756 15.0331 18.6335 15.7734 18.0588L16.4851 18.7704C15.5601 19.5239 14.3796 19.9756 13.0935 19.9756C10.1255 19.9756 7.71948 17.5696 7.71948 14.6016C7.71948 13.3155 8.17121 12.135 8.92465 11.21L9.63632 11.9217Z" fill="none"/>
<path fill-rule="evenodd" clip-rule="evenodd" d="M21.4406 19.4837C22.9103 18.2126 24.0634 16.8828 24.776 15.9858L24.8358 15.9108C25.1603 15.5043 25.46 15.1289 25.46 14.6016C25.46 14.0742 25.1603 13.6989 24.8358 13.2924L24.776 13.2174C23.8905 12.1028 22.3251 10.32 20.3169 8.81191C18.3139 7.30773 15.8219 6.04053 13.0937 6.04053C11.6266 6.04053 10.2278 6.40698 8.93659 6.97967L9.69931 7.74238C10.7811 7.30545 11.921 7.04053 13.0937 7.04053C15.5153 7.04053 17.7972 8.17028 19.7164 9.61154C21.6304 11.0489 23.1355 12.7601 23.9931 13.8395C24.4138 14.369 24.46 14.4634 24.46 14.6016C24.46 14.7398 24.4138 14.8342 23.9931 15.3637C23.2936 16.2441 22.1632 17.5449 20.7316 18.7746L21.4406 19.4837ZM19.0048 21.2905L18.2772 20.5629C16.6955 21.5095 14.935 22.1626 13.0937 22.1626C10.6721 22.1626 8.39018 21.0329 6.47098 19.5916C4.55695 18.1542 3.05186 16.4431 2.19432 15.3637C1.77362 14.8342 1.72742 14.7398 1.72742 14.6016C1.72742 14.4634 1.77362 14.369 2.19432 13.8395C3.05186 12.7601 4.55695 11.0489 6.47098 9.61154C6.63363 9.4894 6.79888 9.36949 6.9666 9.25232L6.24907 8.53479C6.12103 8.62609 5.99482 8.71854 5.87048 8.81191C3.86232 10.32 2.29691 12.1028 1.41135 13.2174L1.35161 13.2924C1.02707 13.6989 0.727417 14.0742 0.727417 14.6016C0.727417 15.1289 1.02707 15.5043 1.35161 15.9108L1.41135 15.9858C2.29691 17.1004 3.86232 18.8832 5.87048 20.3912C7.87347 21.8954 10.3654 23.1626 13.0937 23.1626C15.254 23.1626 17.2662 22.3681 19.0048 21.2905Z" fill="none"/>
<path d="M3.68896 1.1665L25.1851 22.6626" stroke="#888"/>
</g>
<defs>
<clipPath id="clip0_951_9087">
<rect width="26" height="23" fill="none" transform="translate(0 0.5)"/>
</clipPath>
</defs>
</svg>
