<svg width="23" height="20" viewBox="0 0 23 20" fill="none" xmlns="http://www.w3.org/2000/svg">
<path d="M21.5834 9.30166C20.7433 7.51489 19.5128 5.93117 17.9791 4.66268L20.6156 2.07713L19.3852 0.869629L16.5217 3.67519C14.9368 2.77615 13.1352 2.31001 11.3043 2.32528C4.78256 2.32528 1.78865 7.66437 1.02517 9.30166C0.922681 9.52107 0.869629 9.75958 0.869629 10.0009C0.869629 10.2423 0.922681 10.4808 1.02517 10.7002C1.86529 12.4869 3.0958 14.0707 4.62952 15.3392L1.99386 17.9247L3.22343 19.1305L6.08691 16.3249C7.67181 17.224 9.47342 17.6901 11.3043 17.6748C17.826 17.6748 20.82 12.3358 21.5834 10.6985C21.6857 10.4793 21.7387 10.2411 21.7387 10.0001C21.7387 9.75903 21.6857 9.52083 21.5834 9.30166ZM2.60865 10.0094C3.26082 8.60666 5.81995 4.03079 11.3043 4.03079C12.6692 4.02296 14.0162 4.33522 15.233 4.94153L13.6982 6.44664C12.8634 5.90309 11.8625 5.65954 10.8654 5.75731C9.86826 5.85508 8.93636 6.28814 8.22778 6.98302C7.5192 7.6779 7.0776 8.59179 6.9779 9.56962C6.87821 10.5475 7.12656 11.529 7.68082 12.3477L5.873 14.1206C4.48202 13.0098 3.36593 11.6042 2.60865 10.0094ZM13.913 10.0001C13.913 10.6786 13.6382 11.3293 13.1489 11.809C12.6597 12.2888 11.9962 12.5583 11.3043 12.5583C10.9169 12.5569 10.5349 12.4694 10.1869 12.3025L13.6521 8.90427C13.8223 9.24554 13.9115 9.62017 13.913 10.0001ZM8.6956 10.0001C8.6956 9.32157 8.97045 8.67087 9.45967 8.1911C9.9489 7.71133 10.6124 7.4418 11.3043 7.4418C11.6917 7.44327 12.0737 7.53073 12.4217 7.69763L8.95647 11.0958C8.78629 10.7546 8.6971 10.38 8.6956 10.0001ZM11.3043 15.9693C9.93943 15.9772 8.59243 15.6649 7.3756 15.0586L8.91039 13.5535C9.74523 14.097 10.7461 14.3406 11.7432 14.2428C12.7403 14.145 13.6722 13.712 14.3808 13.0171C15.0894 12.3222 15.531 11.4083 15.6307 10.4305C15.7304 9.45267 15.482 8.47113 14.9278 7.65243L16.7347 5.88041C18.1285 6.99224 19.2452 8.4012 20 10.0001C19.3356 11.4131 16.7756 15.9693 11.3043 15.9693Z" fill="#494C56"/>
</svg>
