<svg width="32" height="32" viewBox="0 0 32 32" fill="none" xmlns="http://www.w3.org/2000/svg">
<path fill-rule="evenodd" clip-rule="evenodd" d="M21.0812 17.6261C21.2452 17.1134 21.3337 16.567 21.3337 16C21.3337 13.0544 18.9458 10.6666 16.0003 10.6666C15.4333 10.6666 14.8869 10.7551 14.3742 10.9191L15.1962 11.7411C15.4568 11.6922 15.7256 11.6666 16.0003 11.6666C18.3936 11.6666 20.3337 13.6067 20.3337 16C20.3337 16.2747 20.3081 16.5435 20.2592 16.8041L21.0812 17.6261ZM12.5675 13.355C12.0029 14.0868 11.667 15.0042 11.667 16C11.667 18.3932 13.6071 20.3333 16.0003 20.3333C16.9961 20.3333 17.9135 19.9974 18.6452 19.4327L19.3571 20.1446C18.4405 20.8879 17.2724 21.3333 16.0003 21.3333C13.0548 21.3333 10.667 18.9455 10.667 16C10.667 14.7279 11.1124 13.5598 11.8557 12.6432L12.5675 13.355Z" fill="none"/>
<path fill-rule="evenodd" clip-rule="evenodd" d="M24.2952 20.8403C25.7455 19.5847 26.8843 18.2724 27.5907 17.384L27.6504 17.3092C27.975 16.9029 28.2748 16.5277 28.2748 16C28.2748 15.4723 27.975 15.0971 27.6504 14.6908L27.5907 14.616C26.7096 13.5078 25.1558 11.7403 23.1638 10.2458C21.1769 8.75513 18.7057 7.5 16.0002 7.5C14.5472 7.5 13.1619 7.86197 11.8828 8.42801L12.6459 9.19105C13.7153 8.76068 14.8416 8.5 16.0002 8.5C18.3994 8.5 20.6607 9.61797 22.5637 11.0457C24.4615 12.4695 25.9549 14.1655 26.8079 15.2383C27.2286 15.7674 27.2748 15.8617 27.2748 16C27.2748 16.1383 27.2286 16.2326 26.8079 16.7617C26.1147 17.6335 24.9986 18.9169 23.5861 20.1313L24.2952 20.8403ZM21.8593 22.6471L21.1316 21.9194C19.565 22.8551 17.8224 23.5 16.0002 23.5C13.601 23.5 11.3397 22.382 9.4367 20.9543C7.53887 19.5305 6.04545 17.8345 5.19242 16.7617C4.77171 16.2326 4.72559 16.1383 4.72559 16C4.72559 15.8617 4.77171 15.7674 5.19242 15.2383C6.04545 14.1655 7.53887 12.4695 9.4367 11.0457C9.59301 10.9284 9.75174 10.8132 9.91276 10.7006L9.19531 9.98313C9.07406 10.0697 8.95447 10.1573 8.83658 10.2458C6.84456 11.7403 5.29079 13.5078 4.40969 14.616L4.34999 14.6908C4.02536 15.0971 3.72559 15.4723 3.72559 16C3.72559 16.5277 4.02536 16.9029 4.34999 17.3092L4.40969 17.384C5.29079 18.4922 6.84456 20.2597 8.83658 21.7542C10.8234 23.2449 13.2947 24.5 16.0002 24.5C18.1413 24.5 20.1356 23.7139 21.8593 22.6471Z" fill="none"/>
<path d="M6.66699 2.66663L28.0003 24" stroke="none"/>
</svg>
