<svg width="23" height="20" viewBox="0 0 26 23" fill="none" xmlns="http://www.w3.org/2000/svg">
<path d="M24.8209 10.6968C23.8547 8.64206 22.4397 6.82077 20.6759 5.36201L23.7079 2.38862L22.2929 1L18.9999 4.22639C17.1772 3.1925 15.1054 2.65644 12.9999 2.674C5.49987 2.674 2.05687 8.81395 1.17887 10.6968C1.06101 10.9492 1 11.2234 1 11.501C1 11.7785 1.06101 12.0528 1.17887 12.3051C2.14501 14.3599 3.56009 16.1812 5.32387 17.64L2.29287 20.6133L3.70687 22L6.99987 18.7736C8.82251 19.8075 10.8944 20.3436 12.9999 20.326C20.4999 20.326 23.9429 14.186 24.8209 12.3032C24.9385 12.0511 24.9994 11.7772 24.9994 11.5C24.9994 11.2228 24.9385 10.9489 24.8209 10.6968ZM2.99987 11.5108C3.74987 9.89759 6.69287 4.63533 12.9999 4.63533C14.5695 4.62633 16.1185 4.98543 17.5179 5.68268L15.7529 7.41356C14.7928 6.78849 13.6418 6.5084 12.4951 6.62083C11.3484 6.73327 10.2767 7.23129 9.46187 8.0304C8.64701 8.82951 8.13917 9.88048 8.02452 11.005C7.90987 12.1295 8.19547 13.2583 8.83287 14.1998L6.75387 16.2386C5.15425 14.9612 3.87074 13.3447 2.99987 11.5108ZM15.9999 11.5C15.9999 12.2803 15.6838 13.0286 15.1212 13.5803C14.5586 14.132 13.7955 14.442 12.9999 14.442C12.5544 14.4403 12.1151 14.3397 11.7149 14.1478L15.6999 10.2398C15.8956 10.6323 15.9981 11.0631 15.9999 11.5ZM9.99987 11.5C9.99987 10.7197 10.3159 9.97142 10.8786 9.41969C11.4412 8.86796 12.2042 8.558 12.9999 8.558C13.4454 8.55969 13.8847 8.66027 14.2849 8.8522L10.2999 12.7602C10.1042 12.3677 10.0016 11.9369 9.99987 11.5ZM12.9999 18.3647C11.4303 18.3737 9.88123 18.0146 8.48187 17.3173L10.2469 15.5864C11.2069 16.2115 12.358 16.4916 13.5046 16.3792C14.6513 16.2667 15.723 15.7687 16.5379 14.9696C17.3527 14.1705 17.8606 13.1195 17.9752 11.995C18.0899 10.8705 17.8043 9.74173 17.1669 8.80022L19.2449 6.7624C20.8476 8.041 22.1319 9.6613 22.9999 11.5C22.2359 13.125 19.2919 18.3647 12.9999 18.3647Z"/>
</svg>
