<svg width="26" height="23" viewBox="0 0 26 23" fill="none" xmlns="http://www.w3.org/2000/svg">
<path d="M18.2096 15.7522C18.3772 15.2322 18.4678 14.6775 18.4678 14.1017C18.4678 11.1337 16.0618 8.72766 13.0938 8.72766C12.518 8.72766 11.9633 8.81822 11.4433 8.98587L12.2637 9.80632C12.5325 9.75469 12.81 9.72766 13.0938 9.72766C15.5095 9.72766 17.4678 11.686 17.4678 14.1017C17.4678 14.3855 17.4408 14.663 17.3891 14.9317L18.2096 15.7522Z" fill="none"/>
<path d="M9.63657 11.4218C9.06188 12.1621 8.71973 13.0919 8.71973 14.1017C8.71973 16.5174 10.678 18.4757 13.0938 18.4757C14.1035 18.4757 15.0333 18.1336 15.7736 17.5589L16.4853 18.2706C15.5603 19.024 14.3798 19.4757 13.0938 19.4757C10.1258 19.4757 7.71973 17.0697 7.71973 14.1017C7.71973 12.8157 8.17146 11.6351 8.9249 10.7101L9.63657 11.4218Z" fill="none"/>
<path d="M21.4407 18.9838C22.9105 17.7128 24.0635 16.383 24.7762 15.4859L24.8359 15.411C25.1604 15.0045 25.4601 14.6291 25.4601 14.1018C25.4601 13.5744 25.1604 13.1991 24.8359 12.7925L24.7762 12.7176C23.8906 11.6029 22.3252 9.82017 20.317 8.3121C18.314 6.80791 15.8221 5.54071 13.0938 5.54071C11.6267 5.54071 10.2279 5.90716 8.93671 6.47985L9.69943 7.24257C10.7812 6.80563 11.9212 6.54071 13.0938 6.54071C15.5154 6.54071 17.7973 7.67046 19.7165 9.11172C21.6306 10.5491 23.1357 12.2603 23.9932 13.3396C24.4139 13.8692 24.4601 13.9636 24.4601 14.1018C24.4601 14.24 24.4139 14.3344 23.9932 14.8639C23.2937 15.7443 22.1634 17.0451 20.7317 18.2748L21.4407 18.9838Z" fill="none"/>
<path d="M19.0049 20.7907L18.2773 20.0631C16.6956 21.0097 14.9351 21.6628 13.0938 21.6628C10.6722 21.6628 8.39031 20.5331 6.4711 19.0918C4.55708 17.6544 3.05198 15.9433 2.19444 14.8639C1.77374 14.3344 1.72754 14.24 1.72754 14.1018C1.72754 13.9636 1.77374 13.8692 2.19444 13.3396C3.05198 12.2603 4.55708 10.5491 6.4711 9.11172C6.63375 8.98958 6.799 8.86967 6.96672 8.7525L6.24919 8.03497C6.12115 8.12627 5.99494 8.21873 5.87061 8.3121C3.86244 9.82017 2.29703 11.6029 1.41147 12.7176L1.35173 12.7925C1.02719 13.1991 0.727539 13.5744 0.727539 14.1018C0.727539 14.6291 1.02719 15.0045 1.35173 15.411L1.41147 15.4859C2.29703 16.6006 3.86244 18.3834 5.87061 19.8914C7.8736 21.3956 10.3656 22.6628 13.0938 22.6628C15.2541 22.6628 17.2663 21.8683 19.0049 20.7907Z" fill="none"/>
</svg>
