<svg width="24" height="20" viewBox="0 0 26 24" fill="none" xmlns="http://www.w3.org/2000/svg">
<path d="M24.8209 11.181C23.9429 9.261 20.4999 3 12.9999 3C5.49987 3 2.05687 9.261 1.17887 11.181C1.06101 11.4383 1 11.718 1 12.001C1 12.284 1.06101 12.5637 1.17887 12.821C2.05687 14.739 5.49987 21 12.9999 21C20.4999 21 23.9429 14.739 24.8209 12.819C24.9385 12.562 24.9994 12.2827 24.9994 12C24.9994 11.7173 24.9385 11.438 24.8209 11.181ZM12.9999 19C6.69287 19 3.74987 13.634 2.99987 12.011C3.74987 10.366 6.69287 5 12.9999 5C19.2919 5 22.2359 10.343 22.9999 12C22.2359 13.657 19.2919 19 12.9999 19Z" />
<path d="M12.9998 7.00031C12.0109 7.00031 11.0442 7.29355 10.2219 7.84296C9.39966 8.39236 8.7588 9.17326 8.38036 10.0869C8.00192 11.0005 7.90291 12.0059 8.09583 12.9758C8.28876 13.9457 8.76496 14.8366 9.46422 15.5358C10.1635 16.2351 11.0544 16.7113 12.0243 16.9042C12.9942 17.0972 13.9995 16.9981 14.9132 16.6197C15.8268 16.2413 16.6077 15.6004 17.1571 14.7782C17.7065 13.9559 17.9998 12.9892 17.9998 12.0003C17.9982 10.6747 17.4709 9.40386 16.5335 8.46653C15.5962 7.52919 14.3254 7.00189 12.9998 7.00031ZM12.9998 15.0003C12.4064 15.0003 11.8264 14.8244 11.333 14.4947C10.8397 14.1651 10.4552 13.6965 10.2281 13.1484C10.0011 12.6002 9.94165 11.997 10.0574 11.415C10.1732 10.8331 10.4589 10.2985 10.8784 9.87898C11.298 9.45943 11.8325 9.17371 12.4145 9.05795C12.9964 8.94219 13.5996 9.0016 14.1478 9.22867C14.696 9.45573 15.1645 9.84025 15.4942 10.3336C15.8238 10.8269 15.9998 11.407 15.9998 12.0003C15.9998 12.796 15.6837 13.559 15.1211 14.1216C14.5585 14.6842 13.7954 15.0003 12.9998 15.0003Z" />
</svg>
