<svg width="32" height="32" viewBox="0 0 32 32" fill="none" xmlns="http://www.w3.org/2000/svg">
<path d="M4 17.3333V12C4 8.22876 4 6.34315 5.17157 5.17157C6.34315 4 8.22876 4 12 4H20C23.7712 4 25.6569 4 26.8284 5.17157C28 6.34315 28 8.22876 28 12V20C28 23.7712 28 25.6569 26.8284 26.8284C25.6569 28 23.7712 28 20 28H16" stroke="#C3CFD9" stroke-width="2"/>
<path fill-rule="evenodd" clip-rule="evenodd" d="M26.0003 19.2522L24.7738 18.0257L24.753 18.0048L24.7529 18.0048C24.4251 17.6769 24.1482 17.4001 23.91 17.1885C23.6656 16.9715 23.4012 16.7668 23.0874 16.6291C22.0053 16.1541 20.7453 16.3586 19.869 17.1514C19.6149 17.3813 19.4287 17.659 19.2655 17.9423C19.1064 18.2183 18.9313 18.5685 18.7239 18.9832L18.7239 18.9833L18.7107 19.0096C18.5878 19.2555 18.5151 19.3998 18.4566 19.5013L18.4441 19.5225L18.4269 19.5049C18.3455 19.4207 18.24 19.2983 18.061 19.0896L11.4263 11.349C11.0668 10.9297 10.4355 10.8811 10.0162 11.2405C9.59689 11.5999 9.54833 12.2312 9.90775 12.6506L16.5425 20.3911L16.5594 20.4108L16.5595 20.4109C16.7157 20.5932 16.8607 20.7624 16.9891 20.8951C17.1217 21.0323 17.2982 21.1974 17.5309 21.3171C18.2615 21.6931 19.1477 21.584 19.7653 21.042C19.962 20.8694 20.0933 20.6665 20.1886 20.5013C20.281 20.3413 20.3806 20.142 20.488 19.9272L20.488 19.9272L20.4996 19.904C20.7236 19.4559 20.8724 19.1594 20.9983 18.9409C21.1233 18.724 21.1859 18.6569 21.2107 18.6345C21.5028 18.3703 21.9228 18.3021 22.2835 18.4604C22.3141 18.4739 22.3947 18.5176 22.582 18.6839C22.7705 18.8514 23.0053 19.0856 23.3596 19.4399L25.9599 22.0402C25.9698 22.0502 25.9799 22.0598 25.9902 22.0693C25.9996 21.4787 26.0003 20.7971 26.0003 19.9998V19.2522Z" fill="#C3CFD9"/>
<circle cx="22" cy="10" r="2" fill="#C3CFD9"/>
<path d="M10.667 21.3333V20.3333H11.667V21.3333H10.667ZM4.62502 27.4475C4.19376 27.7925 3.56447 27.7225 3.21946 27.2913C2.87445 26.86 2.94437 26.2307 3.37563 25.8857L4.62502 27.4475ZM9.66699 27.9999V21.3333H11.667V27.9999H9.66699ZM10.667 22.3333H4.00033V20.3333H10.667V22.3333ZM11.2917 22.1141L4.62502 27.4475L3.37563 25.8857L10.0423 20.5524L11.2917 22.1141Z" fill="#C3CFD9"/>
</svg>
