<svg width="10" height="22" viewBox="0 0 10 22" fill="none" xmlns="http://www.w3.org/2000/svg">
<path d="M6.74474 5.33333C8.2175 5.33333 9.41141 4.13943 9.41141 2.66667C9.41141 1.19391 8.2175 0 6.74474 0C5.27198 0 4.07807 1.19391 4.07807 2.66667C4.07807 4.13943 5.27198 5.33333 6.74474 5.33333Z" fill="none"/>
<path d="M9.47141 16.1533C9.39774 16.1038 9.31491 16.0694 9.22779 16.0523C9.14067 16.0352 9.05101 16.0357 8.96407 16.0537C8.87713 16.0717 8.79467 16.1069 8.72151 16.1572C8.64836 16.2075 8.58599 16.2719 8.53807 16.3467C7.8936 17.3011 7.1041 18.1491 6.19807 18.86C5.97807 19.0267 5.15807 19.66 4.81141 19.5267C4.57141 19.4533 4.71141 18.98 4.75807 18.78L5.11141 17.7333C5.25807 17.3067 7.81141 9.73333 8.09141 8.86667C8.50474 7.6 8.32474 6.35333 6.43807 6.65333C5.92474 6.70667 0.718073 7.38 0.62474 7.38667C0.537192 7.39236 0.451622 7.41524 0.372916 7.454C0.29421 7.49276 0.223909 7.54664 0.166028 7.61257C0.108146 7.6785 0.0638164 7.75518 0.0355707 7.83825C0.00732501 7.92131 -0.00428371 8.00912 0.00140691 8.09667C0.00709752 8.18422 0.0299764 8.26978 0.068737 8.34849C0.107498 8.4272 0.16138 8.4975 0.22731 8.55538C0.29324 8.61326 0.369924 8.65759 0.452986 8.68584C0.536047 8.71408 0.623859 8.72569 0.711407 8.72C0.711407 8.72 2.71141 8.46 2.93141 8.44C3.04409 8.429 3.15756 8.45084 3.25811 8.50289C3.35866 8.55494 3.442 8.63497 3.49807 8.73333C3.61887 9.10675 3.60232 9.51104 3.45141 9.87333C3.27807 10.54 0.538074 18.26 0.451407 18.7067C0.358452 19.0804 0.38426 19.4739 0.525244 19.8323C0.666229 20.1908 0.915383 20.4964 1.23807 20.7067C1.84375 21.1104 2.56491 21.3047 3.29141 21.26C3.99779 21.2514 4.69637 21.1112 5.35141 20.8467C7.01141 20.18 8.74474 18.4067 9.65807 17.0133C9.73672 16.8718 9.76115 16.7064 9.7268 16.5482C9.69245 16.3899 9.60167 16.2496 9.47141 16.1533Z" fill="none"/>
</svg>
