<svg width="12" height="12" viewBox="0 0 12 12" fill="none" xmlns="http://www.w3.org/2000/svg">
<path d="M10.5 1.5V1H11V1.5H10.5ZM5.85355 6.85355C5.65829 7.04882 5.34171 7.04882 5.14645 6.85355C4.95118 6.65829 4.95118 6.34171 5.14645 6.14645L5.85355 6.85355ZM10 5.5V1.5H11V5.5H10ZM10.5 2H6.5V1H10.5V2ZM10.8536 1.85355L5.85355 6.85355L5.14645 6.14645L10.1464 1.14645L10.8536 1.85355Z" fill="#486060"/>
<path d="M10 7.5V8C10 8.94281 10 9.41421 9.70711 9.70711C9.41421 10 8.94281 10 8 10H4C3.05719 10 2.58579 10 2.29289 9.70711C2 9.41421 2 8.94281 2 8V4C2 3.05719 2 2.58579 2.29289 2.29289C2.58579 2 3.05719 2 4 2H4.5" stroke="#486060" stroke-linecap="round"/>
</svg>
