<svg width="116" height="116" viewBox="0 0 144 144" fill="none" xmlns="http://www.w3.org/2000/svg">
<mask id="mask0_14760_29148" style="mask-type:alpha" maskUnits="userSpaceOnUse" x="0" y="0" width="144" height="144">
<rect width="144" height="144" rx="8" fill="#D9D9D9"/>
</mask>
<g mask="url(#mask0_14760_29148)">
<rect y="-32" width="144" height="240"/>
<path d="M51 74.3333V59C51 55.2288 51 53.3431 52.1716 52.1716C53.3431 51 55.2288 51 59 51H85C88.7712 51 90.6569 51 91.8284 52.1716C93 53.3431 93 55.2288 93 59V85C93 88.7712 93 90.6569 91.8284 91.8284C90.6569 93 88.7712 93 85 93H72" stroke="#C3CFD9" stroke-width="2"/>
<path fill-rule="evenodd" clip-rule="evenodd" d="M91.0001 80.252L85.9648 75.2167L85.9097 75.1615C85.0614 74.3132 84.3469 73.5986 83.7138 73.1275C83.0482 72.6321 82.2957 72.2694 81.4008 72.4146C80.5059 72.5598 79.9067 73.1419 79.4319 73.8223C78.9803 74.4695 78.5284 75.3733 77.992 76.4464L77.9919 76.4464L77.9571 76.5161L77.1194 78.1915C76.8002 78.83 76.6092 79.206 76.4429 79.4437L76.4355 79.4542L76.4258 79.4458C76.2068 79.2556 75.9303 78.937 75.4657 78.3951L63.426 64.3487C63.0666 63.9294 62.4353 63.8809 62.016 64.2403C61.5966 64.5997 61.5481 65.231 61.9075 65.6503L73.9472 79.6967L73.9918 79.7487C74.3962 80.2206 74.7696 80.6563 75.1141 80.9557C75.486 81.2787 76.008 81.6076 76.6902 81.5236C77.3725 81.4396 77.7991 80.994 78.0816 80.5903C78.3432 80.2164 78.5998 79.7032 78.8776 79.1472L78.9083 79.0859L79.746 77.4105C80.3267 76.2491 80.7145 75.4793 81.072 74.9669C81.4162 74.4737 81.6054 74.4076 81.7212 74.3888C81.8369 74.37 82.0373 74.3729 82.5198 74.7319C83.021 75.105 83.6323 75.7127 84.5506 76.6309L89.9597 82.04C90.241 82.3213 90.6483 82.4 91.0001 82.2759V80.252ZM76.33 79.5813C76.33 79.5811 76.3313 79.58 76.3339 79.5781C76.3313 79.5804 76.33 79.5814 76.33 79.5813ZM76.5641 79.5497C76.5671 79.551 76.5686 79.5518 76.5687 79.5519C76.5687 79.552 76.5672 79.5514 76.5641 79.5497Z" fill="#C3CFD9"/>
<circle cx="82.5" cy="61.5" r="3.5" fill="#C3CFD9"/>
<path d="M62.6667 81.3335V80.3335H63.6667V81.3335H62.6667ZM51.6248 91.4477C51.1935 91.7927 50.5642 91.7228 50.2192 91.2915C49.8742 90.8603 49.9441 90.231 50.3754 89.886L51.6248 91.4477ZM61.6667 93.0002V81.3335H63.6667V93.0002H61.6667ZM62.6667 82.3335H51.0001V80.3335H62.6667V82.3335ZM63.2914 82.1144L51.6248 91.4477L50.3754 89.886L62.0421 80.5526L63.2914 82.1144Z" fill="#C3CFD9"/>
</g>
</svg>
