<svg width="16" height="22" viewBox="0 0 16 22" fill="none" xmlns="http://www.w3.org/2000/svg">
<path fill-rule="evenodd" clip-rule="evenodd" d="M15.9049 7.95244V7.95245C15.9049 10.6265 14.5851 12.9922 12.5614 14.4339C12.2813 14.6334 12.1413 14.7331 12.0549 14.8403C11.9686 14.9474 11.917 15.0678 11.8138 15.3087L11.8137 15.3087C11.6867 15.6051 11.5694 15.9053 11.462 16.2087C9.17732 16.9173 6.72744 16.9172 4.44279 16.2085C4.33538 15.9051 4.21811 15.6051 4.09113 15.3087C3.98789 15.0679 3.93627 14.9474 3.84994 14.8403C3.7636 14.7331 3.62356 14.6334 3.34349 14.4339C1.31979 12.9922 5.33452e-06 10.6265 0 7.95245V7.95244C0 3.56043 3.56043 0 7.95244 0C12.3444 0 15.9049 3.56043 15.9049 7.95244ZM5.04212 18.431C5.15488 19.0287 5.23134 19.634 5.27062 20.2435C5.29436 20.6117 5.30623 20.7959 5.35741 20.9335C5.41437 21.0867 5.49023 21.2011 5.60923 21.3131C5.71615 21.4138 5.8653 21.4884 6.16358 21.6375C7.28969 22.2006 8.61518 22.2006 9.74129 21.6375C10.0396 21.4884 10.1887 21.4138 10.2956 21.3131C10.4146 21.2011 10.4905 21.0867 10.5475 20.9335C10.5986 20.7959 10.6105 20.6117 10.6342 20.2435C10.6735 19.634 10.75 19.0288 10.8627 18.4311C8.9451 18.8431 6.95973 18.8431 5.04212 18.431Z" fill="#C9E0E0"/>
</svg>
