<svg width="20" height="18" viewBox="0 0 20 18" fill="none" xmlns="http://www.w3.org/2000/svg">
<path d="M11.0447 1.34781L11.3265 0.934789L11.0447 1.34781ZM8.38581 16.029L8.87836 15.943L8.38581 16.029ZM9.96773 14.265C12.329 13.0609 13.9442 10.6072 13.9442 7.77715H14.9442C14.9442 10.9976 13.105 13.7877 10.422 15.1558L9.96773 14.265ZM13.9442 7.77715C13.9442 5.27749 12.6845 3.07191 10.7629 1.76083L11.3265 0.934789C13.5094 2.42421 14.9442 4.93305 14.9442 7.77715H13.9442ZM18.3887 8.88886C18.3887 4.86946 15.1303 1.61108 11.1109 1.61108V0.611084C15.6826 0.611084 19.3887 4.31717 19.3887 8.88886H18.3887ZM11.1109 16.1666C15.1303 16.1666 18.3887 12.9083 18.3887 8.88886H19.3887C19.3887 13.4606 15.6826 17.1666 11.1109 17.1666V16.1666ZM10.1872 16.1086C10.4895 16.1469 10.7978 16.1666 11.1109 16.1666V17.1666C10.7557 17.1666 10.4055 17.1442 10.0617 17.1007L10.1872 16.1086ZM10.7629 1.76083C10.5157 1.59215 10.4449 1.304 10.509 1.07038C10.5745 0.83159 10.7941 0.611084 11.1109 0.611084V1.61108C11.3012 1.61108 11.4354 1.47329 11.4733 1.33504C11.5099 1.20195 11.4692 1.03217 11.3265 0.934789L10.7629 1.76083ZM10.422 15.1558C9.78459 15.4809 9.35023 15.7034 9.07747 15.8869C8.94094 15.9787 8.88364 16.036 8.86425 16.0615C8.85454 16.0743 8.89263 16.0247 8.87836 15.943L7.89326 16.1149C7.84724 15.8513 7.93955 15.6256 8.06803 15.4565C8.18683 15.3002 8.3517 15.1699 8.51931 15.0571C8.85487 14.8314 9.35678 14.5765 9.96773 14.265L10.422 15.1558ZM10.0617 17.1007C9.52115 17.0323 9.05663 16.9749 8.72471 16.8815C8.41253 16.7937 7.97934 16.608 7.89326 16.1149L8.87836 15.943C8.85577 15.8136 8.73352 15.8451 8.99559 15.9189C9.23792 15.9871 9.61097 16.0357 10.1872 16.1086L10.0617 17.1007Z" fill="#BFF102"/>
<path d="M3.4 6.2L3.4 6.2C3.50137 6.50412 3.55206 6.65618 3.60276 6.7225C3.80288 6.98431 4.19712 6.98431 4.39724 6.7225C4.44794 6.65618 4.49863 6.50412 4.6 6.2L4.6 6.2C4.68177 5.95468 4.72266 5.83201 4.77555 5.72099C4.97291 5.30672 5.30672 4.97291 5.72099 4.77555C5.83201 4.72266 5.95468 4.68177 6.2 4.6L6.2 4.6C6.50412 4.49863 6.65618 4.44794 6.7225 4.39724C6.98431 4.19712 6.98431 3.80288 6.7225 3.60276C6.65618 3.55206 6.50412 3.50137 6.2 3.4L6.2 3.4C5.95468 3.31822 5.83201 3.27734 5.72099 3.22445C5.30672 3.02709 4.97291 2.69329 4.77555 2.27901C4.72266 2.16799 4.68177 2.04532 4.6 1.8C4.49863 1.49588 4.44794 1.34382 4.39724 1.2775C4.19712 1.01569 3.80288 1.01569 3.60276 1.2775C3.55206 1.34382 3.50137 1.49588 3.4 1.8C3.31823 2.04532 3.27734 2.16799 3.22445 2.27901C3.02709 2.69329 2.69329 3.02709 2.27901 3.22445C2.16799 3.27734 2.04532 3.31823 1.8 3.4C1.49588 3.50137 1.34382 3.55206 1.2775 3.60276C1.01569 3.80288 1.01569 4.19712 1.2775 4.39724C1.34382 4.44794 1.49588 4.49863 1.8 4.6C2.04532 4.68177 2.16799 4.72266 2.27901 4.77555C2.69329 4.97291 3.02709 5.30672 3.22445 5.72099C3.27734 5.83201 3.31822 5.95468 3.4 6.2Z" stroke="#BFF102"/>
</svg>
