<svg width="26" height="26" viewBox="0 0 26 26" fill="none" xmlns="http://www.w3.org/2000/svg">
<circle cx="13" cy="13" r="13" fill="#0C0D18"/>
<path fill-rule="evenodd" clip-rule="evenodd" d="M18.749 10.7836V10.7836C18.749 12.6697 17.8462 14.3449 16.4491 15.4007L16.4491 15.4007C16.1599 15.6192 16.0153 15.7285 15.9334 15.8348C15.8514 15.9411 15.8044 16.0555 15.7104 16.2843C15.6861 16.3434 15.6624 16.4026 15.6392 16.4621C13.906 17.0485 12.0247 17.0485 10.2916 16.4619C10.2684 16.4025 10.2447 16.3433 10.2204 16.2843C10.1264 16.0555 10.0794 15.9411 9.99745 15.8348C9.91549 15.7285 9.7709 15.6192 9.48172 15.4007L9.48171 15.4007C8.08465 14.3449 7.18183 12.6697 7.18182 10.7836V10.7836C7.18182 7.5894 9.77123 5 12.9654 5C16.1596 5 18.749 7.5894 18.749 10.7836ZM10.8994 18.6936C10.9828 19.2126 11.0289 19.7386 11.0364 20.2675C11.0378 20.3627 11.0914 20.4498 11.1766 20.4924C12.3027 21.0555 13.6282 21.0555 14.7543 20.4924C14.8395 20.4498 14.893 20.3627 14.8944 20.2675C14.9019 19.7386 14.948 19.2126 15.0315 18.6937C13.6685 18.9713 12.2623 18.9713 10.8994 18.6936Z" fill="#C9E0E0"/>
</svg>
