<svg width="32" height="32" viewBox="0 0 32 32" fill="none" xmlns="http://www.w3.org/2000/svg">
<circle cx="16" cy="16" r="16" fill="#3FDFAE"/>
<path d="M22.475 15.3748H19.1083C17.4333 15.3748 16.625 14.6332 16.625 13.0998V9.3165C16.625 7.78317 17.4417 7.0415 19.1083 7.0415H22.475C24.15 7.0415 24.9583 7.78317 24.9583 9.3165V13.0915C24.9583 14.6332 24.1417 15.3748 22.475 15.3748ZM19.1083 8.2915C17.9917 8.2915 17.875 8.60817 17.875 9.3165V13.0915C17.875 13.8082 17.9917 14.1165 19.1083 14.1165H22.475C23.5917 14.1165 23.7083 13.7998 23.7083 13.0915V9.3165C23.7083 8.59984 23.5917 8.2915 22.475 8.2915H19.1083Z" fill="#0C0D18"/>
<path d="M22.475 24.9583H19.1083C17.4333 24.9583 16.625 24.1417 16.625 22.475V19.1083C16.625 17.4333 17.4417 16.625 19.1083 16.625H22.475C24.15 16.625 24.9583 17.4417 24.9583 19.1083V22.475C24.9583 24.1417 24.1417 24.9583 22.475 24.9583ZM19.1083 17.875C18.125 17.875 17.875 18.125 17.875 19.1083V22.475C17.875 23.4583 18.125 23.7083 19.1083 23.7083H22.475C23.4583 23.7083 23.7083 23.4583 23.7083 22.475V19.1083C23.7083 18.125 23.4583 17.875 22.475 17.875H19.1083Z" fill="#0C0D18"/>
<path d="M12.8916 15.3748H9.52496C7.84996 15.3748 7.04163 14.6332 7.04163 13.0998V9.3165C7.04163 7.78317 7.85829 7.0415 9.52496 7.0415H12.8916C14.5666 7.0415 15.375 7.78317 15.375 9.3165V13.0915C15.375 14.6332 14.5583 15.3748 12.8916 15.3748ZM9.52496 8.2915C8.40829 8.2915 8.29163 8.60817 8.29163 9.3165V13.0915C8.29163 13.8082 8.40829 14.1165 9.52496 14.1165H12.8916C14.0083 14.1165 14.125 13.7998 14.125 13.0915V9.3165C14.125 8.59984 14.0083 8.2915 12.8916 8.2915H9.52496Z" fill="#0C0D18"/>
<path d="M12.8916 24.9583H9.52496C7.84996 24.9583 7.04163 24.1417 7.04163 22.475V19.1083C7.04163 17.4333 7.85829 16.625 9.52496 16.625H12.8916C14.5666 16.625 15.375 17.4417 15.375 19.1083V22.475C15.375 24.1417 14.5583 24.9583 12.8916 24.9583ZM9.52496 17.875C8.54163 17.875 8.29163 18.125 8.29163 19.1083V22.475C8.29163 23.4583 8.54163 23.7083 9.52496 23.7083H12.8916C13.875 23.7083 14.125 23.4583 14.125 22.475V19.1083C14.125 18.125 13.875 17.875 12.8916 17.875H9.52496Z" fill="#0C0D18"/>
</svg>
