<svg width="24" height="24" viewBox="0 0 24 24" fill="none" xmlns="http://www.w3.org/2000/svg">
<path d="M3 13V11C3 7.22876 3 5.34315 4.17157 4.17157C5.34315 3 7.22876 3 11 3H13C16.7712 3 18.6569 3 19.8284 4.17157C21 5.34315 21 7.22876 21 11V13C21 16.7712 21 18.6569 19.8284 19.8284C18.6569 21 16.7712 21 13 21H12" stroke="#0D7E71" stroke-width="2"/>
<path fill-rule="evenodd" clip-rule="evenodd" d="M18.9997 13.5855L18.7569 13.3427L18.7422 13.328C18.6785 13.2643 18.6249 13.2107 18.5777 13.1673C17.1476 11.8533 14.8649 12.2237 13.9237 13.9225C13.8926 13.9786 13.8588 14.0464 13.8185 14.127L13.8185 14.127L13.8092 14.1456L13.781 14.2017L13.7791 14.2055L13.7763 14.2023L13.7354 14.1547L8.75927 8.34923C8.39985 7.9299 7.76855 7.88134 7.34923 8.24076C6.9299 8.60018 6.88134 9.23148 7.24076 9.65081L12.2168 15.4562L12.2257 15.4665C12.2545 15.5002 12.2884 15.5398 12.3193 15.5728C13.246 16.5624 14.8679 16.3627 15.5269 15.1779C15.5489 15.1384 15.5722 15.0918 15.592 15.0521L15.592 15.0521L15.5981 15.04C15.6528 14.9305 15.6657 14.9053 15.6732 14.8917C15.9869 14.3255 16.7478 14.202 17.2245 14.64C17.236 14.6505 17.2561 14.6703 17.3427 14.7569L18.9442 16.3584C18.9902 15.6405 18.9984 14.7481 18.9997 13.5855Z" fill="#0D7E71"/>
<circle cx="16.5" cy="7.5" r="1.5" fill="#0D7E71"/>
<path d="M8 16V15H9V16H8ZM3.62469 20.7809C3.19343 21.1259 2.56414 21.056 2.21913 20.6247C1.87412 20.1934 1.94404 19.5641 2.37531 19.2191L3.62469 20.7809ZM7 21V16H9V21H7ZM8 17H3V15H8V17ZM8.6247 16.7809L3.62469 20.7809L2.37531 19.2191L7.3753 15.2191L8.6247 16.7809Z" fill="#0D7E71"/>
</svg>
