<svg width="537" height="200" viewBox="0 0 537 200" fill="none" xmlns="http://www.w3.org/2000/svg">
<g clip-path="url(#clip0_903_27502)">
<path d="M0.201383 178.054C0.201383 165.302 -0.402646 152.752 1.67789 140.134C24.8994 116.779 47.9866 93.8927 67.8524 67.5168C73.6913 59.7987 77.1812 51.4095 81.0739 42.6175C87.1141 28.7249 96.443 18.3893 106.175 6.8457C123.087 6.91282 140 6.9128 156.913 6.97992C152.282 20.6712 144.631 32.0806 153.758 45.3021C159.06 53.0873 167.248 59.5303 167.45 69.5974C167.584 76.9799 161.745 88.188 159.463 95.235C154.631 110.336 147.383 122.618 139.396 136.443C146.711 136.443 154.094 136.443 161.409 136.443C156.846 149.933 158.255 163.893 158.255 178.054C150.94 178.054 143.557 178.054 136.242 178.054C136.242 191.745 155.369 187.517 157.919 200C142.617 200 127.315 200 112.013 200C109.463 187.517 90.2685 191.745 90.3356 178.054C60.3356 178.054 30.2685 178.054 0.201383 178.054ZM121.611 57.7853C120.336 71.3423 103.49 82.0135 94.7652 91.4095C80.537 106.711 66.3759 121.745 51.6108 136.51C66.6443 136.51 81.6779 136.51 96.7115 136.51C105.302 121.342 113.02 108.054 118.054 91.4095C121.141 81.2081 129.53 67.584 121.611 57.7853Z" fill="#2E323E"/>
<path d="M211.342 28.4564C228.725 10.7383 252.953 0.0671141 277.987 0C300.604 0 321.409 9.26174 334.698 26.7785C340.336 34.1611 341.208 45.9732 342.349 55.302C344.228 70.6711 352.953 86.8456 353.289 99.396C353.624 113.289 339.195 128.188 339.732 145.839C340.067 157.047 340.671 164.161 333.826 173.691C320.537 192.081 299.933 198.859 277.987 199.262C254.832 199.664 223.356 193.154 202.081 183.691C192.416 179.396 186.242 160.738 184.832 151.074C182.081 132.013 200.604 115.705 202.618 99.4631C203.96 88.3893 205.436 73.9597 205.034 61.4094C204.564 48.0537 200.873 39.0604 211.342 28.4564ZM290.067 58.3221C290 47.5168 278.658 43.8255 269.597 43.9597C259.933 44.094 249.195 47.9866 245.638 57.7852C240.94 70.8725 246.644 87.3154 247.517 99.3289C248.456 112.013 233.222 125.839 231.611 139.195C230.805 146.242 236.04 153.624 241.879 157.919C248.591 162.886 257.651 163.758 265.638 163.02C272.886 162.349 281.946 160.134 286.04 153.826C289.732 148.188 290.604 140.134 292.819 134.027C296.577 123.423 310.537 108.792 307.987 99.2617C305.973 91.8121 296.711 82.0134 292.886 73.0872C289.665 65.7718 290.134 66.2416 290.067 58.3221Z" fill="#2E323E"/>
<path d="M378.591 165.101C375.101 152.282 367.517 143.289 368.389 129.597C379.732 118.389 392.416 108.591 401.477 95.3692C407.785 86.1745 412.081 75.7718 418.054 66.3759C431.342 45.5705 449.195 27.1812 463.49 6.77856C480.604 6.77856 497.651 6.77856 514.765 6.77856C514.765 19.1276 516.107 31.6779 512.081 43.49C509.128 52.2148 502.886 58.4564 503.624 68.3222C504.295 78.0537 513.02 85.6376 514.027 95.1678C515.503 108.792 504.765 118.859 497.517 129.463C504.698 129.53 511.879 129.597 519.061 129.597C511.879 149.195 530.873 149.128 536.644 165.168C529.329 165.168 521.946 165.168 514.631 165.168C513.893 180.537 489.463 186.913 505.973 200C491.611 200 477.248 200 462.819 200C449.597 191.611 468.725 175.57 468.725 165.101C438.658 165.101 408.658 165.101 378.591 165.101ZM465.571 56.3088C456.309 67.2484 454.228 78.3893 448.524 91.0068C441.477 106.577 427.383 116.242 415.168 127.584C429.128 127.92 443.154 128.322 457.114 128.658C464.967 115.772 473.49 106.577 470.604 91.0739C468.255 78.1208 462.752 69.9329 465.571 56.3088Z" fill="#2E323E"/>
</g>
<defs>
<clipPath id="clip0_903_27502">
<rect width="536.913" height="200" fill="white"/>
</clipPath>
</defs>
</svg>
