<svg width="16" height="16" viewBox="0 0 16 16" fill="none" xmlns="http://www.w3.org/2000/svg">
<g clip-path="url(#clip0_17687_9295)">
<path fill-rule="evenodd" clip-rule="evenodd" d="M8.37879 -5.21927e-08C8.8404 -8.10179e-08 9.21461 0.37421 9.21461 0.835821L9.21461 15.1642C9.21461 15.6258 8.8404 16 8.37879 16C7.91718 16 7.54297 15.6258 7.54297 15.1642L7.54297 0.835821C7.54297 0.37421 7.91718 -2.33675e-08 8.37879 -5.21927e-08Z" fill="#486060"/>
<path fill-rule="evenodd" clip-rule="evenodd" d="M16 7.69324C16 8.15485 15.6258 8.52906 15.1642 8.52906L0.835821 8.52906C0.37421 8.52906 -8.10179e-08 8.15485 -5.21927e-08 7.69324C-2.33675e-08 7.23163 0.37421 6.85742 0.835821 6.85742L15.1642 6.85742C15.6258 6.85742 16 7.23163 16 7.69324Z" fill="#486060"/>
</g>
<defs>
<clipPath id="clip0_17687_9295">
<rect width="16" height="16" fill="white"/>
</clipPath>
</defs>
</svg>
