<svg width="20" height="20" viewBox="0 0 20 20" fill="none" xmlns="http://www.w3.org/2000/svg">
<g clip-path="url(#clip0_17320_23858)">
<path fill-rule="evenodd" clip-rule="evenodd" d="M1.91919 1.81726C1.86341 1.81726 1.81818 1.86246 1.81818 1.91822V4.947C1.81818 5.00275 1.86341 5.04796 1.91919 5.04796H4.94949C5.00528 5.04796 5.05051 5.00275 5.05051 4.947V1.91822C5.05051 1.86246 5.00528 1.81726 4.94949 1.81726H1.91919ZM0 1.91822C0 0.858818 0.859251 0 1.91919 0H4.94949C6.00944 0 6.86869 0.858818 6.86869 1.91822V4.947C6.86869 6.0064 6.00944 6.86522 4.94949 6.86522H1.91919C0.859251 6.86522 0 6.0064 0 4.947V1.91822Z" fill="#00839F"/>
<path fill-rule="evenodd" clip-rule="evenodd" d="M15.0505 1.81726C14.9947 1.81726 14.9495 1.86246 14.9495 1.91822V4.947C14.9495 5.00275 14.9947 5.04796 15.0505 5.04796H18.0808C18.1366 5.04796 18.1818 5.00275 18.1818 4.947V1.91822C18.1818 1.86246 18.1366 1.81726 18.0808 1.81726H15.0505ZM13.1313 1.91822C13.1313 0.858818 13.9906 0 15.0505 0H18.0808C19.1407 0 20 0.858818 20 1.91822V4.947C20 6.0064 19.1407 6.86522 18.0808 6.86522H15.0505C13.9906 6.86522 13.1313 6.0064 13.1313 4.947V1.91822Z" fill="#00839F"/>
<path fill-rule="evenodd" clip-rule="evenodd" d="M1.91919 14.9419C1.86341 14.9419 1.81818 14.9871 1.81818 15.0429V18.0717C1.81818 18.1274 1.86341 18.1726 1.91919 18.1726H4.94949C5.00528 18.1726 5.05051 18.1274 5.05051 18.0717V15.0429C5.05051 14.9871 5.00528 14.9419 4.94949 14.9419H1.91919ZM0 15.0429C0 13.9835 0.859251 13.1247 1.91919 13.1247H4.94949C6.00944 13.1247 6.86869 13.9835 6.86869 15.0429V18.0717C6.86869 19.1311 6.00944 19.9899 4.94949 19.9899H1.91919C0.859251 19.9899 0 19.1311 0 18.0717V15.0429Z" fill="#00839F"/>
<path fill-rule="evenodd" clip-rule="evenodd" d="M9.09091 0.908632C9.09091 0.406808 9.49792 0 10 0H10.0101C10.5122 0 10.9192 0.406808 10.9192 0.908632C10.9192 1.41046 10.5122 1.81726 10.0101 1.81726H10C9.49792 1.81726 9.09091 1.41046 9.09091 0.908632ZM10 4.03836C10.5021 4.03836 10.9091 4.44517 10.9091 4.947V7.97577C10.9091 8.75228 10.6005 9.49697 10.0511 10.046C9.50177 10.5951 8.7567 10.9036 7.9798 10.9036H4.94949C4.44742 10.9036 4.0404 10.4968 4.0404 9.99495C4.0404 9.49313 4.44742 9.08632 4.94949 9.08632H7.9798C8.27448 9.08632 8.5571 8.96932 8.76547 8.76105C8.97385 8.55278 9.09091 8.27031 9.09091 7.97577V4.947C9.09091 4.44517 9.49792 4.03836 10 4.03836ZM0 9.99495C0 9.49313 0.407014 9.08632 0.909091 9.08632H0.919192C1.42127 9.08632 1.82828 9.49313 1.82828 9.99495C1.82828 10.4968 1.42127 10.9036 0.919192 10.9036H0.909091C0.407014 10.9036 0 10.4968 0 9.99495ZM13.1313 9.99495C13.1313 9.49313 13.5383 9.08632 14.0404 9.08632H15.0505C15.5526 9.08632 15.9596 9.49313 15.9596 9.99495C15.9596 10.4968 15.5526 10.9036 15.0505 10.9036H14.0404C13.5383 10.9036 13.1313 10.4968 13.1313 9.99495ZM19.0909 9.08632C19.593 9.08632 20 9.49313 20 9.99495V10.005C20 10.5069 19.593 10.9137 19.0909 10.9137C18.5888 10.9137 18.1818 10.5069 18.1818 10.005V9.99495C18.1818 9.49313 18.5888 9.08632 19.0909 9.08632ZM10 13.1247C10.5021 13.1247 10.9091 13.5315 10.9091 14.0333V14.0434C10.9091 14.5452 10.5021 14.952 10 14.952C9.49792 14.952 9.09091 14.5452 9.09091 14.0434V14.0333C9.09091 13.5315 9.49792 13.1247 10 13.1247ZM13.9893 13.9822C14.5386 13.4332 15.2837 13.1247 16.0606 13.1247H19.0909C19.593 13.1247 20 13.5315 20 14.0333C20 14.5351 19.593 14.9419 19.0909 14.9419H16.0606C15.7659 14.9419 15.4833 15.059 15.2749 15.2672C15.0666 15.4755 14.9495 15.758 14.9495 16.0525V19.0813C14.9495 19.5831 14.5425 19.9899 14.0404 19.9899C13.5383 19.9899 13.1313 19.5831 13.1313 19.0813V16.0525C13.1313 15.276 13.4399 14.5313 13.9893 13.9822ZM10 17.163C10.5021 17.163 10.9091 17.5699 10.9091 18.0717V19.0813C10.9091 19.5831 10.5021 19.9899 10 19.9899C9.49792 19.9899 9.09091 19.5831 9.09091 19.0813V18.0717C9.09091 17.5699 9.49792 17.163 10 17.163ZM19.0909 18.1726C19.593 18.1726 20 18.5794 20 19.0813V19.0914C20 19.5932 19.593 20 19.0909 20C18.5888 20 18.1818 19.5932 18.1818 19.0914V19.0813C18.1818 18.5794 18.5888 18.1726 19.0909 18.1726Z" fill="#00839F"/>
</g>
<defs>
<clipPath id="clip0_17320_23858">
<rect width="20" height="20" fill="white"/>
</clipPath>
</defs>
</svg>
