<svg width="18" height="14" viewBox="0 0 18 14" fill="none" xmlns="http://www.w3.org/2000/svg">
    <path
        d="M16.8134 2.37363H4.94526C4.78788 2.37363 4.63694 2.31111 4.52566 2.19982C4.41437 2.08854 4.35185 1.9376 4.35185 1.78022C4.35185 1.62284 4.41437 1.4719 4.52566 1.36062C4.63694 1.24933 4.78788 1.18681 4.94526 1.18681H15.0332C15.1906 1.18681 15.3415 1.12429 15.4528 1.01301C15.5641 0.901723 15.6266 0.750788 15.6266 0.593407C15.6266 0.436025 15.5641 0.28509 15.4528 0.173805C15.3415 0.0625196 15.1906 0 15.0332 0H4.94526C4.47312 0 4.02031 0.187558 3.68645 0.521414C3.3526 0.85527 3.16504 1.30808 3.16504 1.78022V11.2747C3.16504 11.7469 3.3526 12.1997 3.68645 12.5335C4.02031 12.8674 4.47312 13.0549 4.94526 13.0549H16.8134C17.1282 13.0549 17.43 12.9299 17.6526 12.7073C17.8752 12.4848 18.0002 12.1829 18.0002 11.8681V3.56044C18.0002 3.24568 17.8752 2.94381 17.6526 2.72124C17.43 2.49867 17.1282 2.37363 16.8134 2.37363ZM16.8134 11.8681H4.94526C4.78788 11.8681 4.63694 11.8056 4.52566 11.6943C4.41437 11.583 4.35185 11.4321 4.35185 11.2747V3.45882C4.54239 3.52636 4.7431 3.56073 4.94526 3.56044H16.8134V11.8681ZM13.253 7.41758C13.253 7.24154 13.3052 7.06944 13.403 6.92306C13.5008 6.77669 13.6398 6.6626 13.8024 6.59523C13.9651 6.52786 14.144 6.51023 14.3167 6.54458C14.4894 6.57892 14.648 6.6637 14.7725 6.78818C14.8969 6.91266 14.9817 7.07127 15.0161 7.24393C15.0504 7.4166 15.0328 7.59557 14.9654 7.75821C14.898 7.92086 14.784 8.05988 14.6376 8.15768C14.4912 8.25549 14.3191 8.30769 14.1431 8.30769C13.907 8.30769 13.6806 8.21391 13.5137 8.04698C13.3467 7.88006 13.253 7.65365 13.253 7.41758Z"
        fill="white" />
    <rect y="5.91211" width="2.76923" height="7.43749" transform="rotate(-44.9501 0 5.91211)" fill="#984949" />
    <rect x="5.53809" y="3.95605" width="2.76923" height="7.43749" transform="rotate(45 5.53809 3.95605)"
        fill="#984949" />
    <path
        d="M6.16648 9.65385L6.16647 9.65384L4.28636 7.77402L6.16647 5.89419L6.16648 5.89418C6.23445 5.82621 6.27264 5.73401 6.27264 5.63787C6.27264 5.54174 6.23445 5.44954 6.16648 5.38156L6.07809 5.46995L6.16647 5.38156C6.0985 5.31358 6.0063 5.27539 5.91016 5.27539C5.81403 5.27539 5.72183 5.31358 5.65385 5.38156L5.65384 5.38157L3.77402 7.26167L1.89419 5.38157L1.89419 5.38156C1.82621 5.31358 1.73401 5.27539 1.63787 5.27539C1.54174 5.27539 1.44954 5.31358 1.38156 5.38156C1.31358 5.44954 1.27539 5.54174 1.27539 5.63787C1.27539 5.73401 1.31358 5.82621 1.38156 5.89419L1.38157 5.89419L3.26167 7.77402L1.38157 9.65384L1.38156 9.65385C1.31358 9.72183 1.27539 9.81403 1.27539 9.91016C1.27539 10.0063 1.31358 10.0985 1.38156 10.1665C1.44954 10.2345 1.54174 10.2726 1.63787 10.2726C1.73401 10.2726 1.82621 10.2345 1.89418 10.1665L1.89419 10.1665L3.77402 8.28636L5.65384 10.1665L5.65385 10.1665C5.68751 10.2001 5.72747 10.2268 5.77145 10.2451C5.81542 10.2633 5.86256 10.2726 5.91016 10.2726C5.95776 10.2726 6.0049 10.2633 6.04888 10.2451C6.09286 10.2268 6.13281 10.2001 6.16647 10.1665L6.07809 10.0781L6.16648 10.1665C6.20013 10.1328 6.22683 10.0929 6.24505 10.0489C6.26327 10.0049 6.27264 9.95776 6.27264 9.91016C6.27264 9.86256 6.26327 9.81542 6.24505 9.77145C6.22683 9.72747 6.20013 9.68751 6.16648 9.65385Z"
        fill="white" stroke="white" stroke-width="0.25" />
</svg>