<svg width="20" height="20" viewBox="0 0 20 20" fill="none" xmlns="http://www.w3.org/2000/svg">
    <path
        d="M1.81153 6.26367C3.60022 2.33101 8.01911 0.151821 12.3301 1.30695C15.9322 2.27213 18.4356 5.29097 18.9181 8.76621C18.9712 9.14907 18.9999 9.53747 19.0027 9.92927C19.0033 10.0087 18.9147 10.0553 18.8488 10.0109L16.1708 8.20649C16.0793 8.14486 16.1404 8.00226 16.2481 8.02588L18.0005 8.41018M18.1895 13.7367C16.4008 17.6693 11.9819 19.8485 7.67091 18.6934C4.06882 17.7282 1.56543 14.7094 1.08294 11.2341C1.02978 10.8513 1.00115 10.4629 0.998286 10.0711C0.997704 9.99161 1.08632 9.94507 1.15224 9.98948L3.83009 11.7938C3.92156 11.8554 3.86052 11.998 3.75278 11.9744L2.00051 11.5899"
        stroke="white" stroke-width="2" stroke-linecap="round" stroke-linejoin="round" />
</svg>