<svg width="22" height="21" viewBox="0 0 22 21" fill="none" xmlns="http://www.w3.org/2000/svg">
<path d="M16.3484 0.784937V17.4082L13.608 14.6545C13.3022 14.3473 12.8052 14.3461 12.498 14.6519C12.1907 14.9577 12.1895 15.4547 12.4953 15.762L16.577 19.8634L16.5777 19.8641C16.8835 20.1706 17.3821 20.1716 17.6889 19.8642L17.6897 19.8635L21.7714 15.7621C22.0771 15.4548 22.076 14.9578 21.7687 14.652C21.4614 14.3462 20.9644 14.3473 20.6586 14.6546L17.9183 17.4082V0.784937C17.9183 0.351418 17.5668 0 17.1333 0C16.6998 0 16.3484 0.351418 16.3484 0.784937Z" fill="none"/>
<path d="M4.08167 19.3095V2.68616L1.3413 5.43987C1.03549 5.74714 0.538503 5.74831 0.231239 5.4425C-0.0760632 5.13669 -0.077201 4.63967 0.228571 4.33241L4.31024 0.23096L4.31099 0.230254C4.6168 -0.0762245 5.11539 -0.0772057 5.42222 0.230175L5.42297 0.230882L9.50463 4.33233C9.81037 4.63955 9.80931 5.13658 9.50197 5.44243C9.1947 5.74824 8.69772 5.74706 8.39191 5.4398L5.65154 2.68616V19.3095C5.65154 19.743 5.30012 20.0944 4.8666 20.0944C4.43308 20.0944 4.08167 19.743 4.08167 19.3095Z" fill="none"/>
</svg>
