<svg width="18" height="18" viewBox="0 0 18 18" fill="none" xmlns="http://www.w3.org/2000/svg">
<g clip-path="url(#clip0_12966_2122)">
<path d="M14.25 1.50049H3.75C2.7558 1.50168 1.80267 1.89715 1.09966 2.60015C0.396661 3.30316 0.00119089 4.25629 0 5.25049L0 12.7505C0.00119089 13.7447 0.396661 14.6978 1.09966 15.4008C1.80267 16.1038 2.7558 16.4993 3.75 16.5005H14.25C15.2442 16.4993 16.1973 16.1038 16.9003 15.4008C17.6033 14.6978 17.9988 13.7447 18 12.7505V5.25049C17.9988 4.25629 17.6033 3.30316 16.9003 2.60015C16.1973 1.89715 15.2442 1.50168 14.25 1.50049ZM3.75 8.25049H5.25C5.44891 8.25049 5.63968 8.32951 5.78033 8.47016C5.92098 8.61081 6 8.80158 6 9.00049C6 9.1994 5.92098 9.39017 5.78033 9.53082C5.63968 9.67147 5.44891 9.75049 5.25 9.75049H3.75C3.55109 9.75049 3.36032 9.67147 3.21967 9.53082C3.07902 9.39017 3 9.1994 3 9.00049C3 8.80158 3.07902 8.61081 3.21967 8.47016C3.36032 8.32951 3.55109 8.25049 3.75 8.25049ZM9.75 13.5005H3.75C3.55109 13.5005 3.36032 13.4215 3.21967 13.2808C3.07902 13.1402 3 12.9494 3 12.7505C3 12.5516 3.07902 12.3608 3.21967 12.2202C3.36032 12.0795 3.55109 12.0005 3.75 12.0005H9.75C9.94891 12.0005 10.1397 12.0795 10.2803 12.2202C10.421 12.3608 10.5 12.5516 10.5 12.7505C10.5 12.9494 10.421 13.1402 10.2803 13.2808C10.1397 13.4215 9.94891 13.5005 9.75 13.5005ZM14.25 13.5005H12.75C12.5511 13.5005 12.3603 13.4215 12.2197 13.2808C12.079 13.1402 12 12.9494 12 12.7505C12 12.5516 12.079 12.3608 12.2197 12.2202C12.3603 12.0795 12.5511 12.0005 12.75 12.0005H14.25C14.4489 12.0005 14.6397 12.0795 14.7803 12.2202C14.921 12.3608 15 12.5516 15 12.7505C15 12.9494 14.921 13.1402 14.7803 13.2808C14.6397 13.4215 14.4489 13.5005 14.25 13.5005ZM14.25 9.75049H8.25C8.05109 9.75049 7.86032 9.67147 7.71967 9.53082C7.57902 9.39017 7.5 9.1994 7.5 9.00049C7.5 8.80158 7.57902 8.61081 7.71967 8.47016C7.86032 8.32951 8.05109 8.25049 8.25 8.25049H14.25C14.4489 8.25049 14.6397 8.32951 14.7803 8.47016C14.921 8.61081 15 8.80158 15 9.00049C15 9.1994 14.921 9.39017 14.7803 9.53082C14.6397 9.67147 14.4489 9.75049 14.25 9.75049Z" fill="#0D7E71"/>
</g>
<defs>
<clipPath id="clip0_12966_2122">
<rect width="18" height="18" fill="white"/>
</clipPath>
</defs>
</svg>
