<svg width="32" height="32" viewBox="0 0 32 32" fill="none" xmlns="http://www.w3.org/2000/svg">
<circle cx="16" cy="16" r="16" fill="#3FDFAE"/>
<path d="M12.7999 24.5999C9.8239 24.5999 7.3999 22.1759 7.3999 19.1999C7.3999 16.7679 9.0319 14.6239 11.3759 13.9919C11.6719 13.9119 11.9759 14.0639 12.0879 14.3519C12.5759 15.5759 13.6159 16.5119 14.8879 16.8559C15.5919 17.0479 16.4079 17.0479 17.0959 16.8559C17.3919 16.7759 17.7039 16.9279 17.8159 17.2159C18.0639 17.8479 18.1919 18.5199 18.1919 19.2079C18.1919 20.7439 17.5359 22.2079 16.3919 23.2239C15.4159 24.1039 14.1359 24.5999 12.7999 24.5999ZM11.2159 15.3039C9.6559 15.9439 8.5999 17.4799 8.5999 19.1999C8.5999 21.5119 10.4879 23.3999 12.7999 23.3999C13.8399 23.3999 14.8319 23.0159 15.5999 22.3199C16.4959 21.5279 16.9999 20.3919 16.9999 19.1999C16.9999 18.8319 16.9519 18.4799 16.8639 18.1359C16.1119 18.2559 15.2959 18.2159 14.5759 18.0159C13.1279 17.6159 11.9119 16.6239 11.2159 15.3039Z" fill="#1C1F2C"/>
<path d="M16.0001 18.1999C15.5041 18.1999 15.0241 18.1359 14.5761 18.0079C12.9521 17.5599 11.6001 16.3599 10.9761 14.7839C10.7281 14.1599 10.6001 13.4879 10.6001 12.7999C10.6001 9.8239 13.0241 7.3999 16.0001 7.3999C18.9761 7.3999 21.4001 9.8239 21.4001 12.7999C21.4001 13.4879 21.2721 14.1599 21.0241 14.7919C20.4001 16.3599 19.0561 17.5679 17.4241 18.0159C16.9761 18.1359 16.4961 18.1999 16.0001 18.1999ZM16.0001 8.5999C13.6881 8.5999 11.8001 10.4879 11.8001 12.7999C11.8001 13.3359 11.8961 13.8559 12.0961 14.3439C12.5841 15.5679 13.6241 16.5039 14.8961 16.8479C15.6001 17.0399 16.4161 17.0399 17.1041 16.8479C18.3761 16.5039 19.4241 15.5599 19.9041 14.3439C20.0961 13.8559 20.2001 13.3359 20.2001 12.7999C20.2001 10.4879 18.3121 8.5999 16.0001 8.5999Z" fill="#1C1F2C"/>
<path d="M19.1999 24.6C17.8639 24.6 16.5839 24.104 15.5999 23.216C15.4719 23.104 15.3999 22.936 15.3999 22.768C15.3999 22.6 15.4719 22.432 15.5999 22.32C16.4879 21.536 16.9999 20.4 16.9999 19.2C16.9999 18.664 16.9039 18.144 16.7039 17.656C16.6399 17.496 16.6479 17.32 16.7279 17.168C16.8079 17.016 16.9439 16.904 17.1039 16.856C18.3759 16.512 19.4159 15.576 19.9039 14.352C20.0159 14.064 20.3279 13.92 20.6159 13.992C22.9599 14.632 24.5919 16.768 24.5919 19.2C24.5999 22.176 22.1759 24.6 19.1999 24.6ZM16.8959 22.712C17.5759 23.16 18.3679 23.4 19.1999 23.4C21.5119 23.4 23.3999 21.512 23.3999 19.2C23.3999 17.48 22.3439 15.944 20.7839 15.304C20.1919 16.432 19.1999 17.328 18.0159 17.808C18.1359 18.256 18.1999 18.728 18.1999 19.2C18.1999 20.496 17.7359 21.744 16.8959 22.712Z" fill="#1C1F2C"/>
</svg>
