<svg width="40" height="40" viewBox="0 0 40 40" fill="none" xmlns="http://www.w3.org/2000/svg">
<circle cx="20" cy="20" r="20" fill="#3FDFAE"/>
<path d="M15.1698 30.7501C12.7898 30.7501 10.8398 29.0201 10.8398 26.8901V24.8501C10.8398 24.4401 11.1798 24.1001 11.5898 24.1001C11.9998 24.1001 12.3398 24.4401 12.3398 24.8501C12.3398 26.1001 13.5498 27.0401 15.1698 27.0401C16.7898 27.0401 17.9998 26.1001 17.9998 24.8501C17.9998 24.4401 18.3398 24.1001 18.7498 24.1001C19.1598 24.1001 19.4998 24.4401 19.4998 24.8501V26.8901C19.4998 29.0201 17.5598 30.7501 15.1698 30.7501ZM12.5998 27.8701C13.0398 28.6901 14.0298 29.2501 15.1698 29.2501C16.3098 29.2501 17.2998 28.6801 17.7398 27.8701C17.0298 28.3001 16.1498 28.5501 15.1698 28.5501C14.1898 28.5501 13.3098 28.3001 12.5998 27.8701Z" fill="#1C1F2C"/>
<path d="M15.1698 25.7999C13.5298 25.7999 12.0598 25.0499 11.3298 23.8599C11.0098 23.3399 10.8398 22.7299 10.8398 22.1099C10.8398 21.0599 11.2998 20.0799 12.1398 19.3499C13.7598 17.9299 16.5498 17.93 18.1798 19.34C19.0198 20.08 19.4898 21.0599 19.4898 22.1099C19.4898 22.7299 19.3198 23.3399 18.9998 23.8599C18.2798 25.0499 16.8098 25.7999 15.1698 25.7999ZM15.1698 19.7499C14.3898 19.7499 13.6698 20.0099 13.1298 20.4799C12.6198 20.9199 12.3398 21.4999 12.3398 22.1099C12.3398 22.4599 12.4298 22.78 12.6098 23.08C13.0698 23.84 14.0498 24.3099 15.1698 24.3099C16.2898 24.3099 17.2698 23.84 17.7198 23.09C17.8998 22.8 17.9898 22.4699 17.9898 22.1199C17.9898 21.5099 17.7098 20.9299 17.1998 20.4799C16.6698 20.0099 15.9498 19.7499 15.1698 19.7499Z" fill="#1C1F2C"/>
<path d="M15.1698 28.55C12.6998 28.55 10.8398 26.96 10.8398 24.86V22.11C10.8398 19.98 12.7798 18.25 15.1698 18.25C16.2998 18.25 17.3798 18.64 18.1898 19.34C19.0298 20.08 19.4998 21.06 19.4998 22.11V24.86C19.4998 26.96 17.6398 28.55 15.1698 28.55ZM15.1698 19.75C13.6098 19.75 12.3398 20.81 12.3398 22.11V24.86C12.3398 26.11 13.5498 27.05 15.1698 27.05C16.7898 27.05 17.9998 26.11 17.9998 24.86V22.11C17.9998 21.5 17.7198 20.92 17.2098 20.47C16.6698 20.01 15.9498 19.75 15.1698 19.75Z" fill="#1C1F2C"/>
<path d="M27.0399 22.8002C25.5299 22.8002 24.2499 21.6802 24.1299 20.2402C24.0499 19.4102 24.3499 18.6002 24.9499 18.0102C25.4499 17.4902 26.1599 17.2002 26.9099 17.2002H28.9999C29.9899 17.2302 30.7499 18.0102 30.7499 18.9702V21.0302C30.7499 21.9902 29.9899 22.7702 29.0299 22.8002H27.0399ZM28.9699 18.7002H26.9199C26.5699 18.7002 26.2499 18.8302 26.0199 19.0702C25.7299 19.3502 25.5899 19.7302 25.6299 20.1102C25.6799 20.7702 26.3199 21.3002 27.0399 21.3002H28.9999C29.1299 21.3002 29.2499 21.1802 29.2499 21.0302V18.9702C29.2499 18.8202 29.1299 18.7102 28.9699 18.7002Z" fill="#1C1F2C"/>
<path d="M24.0002 29.25H21.5002C21.0902 29.25 20.7502 28.91 20.7502 28.5C20.7502 28.09 21.0902 27.75 21.5002 27.75H24.0002C26.5802 27.75 28.2502 26.08 28.2502 23.5V22.8H27.0402C25.5302 22.8 24.2502 21.68 24.1302 20.24C24.0502 19.41 24.3503 18.6 24.9503 18.01C25.4503 17.49 26.1602 17.2 26.9102 17.2H28.2402V16.5C28.2402 14.16 26.8703 12.55 24.6503 12.29C24.4103 12.25 24.2002 12.25 23.9902 12.25H14.9902C14.7502 12.25 14.5202 12.27 14.2902 12.3C12.0902 12.58 10.7402 14.18 10.7402 16.5V18.5C10.7402 18.91 10.4002 19.25 9.99023 19.25C9.58023 19.25 9.24023 18.91 9.24023 18.5V16.5C9.24023 13.42 11.1403 11.19 14.0903 10.82C14.3603 10.78 14.6702 10.75 14.9902 10.75H23.9902C24.2302 10.75 24.5402 10.76 24.8602 10.81C27.8102 11.15 29.7402 13.39 29.7402 16.5V17.95C29.7402 18.36 29.4002 18.7 28.9902 18.7H26.9102C26.5602 18.7 26.2403 18.83 26.0103 19.07C25.7203 19.35 25.5802 19.73 25.6202 20.11C25.6702 20.77 26.3103 21.3 27.0303 21.3H29.0002C29.4102 21.3 29.7502 21.64 29.7502 22.05V23.5C29.7502 26.94 27.4402 29.25 24.0002 29.25Z" fill="#1C1F2C"/>
</svg>
