<svg width="40" height="40" viewBox="0 0 40 40" fill="none" xmlns="http://www.w3.org/2000/svg">
<path d="M13.3335 37.9166C7.1335 37.9166 2.0835 32.8666 2.0835 26.6666C2.0835 21.6 5.4835 17.1333 10.3668 15.8166C10.9835 15.65 11.6168 15.9666 11.8502 16.5666C12.8668 19.1166 15.0335 21.0666 17.6835 21.7833C19.1502 22.1833 20.8502 22.1833 22.2835 21.7833C22.9002 21.6166 23.5502 21.9333 23.7835 22.5333C24.3002 23.85 24.5668 25.25 24.5668 26.6833C24.5668 29.8833 23.2002 32.9333 20.8168 35.05C18.7835 36.8833 16.1168 37.9166 13.3335 37.9166ZM10.0335 18.55C6.7835 19.8833 4.5835 23.0833 4.5835 26.6666C4.5835 31.4833 8.51683 35.4166 13.3335 35.4166C15.5002 35.4166 17.5668 34.6166 19.1668 33.1666C21.0335 31.5166 22.0835 29.15 22.0835 26.6666C22.0835 25.9 21.9835 25.1666 21.8002 24.45C20.2335 24.7 18.5335 24.6167 17.0335 24.2C14.0168 23.3667 11.4835 21.3 10.0335 18.55Z" fill="#1C1F2C"/>
<path d="M20 24.5835C18.9667 24.5835 17.9667 24.4502 17.0333 24.1835C13.65 23.2502 10.8333 20.7502 9.53333 17.4668C9.01667 16.1668 8.75 14.7668 8.75 13.3335C8.75 7.1335 13.8 2.0835 20 2.0835C26.2 2.0835 31.25 7.1335 31.25 13.3335C31.25 14.7668 30.9833 16.1668 30.4667 17.4835C29.1667 20.7502 26.3667 23.2668 22.9667 24.2002C22.0333 24.4502 21.0333 24.5835 20 24.5835ZM20 4.5835C15.1833 4.5835 11.25 8.51683 11.25 13.3335C11.25 14.4502 11.45 15.5335 11.8667 16.5502C12.8833 19.1002 15.05 21.0502 17.7 21.7668C19.1667 22.1668 20.8667 22.1668 22.3 21.7668C24.95 21.0502 27.1333 19.0835 28.1333 16.5502C28.5333 15.5335 28.75 14.4502 28.75 13.3335C28.75 8.51683 24.8167 4.5835 20 4.5835Z" fill="#1C1F2C"/>
<path d="M26.6667 37.9165C23.8833 37.9165 21.2167 36.8832 19.1667 35.0332C18.9 34.7999 18.75 34.4499 18.75 34.0999C18.75 33.7499 18.9 33.3999 19.1667 33.1665C21.0167 31.5332 22.0833 29.1665 22.0833 26.6665C22.0833 25.5499 21.8833 24.4665 21.4667 23.4499C21.3333 23.1165 21.35 22.7499 21.5167 22.4332C21.6833 22.1165 21.9667 21.8832 22.3 21.7832C24.95 21.0665 27.1167 19.1165 28.1333 16.5665C28.3667 15.9665 29.0167 15.6665 29.6167 15.8165C34.5 17.1499 37.9 21.5999 37.9 26.6665C37.9167 32.8665 32.8667 37.9165 26.6667 37.9165ZM21.8667 33.9832C23.2833 34.9165 24.9333 35.4165 26.6667 35.4165C31.4833 35.4165 35.4167 31.4832 35.4167 26.6665C35.4167 23.0832 33.2167 19.8832 29.9667 18.5499C28.7333 20.8999 26.6667 22.7665 24.2 23.7665C24.45 24.6999 24.5833 25.6832 24.5833 26.6665C24.5833 29.3665 23.6167 31.9665 21.8667 33.9832Z" fill="#1C1F2C"/>
</svg>
