<svg width="40" height="40" viewBox="0 0 40 40" fill="none" xmlns="http://www.w3.org/2000/svg">
<circle cx="20" cy="20" r="20" fill="#3FDFAE"/>
<path d="M16 30.7499C12.28 30.7499 9.25 27.7199 9.25 23.9999C9.25 20.9599 11.29 18.2799 14.22 17.4899C14.59 17.3899 14.97 17.5799 15.11 17.9399C15.72 19.4699 17.02 20.6399 18.61 21.0699C19.49 21.3099 20.51 21.3099 21.37 21.0699C21.74 20.9699 22.13 21.1599 22.27 21.5199C22.58 22.3099 22.74 23.1499 22.74 24.0099C22.74 25.9299 21.92 27.7599 20.49 29.0299C19.27 30.1299 17.67 30.7499 16 30.7499ZM14.02 19.1299C12.07 19.9299 10.75 21.8499 10.75 23.9999C10.75 26.8899 13.11 29.2499 16 29.2499C17.3 29.2499 18.54 28.7699 19.5 27.8999C20.62 26.9099 21.25 25.4899 21.25 23.9999C21.25 23.5399 21.19 23.0999 21.08 22.6699C20.14 22.8199 19.12 22.7699 18.22 22.5199C16.41 22.0199 14.89 20.7799 14.02 19.1299Z" fill="#1C1F2C"/>
<path d="M20 22.75C19.38 22.75 18.78 22.67 18.22 22.51C16.19 21.95 14.5 20.45 13.72 18.48C13.41 17.7 13.25 16.86 13.25 16C13.25 12.28 16.28 9.25 20 9.25C23.72 9.25 26.75 12.28 26.75 16C26.75 16.86 26.59 17.7 26.28 18.49C25.5 20.45 23.82 21.96 21.78 22.52C21.22 22.67 20.62 22.75 20 22.75ZM20 10.75C17.11 10.75 14.75 13.11 14.75 16C14.75 16.67 14.87 17.32 15.12 17.93C15.73 19.46 17.03 20.63 18.62 21.06C19.5 21.3 20.52 21.3 21.38 21.06C22.97 20.63 24.28 19.45 24.88 17.93C25.12 17.32 25.25 16.67 25.25 16C25.25 13.11 22.89 10.75 20 10.75Z" fill="#1C1F2C"/>
<path d="M24 30.7502C22.33 30.7502 20.73 30.1302 19.5 29.0202C19.34 28.8802 19.25 28.6702 19.25 28.4602C19.25 28.2502 19.34 28.0402 19.5 27.9002C20.61 26.9202 21.25 25.5002 21.25 24.0002C21.25 23.3302 21.13 22.6802 20.88 22.0702C20.8 21.8702 20.81 21.6502 20.91 21.4602C21.01 21.2702 21.18 21.1302 21.38 21.0702C22.97 20.6402 24.27 19.4702 24.88 17.9402C25.02 17.5802 25.41 17.4002 25.77 17.4902C28.7 18.2902 30.74 20.9602 30.74 24.0002C30.75 27.7202 27.72 30.7502 24 30.7502ZM21.12 28.3902C21.97 28.9502 22.96 29.2502 24 29.2502C26.89 29.2502 29.25 26.8902 29.25 24.0002C29.25 21.8502 27.93 19.9302 25.98 19.1302C25.24 20.5402 24 21.6602 22.52 22.2602C22.67 22.8202 22.75 23.4102 22.75 24.0002C22.75 25.6202 22.17 27.1802 21.12 28.3902Z" fill="#1C1F2C"/>
</svg>
