<svg width="48" height="42" viewBox="0 0 48 42" fill="none" xmlns="http://www.w3.org/2000/svg">
    <g clip-path="url(#clip0_24_30874)">
        <path fill-rule="evenodd" clip-rule="evenodd"
            d="M40.9305 39.9C40.8871 39.9 40.8435 39.9 40.8 39.9L11.842 39.9C9.71442 39.9001 7.88127 39.9002 6.41329 39.7275C4.84005 39.5424 3.33201 39.1251 2.10882 38.0548C0.885629 36.9845 0.408644 35.6649 0.197125 34.2884C-0.000239754 33.0039 -0.000139046 31.3998 -2.00272e-05 29.5382L-1.08719e-05 7.34999C-1.08719e-05 3.2907 3.7608 -6.34194e-06 8.39999 -6.34194e-06L41.4857 -6.34194e-06C41.5128 -6.34194e-06 41.5444 -0.000290728 41.5801 -0.000611162C41.9095 -0.00355516 42.5804 -0.00955529 43.189 0.176761C44.2231 0.493375 45.0361 1.20479 45.3979 2.10961C45.6109 2.64209 45.604 3.22916 45.6007 3.5174C45.6003 3.54857 45.6 3.57626 45.6 3.59999C45.6 3.72568 45.6001 3.84953 45.6002 3.97162C45.6019 6.12033 45.6031 7.71931 45.0612 9.07434C44.8378 9.63316 44.5498 10.1643 44.2048 10.6611C45.0052 10.8013 45.8623 11.0898 46.5941 11.7301C47.4658 12.4929 47.767 13.4112 47.8907 14.2159C48.0004 14.9297 48.0002 15.7952 48 16.6857C48 16.7238 48 16.7619 48 16.8L48 33.6C48 33.6381 48 33.6762 48 33.7142C48.0002 34.6048 48.0004 35.4703 47.8907 36.1841C47.767 36.9888 47.4658 37.9071 46.5941 38.6698C45.7224 39.4326 44.6729 39.6962 43.7532 39.8044C42.9374 39.9004 41.9483 39.9002 40.9305 39.9ZM32.9143 14.7C33.0579 14.7 33.1994 14.7001 33.3389 14.7002C33.612 14.7003 33.8772 14.7005 34.1351 14.7L40.8 14.7C41.9992 14.7 42.6572 14.7045 43.1136 14.7582C43.1196 14.7589 43.1254 14.7596 43.1311 14.7603C43.1319 14.7652 43.1327 14.7703 43.1335 14.7755C43.1949 15.1749 43.2 15.7507 43.2 16.8L43.2 18.9H36C35.9564 18.9 35.9129 18.9 35.8694 18.9C34.8516 18.8998 33.8625 18.8996 33.0467 18.9956C32.127 19.1038 31.0776 19.3674 30.2059 20.1301C29.3341 20.8929 29.0329 21.8112 28.9092 22.6159C28.7996 23.3297 28.7998 24.1952 28.8 25.0857C28.8 25.1238 28.8 25.1619 28.8 25.2C28.8 25.2381 28.8 25.2762 28.8 25.3143C28.7998 26.2048 28.7996 27.0703 28.9092 27.7841C29.0329 28.5888 29.3341 29.5071 30.2059 30.2698C31.0776 31.0326 32.127 31.2962 33.0467 31.4044C33.8625 31.5004 34.8516 31.5002 35.8694 31.5C35.9129 31.5 35.9564 31.5 36 31.5H43.2V33.6C43.2 34.6493 43.1949 35.225 43.1335 35.6244C43.1327 35.6296 43.1319 35.6347 43.1311 35.6397C43.1254 35.6404 43.1196 35.6411 43.1136 35.6418C42.6572 35.6955 41.9992 35.7 40.8 35.7L12 35.7C9.6694 35.7 8.16289 35.6955 7.05288 35.565C6.0119 35.4425 5.68563 35.2448 5.50293 35.0849C5.32023 34.9251 5.09428 34.6396 4.95432 33.7287C4.80508 32.7575 4.79999 31.4393 4.79999 29.4L4.79999 13.9927C5.8911 14.4462 7.11167 14.7 8.39998 14.7L32.9143 14.7ZM32.9143 10.5C35.9878 10.5 36.9125 10.4703 37.5853 10.2643C38.9641 9.84215 40.0482 8.8936 40.5306 7.68716C40.7475 7.14476 40.7934 6.41517 40.7993 4.19999L8.39999 4.19999C6.41177 4.19999 4.79999 5.61029 4.79999 7.34999C4.79999 9.08969 6.41176 10.5 8.39998 10.5L32.9143 10.5ZM43.2 27.3V23.1H36C34.8007 23.1 34.1428 23.1045 33.6863 23.1582C33.6804 23.1589 33.6745 23.1596 33.6688 23.1602C33.668 23.1652 33.6672 23.1703 33.6664 23.1755C33.6051 23.5749 33.6 24.1507 33.6 25.2C33.6 26.2493 33.6051 26.825 33.6664 27.2244C33.6672 27.2296 33.668 27.2347 33.6688 27.2397C33.6745 27.2404 33.6804 27.2411 33.6863 27.2418C34.1428 27.2955 34.8007 27.3 36 27.3H43.2Z"
            fill="none" />
    </g>
    <defs>
        <clipPath id="clip0_24_30874">
            <rect width="48" height="42" fill="none" />
        </clipPath>
    </defs>
</svg>