<svg width="20" height="20" viewBox="0 0 20 20" fill="none" xmlns="http://www.w3.org/2000/svg">
    <path
        d="M10 4.375H8.75V1.25C8.75 1.08424 8.81585 0.925268 8.93306 0.808058C9.05027 0.690848 9.20924 0.625 9.375 0.625C9.54076 0.625 9.69973 0.690848 9.81694 0.808058C9.93415 0.925268 10 1.08424 10 1.25V4.375ZM15 9.65781V5.625C15 5.29348 14.8683 4.97554 14.6339 4.74112C14.3995 4.5067 14.0815 4.375 13.75 4.375H10V9.11641L11.4328 7.68281C11.4909 7.62474 11.5598 7.57868 11.6357 7.54725C11.7116 7.51583 11.7929 7.49965 11.875 7.49965C11.9571 7.49965 12.0384 7.51583 12.1143 7.54725C12.1902 7.57868 12.2591 7.62474 12.3172 7.68281C12.3753 7.74088 12.4213 7.80982 12.4527 7.88569C12.4842 7.96156 12.5003 8.04288 12.5003 8.125C12.5003 8.20712 12.4842 8.28844 12.4527 8.36431C12.4213 8.44018 12.3753 8.50912 12.3172 8.56719L9.81719 11.0672C9.75914 11.1253 9.69021 11.1714 9.61434 11.2029C9.53846 11.2343 9.45713 11.2505 9.375 11.2505C9.29287 11.2505 9.21154 11.2343 9.13566 11.2029C9.05979 11.1714 8.99086 11.1253 8.93281 11.0672L6.43281 8.56719C6.31554 8.44991 6.24965 8.29085 6.24965 8.125C6.24965 7.95915 6.31554 7.80009 6.43281 7.68281C6.55009 7.56554 6.70915 7.49965 6.875 7.49965C7.04085 7.49965 7.19991 7.56554 7.31719 7.68281L8.75 9.11641V4.375H5C4.66848 4.375 4.35054 4.5067 4.11612 4.74112C3.8817 4.97554 3.75 5.29348 3.75 5.625V15.625C3.75 15.7908 3.81585 15.9497 3.93306 16.0669C4.05027 16.1842 4.20924 16.25 4.375 16.25H10.2109C10.2359 16.3023 10.2633 16.3547 10.293 16.4062L10.3117 16.4359L12.0508 19.0922C12.1415 19.2309 12.2837 19.3279 12.4459 19.3618C12.6082 19.3957 12.7773 19.3638 12.916 19.273C13.0547 19.1823 13.1517 19.0401 13.1856 18.8779C13.2196 18.7156 13.1876 18.5465 13.0969 18.4078L11.368 15.768C11.2454 15.5515 11.2138 15.2953 11.2802 15.0556C11.3466 14.8159 11.5055 14.6124 11.7219 14.4898C11.9383 14.3673 12.1945 14.3357 12.4342 14.4021C12.6739 14.4685 12.8774 14.6273 13 14.8438C13.0055 14.8539 13.0117 14.8641 13.018 14.8734L13.8523 16.1477C13.9261 16.2601 14.0342 16.3458 14.1605 16.392C14.2868 16.4381 14.4247 16.4423 14.5536 16.4039C14.6825 16.3655 14.7955 16.2865 14.876 16.1787C14.9564 16.0708 14.9999 15.94 15 15.8055V11.25C15.5891 11.7953 16.0596 12.4561 16.3822 13.1912C16.7048 13.9263 16.8725 14.7199 16.875 15.5227V18.75C16.875 18.9158 16.9408 19.0747 17.0581 19.1919C17.1753 19.3092 17.3342 19.375 17.5 19.375C17.6658 19.375 17.8247 19.3092 17.9419 19.1919C18.0592 19.0747 18.125 18.9158 18.125 18.75V15.5195C18.1215 14.3617 17.8349 13.2224 17.2902 12.2007C16.7455 11.179 15.9593 10.3061 15 9.65781Z"
        fill="#242526" />
</svg>