<svg width="16" height="16" viewBox="0 0 16 16" fill="none" xmlns="http://www.w3.org/2000/svg">
<path fill-rule="evenodd" clip-rule="evenodd" d="M8.0001 14.4001C11.5347 14.4001 14.4001 11.5347 14.4001 8.0001C14.4001 4.46548 11.5347 1.6001 8.0001 1.6001C4.46548 1.6001 1.6001 4.46548 1.6001 8.0001C1.6001 11.5347 4.46548 14.4001 8.0001 14.4001ZM11.6127 6.50695C11.9663 6.08267 11.9089 5.45211 11.4847 5.09854C11.0604 4.74498 10.4298 4.8023 10.0763 5.22658L7.92274 7.81079C7.57602 8.22685 7.38111 8.4572 7.22549 8.59874L7.21955 8.60413L7.21314 8.59931C7.04534 8.47243 6.83038 8.26068 6.44741 7.87771L5.86269 7.29299C5.47217 6.90247 4.839 6.90247 4.44848 7.29299C4.05795 7.68352 4.05795 8.31668 4.44848 8.7072L5.0332 9.29193L5.07403 9.33277C5.40052 9.65939 5.71461 9.97359 6.00685 10.1946C6.33422 10.4421 6.76294 10.6749 7.31235 10.65C7.86176 10.625 8.26764 10.3544 8.57125 10.0782C8.84228 9.83172 9.12664 9.49037 9.42222 9.13553L9.45918 9.09116L11.6127 6.50695Z" fill="#3FDFAE"/>
</svg>
