<svg viewBox="0 0 12 12" fill="none" xmlns="http://www.w3.org/2000/svg">
<path fill-rule="evenodd" clip-rule="evenodd" d="M7.2 1.4488L9.3514 3.60022H7.79998C7.50019 3.60022 7.3357 3.59895 7.22158 3.5836C7.2201 3.5834 7.21864 3.5832 7.21721 3.583C7.21701 3.58158 7.21682 3.58012 7.21662 3.57863C7.20127 3.46452 7.2 3.30003 7.2 3.00024V1.4488ZM9.59992 4.80019V9.00008C9.59992 9.58271 9.59865 9.95932 9.56134 10.2368C9.52635 10.4971 9.46986 10.5786 9.42419 10.6243C9.37852 10.67 9.29695 10.7265 9.03672 10.7614C8.75922 10.7988 8.38261 10.8 7.79998 10.8H4.2001C3.61747 10.8 3.24086 10.7988 2.96336 10.7614C2.70313 10.7265 2.62156 10.67 2.57589 10.6243C2.53022 10.5786 2.47373 10.4971 2.43874 10.2368C2.40143 9.95932 2.40016 9.58271 2.40016 9.00008V3.00024C2.40016 2.4176 2.40143 2.04099 2.43874 1.76349C2.47373 1.50325 2.53022 1.42169 2.57589 1.37602C2.62156 1.33034 2.70313 1.27385 2.96336 1.23887C3.24086 1.20156 3.61747 1.20028 4.2001 1.20028H6.00004V3.00024C6.00004 3.01113 6.00004 3.02201 6.00004 3.03288C5.99999 3.28732 5.99994 3.53459 6.02736 3.73853C6.05827 3.96844 6.13358 4.2308 6.3515 4.44873C6.56942 4.66665 6.83178 4.74196 7.06169 4.77287C7.26563 4.80029 7.5129 4.80024 7.76733 4.80019C7.7782 4.80019 7.78909 4.80019 7.79998 4.80019H9.59992ZM6.75383 0.00016389C6.94368 -0.000674153 7.1852 -0.00174022 7.41068 0.0916578C7.63616 0.185055 7.8062 0.356595 7.93985 0.49143C7.9521 0.503795 7.96405 0.51585 7.97571 0.527509L10.2727 2.82451C10.2843 2.83616 10.2964 2.84811 10.3088 2.86037C10.4436 2.99402 10.6151 3.16405 10.7085 3.38953C10.8019 3.61502 10.8009 3.85655 10.8 4.04639C10.8 4.0638 10.7999 4.08078 10.7999 4.09726L10.7999 9.03958C10.7999 9.57145 10.7999 10.0297 10.7506 10.3967C10.6977 10.79 10.5785 11.167 10.2727 11.4728C9.9669 11.7786 9.5899 11.8978 9.19661 11.9507C8.82962 12.0001 8.37134 12 7.83946 12H4.16062C3.62874 12 3.17046 12.0001 2.80347 11.9507C2.41017 11.8978 2.03318 11.7786 1.72739 11.4728C1.4216 11.167 1.30236 10.79 1.24948 10.3967C1.20014 10.0297 1.20017 9.57145 1.2002 9.03957L1.2002 3.00024C1.2002 2.98703 1.2002 2.97386 1.2002 2.96074C1.20017 2.42886 1.20014 1.97058 1.24948 1.6036C1.30236 1.2103 1.4216 0.833299 1.72739 0.527509C2.03318 0.22172 2.41017 0.102476 2.80347 0.0495987C3.17045 0.000258661 3.62873 0.000284336 4.1606 0.000314233C4.17372 0.000314948 4.18689 0.000315663 4.2001 0.000315663H6.70296C6.71945 0.000315663 6.73642 0.000240707 6.75383 0.00016389Z" fill="#486060"/>
</svg>