<svg width="16" height="20" viewBox="0 0 16 20" fill="none" xmlns="http://www.w3.org/2000/svg">
<path fill-rule="evenodd" clip-rule="evenodd" d="M9.99967 2.41467L13.5853 6.00037H10.9996C10.5 6.00037 10.2258 5.99824 10.0356 5.97267C10.0332 5.97234 10.0307 5.97201 10.0284 5.97167C10.028 5.9693 10.0277 5.96687 10.0274 5.96439C10.0018 5.7742 9.99967 5.50005 9.99967 5.00039V2.41467ZM13.9995 8.00031V15.0001C13.9995 15.9712 13.9974 16.5989 13.9352 17.0614C13.8769 17.4951 13.7828 17.631 13.7067 17.7072C13.6305 17.7833 13.4946 17.8774 13.0609 17.9357C12.5984 17.9979 11.9707 18 10.9996 18H4.99984C4.02879 18 3.4011 17.9979 2.93861 17.9357C2.50489 17.8774 2.36894 17.7833 2.29282 17.7072C2.2167 17.631 2.12256 17.4951 2.06424 17.0614C2.00206 16.5989 1.99994 15.9712 1.99994 15.0001V5.00039C1.99994 4.02934 2.00206 3.40165 2.06424 2.93915C2.12256 2.50542 2.2167 2.36948 2.29282 2.29336C2.36894 2.21724 2.50489 2.12309 2.93861 2.06478C3.4011 2.0026 4.02879 2.00047 4.99984 2.00047H7.99974V5.00039C7.99974 5.01855 7.99974 5.03669 7.99973 5.0548C7.99965 5.47886 7.99957 5.89098 8.04527 6.23088C8.09679 6.61407 8.2223 7.05134 8.58551 7.41454C8.94871 7.77775 9.38597 7.90327 9.76916 7.95479C10.1091 8.00048 10.5212 8.0004 10.9452 8.00032C10.9633 8.00032 10.9815 8.00031 10.9996 8.00031H13.9995ZM9.25605 0.00027315C9.57247 -0.00112359 9.97501 -0.00290036 10.3508 0.152763C10.7266 0.308426 11.01 0.594325 11.2328 0.819051C11.2532 0.839658 11.2731 0.859751 11.2925 0.879182L15.1208 4.70751C15.1403 4.72694 15.1603 4.74685 15.181 4.76728C15.4057 4.99003 15.6916 5.27342 15.8472 5.64922C16.0029 6.02503 16.0011 6.42758 15.9997 6.74399C15.9996 6.773 15.9995 6.80129 15.9995 6.82877L15.9995 15.066C15.9995 15.9524 15.9996 16.7162 15.9173 17.3279C15.8292 17.9834 15.6305 18.6117 15.1208 19.1213C14.6112 19.631 13.9828 19.8297 13.3274 19.9179C12.7157 20.0001 11.9519 20 11.0654 20H4.93403C4.04757 20 3.28377 20.0001 2.67212 19.9179C2.01663 19.8297 1.3883 19.631 0.878655 19.1213C0.36901 18.6117 0.170272 17.9834 0.0821426 17.3279C-9.01863e-05 16.7162 -4.7388e-05 15.9524 2.43983e-06 15.066L4.82394e-06 5.00039C4.82394e-06 4.97838 3.63189e-06 4.95643 2.43983e-06 4.93456C-4.7388e-05 4.0481 -9.01863e-05 3.28431 0.0821426 2.67266C0.170272 2.01716 0.36901 1.38883 0.878655 0.879182C1.3883 0.369534 2.01663 0.170794 2.67213 0.0826644C3.28377 0.000431101 4.04755 0.000473893 4.93401 0.000523722C4.95588 0.000524914 4.97782 0.000526106 4.99984 0.000526106H9.17127C9.19875 0.000526106 9.22704 0.000401178 9.25605 0.00027315Z" fill="#73B1B1"/>
</svg>
