<svg width="24" height="24" viewBox="0 0 24 24" fill="none" xmlns="http://www.w3.org/2000/svg">
<path d="M4 20H3.25V20.75H4V20ZM9.53033 15.5303C9.82322 15.2374 9.82322 14.7626 9.53033 14.4697C9.23744 14.1768 8.76256 14.1768 8.46967 14.4697L9.53033 15.5303ZM3.25 14V20H4.75V14H3.25ZM4 20.75H10V19.25H4V20.75ZM4.53033 20.5303L9.53033 15.5303L8.46967 14.4697L3.46967 19.4697L4.53033 20.5303Z" fill="#73B1B1"/>
<path d="M20 4H20.75V3.25H20V4ZM14.4697 8.46967C14.1768 8.76256 14.1768 9.23744 14.4697 9.53033C14.7626 9.82322 15.2374 9.82322 15.5303 9.53033L14.4697 8.46967ZM20.75 10V4H19.25V10H20.75ZM20 3.25H14V4.75H20V3.25ZM19.4697 3.46967L14.4697 8.46967L15.5303 9.53033L20.5303 4.53033L19.4697 3.46967Z" fill="#73B1B1"/>
</svg>
