<svg width="165" height="34" viewBox="0 0 165 34" fill="none" xmlns="http://www.w3.org/2000/svg">
<path fill-rule="evenodd" clip-rule="evenodd" d="M31.138 2.86195H2.86195V31.138H31.138V2.86195ZM0 0V34H34V0H0Z" fill="white"/>
<path d="M8.35723 8.92925V11.4478H23.4683V13.9663H8.35723V16.4848H25.9869V8.92925H8.35723ZM8.35723 19.0033V26.5589H25.9869V24.0404H10.8757V21.5218H25.9869V19.0033H8.35723Z" fill="white"/>
<path d="M47.5673 9.04381L49.3554 13.2245H63.711V9.04381H47.5673ZM53.6369 15.6171L43.3865 22.4927V26.6734H63.711L61.9228 22.4927H50.9169L61.1673 15.6171H53.6369Z" fill="white"/>
<path d="M72.6787 19.4957V13.2245H84.6416V22.4927H72.6787L74.4668 26.6734H87.6387C88.2935 26.6734 88.8224 26.1445 88.8224 25.4897V10.2275C88.8224 9.57269 88.2935 9.04381 87.6387 9.04381H69.6816C69.0268 9.04381 68.4979 9.57269 68.4979 10.2275V19.4957H72.6787Z" fill="white"/>
<path d="M114.18 9.04381L104.03 18.0097L98.036 12.746V18.312L104.03 23.6008L109.999 18.312V26.6734H114.18V9.04381ZM93.8553 26.6734H98.036V21.5105L93.8553 17.8083V26.6734Z" fill="white"/>
<path d="M123.393 9.04381V13.2245H137.749L139.537 9.04381H123.393ZM119.213 15.3149V26.6734H139.537L137.749 22.4927H123.393V19.4957H135.961V15.3149H119.213Z" fill="white"/>
<path d="M154.688 9.04381L151.867 15.6171V26.6734H156.073V16.4734L157.458 13.2245H162.344L164.132 9.04381H154.688ZM143.808 9.04381V13.2245H149.273L151.061 9.04381H143.808Z" fill="white"/>
</svg>
