<svg width="31" height="40" viewBox="0 0 31 40" fill="none" xmlns="http://www.w3.org/2000/svg">
<path d="M8.93756 3.5874C8.44187 2.67456 8.76899 1.5165 9.72476 1.12848C12.5805 -0.0308902 15.7278 -0.30976 18.7637 0.351392C22.4101 1.14554 25.6511 3.24268 27.8918 6.25797C30.1325 9.27326 31.2226 13.0044 30.9621 16.7668C30.7453 19.8991 29.6044 22.8781 27.7083 25.3289C27.0737 26.1491 25.8826 26.1445 25.1534 25.409C24.4243 24.6736 24.4371 23.4868 25.0403 22.6427C26.3187 20.8539 27.0874 18.7297 27.2415 16.5035C27.4393 13.6464 26.6115 10.8131 24.91 8.52333C23.2085 6.2336 20.7474 4.64109 17.9783 4.03804C15.8207 3.56815 13.5889 3.72354 11.5339 4.46716C10.5642 4.81805 9.43325 4.50025 8.93756 3.5874Z" fill="white"/>
<path d="M8.88463 27.7277C8.38493 28.6383 7.24153 28.9757 6.40742 28.3648C4.33956 26.8503 2.66548 24.8363 1.54563 22.4945C0.42578 20.1528 -0.0957481 17.5753 0.0144361 14.996C0.0588809 13.9556 1.03048 13.2589 2.04668 13.4284C3.06288 13.5979 3.73506 14.5709 3.72987 15.6123C3.72088 17.4186 4.11871 19.2119 4.90343 20.8529C5.68816 22.4939 6.83128 23.9229 8.23704 25.0375C9.04751 25.6801 9.38432 26.8171 8.88463 27.7277Z" fill="white"/>
<path d="M6.54249 32.4575C6.54249 31.4673 7.33637 30.6646 8.31567 30.6646H22.868C23.8473 30.6646 24.6411 31.4673 24.6411 32.4575C24.6411 33.4477 23.8473 34.2504 22.868 34.2504H8.31567C7.33637 34.2504 6.54249 33.4477 6.54249 32.4575Z" fill="white"/>
<path d="M9.11054 38.2071C9.11054 37.2169 9.90442 36.4142 10.8837 36.4142H20.1776C21.1569 36.4142 21.9508 37.2169 21.9508 38.2071C21.9508 39.1973 21.1569 40 20.1776 40H10.8837C9.90442 40 9.11054 39.1973 9.11054 38.2071Z" fill="white"/>
<path d="M15.4941 19.345H10.6207C10.5346 19.345 10.4916 19.345 10.4735 19.3165C10.4555 19.288 10.4736 19.2485 10.5098 19.1694L15.4664 8.34409C15.4893 8.29412 15.5007 8.26913 15.5127 8.27181C15.5247 8.27448 15.5247 8.30201 15.5247 8.35707V15.6047C15.5247 15.6193 15.5247 15.6265 15.5292 15.6311C15.5337 15.6356 15.5409 15.6356 15.5553 15.6356H20.4287C20.5148 15.6356 20.5578 15.6356 20.5759 15.6641C20.5939 15.6927 20.5758 15.7322 20.5396 15.8112L15.583 26.6365C15.5601 26.6865 15.5487 26.7115 15.5367 26.7088C15.5247 26.7062 15.5247 26.6786 15.5247 26.6236V19.3759C15.5247 19.3614 15.5247 19.3541 15.5202 19.3496C15.5157 19.345 15.5085 19.345 15.4941 19.345Z" fill="#14EC8A"/>
</svg>
