<svg width="22" height="22" viewBox="0 0 22 22" fill="none" xmlns="http://www.w3.org/2000/svg">
<path fill-rule="evenodd" clip-rule="evenodd" d="M12.5113 11.5292L14.0212 13.0241L10.2434 16.7646L14.0212 20.5051L12.5113 22L7.22364 16.7646L12.5113 11.5292Z" fill="#486060"/>
<path fill-rule="evenodd" clip-rule="evenodd" d="M15.5 1.19386C13.7842 0.213051 11.7895 -0.179794 9.82527 0.0762472C7.86101 0.332289 6.03697 1.22291 4.63605 2.60998C3.23513 3.99704 2.33561 5.80304 2.07701 7.74787C1.81841 9.69269 2.21518 11.6677 3.20578 13.3665C3.5006 13.8721 4.15356 14.0453 4.6642 13.7534C5.17485 13.4615 5.3498 12.815 5.05499 12.3094C4.29941 11.0136 3.99677 9.50723 4.19402 8.02382C4.39126 6.54041 5.07737 5.16289 6.14592 4.10491C7.21447 3.04693 8.60575 2.36761 10.104 2.17231C11.6022 1.97702 13.1237 2.27666 14.4324 3.02477C15.7411 3.77287 16.7639 4.92763 17.3422 6.30995C17.9205 7.69227 18.0219 9.2249 17.6308 10.6701C17.2397 12.1154 16.3779 13.3924 15.179 14.3033C13.9801 15.2141 12.5112 15.7078 11 15.7078C10.4104 15.7078 9.93237 16.1811 9.93237 16.7649C9.93237 17.3487 10.4104 17.822 11 17.822C12.9812 17.822 14.9071 17.1747 16.4789 15.9805C18.0506 14.7864 19.1806 13.1121 19.6933 11.2173C20.2061 9.32254 20.0731 7.31319 19.3149 5.5009C18.5567 3.68861 17.2158 2.17466 15.5 1.19386Z" fill="#486060"/>
</svg>
