<svg width="20" height="20" viewBox="0 0 20 20" fill="none" xmlns="http://www.w3.org/2000/svg">
<path fill-rule="evenodd" clip-rule="evenodd" d="M11.3741 10.4811L12.7467 11.8401L9.31233 15.2405L12.7467 18.641L11.3741 20L6.56712 15.2405L11.3741 10.4811Z" fill="#486060"/>
<path fill-rule="evenodd" clip-rule="evenodd" d="M14.0911 1.08532C12.5313 0.193683 10.7179 -0.163449 8.93224 0.0693156C7.14655 0.302081 5.48834 1.11173 4.21477 2.3727C2.9412 3.63367 2.12346 5.27549 1.88837 7.04352C1.65328 8.81154 2.01398 10.607 2.91453 12.1513C3.18254 12.611 3.77614 12.7684 4.24036 12.5031C4.70458 12.2377 4.86364 11.65 4.59562 11.1904C3.90873 10.0124 3.63361 8.64294 3.81292 7.29438C3.99223 5.94583 4.61596 4.69353 5.58737 3.73173C6.55878 2.76993 7.82359 2.15237 9.18561 1.97483C10.5476 1.79729 11.9308 2.06969 13.1205 2.74979C14.3102 3.42988 15.2401 4.47967 15.7658 5.73632C16.2915 6.99297 16.3837 8.38627 16.0282 9.70012C15.6726 11.014 14.8891 12.1749 13.7992 13.003C12.7094 13.831 11.374 14.2798 10.0002 14.2798C9.46415 14.2798 9.0296 14.7101 9.0296 15.2408C9.0296 15.7715 9.46415 16.2018 10.0002 16.2018C11.8013 16.2018 13.552 15.6133 14.981 14.5278C16.4099 13.4422 17.437 11.9201 17.9032 10.1976C18.3694 8.47504 18.2484 6.64836 17.5592 5.00082C16.8699 3.35328 15.6509 1.97696 14.0911 1.08532Z" fill="#486060"/>
</svg>
