<svg width="40" height="40" viewBox="0 0 40 40" fill="none" xmlns="http://www.w3.org/2000/svg">
<path class='path-1' d="M20.7586 34.3625C18.0626 34.3625 15.5283 33.311 13.6411 31.4238L5.52612 23.2818C4.77124 22.5269 4.77124 21.3137 5.52612 20.5858C6.28101 19.8309 7.49422 19.8309 8.22214 20.5858L16.3641 28.7278C17.5504 29.914 19.114 30.5611 20.7856 30.5611C22.4571 30.5611 24.0208 29.914 25.207 28.7278C26.2046 27.7303 26.7707 26.3822 26.7707 24.9803C26.7707 23.5514 26.2315 22.2304 25.207 21.2329L20.8125 16.8384C20.0576 16.0835 20.0576 14.8703 20.8125 14.1423C21.5674 13.3875 22.7806 13.3875 23.5086 14.1423L27.8761 18.5099C29.6015 20.2353 30.5452 22.5269 30.5452 24.9534C30.5452 27.3798 29.6015 29.6714 27.8761 31.3968C25.9889 33.311 23.4546 34.3625 20.7586 34.3625Z" fill="#0D7E71"/>
<path class='path-2' d="M19.895 26.4358C19.4097 26.4358 18.9244 26.2471 18.547 25.8697L14.503 21.8257C10.7555 18.0782 10.7555 11.9852 14.503 8.2647C18.2504 4.51724 24.3434 4.51724 28.0639 8.2647L35.3701 15.5709C36.125 16.3258 36.125 17.539 35.3701 18.2669C34.6153 19.0218 33.4021 19.0218 32.6741 18.2669L25.3679 10.9607C23.1033 8.69606 19.4636 8.69606 17.199 10.9607C16.1206 12.0391 15.5005 13.495 15.5005 15.0587C15.5005 16.5954 16.0936 18.0512 17.199 19.1566L21.243 23.2006C21.9979 23.9555 21.9979 25.1687 21.243 25.8966C20.8656 26.2471 20.3803 26.4358 19.895 26.4358Z" fill="#1C1F2C"/>
<path class='path-2' d="M30.7952 19.1757C30.5602 19.104 30.4201 18.949 30.3751 18.7108C30.3301 18.4732 30.4022 18.2749 30.5916 18.116L35.4915 14.003C35.6808 13.8441 35.8888 13.8073 36.1153 13.8926C36.3418 13.9784 36.47 14.1433 36.4999 14.3872L37.2886 20.3021C37.3131 20.5236 37.2386 20.7072 37.065 20.8529C36.8914 20.9986 36.6977 21.0402 36.4838 20.9776L30.7952 19.1757Z" fill="#1C1F2C"/>
<path class='path-1' d="M9.2036 19.0449C9.43865 19.1165 9.57871 19.2714 9.62377 19.5096C9.66888 19.7473 9.59677 19.9456 9.40743 20.1046L4.50844 24.2185C4.31911 24.3775 4.11116 24.4144 3.88461 24.3292C3.6581 24.2433 3.52988 24.0785 3.49994 23.8346L2.70993 17.9199C2.68535 17.6984 2.75984 17.5148 2.93339 17.3691C3.10695 17.2233 3.30068 17.1817 3.51459 17.2442L9.2036 19.0449Z" fill="#0D7E71"/>
</svg>
