<svg width="20" height="20" xmlns="http://www.w3.org/2000/svg" fill="none">

    <g>
        <path id="svg_1" fill="#E4455D"
            d="m10,0c-5.52273,0 -10,4.47727 -10,10c0,5.5227 4.47727,10 10,10c5.5227,0 10,-4.4773 10,-10c0,-5.52273 -4.4773,-10 -10,-10zm3.37,7.91545c0.1656,-0.17145 0.2572,-0.40109 0.2552,-0.63945c-0.0021,-0.23836 -0.0977,-0.46637 -0.2663,-0.63493c-0.1685,-0.16855 -0.3965,-0.26416 -0.6349,-0.26623c-0.2384,-0.00207 -0.468,0.08956 -0.6395,0.25516l-2.0845,2.0845l-2.08455,-2.0845c-0.08386,-0.08683 -0.18417,-0.15608 -0.29508,-0.20373c-0.11091,-0.04764 -0.23021,-0.07272 -0.35091,-0.07377c-0.12071,-0.00105 -0.24042,0.02195 -0.35215,0.06766c-0.11172,0.04571 -0.21322,0.11322 -0.29858,0.19857c-0.08535,0.08536 -0.15286,0.18686 -0.19857,0.29858c-0.04571,0.11173 -0.06871,0.23144 -0.06766,0.35215c0.00105,0.1207 0.02613,0.24 0.07377,0.35091c0.04765,0.11091 0.1169,0.21122 0.20373,0.29508l2.0845,2.08455l-2.0845,2.0845c-0.08683,0.0839 -0.15608,0.1842 -0.20373,0.2951c-0.04764,0.1109 -0.07272,0.2302 -0.07377,0.3509c-0.00105,0.1208 0.02195,0.2405 0.06766,0.3522c0.04571,0.1117 0.11322,0.2132 0.19857,0.2986c0.08536,0.0853 0.18686,0.1528 0.29858,0.1985c0.11173,0.0457 0.23144,0.0687 0.35215,0.0677c0.1207,-0.001 0.24,-0.0261 0.35091,-0.0738c0.11091,-0.0476 0.21122,-0.1169 0.29508,-0.2037l2.08455,-2.0845l2.0845,2.0845c0.1715,0.1656 0.4011,0.2572 0.6395,0.2552c0.2384,-0.0021 0.4664,-0.0977 0.6349,-0.2663c0.1686,-0.1685 0.2642,-0.3965 0.2663,-0.6349c0.002,-0.2384 -0.0896,-0.468 -0.2552,-0.6395l-2.0845,-2.0845l2.0845,-2.08455z"
            clip-rule="evenodd" fill-rule="evenodd" />
    </g>
</svg>