<svg width="32" height="32" viewBox="0 0 32 32" fill="none" xmlns="http://www.w3.org/2000/svg">
<path d="M28.2666 14.6L15.9999 30.6667L3.70655 14.6133L3.82655 14.5067C4.10655 14.2267 4.43988 14 4.77322 13.8133L14.3065 26.2533L11.4399 17.3333L12.3199 15.7467L15.9999 27.1733L19.6399 15.7333L20.5332 17.3333L17.6932 26.2533L27.2132 13.8C27.5465 14 27.8665 14.1867 28.1332 14.4667L28.2666 14.6ZM6.66655 12C8.66655 12 10.4132 13.1467 11.3332 14.8C11.7847 13.9545 12.4573 13.2475 13.2792 12.7543C14.101 12.2612 15.0414 12.0005 15.9999 12C17.9999 12 19.7332 13.1333 20.6665 14.7867C21.1152 13.9398 21.7875 13.2323 22.6103 12.7409C23.4331 12.2496 24.3749 11.9933 25.3332 12C26.7865 12 28.1199 12.56 29.0799 13.52C27.9199 7.33332 22.5065 2.66666 15.9999 2.66666C9.45322 2.66666 4.03988 7.33332 2.87988 13.56C3.85322 12.6 5.18655 12 6.66655 12Z" fill="#14EC8A"/>
</svg>
