<svg width="32" height="32" viewBox="0 0 32 32" fill="none" xmlns="http://www.w3.org/2000/svg">
<path d="M19.253 9.66667C18.9997 9.66667 18.7464 9.57334 18.5464 9.37334L15.8397 6.66667L13.133 9.37334C12.7464 9.76 12.1064 9.76 11.7197 9.37334C11.333 8.98667 11.333 8.34667 11.7197 7.96L15.133 4.54667C15.5197 4.16 16.1597 4.16 16.5464 4.54667L19.9597 7.96C20.3464 8.34667 20.3464 8.98667 19.9597 9.37334C19.7597 9.57334 19.5064 9.66667 19.253 9.66667Z" fill="#14EC8A"/>
<path d="M15.8398 19.9067C15.2932 19.9067 14.8398 19.4533 14.8398 18.9067V5.34666C14.8398 4.8 15.2932 4.34666 15.8398 4.34666C16.3865 4.34666 16.8398 4.8 16.8398 5.34666V18.9067C16.8398 19.4667 16.3865 19.9067 15.8398 19.9067Z" fill="#14EC8A"/>
<path d="M15.9997 27.6667C9.13301 27.6667 4.33301 22.8667 4.33301 16C4.33301 15.4533 4.78634 15 5.33301 15C5.87967 15 6.33301 15.4533 6.33301 16C6.33301 21.6933 10.3063 25.6667 15.9997 25.6667C21.693 25.6667 25.6663 21.6933 25.6663 16C25.6663 15.4533 26.1197 15 26.6663 15C27.213 15 27.6663 15.4533 27.6663 16C27.6663 22.8667 22.8663 27.6667 15.9997 27.6667Z" fill="#14EC8A"/>
</svg>
