<svg width="40" height="40" viewBox="0 0 40 40" fill="none" xmlns="http://www.w3.org/2000/svg"><circle cx="20" cy="20" r="20" fill="#1C1F2C"></circle><path d="M26.12 20.0011H20.16V25.9841H26.12V20.0011ZM14.1965 14.0148C17.4858 14.0148 20.1565 16.6957 20.1565 19.9977H14.1965V14.0148ZM14.1965 20.0011L10.7562 25.9841H17.6379L14.1965 20.0011ZM26.1419 19.9966C27.7867 19.9966 29.1201 18.658 29.1201 17.0068C29.1201 15.3557 27.7867 14.0171 26.1419 14.0171C24.497 14.0171 23.1636 15.3557 23.1636 17.0068C23.1636 18.658 24.497 19.9966 26.1419 19.9966Z" fill="#14EC8A"></path><path d="M19.9376 35.9988C15.6804 35.9988 11.6779 34.3344 8.66733 31.3124C5.65793 28.2902 4 24.2723 4 19.9988C4 15.7253 5.65793 11.7074 8.66847 8.68642C11.6779 5.6643 15.6804 4 19.9376 4C24.1947 4 28.1973 5.6643 31.2078 8.68642C34.2183 11.7085 35.8764 15.7265 35.8764 20C35.8764 24.2735 34.2183 28.2914 31.2078 31.3136C28.1973 34.3356 24.1947 36 19.9376 36V35.9988ZM19.9376 5.98352C16.2081 5.98352 12.701 7.44195 10.0637 10.0893C7.42647 12.7367 5.97362 16.2562 5.97362 20.0011C5.97362 23.7461 7.42647 27.2655 10.0637 29.9128C12.701 32.5604 16.2069 34.0187 19.9376 34.0187C23.6682 34.0187 27.1741 32.5604 29.8114 29.9128C32.4485 27.2655 33.9015 23.7461 33.9015 20.0011C33.9015 16.2562 32.4485 12.7367 29.8114 10.0893C27.1741 7.44195 23.6682 5.98352 19.9376 5.98352Z" fill="#14EC8A"></path></svg>