<svg width="32" height="32" viewBox="0 0 32 32" fill="none" xmlns="http://www.w3.org/2000/svg">
<path fill-rule="evenodd" clip-rule="evenodd" d="M12.337 2.34336C12.4612 2.20243 12.6222 2.0988 12.8019 2.04403C12.9816 1.98926 13.173 1.98551 13.3547 2.0332C15.6029 2.61906 19.0573 4.14151 21.9683 6.8519C24.9017 9.58662 27.302 13.5539 27.302 18.9645C27.302 21.1073 26.8215 23.7285 25.1572 25.8997C23.4665 28.1093 20.6628 29.7108 16.3124 29.9805H16.3002C10.5024 30.2724 6.43172 27.2599 4.79576 23.1102C3.17398 18.997 3.98689 13.8803 7.64197 9.99815C7.73866 9.89515 7.85581 9.8135 7.98591 9.75843C8.11601 9.70337 8.25618 9.67611 8.39743 9.6784C8.53868 9.68069 8.67789 9.71248 8.80614 9.77174C8.93438 9.83099 9.04882 9.9164 9.14212 10.0225L11.7066 12.9336C12.6452 11.2591 13.1013 9.79948 13.1702 8.33786C13.2412 6.8519 12.9127 5.28283 12.1566 3.39144C12.0869 3.21699 12.0671 3.02661 12.0993 2.84154C12.1315 2.65647 12.2145 2.48399 12.339 2.34336H12.337ZM12.2357 17.7604C12.2357 17.5607 12.275 17.363 12.3514 17.1785C12.4278 16.9941 12.5398 16.8265 12.681 16.6853C12.8222 16.5441 12.9898 16.4321 13.1742 16.3557C13.3587 16.2793 13.5564 16.24 13.7561 16.24C13.9557 16.24 14.1534 16.2793 14.3379 16.3557C14.5224 16.4321 14.69 16.5441 14.8312 16.6853C14.9724 16.8265 15.0843 16.9941 15.1608 17.1785C15.2372 17.363 15.2765 17.5607 15.2765 17.7604C15.2765 18.1636 15.1163 18.5503 14.8312 18.8355C14.546 19.1206 14.1593 19.2808 13.7561 19.2808C13.3528 19.2808 12.9661 19.1206 12.681 18.8355C12.3958 18.5503 12.2357 18.1636 12.2357 17.7604ZM20.3243 18.0158C20.4184 17.9216 20.493 17.8097 20.5439 17.6866C20.5948 17.5636 20.6209 17.4317 20.6208 17.2985C20.6207 17.1653 20.5944 17.0334 20.5433 16.9104C20.4923 16.7874 20.4175 16.6757 20.3233 16.5816C20.229 16.4874 20.1172 16.4128 19.9941 16.3619C19.871 16.3111 19.7391 16.2849 19.6059 16.285C19.4727 16.2851 19.3409 16.3114 19.2179 16.3625C19.0949 16.4135 18.9831 16.4883 18.889 16.5826L12.2336 23.2379C12.1368 23.3314 12.0596 23.4433 12.0065 23.5669C11.9534 23.6906 11.9254 23.8236 11.9242 23.9582C11.9231 24.0928 11.9487 24.2263 11.9997 24.3508C12.0506 24.4754 12.1259 24.5886 12.2211 24.6837C12.3162 24.7789 12.4294 24.8542 12.554 24.9051C12.6785 24.9561 12.812 24.9818 12.9466 24.9806C13.0812 24.9794 13.2142 24.9515 13.3379 24.8983C13.4615 24.8452 13.5734 24.768 13.6669 24.6712L20.3243 18.0158ZM17.6281 23.4954C17.6281 23.0921 17.7883 22.7054 18.0734 22.4203C18.3585 22.1352 18.7452 21.975 19.1485 21.975C19.5517 21.975 19.9384 22.1352 20.2236 22.4203C20.5087 22.7054 20.6689 23.0921 20.6689 23.4954C20.6689 23.8986 20.5087 24.2854 20.2236 24.5705C19.9384 24.8556 19.5517 25.0158 19.1485 25.0158C18.7452 25.0158 18.3585 24.8556 18.0734 24.5705C17.7883 24.2854 17.6281 23.8986 17.6281 23.4954Z" fill="#14EC8A"/>
</svg>
