<svg width="13" height="21" viewBox="0 0 13 21" fill="none" xmlns="http://www.w3.org/2000/svg">
<path d="M12.336 14.088C12.336 14.92 12.12 15.704 11.688 16.44C11.272 17.16 10.648 17.76 9.816 18.24C9 18.704 8.032 18.976 6.912 19.056V21H5.376V19.032C3.776 18.888 2.488 18.408 1.512 17.592C0.536 16.76 0.032 15.64 0 14.232H3.6C3.696 15.384 4.288 16.08 5.376 16.32V11.736C4.224 11.448 3.296 11.16 2.592 10.872C1.888 10.584 1.28 10.12 0.768 9.48C0.256 8.84 0 7.968 0 6.864C0 5.472 0.496 4.336 1.488 3.456C2.496 2.576 3.792 2.072 5.376 1.944V0H6.912V1.944C8.448 2.072 9.672 2.536 10.584 3.336C11.512 4.136 12.032 5.24 12.144 6.648H8.52C8.472 6.184 8.304 5.784 8.016 5.448C7.744 5.096 7.376 4.848 6.912 4.704V9.24C8.112 9.544 9.056 9.84 9.744 10.128C10.448 10.4 11.056 10.856 11.568 11.496C12.08 12.12 12.336 12.984 12.336 14.088ZM3.504 6.696C3.504 7.224 3.664 7.656 3.984 7.992C4.304 8.312 4.768 8.576 5.376 8.784V4.632C4.8 4.712 4.344 4.928 4.008 5.28C3.672 5.632 3.504 6.104 3.504 6.696ZM6.912 16.368C7.52 16.256 7.992 16.008 8.328 15.624C8.68 15.24 8.856 14.776 8.856 14.232C8.856 13.704 8.688 13.28 8.352 12.96C8.016 12.64 7.536 12.376 6.912 12.168V16.368Z" fill="#14EC8A"/>
</svg>
